<svg viewBox="0 0 18 18" fill="none" xmlns="http://www.w3.org/2000/svg">
<rect width="18" height="18" rx="3" fill="white" style="fill:white;fill-opacity:1;"/>
<path d="M14.532 11.8844L12.6862 13.8635C12.6463 13.9065 12.598 13.9408 12.5442 13.9643C12.4904 13.9878 12.4324 13.9999 12.3737 14H3.62376C3.58203 14 3.54121 13.9878 3.5063 13.9649C3.47139 13.942 3.44391 13.9095 3.42721 13.8712C3.41052 13.833 3.40535 13.7907 3.41232 13.7496C3.41929 13.7084 3.43811 13.6702 3.46647 13.6396L5.31021 11.6604C5.35014 11.6174 5.39849 11.5831 5.45225 11.5597C5.50602 11.5362 5.56404 11.524 5.62271 11.524H14.3727C14.4148 11.5231 14.4562 11.5347 14.4918 11.5573C14.5273 11.58 14.5553 11.6126 14.5724 11.6511C14.5894 11.6896 14.5947 11.7323 14.5875 11.7738C14.5803 11.8154 14.561 11.8538 14.532 11.8844ZM12.6862 7.89794C12.6461 7.85515 12.5978 7.82098 12.544 7.79752C12.4903 7.77405 12.4324 7.76179 12.3737 7.76149H3.62376C3.58203 7.76151 3.54121 7.7737 3.5063 7.79657C3.47139 7.81944 3.44391 7.85199 3.42721 7.89024C3.41052 7.92849 3.40535 7.97078 3.41232 8.01192C3.41929 8.05307 3.43811 8.09129 3.46647 8.1219L5.31021 10.1021C5.35029 10.1449 5.39867 10.1791 5.4524 10.2025C5.50613 10.226 5.56408 10.2383 5.62271 10.2386H14.3727C14.4143 10.2383 14.455 10.226 14.4897 10.203C14.5245 10.1801 14.5518 10.1475 14.5684 10.1093C14.585 10.0711 14.59 10.0289 14.583 9.98787C14.576 9.94682 14.5572 9.90869 14.5289 9.87814L12.6862 7.89794ZM3.62376 6.47608H12.3737C12.4324 6.47603 12.4904 6.46388 12.5442 6.44041C12.598 6.41693 12.6463 6.38262 12.6862 6.33962L14.532 4.36046C14.5537 4.33759 14.57 4.31022 14.5798 4.2803C14.5897 4.25039 14.5928 4.21868 14.5889 4.18743C14.5851 4.15618 14.5743 4.12617 14.5575 4.09954C14.5408 4.07291 14.5183 4.05031 14.4917 4.03338C14.4562 4.01077 14.4148 3.99917 14.3727 4.00005H5.62271C5.56404 4.00011 5.50602 4.01226 5.45225 4.03573C5.39849 4.05921 5.35014 4.09351 5.31021 4.1365L3.46647 6.11566C3.43811 6.14628 3.41929 6.1845 3.41232 6.22564C3.40535 6.26679 3.41052 6.30907 3.42721 6.34732C3.44391 6.38557 3.47139 6.41812 3.5063 6.44099C3.54121 6.46386 3.58203 6.47605 3.62376 6.47608Z" fill="url(#paint0_linear_1674_4226)" style=""/>
<defs>
<linearGradient id="paint0_linear_1674_4226" x1="4.35293" y1="14.2385" x2="13.5279" y2="3.89484" gradientUnits="userSpaceOnUse">
<stop offset="0.08" stop-color="#9945FF" style="stop-color:#9945FF;stop-color:color(display-p3 0.6000 0.2706 1.0000);stop-opacity:1;"/>
<stop offset="0.3" stop-color="#8752F3" style="stop-color:#8752F3;stop-color:color(display-p3 0.5294 0.3216 0.9529);stop-opacity:1;"/>
<stop offset="0.5" stop-color="#5497D5" style="stop-color:#5497D5;stop-color:color(display-p3 0.3294 0.5922 0.8353);stop-opacity:1;"/>
<stop offset="0.6" stop-color="#43B4CA" style="stop-color:#43B4CA;stop-color:color(display-p3 0.2627 0.7059 0.7922);stop-opacity:1;"/>
<stop offset="0.72" stop-color="#28E0B9" style="stop-color:#28E0B9;stop-color:color(display-p3 0.1569 0.8784 0.7255);stop-opacity:1;"/>
<stop offset="0.97" stop-color="#19FB9B" style="stop-color:#19FB9B;stop-color:color(display-p3 0.0980 0.9843 0.6078);stop-opacity:1;"/>
</linearGradient>
</defs>
</svg>
