<svg width="256" height="256" viewBox="0 0 256 256" fill="none" xmlns="http://www.w3.org/2000/svg">
<path fill-rule="evenodd" clip-rule="evenodd" d="M128 0C57.3026 0 -3.33786e-06 57.3026 -3.33786e-06 128C-3.33786e-06 198.697 57.3026 256 128 256C198.697 256 256 198.697 256 128C256 57.3026 198.697 0 128 0Z" fill="#BDC5D1"/>
<path d="M114.255 59.5352H73.9141C73.0274 59.5352 72.3086 60.2539 72.3086 61.1406V193.25C72.3086 194.137 73.0274 194.855 73.9141 194.855H114.255C115.141 194.855 115.86 194.137 115.86 193.25V61.1406C115.86 60.2539 115.141 59.5352 114.255 59.5352Z" fill="white"/>
<path d="M183.086 59.5352H124.081C123.194 59.5352 122.475 60.2539 122.475 61.1406V122.485C122.475 123.372 123.194 124.091 124.081 124.091H183.086C183.973 124.091 184.691 123.372 184.691 122.485V61.1406C184.691 60.2539 183.973 59.5352 183.086 59.5352Z" fill="white"/>
<path d="M183.086 130.706H124.081C123.194 130.706 122.475 131.424 122.475 132.311V193.655C122.475 194.542 123.194 195.261 124.081 195.261H183.086C183.973 195.261 184.691 194.542 184.691 193.655V132.311C184.691 131.424 183.973 130.706 183.086 130.706Z" fill="white"/>
</svg>
