<svg xmlns="http://www.w3.org/2000/svg" xmlns:xlink="http://www.w3.org/1999/xlink" width="512" zoomAndPan="magnify" viewBox="0 0 384 383.999986" height="512" preserveAspectRatio="xMidYMid meet" version="1.0"><rect x="-38.4" width="460.8" fill="#ffffff" y="-38.399999" height="460.799983" fill-opacity="1"/><path stroke-linecap="butt" transform="matrix(11.636363, 0, 0, 11.636363, 0.0000072, -0.000000000000127898)" fill-opacity="1" fill="#ffffff" fill-rule="nonzero" stroke-linejoin="miter" d="M 2.000061 2.499909 L 8.999939 2.499909 M 12.000031 2.499909 L 13.000062 2.499909 M 15.000123 2.499909 L 17.999879 2.499909 M 18.99991 2.499909 L 22.000001 2.499909 M 24.000063 2.499909 L 30.999941 2.499909 M 2.000061 3.499939 L 3.000091 3.499939 M 7.999909 3.499939 L 8.999939 3.499939 M 14.000092 3.499939 L 19.99994 3.499939 M 24.000063 3.499939 L 25.000093 3.499939 M 29.999911 3.499939 L 30.999941 3.499939 M 2.000061 4.49997 L 3.000091 4.49997 M 4.000122 4.49997 L 6.999878 4.49997 M 7.999909 4.49997 L 8.999939 4.49997 M 9.99997 4.49997 L 16.000153 4.49997 M 16.999848 4.49997 L 17.999879 4.49997 M 19.99994 4.49997 L 23.000032 4.49997 M 24.000063 4.49997 L 25.000093 4.49997 M 26.000124 4.49997 L 28.99988 4.49997 M 29.999911 4.49997 L 30.999941 4.49997 M 2.000061 5.5 L 3.000091 5.5 M 4.000122 5.5 L 6.999878 5.5 M 7.999909 5.5 L 8.999939 5.5 M 9.99997 5.5 L 11 5.5 M 12.000031 5.5 L 13.000062 5.5 M 16.000153 5.5 L 17.999879 5.5 M 18.99991 5.5 L 19.99994 5.5 M 20.999971 5.5 L 22.000001 5.5 M 24.000063 5.5 L 25.000093 5.5 M 26.000124 5.5 L 28.99988 5.5 M 29.999911 5.5 L 30.999941 5.5 M 2.000061 6.500031 L 3.000091 6.500031 M 4.000122 6.500031 L 6.999878 6.500031 M 7.999909 6.500031 L 8.999939 6.500031 M 9.99997 6.500031 L 11 6.500031 M 12.000031 6.500031 L 13.000062 6.500031 M 16.999848 6.500031 L 18.99991 6.500031 M 19.99994 6.500031 L 23.000032 6.500031 M 24.000063 6.500031 L 25.000093 6.500031 M 26.000124 6.500031 L 28.99988 6.500031 M 29.999911 6.500031 L 30.999941 6.500031 M 2.000061 7.500062 L 3.000091 7.500062 M 7.999909 7.500062 L 8.999939 7.500062 M 9.99997 7.500062 L 12.000031 7.500062 M 13.000062 7.500062 L 14.000092 7.500062 M 18.99991 7.500062 L 20.999971 7.500062 M 22.000001 7.500062 L 23.000032 7.500062 M 24.000063 7.500062 L 25.000093 7.500062 M 29.999911 7.500062 L 30.999941 7.500062 M 2.000061 8.500092 L 8.999939 8.500092 M 9.99997 8.500092 L 11 8.500092 M 12.000031 8.500092 L 13.000062 8.500092 M 14.000092 8.500092 L 15.000123 8.500092 M 16.000153 8.500092 L 16.999848 8.500092 M 17.999879 8.500092 L 18.99991 8.500092 M 19.99994 8.500092 L 20.999971 8.500092 M 22.000001 8.500092 L 23.000032 8.500092 M 24.000063 8.500092 L 30.999941 8.500092 M 9.99997 9.500123 L 14.000092 9.500123 M 16.000153 9.500123 L 16.999848 9.500123 M 17.999879 9.500123 L 18.99991 9.500123 M 2.000061 10.500154 L 3.000091 10.500154 M 4.000122 10.500154 L 8.999939 10.500154 M 11 10.500154 L 12.000031 10.500154 M 17.999879 10.500154 L 19.99994 10.500154 M 24.000063 10.500154 L 28.99988 10.500154 M 3.000091 11.499848 L 5.000152 11.499848 M 6.999878 11.499848 L 7.999909 11.499848 M 9.99997 11.499848 L 12.000031 11.499848 M 15.000123 11.499848 L 17.999879 11.499848 M 18.99991 11.499848 L 25.000093 11.499848 M 26.000124 11.499848 L 27.000154 11.499848 M 29.999911 11.499848 L 30.999941 11.499848 M 5.999847 12.499879 L 6.999878 12.499879 M 7.999909 12.499879 L 8.999939 12.499879 M 11 12.499879 L 13.000062 12.499879 M 14.000092 12.499879 L 19.99994 12.499879 M 22.000001 12.499879 L 23.000032 12.499879 M 24.000063 12.499879 L 25.000093 12.499879 M 26.000124 12.499879 L 27.000154 12.499879 M 2.000061 13.49991 L 3.000091 13.49991 M 5.000152 13.49991 L 7.999909 13.49991 M 8.999939 13.49991 L 9.99997 13.49991 M 12.000031 13.49991 L 16.000153 13.49991 M 16.999848 13.49991 L 17.999879 13.49991 M 20.999971 13.49991 L 22.000001 13.49991 M 23.000032 13.49991 L 27.999849 13.49991 M 28.99988 13.49991 L 29.999911 13.49991 M 3.000091 14.49994 L 5.999847 14.49994 M 6.999878 14.49994 L 9.99997 14.49994 M 11 14.49994 L 12.000031 14.49994 M 14.000092 14.49994 L 15.000123 14.49994 M 16.000153 14.49994 L 17.999879 14.49994 M 18.99991 14.49994 L 19.99994 14.49994 M 25.000093 14.49994 L 26.000124 14.49994 M 27.000154 14.49994 L 28.99988 14.49994 M 2.000061 15.499971 L 3.000091 15.499971 M 4.000122 15.499971 L 5.999847 15.499971 M 11 15.499971 L 15.000123 15.499971 M 16.999848 15.499971 L 27.000154 15.499971 M 29.999911 15.499971 L 30.999941 15.499971 M 2.000061 16.500001 L 3.000091 16.500001 M 4.000122 16.500001 L 5.000152 16.500001 M 5.999847 16.500001 L 6.999878 16.500001 M 7.999909 16.500001 L 8.999939 16.500001 M 13.000062 16.500001 L 14.000092 16.500001 M 22.000001 16.500001 L 24.000063 16.500001 M 25.000093 16.500001 L 28.99988 16.500001 M 3.000091 17.500032 L 5.000152 17.500032 M 6.999878 17.500032 L 7.999909 17.500032 M 8.999939 17.500032 L 12.000031 17.500032 M 13.000062 17.500032 L 14.000092 17.500032 M 16.000153 17.500032 L 16.999848 17.500032 M 17.999879 17.500032 L 18.99991 17.500032 M 20.999971 17.500032 L 22.000001 17.500032 M 23.000032 17.500032 L 25.000093 17.500032 M 26.000124 17.500032 L 27.000154 17.500032 M 28.99988 17.500032 L 29.999911 17.500032 M 3.000091 18.500063 L 4.000122 18.500063 M 5.999847 18.500063 L 8.999939 18.500063 M 9.99997 18.500063 L 13.000062 18.500063 M 18.99991 18.500063 L 20.999971 18.500063 M 22.000001 18.500063 L 23.000032 18.500063 M 27.000154 18.500063 L 28.99988 18.500063 M 2.000061 19.500093 L 3.000091 19.500093 M 5.000152 19.500093 L 6.999878 19.500093 M 9.99997 19.500093 L 14.000092 19.500093 M 15.000123 19.500093 L 17.999879 19.500093 M 18.99991 19.500093 L 27.000154 19.500093 M 27.999849 19.500093 L 28.99988 19.500093 M 29.999911 19.500093 L 30.999941 19.500093 M 2.000061 20.500124 L 3.000091 20.500124 M 5.000152 20.500124 L 9.99997 20.500124 M 11 20.500124 L 12.000031 20.500124 M 13.000062 20.500124 L 14.000092 20.500124 M 15.000123 20.500124 L 19.99994 20.500124 M 22.000001 20.500124 L 23.000032 20.500124 M 24.000063 20.500124 L 25.000093 20.500124 M 26.000124 20.500124 L 27.000154 20.500124 M 27.999849 20.500124 L 28.99988 20.500124 M 2.000061 21.500155 L 3.000091 21.500155 M 4.000122 21.500155 L 7.999909 21.500155 M 8.999939 21.500155 L 12.000031 21.500155 M 13.000062 21.500155 L 16.000153 21.500155 M 20.999971 21.500155 L 22.000001 21.500155 M 23.000032 21.500155 L 24.000063 21.500155 M 28.99988 21.500155 L 29.999911 21.500155 M 2.000061 22.499849 L 3.000091 22.499849 M 5.000152 22.499849 L 6.999878 22.499849 M 7.999909 22.499849 L 8.999939 22.499849 M 9.99997 22.499849 L 15.000123 22.499849 M 16.000153 22.499849 L 19.99994 22.499849 M 20.999971 22.499849 L 27.000154 22.499849 M 27.999849 22.499849 L 30.999941 22.499849 M 9.99997 23.49988 L 13.000062 23.49988 M 17.999879 23.49988 L 20.999971 23.49988 M 22.000001 23.49988 L 23.000032 23.49988 M 26.000124 23.49988 L 30.999941 23.49988 M 2.000061 24.499911 L 8.999939 24.499911 M 11 24.499911 L 13.000062 24.499911 M 14.000092 24.499911 L 15.000123 24.499911 M 16.999848 24.499911 L 18.99991 24.499911 M 20.999971 24.499911 L 23.000032 24.499911 M 24.000063 24.499911 L 25.000093 24.499911 M 26.000124 24.499911 L 28.99988 24.499911 M 2.000061 25.499941 L 3.000091 25.499941 M 7.999909 25.499941 L 8.999939 25.499941 M 9.99997 25.499941 L 11 25.499941 M 12.000031 25.499941 L 14.000092 25.499941 M 16.000153 25.499941 L 16.999848 25.499941 M 19.99994 25.499941 L 23.000032 25.499941 M 26.000124 25.499941 L 27.000154 25.499941 M 28.99988 25.499941 L 29.999911 25.499941 M 2.000061 26.499972 L 3.000091 26.499972 M 4.000122 26.499972 L 6.999878 26.499972 M 7.999909 26.499972 L 8.999939 26.499972 M 9.99997 26.499972 L 14.000092 26.499972 M 18.99991 26.499972 L 19.99994 26.499972 M 22.000001 26.499972 L 27.000154 26.499972 M 27.999849 26.499972 L 29.999911 26.499972 M 2.000061 27.500002 L 3.000091 27.500002 M 4.000122 27.500002 L 6.999878 27.500002 M 7.999909 27.500002 L 8.999939 27.500002 M 9.99997 27.500002 L 11 27.500002 M 12.000031 27.500002 L 14.000092 27.500002 M 15.000123 27.500002 L 16.999848 27.500002 M 17.999879 27.500002 L 23.000032 27.500002 M 27.000154 27.500002 L 30.999941 27.500002 M 2.000061 28.500033 L 3.000091 28.500033 M 4.000122 28.500033 L 6.999878 28.500033 M 7.999909 28.500033 L 8.999939 28.500033 M 9.99997 28.500033 L 12.000031 28.500033 M 13.000062 28.500033 L 14.000092 28.500033 M 15.000123 28.500033 L 16.000153 28.500033 M 16.999848 28.500033 L 17.999879 28.500033 M 19.99994 28.500033 L 20.999971 28.500033 M 23.000032 28.500033 L 29.999911 28.500033 M 2.000061 29.500064 L 3.000091 29.500064 M 7.999909 29.500064 L 8.999939 29.500064 M 13.000062 29.500064 L 16.999848 29.500064 M 17.999879 29.500064 L 18.99991 29.500064 M 22.000001 29.500064 L 23.000032 29.500064 M 24.000063 29.500064 L 26.000124 29.500064 M 27.000154 29.500064 L 27.999849 29.500064 M 28.99988 29.500064 L 29.999911 29.500064 M 2.000061 30.500094 L 8.999939 30.500094 M 9.99997 30.500094 L 11 30.500094 M 13.000062 30.500094 L 15.000123 30.500094 M 18.99991 30.500094 L 19.99994 30.500094 M 20.999971 30.500094 L 22.000001 30.500094 M 24.000063 30.500094 L 25.000093 30.500094 M 26.000124 30.500094 L 27.000154 30.500094 M 27.999849 30.500094 L 28.99988 30.500094 " stroke="#000000" stroke-width="1" stroke-opacity="1" stroke-miterlimit="4"/></svg>