<svg width="604" height="105" viewBox="0 0 604 105" fill="none" xmlns="http://www.w3.org/2000/svg">
<g clip-path="url(#clip0_8177_3992)">
<mask id="mask0_8177_3992" style="mask-type:luminance" maskUnits="userSpaceOnUse" x="0" y="0" width="604" height="105">
<path d="M604 0H0V105H604V0Z" fill="white"/>
</mask>
<g mask="url(#mask0_8177_3992)">
<mask id="mask1_8177_3992" style="mask-type:luminance" maskUnits="userSpaceOnUse" x="0" y="0" width="106" height="105">
<path d="M105.043 0H0V105H105.043V0Z" fill="white"/>
</mask>
<g mask="url(#mask1_8177_3992)">
<path fill-rule="evenodd" clip-rule="evenodd" d="M14.4974 16.3188L67.4901 2.13829C62.7691 0.749224 57.769 0 52.5933 0C37.6036 0 24.0762 6.26722 14.4974 16.3188ZM0.104059 55.5082C0.0821522 55.0981 0.0657185 54.6879 0.0492884 54.2778H0.0328589C0.0273845 54.1793 0.0219032 54.0809 0.0219032 53.9825C0.00547303 53.4903 0 52.9981 0 52.5003C0 51.784 0.0219049 51.073 0.0492884 50.3675C5.86008 50.7777 11.5833 51.494 17.2079 52.5003C19.3362 52.8826 21.4557 53.2701 23.5697 53.6566C49.3452 58.3692 74.3196 62.9357 105.043 55.9456C104.852 58.9096 104.414 61.8027 103.751 64.6137C71.6354 71.3511 43.485 65.9699 18.0622 60.9988C12.2788 59.8667 6.36941 59.0628 0.36694 58.609C0.312172 58.1221 0.262879 57.6355 0.219066 57.1489C0.213589 57.1213 0.213592 57.0885 0.213592 57.0613C0.175255 56.6183 0.14239 56.1698 0.115007 55.7215C0.115007 55.6858 0.112269 55.6503 0.109532 55.6149C0.106796 55.5791 0.104059 55.5437 0.104059 55.5082ZM52.593 105C34.6568 105 18.8237 96.0314 9.33252 82.3374L58.612 104.655C56.6349 104.88 54.6305 105 52.593 105ZM12.4587 18.5888C34.7093 15.8545 56.5492 11.7861 77.8907 6.47092C81.0886 8.22619 84.0781 10.304 86.8217 12.6552C60.6922 19.5294 33.8014 24.5443 6.31384 27.563C8.05542 24.3528 10.1147 21.3505 12.4587 18.5888ZM27.9918 66.3308C19.6014 63.7822 9.65021 61.5838 0.67386 60.7963C0.898404 62.2128 1.1832 63.6129 1.51728 64.9911C1.52549 65.0209 1.53234 65.0498 1.53919 65.0783C1.54603 65.1072 1.55288 65.1358 1.56109 65.166C1.72539 65.8222 1.90065 66.4785 2.08685 67.1291C2.09635 67.1577 2.10401 67.1862 2.11196 67.2158C2.11777 67.2371 2.12373 67.2594 2.13067 67.2824C2.32235 67.9386 2.52499 68.5949 2.74406 69.2403C11.2384 70.1482 20.6146 72.7348 28.6216 75.0097C46.8208 80.1777 70.4198 86.7513 93.0114 86.0839C95.1527 83.5193 97.0533 80.7411 98.6798 77.7988C79.9768 79.0896 57.3196 75.2505 27.9972 66.3364L27.9918 66.3308ZM8.36231 80.8943C6.44547 77.9248 4.82435 74.7472 3.53186 71.4115L3.53734 71.4167C7.84202 72.2754 12.081 73.3146 16.2488 74.5175C23.7664 76.69 32.1664 79.8007 40.9072 83.0373C54.4798 88.0632 68.8741 93.3936 82.0626 95.988C78.6122 98.3233 74.8717 100.259 70.9011 101.73C58.4482 98.3814 46.4565 93.9255 35.6875 89.9243C29.7333 87.7118 24.1525 85.6383 19.0748 83.9678C15.5587 82.8138 11.9879 81.7911 8.36231 80.8943ZM98.6355 27.1363C97.2115 24.5659 95.5797 22.1268 93.7612 19.8464C65.2822 26.3269 35.6422 29.7558 5.19729 29.7558C3.93762 32.3699 2.8861 35.1041 2.07006 37.9372C2.4845 37.9391 2.89805 37.9431 3.31143 37.9473C3.93053 37.9532 4.54924 37.9588 5.16988 37.9588C37.34 37.9588 68.6285 34.2074 98.6355 27.1363ZM20.5373 41.2788C38.5391 42.6897 56.6342 42.4981 74.5651 40.3981L74.5759 40.4092C84.5492 39.2388 94.3963 37.6911 102.502 35.9303C103.362 38.5061 104.025 41.1639 104.474 43.8982C98.9749 45.0959 86.1373 47.5512 69.7183 49.181C53.4031 50.8052 36.973 50.8325 20.6304 49.5255C14.0967 49.0061 7.53007 48.596 0.930629 48.3059L0.862309 48.2984C0.643214 48.2734 0.420473 48.2482 0.202224 48.2186C0.213362 48.0628 0.229536 47.9095 0.245624 47.7573C0.253269 47.6848 0.260894 47.6126 0.267951 47.5404C0.279139 47.4232 0.28997 47.3055 0.300808 47.1877C0.332417 46.8444 0.364087 46.5002 0.40487 46.1623C0.422725 46.0054 0.445233 45.8509 0.467844 45.6957C0.479911 45.6127 0.492011 45.5296 0.503447 45.446C0.518028 45.3387 0.532288 45.2314 0.546538 45.1244C0.591165 44.7887 0.635687 44.454 0.689653 44.1223C0.726107 43.8756 0.771551 43.635 0.817117 43.3935C0.833162 43.3086 0.849224 43.2236 0.864912 43.1379C0.879975 43.052 0.894698 42.9657 0.90942 42.8797C0.953572 42.6211 0.997726 42.3629 1.05112 42.1043C1.15518 41.5849 1.27566 41.0655 1.39615 40.5513C1.42001 40.4595 1.43963 40.3676 1.45897 40.277C1.4707 40.2219 1.48232 40.1674 1.49473 40.1139H1.5495C7.90797 40.3928 14.2391 40.7866 20.5373 41.2788Z" fill="#5054F8"/>
</g>
<path d="M155.013 69.5996V23.7342H166.798V69.5996C166.798 74.0762 169.155 76.4324 173.241 76.4324C177.641 76.4324 179.683 73.6834 179.683 69.5211V23.7342H191.469V69.05C191.469 77.846 186.676 84.0502 174.105 84.0502C166.798 84.0502 162.712 81.6158 160.905 79.1024C159.098 81.6158 155.013 84.0502 147.706 84.0502C135.135 84.0502 130.342 77.846 130.342 69.05V23.7342H142.127V69.5211C142.127 73.6834 144.17 76.4324 148.57 76.4324C152.656 76.4324 155.013 74.0762 155.013 69.5996Z" fill="black"/>
<path d="M203.795 82.8722V23.7342H235.223V31.3523H215.58V48.0805H234.044V55.6986H215.58V75.2541H236.008V82.8722H203.795Z" fill="black"/>
<path d="M270.679 82.8723V37.0069C270.679 32.5304 268.322 30.1743 264.236 30.1743C259.836 30.1743 257.793 32.9231 257.793 37.0854V82.8723H246.008V37.5565C246.008 28.7606 250.801 22.5562 263.372 22.5562C270.679 22.5562 274.764 24.9908 276.571 27.504C278.378 24.9908 282.464 22.5562 289.771 22.5562C302.342 22.5562 307.135 28.7606 307.135 37.5565V82.8723H295.349V37.0854C295.349 32.9231 293.307 30.1743 288.907 30.1743C284.821 30.1743 282.464 32.5304 282.464 37.0069V82.8723H270.679Z" fill="black"/>
<path d="M331.245 23.7342V82.8722H319.461V23.7342H331.245Z" fill="black"/>
<path d="M355.037 52.9499L340.817 23.7342H352.68L360.93 42.1119L369.1 23.7342H381.042L366.822 52.9499L381.594 82.8722H369.336L360.93 63.3166L352.523 82.8722H340.266L355.037 52.9499Z" fill="black"/>
<path d="M410.947 65.8298H422.732V68.7356C422.732 72.5055 424.383 76.4325 429.963 76.4325C435.541 76.4325 437.192 72.5055 437.192 68.7356V66.3797C437.192 61.6675 435.462 59.5468 430.512 57.6621L421.32 54.0494C415.428 51.8503 411.341 47.4525 411.341 40.8552V37.5565C411.341 28.4465 416.291 22.5562 429.569 22.5562C442.454 22.5562 447.404 28.4465 447.404 37.5565V40.3056H435.619V37.8709C435.619 33.3943 434.205 30.1743 429.569 30.1743C424.619 30.1743 423.126 33.3943 423.126 37.8709V39.6772C423.126 43.2115 425.325 45.1746 429.018 46.7454L438.682 50.7508C444.341 53.0283 448.976 56.0129 448.976 64.1806V69.05C448.976 78.16 444.105 84.0502 429.963 84.0502C415.819 84.0502 410.947 78.16 410.947 69.05V65.8298Z" fill="black"/>
<path d="M486.177 65.5157H497.965V69.05C497.965 78.16 493.799 84.0502 478.948 84.0502C464.101 84.0502 459.936 78.16 459.936 69.05V37.5565C459.936 28.4465 464.807 22.5562 478.948 22.5562C493.093 22.5562 497.965 28.4465 497.965 37.5565V40.3056H486.177V37.8709C486.177 34.1011 484.529 30.1743 478.948 30.1743C473.371 30.1743 471.72 34.1011 471.72 37.8709V68.7356C471.72 73.2123 473.371 76.4325 478.948 76.4325C484.529 76.4325 486.177 73.2123 486.177 68.7356V65.5157Z" fill="black"/>
<path d="M521.026 57.0337H533.441L529.354 31.3523H525.11L521.026 57.0337ZM534.541 64.6518H519.927L517.097 82.8722H504.84L514.977 23.7342H539.491L549.624 82.8722H537.367L534.541 64.6518Z" fill="black"/>
<path d="M588.28 58.526L592.285 68.5788H592.6L592.206 50.7508V23.7342H603.048V82.8722H589.379L584.114 72.427L573.035 48.0805L569.031 38.028H568.715L569.109 55.8557V82.8722H558.5V23.7342H572.172L577.437 34.1795L588.28 58.526Z" fill="black"/>
</g>
</g>
<defs>
<clipPath id="clip0_8177_3992">
<rect width="604" height="105" fill="white"/>
</clipPath>
</defs>
</svg>
