<svg width="264" height="97" viewBox="0 0 264 97" fill="none" xmlns="http://www.w3.org/2000/svg">
<g clip-path="url(#clip0_705_2107)">
<mask id="mask0_705_2107" style="mask-type:luminance" maskUnits="userSpaceOnUse" x="0" y="0" width="264" height="97">
<path d="M264 0H0V97H264V0Z" fill="white"/>
</mask>
<g mask="url(#mask0_705_2107)">
<path d="M2.58789 81.8788L3.04276 83.598L3.49764 82.6265L3.95251 82.1398L4.40739 82.1472L4.86226 81.9033L5.31714 82.2535L5.77201 82.4099L6.22689 84.049L6.68176 83.9167L7.13663 82.1421L7.59151 80.2377L8.04638 80.4884L8.50126 81.7527L8.95613 81.6829L9.41101 82.1097L9.86588 82.088L10.3208 82.4867L10.7756 82.0095L11.2305 82.0941L11.6854 83.4497L12.1403 82.6106L12.5951 83.5759L13.05 83.4985L13.5049 83.1941L13.9598 83.6201L14.4146 83.9583L14.8695 83.1626L15.3244 83.211L15.7792 82.4534L16.2341 82.1421L16.689 82.339L17.1439 82.6873L17.5987 83.2682L18.0536 81.8449L18.5085 80.3133L18.9634 81.0543L19.4182 82.2094L19.8731 81.7184L20.328 81.4253L20.7829 81.033L21.2377 81.0715L21.6926 81.4397L22.1475 80.9915L22.6024 81.1142L23.0572 81.5714L23.5121 82.51L23.967 82.6837L24.4219 83.9309L24.8767 82.8095L25.3316 82.2692L25.7865 83.7261L26.2414 83.3412L26.6962 82.6844L27.1511 82.2516L27.606 81.8466L28.0609 80.6985L28.5157 81.8366L28.9706 82.6164L29.4255 81.7491L29.8804 80.893L30.3352 81.1619L30.7901 81.4649L31.245 82.1958L31.6999 81.4757L32.1547 81.398L32.6096 79.0254L33.0645 79.8358L33.5193 77.0084L33.9742 81.3859L34.4291 80.9061L34.884 82.3128L35.3388 82.2229L35.7937 79.6038L36.2486 77.3313L36.7035 81.7921L37.1583 77.0004L37.6132 80.92L38.0681 81.3019L38.523 79.91L38.9778 78.5119L39.4327 80.6751L39.8876 81.4247L40.3425 81.5572L40.7973 80.9551L41.2522 81.5296L41.7071 81.3352L42.162 81.2663L42.6168 81.9089L43.0717 81.8798L43.5266 82.5081L43.9815 83.3999L44.4363 84.0009L44.8912 84.2113L45.3461 83.6395L45.801 83.3323L46.2558 83.5198L46.7107 83.7674L47.1656 82.5956L47.6205 82.5035L48.0753 83.0709L48.5302 83.5618L48.9851 84.3114L49.44 82.4876L49.8948 82.8685L50.3497 82.8982L50.8046 83.4905L51.2595 82.9223L51.7143 79.1935L52.1692 78.758L52.6241 83.2595L53.079 82.2369L53.5338 83.1291L53.9887 82.4072L54.4436 82.5662L54.8984 82.602L55.3533 82.2145L55.8082 82.1707L56.2631 82.4015L56.7179 81.7772L57.1728 83.8891L57.6277 84.3609L58.0826 84.5568L58.5374 82.9889L58.9923 81.3777L59.4472 82.8654L59.9021 83.1674L60.3569 82.1773L60.8118 82.2851L61.2667 81.821L61.7216 83.9458L62.1764 79.1576L62.6313 78.0354L63.0862 82.3685L63.5411 82.6764L63.9959 81.9132L64.4508 82.5203L64.9057 80.26L65.3606 82.6562L65.8154 83.1026L66.2703 82.4956L66.7252 83.3144L67.1801 83.4491L67.6349 82.8184L68.0898 83.8317L68.5447 85.0397L68.9996 84.3611L69.4544 82.6645L69.9093 83.1826L70.3642 85.0981L70.8191 82.5191L71.2739 84.1434L71.7288 85.3928L72.1837 85.1684L72.6385 85.523L73.0934 85.6777L73.5483 84.632L74.0032 85.108L74.4581 85.7873L74.9129 84.9619L75.3678 83.7936L75.8227 84.0617L76.2775 84.9878L76.7324 85.027L77.1873 84.9062L77.6422 84.8715L78.097 83.5597L78.5519 82.6193L79.0068 84.6501L79.4617 84.3007L79.9165 84.2016L80.3714 84.4257L80.8263 84.7381L81.2812 84.8818L81.736 84.1199L82.1909 85.9277L82.6458 86.3636L83.1007 84.5249L83.5555 85.3322L84.0104 85.277L84.4653 84.9562L84.9202 82.8571L85.375 82.0525L85.8299 83.2501L86.2848 83.2751L86.7397 83.2127L87.1945 82.9395L87.6494 82.5107L88.1043 82.9115L88.5592 82.6309L89.014 82.4603L89.4689 83.6069L89.9238 83.4947L90.3787 82.0898L90.8335 81.3291L91.2884 80.1058L91.7433 78.6028L92.1982 79.7566L92.653 81.9708L93.1079 82.5454L93.5628 81.9819L94.0176 81.3686L94.4725 80.6768L94.9274 82.0158L95.3823 82.3015L95.8371 77.704L96.292 59.7056L96.7469 81.168L97.2018 82.0783L97.6566 80.8755L98.1115 80.6622L98.5664 80.7484L99.0213 75.492L99.4761 80.5213L99.931 79.6427L100.386 69.2824L100.841 80.0444L101.296 79.869L101.751 79.9094L102.205 81.6801L102.66 82.3701L103.115 82.1491L103.57 83.2982L104.025 82.0131L104.48 82.0557L104.935 82.5297L105.39 83.0864L105.844 82.1209L106.299 81.8028L106.754 81.4165L107.209 82.9247L107.664 83.145L108.119 82.27L108.574 83.4669L109.029 83.3226L109.483 83.2735L109.938 82.7243L110.393 83.5652L110.848 83.0299L111.303 83.519L111.758 83.8016L112.213 84.2921L112.667 84.2965L113.122 83.3789L113.577 82.4829L114.032 81.6094L114.487 79.1733L114.942 81.7846L115.397 82.8656L115.852 83.7535L116.306 82.7036L116.761 82.2274L117.216 83.0376L117.671 83.2202L118.126 83.622L118.581 82.6531L119.036 81.7953L119.491 80.3152L119.945 79.8317L120.4 74.945L120.855 81.5926L121.31 82.5419L121.765 82.3791L122.22 83.025L122.675 82.3572L123.13 81.6725L123.584 80.3562L124.039 81.9109L124.494 81.6653L124.949 79.492L125.404 83.1644L125.859 82.1408L126.314 82.501L126.769 82.8865L127.223 82.9901L127.678 83.733L128.133 83.1607L128.588 82.22L129.043 80.649L129.498 81.0389L129.953 79.5019L130.408 78.5678L130.862 79.0143L131.317 79.8342L131.772 81.0114L132.227 82.4402L132.682 83.0761L133.137 81.7747L133.592 83.4093L134.047 83.8486L134.501 84.6429L134.956 84.1213L135.411 82.6478L135.866 82.7366L136.321 84.3648L136.776 83.7262L137.231 83.37L137.686 83.8501L138.14 82.5983L138.595 82.1644L139.05 83.9865L139.505 83.9862L139.96 84.1411L140.415 83.5807L140.87 83.0285L141.325 84.4975L141.779 83.3272L142.234 84.6816L142.689 84.2238L143.144 85.2658L143.599 83.3369L144.054 84.0844L144.509 82.9865L144.964 83.7737L145.418 84.0715L145.873 84.2209L146.328 84.9848L146.783 83.6334L147.238 82.7313L147.693 83.0339L148.148 82.2422L148.603 83.3014L149.057 84.5156L149.512 85.5088L149.967 85.4207L150.422 85.2395L150.877 84.0076L151.332 82.7362L151.787 81.9091L152.242 83.0728L152.696 84.2319L153.151 80.5051L153.606 82.3684L154.061 84.0155L154.516 84.8513L154.971 82.2777L155.426 82.8443L155.881 81.8564L156.335 83.515L156.79 83.4317L157.245 84.9324L157.7 85.0275L158.155 44.3806L158.61 77.4298L159.065 79.0753L159.52 77.999L159.974 83.0876L160.429 82.7265L160.884 82.7554L161.339 81.4095L161.794 83.6293L162.249 86.0716L162.704 84.4106L163.159 84.8468L163.613 82.8168L164.068 84.0866L164.523 83.5923L164.978 84.7026L165.433 85.1242L165.888 84.626L166.343 83.9398L166.798 84.7846L167.252 85.3363L167.707 84.8077L168.162 86.043L168.617 88.0644L169.072 86.1681L169.527 85.7452L169.982 83.9425L170.437 79.1902L170.891 84.3849L171.346 84.2076L171.801 74.2567L172.256 82.3025L172.711 83.5376L173.166 83.1535L173.621 82.8666L174.076 83.6386L174.53 82.545L174.985 84.4289L175.44 83.2725L175.895 83.8328L176.35 81.3516L176.805 84.3776L177.26 83.9797L177.715 84.0589L178.169 85.7482L178.624 85.2195L179.079 84.5703L179.534 84.425L179.989 83.7704L180.444 82.5502L180.899 84.8434L181.354 84.5184L181.808 82.9562L182.263 82.832L182.718 83.4438L183.173 82.9952L183.628 83.9737L184.083 83.6429L184.538 83.1434L184.993 83.9456L185.447 83.3239L185.902 83.3041L186.357 84.1303L186.812 83.6908L187.267 84.7725L187.722 84.9329L188.177 83.3488L188.632 82.0363L189.086 82.5474L189.541 82.9243L189.996 83.7194L190.451 84.5653L190.906 84.9242L191.361 83.9518L191.816 83.0322L192.271 83.1225L192.725 81.6564L193.18 81.0043L193.635 82.4283L194.09 82.4459L194.545 82.4973L195 83.7765L195.455 83.2633L195.91 82.1548L196.364 82.8447L196.819 84.6698L197.274 85.3115L197.729 84.1299L198.184 84.2172L198.639 84.4185L199.094 83.5871L199.549 83.6718L200.003 85.0785L200.458 84.3099L200.913 79.2429L201.368 82.1512L201.823 82.3084L202.278 83.6151L202.733 82.5037L203.187 83.2008L203.642 84.1371L204.097 81.6612L204.552 82.3655L205.007 82.4683L205.462 82.4016L205.917 82.8812L206.372 83.1728L206.827 84.0389L207.281 83.2017L207.736 80.9852L208.191 80.3581L208.646 80.1577L209.101 81.1345L209.556 83.1194L210.011 84.0897L210.465 83.5109L210.92 82.9168L211.375 81.781L211.83 83.3222L212.285 82.3977L212.74 84.6843L213.195 84.9213L213.65 82.5978L214.104 81.8244L214.559 82.8396L215.014 80.1271L215.469 79.2724L215.924 79.6168L216.379 85.1708L216.834 85.1269L217.289 85.1333L217.743 85.9201L218.198 85.1945L218.653 84.3844L219.108 86.8399L219.563 87.4445L220.018 86.185L220.473 84.9047L220.928 85.0932L221.382 85.0677L221.837 84.7879L222.292 85.8004L222.747 85.8305L223.202 85.7198L223.657 85.1908L224.112 84.1395L224.567 84.7687L225.021 83.6238L225.476 85.5788L225.931 86.022L226.386 84.5577L226.841 84.3667L227.296 85.1664L227.751 85.4914L228.206 84.2095L228.66 83.9054L229.115 83.7198L229.57 83.639L230.025 84.4333L230.48 84.4394L230.935 84.9516L231.39 84.0142L231.845 81.6466L232.299 83.2595L232.754 84.4134L233.209 84.1056L233.664 84.3289L234.119 83.9591L234.574 83.7235L235.029 83.8465L235.484 85.4106L235.938 84.0295L236.393 82.1635L236.848 82.7714L237.303 84.4852L237.758 81.5959L238.213 83.4155L238.668 84.3707L239.123 81.243L239.577 82.9713L240.032 82.801L240.487 84.5188L240.942 83.8898L241.397 80.2353L241.852 78.5816L242.307 83.8723L242.762 84.3942L243.216 82.7762L243.671 80.9856L244.126 81.1173L244.581 82.8231L245.036 82.9765L245.491 82.5455L245.946 84.2236L246.401 82.618L246.855 83.7145L247.31 82.6051L247.765 84.7783L248.22 85.5152L248.675 84.2792L249.13 84.0783L249.585 83.3321L250.04 85.1046L250.494 82.4303L250.949 84.3892L251.404 85.909L251.859 84.261L252.314 85.6215L252.769 88.1526L253.224 86.9698L253.679 85.8948L254.133 85.6015L254.588 85.9464L255.043 83.4157L255.498 83.1157L255.953 84.7417L256.408 84.0317L256.863 82.5346L257.318 84.9942L257.772 86.2602L258.227 85.7193L258.682 82.5269L259.137 83.7041L259.592 85.2795L260.047 84.2246L260.502 85.3171L260.957 85.6062L261.411 85.3235" stroke="#BABABA" stroke-width="0.53" stroke-linecap="round" stroke-linejoin="round"/>
</g>
<mask id="mask1_705_2107" style="mask-type:luminance" maskUnits="userSpaceOnUse" x="0" y="0" width="264" height="97">
<path d="M264 0H0V97H264V0Z" fill="white"/>
</mask>
<g mask="url(#mask1_705_2107)">
<path d="M2.58789 54.8795L3.04276 51.0458L3.49764 46.6894L3.95251 42.9067L4.40739 42.8841L4.86226 44.4078L5.31714 47.8377L5.77201 51.3945L6.22689 53.0692L6.68176 50.1368L7.13663 49.7693L7.59151 49.0871L8.04638 48.7832L8.50126 49.9278L8.95613 50.3688L9.41101 50.2821L9.86588 47.9107L10.3208 43.6833L10.7756 49.7338L11.2305 48.3146L11.6854 50.7291L12.1403 53.3779L12.5951 58.7409L13.05 56.0749L13.5049 54.4931L13.9598 53.1552L14.4146 54.5394L14.8695 56.5367L15.3244 60.4609L15.7792 62.8134L16.2341 61.2765L16.689 61.264L17.1439 60.0081L17.5987 62.2899L18.0536 62.9517L18.5085 60.4333L18.9634 60.8663L19.4182 53.591L19.8731 53.441L20.328 55.4157L20.7829 52.8996L21.2377 54.9555L21.6926 60.3324L22.1475 60.0586L22.6024 57.5281L23.0572 52.0843L23.5121 52.1772L23.967 54.6537L24.4219 56.2413L24.8767 60.6654L25.3316 60.162L25.7865 57.3142L26.2414 52.5754L26.6962 53.068L27.1511 58.6661L27.606 57.8014L28.0609 62.4104L28.5157 63.75L28.9706 59.531L29.4255 55.8245L29.8804 56.4184L30.3352 56.6341L30.7901 56.516L31.245 60.1631L31.6999 62.3522L32.1547 59.7839L32.6096 61.0271L33.0645 58.1153L33.5193 59.0805L33.9742 61.9319L34.4291 63.0452L34.884 63.0897L35.3388 58.133L35.7937 58.5502L36.2486 56.8888L36.7035 57.5968L37.1583 59.5205L37.6132 57.7081L38.0681 61.3593L38.523 54.4051L38.9778 54.2627L39.4327 54.3552L39.8876 53.6402L40.3425 57.305L40.7973 59.7713L41.2522 58.2734L41.7071 52.8354L42.162 53.3988L42.6168 49.6203L43.0717 50.7444L43.5266 53.7004L43.9815 54.4915L44.4363 56.5687L44.8912 52.7396L45.3461 50.7328L45.801 54.3027L46.2558 56.4104L46.7107 58.5135L47.1656 62.7545L47.6205 61.8848L48.0753 58.5937L48.5302 55.1721L48.9851 55.9713L49.44 59.2979L49.8948 59.8068L50.3497 63.1867L50.8046 63.1401L51.2595 58.803L51.7143 56.0584L52.1692 51.8564L52.6241 49.6371L53.079 50.6194L53.5338 50.4214L53.9887 55.5873L54.4436 51.847L54.8984 53.9341L55.3533 53.9124L55.8082 55.7013L56.2631 54.8161L56.7179 59.0723L57.1728 60.6505L57.6277 59.4432L58.0826 62.1577L58.5374 55.0643L58.9923 56.7236L59.4472 59.7981L59.9021 61.6872L60.3569 62.551L60.8118 58.1949L61.2667 59.9905L61.7216 54.6032L62.1764 55.3073L62.6313 58.2057L63.0862 58.2986L63.5411 62.0058L63.9959 61.586L64.4508 61.6823L64.9057 62.3385L65.3606 61.7989L65.8154 65.1479L66.2703 66.7323L66.7252 64.7312L67.1801 58.6821L67.6349 62.2651L68.0898 59.9102L68.5447 60.8253L68.9996 62.8118L69.4544 64.8019L69.9093 65.6723L70.3642 62.137L70.8191 61.0191L71.2739 62.5947L71.7288 65.7017L72.1837 66.1509L72.6385 68.3563L73.0934 66.9207L73.5483 63.0492L74.0032 63.61L74.4581 62.7784L74.9129 61.7978L75.3678 62.7994L75.8227 65.5828L76.2775 64.2275L76.7324 61.527L77.1873 64.0165L77.6422 63.7992L78.097 64.6273L78.5519 65.641L79.0068 67.7107L79.4617 69.3948L79.9165 64.9433L80.3714 64.2158L80.8263 66.0195L81.2812 64.8977L81.736 57.7873L82.1909 62.736L82.6458 62.4039L83.1007 64.8311L83.5555 64.7122L84.0104 63.8613L84.4653 61.0253L84.9202 63.6745L85.375 67.1245L85.8299 68.3749L86.2848 63.6307L86.7397 62.5998L87.1945 63.4608L87.6494 62.6042L88.1043 64.8671L88.5592 67.9515L89.014 68.2819L89.4689 64.0615L89.9238 62.9594L90.3787 63.0639L90.8335 64.384L91.2884 63.1991L91.7433 67.08L92.1982 65.7937L92.653 61.4538L93.1079 63.6057L93.5628 64.4903L94.0176 65.8468L94.4725 65.4647L94.9274 69.1653L95.3823 69.6564L95.8371 66.2874L96.292 65.6271L96.7469 64.5576L97.2018 63.9401L97.6566 65.5313L98.1115 64.3544L98.5664 62.6535L99.0213 65.1319L99.4761 67.8903L99.931 66.5358L100.386 65.6955L100.841 66.1057L101.296 68.0277L101.751 68.7898L102.205 63.9118L102.66 65.4255L103.115 64.1233L103.57 64.4151L104.025 67.6566L104.48 64.5184L104.935 68.9331L105.39 66.4534L105.844 65.9253L106.299 67.3665L106.754 66.6351L107.209 67.2115L107.664 70.354L108.119 71.5536L108.574 68.1061L109.029 68.6836L109.483 69.2949L109.938 67.832L110.393 68.3445L110.848 71.2407L111.303 72.0144L111.758 67.8045L112.213 66.124L112.667 64.8587L113.122 63.8558L113.577 64.6131L114.032 64.8686L114.487 66.4064L114.942 64.3298L115.397 59.5068L115.852 59.0156L116.306 59.5134L116.761 57.3293L117.216 65.4673L117.671 68.2261L118.126 65.8599L118.581 67.1724L119.036 66.7855L119.491 62.724L119.945 62.8041L120.4 66.8946L120.855 66.8303L121.31 64.457L121.765 64.821L122.22 65.4543L122.675 63.7689L123.13 66.0587L123.584 67.4508L124.039 68.7098L124.494 65.7143L124.949 59.4041L125.404 64.6566L125.859 65.2053L126.314 63.9794L126.769 68.5047L127.223 68.1569L127.678 66.0155L128.133 66.8058L128.588 66.3596L129.043 67.1031L129.498 71.1348L129.953 66.7062L130.408 67.4088L130.862 60.6789L131.317 38.9506L131.772 12.8877L132.227 34.3264L132.682 55.193L133.137 62.0932L133.592 63.2488L134.047 61.2538L134.501 59.5182L134.956 57.3379L135.411 58.9614L135.866 57.3464L136.321 58.281L136.776 60.3077L137.231 57.0998L137.686 54.5542L138.14 54.3527L138.595 53.0005L139.05 53.3979L139.505 57.0954L139.96 54.9131L140.415 49.8701L140.87 51.6291L141.325 54.8745L141.779 53.3012L142.234 52.8252L142.689 54.4945L143.144 57.0561L143.599 55.1154L144.054 52.9056L144.509 53.3001L144.964 52.6551L145.418 51.3992L145.873 57.2773L146.328 55.5155L146.783 54.8708L147.238 54.7712L147.693 55.1395L148.148 54.631L148.603 55.9901L149.057 59.0761L149.512 57.538L149.967 56.4994L150.422 56.9782L150.877 53.1947L151.332 49.8783L151.787 51.7931L152.242 52.5408L152.696 48.5489L153.151 45.8439L153.606 47.777L154.061 48.3874L154.516 38.9125L154.971 45.531L155.426 53.8113L155.881 54.8049L156.335 48.3753L156.79 54.8386L157.245 56.5653L157.7 52.6077L158.155 52.8023L158.61 56.7164L159.065 57.582L159.52 54.5869L159.974 52.9925L160.429 55.2769L160.884 52.296L161.339 53.2397L161.794 55.6924L162.249 62.4646L162.704 62.7379L163.159 62.9518L163.613 65.226L164.068 62.3193L164.523 64.4941L164.978 64.0248L165.433 63.1142L165.888 61.547L166.343 63.3251L166.798 63.2593L167.252 61.8999L167.707 61.99L168.162 64.2401L168.617 69.939L169.072 67.8051L169.527 67.9526L169.982 68.213L170.437 68.5193L170.891 68.4419L171.346 69.805L171.801 65.7167L172.256 62.5749L172.711 62.9194L173.166 63.7835L173.621 62.3121L174.076 65.2859L174.53 64.1192L174.985 67.5529L175.44 62.9251L175.895 66.4434L176.35 65.6858L176.805 66.8322L177.26 66.4306L177.715 66.7877L178.169 69.3371L178.624 69.2317L179.079 65.9655L179.534 66.6912L179.989 65.8162L180.444 65.1537L180.899 66.3409L181.354 66.0106L181.808 65.0349L182.263 62.0561L182.718 63.0001L183.173 60.7367L183.628 65.1537L184.083 65.358L184.538 66.5781L184.993 66.5069L185.447 61.9094L185.902 64.1585L186.357 61.7644L186.812 64.2046L187.267 66.3323L187.722 65.7632L188.177 62.364L188.632 65.0686L189.086 63.3419L189.541 62.7888L189.996 62.265L190.451 64.122L190.906 63.7967L191.361 62.3399L191.816 59.2328L192.271 57.5441L192.725 50.7868L193.18 49.8927L193.635 50.7458L194.09 52.6662L194.545 46.9363L195 39.4643L195.455 36.1274L195.91 26.6257L196.364 44.4513L196.819 50.6395L197.274 50.4724L197.729 48.7522L198.184 54.083L198.639 53.4679L199.094 51.0646L199.549 51.5659L200.003 52.1926L200.458 54.2324L200.913 51.8798L201.368 52.7094L201.823 52.4235L202.278 49.7006L202.733 50.6399L203.187 55.4944L203.642 55.6864L204.097 54.5527L204.552 51.6757L205.007 38.6737L205.462 46.713L205.917 44.6693L206.372 51.812L206.827 49.8565L207.281 49.3573L207.736 36.4243L208.191 37.7572L208.646 46.5039L209.101 46.862L209.556 50.0921L210.011 53.3393L210.465 48.5116L210.92 49.43L211.375 50.2242L211.83 49.8035L212.285 50.21L212.74 54.8875L213.195 54.1574L213.65 50.7596L214.104 47.3475L214.559 52.048L215.014 51.4266L215.469 50.7412L215.924 53.7241L216.379 55.1441L216.834 52.151L217.289 51.0948L217.743 51.2345L218.198 54.588L218.653 53.7873L219.108 54.5325L219.563 54.4268L220.018 51.2772L220.473 47.7904L220.928 52.5471L221.382 44.1626L221.837 46.0845L222.292 49.2752L222.747 49.9838L223.202 48.6056L223.657 49.1012L224.112 49.3974L224.567 49.2116L225.021 46.2294L225.476 47.0319L225.931 47.6478L226.386 44.6964L226.841 39.8678L227.296 41.7688L227.751 39.656L228.206 45.5988L228.66 50.1925L229.115 51.4868L229.57 44.2584L230.025 42.3975L230.48 21.7127L230.935 43.2666L231.39 42.2816L231.845 45.5167L232.299 38.8085L232.754 41.2183L233.209 43.7172L233.664 46.1494L234.119 47.7036L234.574 47.4018L235.029 50.4135L235.484 52.0921L235.938 47.7828L236.393 41.8133L236.848 40.3331L237.303 41.0665L237.758 45.693L238.213 47.6254L238.668 52.5972L239.123 39.6495L239.577 40.7482L240.032 46.0507L240.487 50.2734L240.942 48.9609L241.397 50.8262L241.852 53.1604L242.307 49.5644L242.762 49.0131L243.216 44.902L243.671 43.9985L244.126 46.3805L244.581 50.3936L245.036 52.4385L245.491 48.932L245.946 46.9193L246.401 45.2214L246.855 49.3381L247.31 44.326L247.765 47.576L248.22 50.5795L248.675 50.5509L249.13 47.6614L249.585 49.4017L250.04 37.8792L250.494 37.9201L250.949 48.794L251.404 51.1441L251.859 48.4711L252.314 48.1589L252.769 47.8258L253.224 48.4287L253.679 46.9153L254.133 48.3742L254.588 48.8242L255.043 46.6501L255.498 43.2099L255.953 41.4468L256.408 41.6515L256.863 41.5694L257.318 44.0612L257.772 49.4747L258.227 45.8072L258.682 43.0893L259.137 46.0231L259.592 45.3129L260.047 46.3318L260.502 46.3787L260.957 49.7619L261.411 46.9648" stroke="#828282" stroke-width="0.53" stroke-linecap="round" stroke-linejoin="round"/>
</g>
<mask id="mask2_705_2107" style="mask-type:luminance" maskUnits="userSpaceOnUse" x="0" y="0" width="264" height="97">
<path d="M264 0H0V97H264V0Z" fill="white"/>
</mask>
<g mask="url(#mask2_705_2107)">
<path d="M2.58789 85.5921L3.04276 83.1808L3.49764 79.4149L3.95251 77.8055L4.40739 76.7429L4.86226 75.3572L5.31714 76.583L5.77201 83.6079L6.22689 85.9567L6.68176 83.5704L7.13663 85.3717L7.59151 85.1159L8.04638 84.644L8.50126 85.1067L8.95613 84.668L9.41101 84.3812L9.86588 84.9636L10.3208 85.9614L10.7756 87.7513L11.2305 88.1181L11.6854 87.9789L12.1403 87.8503L12.5951 87.0118L13.05 87.1986L13.5049 86.3658L13.9598 85.7443L14.4146 83.7809L14.8695 85.2717L15.3244 86.4527L15.7792 86.9028L16.2341 86.4469L16.689 85.6002L17.1439 85.2077L17.5987 84.9242L18.0536 85.4111L18.5085 86.0381L18.9634 85.7236L19.4182 84.8175L19.8731 84.514L20.328 85.207L20.7829 84.9505L21.2377 84.6116L21.6926 84.7654L22.1475 85.2981L22.6024 83.9626L23.0572 84.1693L23.5121 83.8597L23.967 85.8536L24.4219 85.1237L24.8767 85.3659L25.3316 86.251L25.7865 84.9744L26.2414 85.9412L26.6962 85.7173L27.1511 85.6115L27.606 86.4002L28.0609 87.2672L28.5157 86.3357L28.9706 85.6353L29.4255 83.6126L29.8804 83.8096L30.3352 81.9368L30.7901 82.1846L31.245 83.7872L31.6999 82.9075L32.1547 82.2048L32.6096 80.1637L33.0645 82.3775L33.5193 85.1536L33.9742 84.4003L34.4291 82.5831L34.884 84.3219L35.3388 83.1156L35.7937 83.6084L36.2486 81.9784L36.7035 81.1582L37.1583 82.3552L37.6132 82.7433L38.0681 82.3958L38.523 82.1026L38.9778 81.7439L39.4327 80.5341L39.8876 81.5496L40.3425 81.5755L40.7973 82.6875L41.2522 83.602L41.7071 83.1526L42.162 83.4565L42.6168 84.6177L43.0717 84.5428L43.5266 85.1666L43.9815 85.3688L44.4363 85.9346L44.8912 85.8956L45.3461 85.4176L45.801 85.524L46.2558 84.2997L46.7107 84.1087L47.1656 85.7764L47.6205 85.7816L48.0753 84.8721L48.5302 84.4429L48.9851 84.9181L49.44 84.8719L49.8948 84.7429L50.3497 84.2459L50.8046 84.3302L51.2595 83.0423L51.7143 83.5346L52.1692 82.3504L52.6241 82.8925L53.079 83.9346L53.5338 84.2745L53.9887 83.7364L54.4436 83.4133L54.8984 84.3411L55.3533 83.7014L55.8082 83.7592L56.2631 84.0453L56.7179 78.9463L57.1728 86.0405L57.6277 84.5066L58.0826 84.5353L58.5374 83.0919L58.9923 83.007L59.4472 85.136L59.9021 84.5324L60.3569 85.6817L60.8118 85.163L61.2667 85.866L61.7216 87.4053L62.1764 87.5963L62.6313 84.2397L63.0862 85.7734L63.5411 88.9751L63.9959 83.3233L64.4508 86.6614L64.9057 87.4117L65.3606 87.89L65.8154 87.6764L66.2703 88.5176L66.7252 88.877L67.1801 87.4699L67.6349 87.3557L68.0898 87.6504L68.5447 88.0805L68.9996 87.651L69.4544 88.7032L69.9093 88.5176L70.3642 86.814L70.8191 87.7146L71.2739 87.3659L71.7288 88.1959L72.1837 88.5735L72.6385 88.8893L73.0934 89.2595L73.5483 87.6713L74.0032 88.0536L74.4581 87.4873L74.9129 86.464L75.3678 87.7262L75.8227 88.4621L76.2775 88.2985L76.7324 88.2306L77.1873 87.2418L77.6422 88.2951L78.097 88.6171L78.5519 89.07L79.0068 88.8795L79.4617 88.2758L79.9165 87.8981L80.3714 88.1421L80.8263 87.8681L81.2812 87.382L81.736 85.8468L82.1909 86.2331L82.6458 86.3649L83.1007 81.1711L83.5555 87.1818L84.0104 87.7262L84.4653 86.7118L84.9202 88.1936L85.375 89.4753L85.8299 89.4481L86.2848 88.3784L86.7397 88.2627L87.1945 87.7765L87.6494 88.6849L88.1043 88.4733L88.5592 89.4272L89.014 88.902L89.4689 87.6095L89.9238 87.9817L90.3787 88.2604L90.8335 88.2295L91.2884 88.029L91.7433 89.1484L92.1982 89.1283L92.653 86.8924L93.1079 87.5978L93.5628 88.4153L94.0176 87.2399L94.4725 88.2331L94.9274 89.0208L95.3823 88.92L95.8371 87.7946L96.292 88.8904L96.7469 88.138L97.2018 87.6821L97.6566 88.2623L98.1115 88.6415L98.5664 87.9556L99.0213 87.0189L99.4761 89.0227L99.931 87.7044L100.386 87.8795L100.841 87.3445L101.296 88.545L101.751 88.4316L102.205 87.6801L102.66 88.494L103.115 86.0196L103.57 87.0173L104.025 87.786L104.48 87.3302L104.935 88.1056L105.39 87.3043L105.844 87.8951L106.299 87.5273L106.754 87.8307L107.209 88.1768L107.664 88.669L108.119 88.1041L108.574 87.2454L109.029 86.9651L109.483 88.2234L109.938 88.7703L110.393 89.0628L110.848 89.1958L111.303 88.9514L111.758 87.6715L112.213 86.6315L112.667 87.3188L113.122 86.7476L113.577 87.5961L114.032 88.5347L114.487 88.1283L114.942 87.1316L115.397 86.8153L115.852 87.1727L116.306 87.5637L116.761 87.5161L117.216 88.152L117.671 87.931L118.126 86.4379L118.581 87.2154L119.036 87.6251L119.491 87.0831L119.945 86.775L120.4 87.6888L120.855 87.1609L121.31 85.5479L121.765 86.8549L122.22 86.4236L122.675 86.9521L123.13 87.3656L123.584 87.4623L124.039 86.0059L124.494 83.941L124.949 83.4471L125.404 82.7339L125.859 83.2936L126.314 83.9805L126.769 84.7684L127.223 83.9061L127.678 83.1812L128.133 83.5467L128.588 82.7598L129.043 84.2733L129.498 82.6644L129.953 81.5948L130.408 82.7729L130.862 79.7624L131.317 80.2699L131.772 82.987L132.227 68.3721L132.682 71.855L133.137 75.9691L133.592 73.9107L134.047 71.7551L134.501 73.3743L134.956 76.5656L135.411 84.3408L135.866 83.2711L136.321 81.9073L136.776 83.1254L137.231 84.7912L137.686 81.2159L138.14 81.8269L138.595 82.9997L139.05 83.7228L139.505 86.7563L139.96 84.9707L140.415 81.2716L140.87 83.0494L141.325 84.4258L141.779 86.1029L142.234 86.2422L142.689 85.2049L143.144 86.2272L143.599 83.6817L144.054 85.013L144.509 79.4477L144.964 77.1654L145.418 83.2898L145.873 84.4924L146.328 85.0765L146.783 84.2486L147.238 84.7698L147.693 81.9251L148.148 84.6775L148.603 84.2572L149.057 83.7691L149.512 84.1333L149.967 83.784L150.422 85.5584L150.877 83.8706L151.332 83.7186L151.787 83.6999L152.242 84.4217L152.696 83.859L153.151 82.4128L153.606 83.2085L154.061 83.4935L154.516 82.9834L154.971 82.3772L155.426 80.9977L155.881 83.4273L156.335 85.1348L156.79 85.4066L157.245 84.9318L157.7 84.4393L158.155 82.5993L158.61 83.0507L159.065 82.5578L159.52 82.8624L159.974 82.0306L160.429 80.6863L160.884 82.7063L161.339 81.9508L161.794 81.6939L162.249 81.6229L162.704 82.223L163.159 82.3678L163.613 82.3616L164.068 81.614L164.523 81.9836L164.978 82.2653L165.433 82.646L165.888 82.8774L166.343 83.933L166.798 84.8165L167.252 84.9948L167.707 83.3894L168.162 82.002L168.617 82.8258L169.072 82.4072L169.527 80.3311L169.982 81.2726L170.437 77.6729L170.891 72.225L171.346 76.1499L171.801 75.0533L172.256 76.2839L172.711 83.3475L173.166 81.049L173.621 84.3907L174.076 85.5316L174.53 85.8196L174.985 86.0298L175.44 84.8624L175.895 84.8379L176.35 84.2802L176.805 84.8202L177.26 84.5031L177.715 84.4547L178.169 83.8978L178.624 84.1882L179.079 83.7862L179.534 83.632L179.989 83.4511L180.444 83.7307L180.899 83.5696L181.354 83.4316L181.808 83.196L182.263 83.0534L182.718 82.7521L183.173 85.2459L183.628 85.8138L184.083 86.2488L184.538 86.0323L184.993 86.4467L185.447 86.0843L185.902 85.4988L186.357 87.1406L186.812 86.2021L187.267 86.9116L187.722 86.7326L188.177 85.3331L188.632 87.3737L189.086 87.0053L189.541 86.8552L189.996 85.929L190.451 86.1829L190.906 86.6803L191.361 85.318L191.816 86.3225L192.271 85.965L192.725 86.6715L193.18 85.3692L193.635 85.6034L194.09 83.3344L194.545 83.7179L195 86.7925L195.455 81.55L195.91 83.6336L196.364 84.5083L196.819 84.9938L197.274 84.3054L197.729 84.6619L198.184 84.8537L198.639 84.867L199.094 84.1714L199.549 81.7108L200.003 84.6945L200.458 85.1171L200.913 83.4251L201.368 83.5349L201.823 83.6944L202.278 83.0238L202.733 82.3027L203.187 81.9209L203.642 82.4057L204.097 80.5192L204.552 83.0483L205.007 82.7591L205.462 82.4278L205.917 81.4058L206.372 81.7284L206.827 83.0062L207.281 82.5932L207.736 80.1444L208.191 81.2155L208.646 81.8253L209.101 78.2961L209.556 81.0912L210.011 82.608L210.465 80.2896L210.92 80.671L211.375 81.0589L211.83 80.1126L212.285 81.3968L212.74 81.9729L213.195 83.4177L213.65 83.5651L214.104 83.2355L214.559 83.5609L215.014 83.951L215.469 84.6288L215.924 84.7295L216.379 83.5775L216.834 84.0879L217.289 83.8581L217.743 84.1848L218.198 84.9382L218.653 85.591L219.108 86.2792L219.563 87.1886L220.018 84.6001L220.473 82.4033L220.928 85.7481L221.382 84.1824L221.837 85.0429L222.292 86.2193L222.747 85.7569L223.202 84.4901L223.657 84.2448L224.112 84.6389L224.567 85.9775L225.021 85.851L225.476 85.2983L225.931 86.4106L226.386 85.793L226.841 84.9691L227.296 83.0569L227.751 82.6552L228.206 83.8977L228.66 84.745L229.115 84.8228L229.57 82.771L230.025 81.699L230.48 81.9106L230.935 79.8534L231.39 79.8935L231.845 80.858L232.299 82.4046L232.754 82.2146L233.209 81.9099L233.664 81.3834L234.119 82.3449L234.574 80.3519L235.029 81.677L235.484 83.5012L235.938 81.5111L236.393 80.9818L236.848 81.6519L237.303 81.1426L237.758 82.5443L238.213 82.8934L238.668 81.8435L239.123 83.0167L239.577 82.5221L240.032 83.8509L240.487 84.3274L240.942 83.0668L241.397 84.0033L241.852 84.6605L242.307 82.4471L242.762 80.7798L243.216 78.5397L243.671 79.0713L244.126 81.7581L244.581 83.8998L245.036 84.895L245.491 82.9331L245.946 81.4676L246.401 81.9787L246.855 82.7287L247.31 83.624L247.765 84.0304L248.22 83.5076L248.675 83.0016L249.13 82.8215L249.585 82.3142L250.04 81.4318L250.494 80.6169L250.949 83.175L251.404 83.0827L251.859 83.4428L252.314 83.5185L252.769 83.9416L253.224 83.7082L253.679 84.5642L254.133 84.4355L254.588 84.8072L255.043 83.7128L255.498 83.0446L255.953 81.0961L256.408 80.4021L256.863 80.2104L257.318 82.8125L257.772 82.9798L258.227 80.9951L258.682 81.9309L259.137 80.7384L259.592 79.8788L260.047 79.6402L260.502 81.5788L260.957 82.8303L261.411 82.0348" stroke="#CCCCCC" stroke-width="0.53" stroke-linecap="round" stroke-linejoin="round"/>
</g>
<mask id="mask3_705_2107" style="mask-type:luminance" maskUnits="userSpaceOnUse" x="0" y="0" width="264" height="97">
<path d="M264 0H0V97H264V0Z" fill="white"/>
</mask>
<g mask="url(#mask3_705_2107)">
<path d="M2.58789 94.9122L3.04276 94.782L3.49764 94.5087L3.95251 94.282L4.40739 94.1658L4.86226 94.421L5.31714 94.5177L5.77201 94.6592L6.22689 94.6501L6.68176 94.5805L7.13663 94.4087L7.59151 93.9327L8.04638 93.9034L8.50126 94.1577L8.95613 94.1193L9.41101 93.7835L9.86588 93.8076L10.3208 94.102L10.7756 93.9942L11.2305 94.0931L11.6854 94.2223L12.1403 93.9294L12.5951 93.7818L13.05 94.0405L13.5049 93.8818L13.9598 94.0615L14.4146 94.1335L14.8695 94.2356L15.3244 94.1434L15.7792 94.3679L16.2341 94.2779L16.689 94.1352L17.1439 94.0148L17.5987 94.2617L18.0536 94.2701L18.5085 94.3055L18.9634 94.3388L19.4182 93.952L19.8731 94.1111L20.328 94.0361L20.7829 93.8325L21.2377 93.9945L21.6926 94.2226L22.1475 94.1013L22.6024 94.1167L23.0572 93.958L23.5121 93.7583L23.967 93.6055L24.4219 94.0693L24.8767 94.2247L25.3316 94.1203L25.7865 94.042L26.2414 94.1522L26.6962 94.0127L27.1511 94.2397L27.606 94.0733L28.0609 93.9838L28.5157 94.0881L28.9706 94.0708L29.4255 93.8318L29.8804 93.7793L30.3352 94.0903L30.7901 94.1896L31.245 94.5231L31.6999 93.8956L32.1547 94.1469L32.6096 94.2471L33.0645 94.3887L33.5193 94.5307L33.9742 94.5444L34.4291 94.3115L34.884 94.6727L35.3388 94.5895L35.7937 94.6892L36.2486 94.7191L36.7035 94.5894L37.1583 94.7963L37.6132 94.8329L38.0681 94.9069L38.523 94.7749L38.9778 94.69L39.4327 94.4775L39.8876 94.5404L40.3425 94.2316L40.7973 94.2351L41.2522 94.1559L41.7071 93.9287L42.162 93.8743L42.6168 93.9544L43.0717 94.3711L43.5266 94.6927L43.9815 94.7017L44.4363 94.812L44.8912 94.6644L45.3461 94.825L45.801 94.6329L46.2558 94.6331L46.7107 94.5845L47.1656 94.8574L47.6205 94.7572L48.0753 94.5589L48.5302 94.5042L48.9851 94.574L49.44 94.548L49.8948 94.6071L50.3497 94.7809L50.8046 94.7888L51.2595 94.5106L51.7143 94.3207L52.1692 94.6045L52.6241 94.5873L53.079 94.741L53.5338 94.8162L53.9887 94.8471L54.4436 94.6245L54.8984 94.6989L55.3533 94.8L55.8082 94.8694L56.2631 94.7842L56.7179 94.8574L57.1728 94.7467L57.6277 95.024L58.0826 95.0197L58.5374 94.9166L58.9923 95.0201L59.4472 95.0879L59.9021 95.0538L60.3569 95.0194L60.8118 94.88L61.2667 94.9583L61.7216 95.0638L62.1764 94.789L62.6313 94.9425L63.0862 95.1283L63.5411 95.1629L63.9959 95.1086L64.4508 94.8974L64.9057 95.0136L65.3606 94.9524L65.8154 95.0635L66.2703 95.124L66.7252 95.0835L67.1801 94.9458L67.6349 94.7955L68.0898 94.9294L68.5447 95.0463L68.9996 95.153L69.4544 95.2645L69.9093 95.2766L70.3642 95.0986L70.8191 95.1139L71.2739 95.0929L71.7288 95.1329L72.1837 95.2382L72.6385 95.2837L73.0934 95.2978L73.5483 95.139L74.0032 95.2329L74.4581 95.2323L74.9129 95.22L75.3678 95.2551L75.8227 95.2606L76.2775 95.1699L76.7324 94.9857L77.1873 94.8081L77.6422 94.8411L78.097 95.1765L78.5519 95.1544L79.0068 95.1571L79.4617 95.2039L79.9165 95.0845L80.3714 95.0914L80.8263 95.1689L81.2812 95.152L81.736 95.0915L82.1909 95.2017L82.6458 95.3216L83.1007 95.2275L83.5555 95.2642L84.0104 95.2687L84.4653 95.1233L84.9202 95.3386L85.375 95.3381L85.8299 95.3439L86.2848 95.272L86.7397 95.268L87.1945 95.3395L87.6494 95.2679L88.1043 95.3306L88.5592 95.4141L89.014 95.442L89.4689 95.3797L89.9238 95.3232L90.3787 95.3767L90.8335 95.3983L91.2884 95.3539L91.7433 95.4259L92.1982 95.4702L92.653 95.4678L93.1079 95.3766L93.5628 95.3617L94.0176 95.3191L94.4725 95.5783L94.9274 95.6324L95.3823 95.659L95.8371 95.5129L96.292 95.5494L96.7469 95.5151L97.2018 95.4033L97.6566 95.3052L98.1115 95.5116L98.5664 95.5384L99.0213 95.5406L99.4761 95.5642L99.931 95.5744L100.386 95.4419L100.841 95.4176L101.296 95.5881L101.751 95.5902L102.205 95.4845L102.66 95.5848L103.115 95.5374L103.57 95.532L104.025 95.5878L104.48 95.6275L104.935 95.7009L105.39 95.6005L105.844 95.6135L106.299 95.6049L106.754 95.6118L107.209 95.6085L107.664 95.7415L108.119 95.7921L108.574 95.672L109.029 95.741L109.483 95.7332L109.938 95.7443L110.393 95.6732L110.848 95.6329L111.303 95.5887L111.758 95.5165L112.213 95.562L112.667 95.6093L113.122 95.645L113.577 95.6965L114.032 95.6586L114.487 95.7639L114.942 95.6655L115.397 95.6224L115.852 95.6147L116.306 95.7207L116.761 95.5953L117.216 95.7039L117.671 95.7089L118.126 95.6858L118.581 95.6422L119.036 95.7407L119.491 95.7073L119.945 95.7446L120.4 95.8636L120.855 95.6751L121.31 95.6097L121.765 95.751L122.22 95.6136L122.675 95.7881L123.13 95.8391L123.584 95.894L124.039 95.8568L124.494 95.8065L124.949 95.7678L125.404 95.7988L125.859 95.8316L126.314 95.9081L126.769 95.9987L127.223 95.8299L127.678 95.7878L128.133 95.8443L128.588 95.8946L129.043 95.8575L129.498 95.8517L129.953 95.9878L130.408 95.9821L130.862 95.7599L131.317 95.7623L131.772 95.836L132.227 95.6972L132.682 95.8809L133.137 96.0548L133.592 95.9818L134.047 95.8906L134.501 95.8217L134.956 95.884L135.411 95.8718L135.866 95.8285L136.321 95.9045L136.776 95.8327L137.231 95.8191L137.686 95.7499L138.14 95.7661L138.595 95.6223L139.05 92.8029L139.505 93.364L139.96 93.2643L140.415 95.1441L140.87 90.9053L141.325 90.3706L141.779 93.8297L142.234 92.5701L142.689 89.8657L143.144 86.6559L143.599 94.3368L144.054 92.7544L144.509 95.7347L144.964 95.8639L145.418 94.0545L145.873 91.5135L146.328 92.3196L146.783 95.5615L147.238 92.6104L147.693 92.9564L148.148 94.049L148.603 95.4439L149.057 93.0786L149.512 95.3408L149.967 95.8189L150.422 94.7333L150.877 94.1973L151.332 94.3379L151.787 93.7838L152.242 95.7297L152.696 95.5763L153.151 95.2939L153.606 94.8887L154.061 95.5584L154.516 95.6372L154.971 95.7139L155.426 95.871L155.881 95.0893L156.335 95.314L156.79 95.4491L157.245 94.9157L157.7 95.253L158.155 95.043L158.61 95.5881L159.065 95.7453L159.52 95.7071L159.974 94.8222L160.429 95.3508L160.884 94.4924L161.339 94.9987L161.794 94.7422L162.249 94.4497L162.704 94.9837L163.159 94.9L163.613 94.8381L164.068 95.5178L164.523 94.3343L164.978 94.0921L165.433 94.7633L165.888 94.668L166.343 94.8238L166.798 94.8615L167.252 94.3546L167.707 94.0846L168.162 93.7763L168.617 88.9975L169.072 94.5528L169.527 94.8389L169.982 95.3716L170.437 94.5089L170.891 94.6251L171.346 95.6218L171.801 94.8805L172.256 95.0247L172.711 95.3545L173.166 95.1993L173.621 95.2293L174.076 95.3752L174.53 95.5223L174.985 94.7954L175.44 94.7151L175.895 94.5467L176.35 94.721L176.805 95.2548L177.26 95.1761L177.715 95.1431L178.169 95.4068L178.624 95.4613L179.079 95.2703L179.534 95.487L179.989 95.5954L180.444 95.4367L180.899 94.8179L181.354 94.1154L181.808 95.1622L182.263 95.56L182.718 95.1069L183.173 95.7461L183.628 95.859L184.083 95.6829L184.538 95.7974L184.993 94.7819L185.447 94.6145L185.902 95.3473L186.357 95.0726L186.812 94.613L187.267 95.6268L187.722 95.4816L188.177 95.7159L188.632 95.5177L189.086 95.107L189.541 95.8363L189.996 95.0075L190.451 94.7037L190.906 94.8233L191.361 95.2003L191.816 95.8612L192.271 94.9796L192.725 95.3532L193.18 94.893L193.635 95.1255L194.09 95.18L194.545 94.8584L195 94.8419L195.455 94.4326L195.91 95.038L196.364 95.2551L196.819 96.0149L197.274 94.8719L197.729 95.2802L198.184 89.7352L198.639 94.2835L199.094 95.6559L199.549 96.0136L200.003 96.0205L200.458 95.5551L200.913 95.6998L201.368 94.1721L201.823 94.7537L202.278 95.4785L202.733 94.6225L203.187 95.6015L203.642 93.6596L204.097 91.3856L204.552 91.2417L205.007 95.391L205.462 95.3653L205.917 95.214L206.372 95.8319L206.827 94.79L207.281 94.9115L207.736 94.6451L208.191 95.4067L208.646 95.6205L209.101 93.6943L209.556 92.2245L210.011 95.0709L210.465 95.6813L210.92 95.8808L211.375 96.0073L211.83 95.8932L212.285 96.049L212.74 95.722L213.195 95.6127L213.65 95.3105L214.104 95.6086L214.559 95.8155L215.014 95.6984L215.469 95.6165L215.924 95.5776L216.379 95.5101L216.834 95.4825L217.289 95.4581L217.743 95.5608L218.198 95.468L218.653 95.5125L219.108 95.4817L219.563 95.6515L220.018 95.4266L220.473 95.4644L220.928 95.3426L221.382 95.1185L221.837 95.0627L222.292 94.4224L222.747 94.0885L223.202 93.5716L223.657 94.3761L224.112 94.5416L224.567 95.341L225.021 94.6129L225.476 95.3122L225.931 94.5697L226.386 95.2679L226.841 95.0841L227.296 94.9882L227.751 95.3479L228.206 95.3937L228.66 95.3939L229.115 94.8641L229.57 94.5275L230.025 94.3429L230.48 95.0561L230.935 94.8443L231.39 94.7235L231.845 94.957L232.299 95.5413L232.754 95.4921L233.209 95.7392L233.664 95.0309L234.119 95.4193L234.574 95.5324L235.029 95.4911L235.484 95.1325L235.938 95.1993L236.393 95.7626L236.848 95.7832L237.303 95.0902L237.758 95.5249L238.213 96.0278L238.668 96.0195L239.123 95.93L239.577 95.8621L240.032 95.6838L240.487 95.7072L240.942 95.7126L241.397 95.9569L241.852 95.6741L242.307 95.6491L242.762 95.7931L243.216 95.5604L243.671 95.7002L244.126 95.695L244.581 95.6131L245.036 95.4858L245.491 95.4274L245.946 94.8553L246.401 95.597L246.855 95.4017L247.31 94.91L247.765 95.7269L248.22 95.636L248.675 94.874L249.13 95.1643L249.585 94.9482L250.04 94.9764L250.494 94.941L250.949 94.1626L251.404 94.487L251.859 93.3657L252.314 94.2594L252.769 95.446L253.224 95.4696L253.679 96.0085L254.133 95.7973L254.588 95.7792L255.043 95.7385L255.498 95.6955" stroke="#737373" stroke-width="0.53" stroke-linecap="round" stroke-linejoin="round"/>
</g>
<mask id="mask4_705_2107" style="mask-type:luminance" maskUnits="userSpaceOnUse" x="0" y="0" width="264" height="97">
<path d="M264 0H0V97H264V0Z" fill="white"/>
</mask>
<g mask="url(#mask4_705_2107)">
<path d="M2.58789 94.3679L3.04276 93.4602L3.49764 93.5113L3.95251 93.5837L4.40739 93.338L4.86226 93.3117L5.31714 92.6833L5.77201 93.8319L6.22689 94.1701L6.68176 93.7649L7.13663 93.944L7.59151 93.7654L8.04638 93.9183L8.50126 93.7394L8.95613 93.761L9.41101 93.5688L9.86588 91.9933L10.3208 92.9758L10.7756 93.3042L11.2305 93.612L11.6854 93.7531L12.1403 94.016L12.5951 94.1411L13.05 94.1187L13.5049 94.1806L13.9598 93.7631L14.4146 93.3187L14.8695 93.2976L15.3244 93.6382L15.7792 94.0314L16.2341 93.0698L16.689 93.6307L17.1439 93.9861L17.5987 94.1044L18.0536 93.9706L18.5085 94.1004L18.9634 94.1082L19.4182 93.2566L19.8731 93.2366L20.328 93.4045L20.7829 93.3675L21.2377 93.5107L21.6926 92.894L22.1475 93.7108L22.6024 93.1981L23.0572 93.1813L23.5121 93.5314L23.967 93.3778L24.4219 93.4683L24.8767 93.5817L25.3316 93.8183L25.7865 93.8199L26.2414 93.3773L26.6962 93.6775L27.1511 93.9481L27.606 93.957L28.0609 94.212L28.5157 94.0615L28.9706 93.6867L29.4255 93.6004L29.8804 93.6832L30.3352 93.7841L30.7901 93.8148L31.245 94.2768L31.6999 94.068L32.1547 93.4715L32.6096 93.7522L33.0645 93.8853L33.5193 93.9579L33.9742 93.6832L34.4291 93.9602L34.884 94.0947L35.3388 93.0171L35.7937 92.3857L36.2486 93.863L36.7035 93.588L37.1583 93.7972L37.6132 93.88L38.0681 94.093L38.523 93.9269L38.9778 93.6891L39.4327 93.7589L39.8876 93.8372L40.3425 93.9985L40.7973 94.26L41.2522 94.3626L41.7071 93.5453L42.162 93.7882L42.6168 93.8934L43.0717 93.8197L43.5266 93.9636L43.9815 94.0112L44.4363 94.2101L44.8912 94.0286L45.3461 94.2315L45.801 94.3853L46.2558 94.2427L46.7107 94.0278L47.1656 94.2501L47.6205 94.3156L48.0753 93.9556L48.5302 93.987L48.9851 94.2183L49.44 94.0558L49.8948 93.8005L50.3497 94.2335L50.8046 94.1857L51.2595 94.0501L51.7143 93.9032L52.1692 93.9897L52.6241 93.9884L53.079 94.3091L53.5338 94.2584L53.9887 94.2156L54.4436 94.1425L54.8984 94.152L55.3533 94.0867L55.8082 94.179L56.2631 94.2758L56.7179 94.4584L57.1728 94.5628L57.6277 94.2713L58.0826 94.1893L58.5374 94.1847L58.9923 93.7007L59.4472 92.9373L59.9021 93.6262L60.3569 94.4829L60.8118 94.2106L61.2667 94.4308L61.7216 94.1999L62.1764 94.2366L62.6313 94.3301L63.0862 94.7597L63.5411 94.9151L63.9959 94.9416L64.4508 95.0979L64.9057 95.1527L65.3606 95.2164L65.8154 95.1138L66.2703 95.3958L66.7252 95.3991L67.1801 95.0429L67.6349 95.277L68.0898 95.1718L68.5447 95.2928L68.9996 95.3303L69.4544 95.6076L69.9093 95.6051L70.3642 95.2986L70.8191 95.3264L71.2739 95.3856L71.7288 95.4726L72.1837 95.483L72.6385 95.6953L73.0934 95.6713L73.5483 95.3085L74.0032 95.4121L74.4581 95.5509L74.9129 95.5901L75.3678 95.6054L75.8227 95.6309L76.2775 95.5979L76.7324 95.3351L77.1873 95.5252L77.6422 95.4992L78.097 95.5247L78.5519 95.6508L79.0068 95.6589L79.4617 95.6707L79.9165 95.4556L80.3714 95.4779L80.8263 95.6682L81.2812 95.5475L81.736 95.5104L82.1909 95.5671L82.6458 95.6094L83.1007 95.5538L83.5555 95.6396L84.0104 95.6013L84.4653 95.5721L84.9202 95.605L85.375 95.7176L85.8299 95.6504L86.2848 95.4695L86.7397 95.592L87.1945 95.5574L87.6494 95.5534L88.1043 95.5954L88.5592 95.8392L89.014 95.8096L89.4689 95.5981L89.9238 95.6483L90.3787 95.6579L90.8335 95.6044L91.2884 95.5938L91.7433 95.7915L92.1982 95.7474L92.653 95.3517L93.1079 95.4213L93.5628 95.3042L94.0176 95.5107L94.4725 95.5875L94.9274 95.6855L95.3823 95.5933L95.8371 95.4719L96.292 95.459L96.7469 95.4022L97.2018 95.41L97.6566 95.2761L98.1115 95.6294L98.5664 95.6361L99.0213 95.4365L99.4761 95.5593L99.931 94.976L100.386 94.8505L100.841 95.6333L101.296 95.6964L101.751 95.6024L102.205 95.5039L102.66 95.6512L103.115 95.5415L103.57 95.5068L104.025 95.6575L104.48 95.7782L104.935 95.8398L105.39 95.5763L105.844 95.6255L106.299 95.622L106.754 95.6658L107.209 95.6182L107.664 95.7919L108.119 95.785L108.574 95.734L109.029 95.8046L109.483 95.8095L109.938 95.8426L110.393 95.8485L110.848 95.8816L111.303 95.894L111.758 95.6738L112.213 95.7909L112.667 95.7112L113.122 95.6994L113.577 95.8462L114.032 95.9823L114.487 96.0094L114.942 95.9016L115.397 95.8409L115.852 95.9139L116.306 95.9406L116.761 95.7746L117.216 95.9461L117.671 95.9867L118.126 95.7611L118.581 95.8178L119.036 95.9004L119.491 95.8663L119.945 95.9486L120.4 95.9876L120.855 95.973L121.31 95.8836L121.765 95.9619L122.22 95.9119L122.675 96.0265L123.13 95.9958L123.584 96.0876L124.039 96.0509L124.494 95.8642L124.949 95.6283L125.404 95.8565L125.859 95.783L126.314 95.9253L126.769 95.9402L127.223 95.9447L127.678 95.8655L128.133 95.9474L128.588 95.9667L129.043 95.9796L129.498 95.8342L129.953 96.1263L130.408 96.1211L130.862 96.0402L131.317 96.0068L131.772 96.0464L132.227 95.3291L132.682 91.9086L133.137 94.3072L133.592 95.1721L134.047 95.3612L134.501 95.4414L134.956 95.5376L135.411 95.4233L135.866 95.3887L136.321 95.8225L136.776 95.6884L137.231 95.6917L137.686 95.3453L138.14 95.3681L138.595 95.4463L139.05 95.6936L139.505 95.8077L139.96 95.9984L140.415 95.0602L140.87 95.1939L141.325 95.1527L141.779 95.7508L142.234 95.8563L142.689 95.788L143.144 95.9114L143.599 95.9105L144.054 95.855L144.509 95.7583L144.964 95.4041L145.418 95.9136L145.873 96.0203L146.328 95.8934L146.783 95.8884L147.238 95.8895L147.693 95.2138L148.148 95.9319L148.603 95.7935L149.057 96.012L149.512 96.0091L149.967 95.9321L150.422 96.0022L150.877 96.0154L151.332 96.0388L151.787 96.1325L152.242 96.1453L152.696 95.9823L153.151 95.996L153.606 95.4616L154.061 95.7835L154.516 95.9394L154.971 95.9964L155.426 95.9577L155.881 96.133L156.335 96.105L156.79 96.088L157.245 95.9669L157.7 95.8044L158.155 95.9126L158.61 96.0723L159.065 96.1586L159.52 95.8465L159.974 95.7364L160.429 95.4491L160.884 95.8298L161.339 95.9612L161.794 95.8372L162.249 96.0136L162.704 95.9822L163.159 95.8705L163.613 95.9019L164.068 96.0602L164.523 95.37L164.978 95.6568L165.433 96.1822L165.888 96.0231L166.343 96.1098L166.798 95.9134L167.252 95.848L167.707 96.0225L168.162 96.2064L168.617 96.0449L169.072 96.0714L169.527 96.1075L169.982 95.8549L170.437 96.0903L170.891 96.0597L171.346 96.0267L171.801 96.1198L172.256 95.966L172.711 96.0745L173.166 96.033L173.621 95.8646L174.076 95.9872L174.53 95.9694L174.985 96.1472L175.44 96.0832L175.895 96.133L176.35 95.9671L176.805 95.9537L177.26 95.9038L177.715 96.0839L178.169 96.0401L178.624 96.0888L179.079 96.1158L179.534 96.1377L179.989 96.0152L180.444 95.9605L180.899 95.8822L181.354 95.3892L181.808 95.4891L182.263 95.7175L182.718 95.2925L183.173 95.8557L183.628 96.1091L184.083 96.059L184.538 96.0961L184.993 95.9968L185.447 96.0426L185.902 96.0926L186.357 96.0708L186.812 96.1289L187.267 96.2402L187.722 96.1882L188.177 96.1526L188.632 96.1499L189.086 95.9901L189.541 95.8306L189.996 95.9341L190.451 96.1364L190.906 96.1772L191.361 95.9983L191.816 96.0951L192.271 95.9141L192.725 95.9335L193.18 96.1063L193.635 96.1798L194.09 96.1883L194.545 95.8089L195 96.219L195.455 96.2503L195.91 96.2511L196.364 96.1489L196.819 96.3631L197.274 96.1098L197.729 96.1672L198.184 96.3345L198.639 96.292L199.094 96.1096L199.549 96.1796L200.003 96.0012L200.458 96.2767L200.913 96.0405L201.368 96.1482L201.823 96.2393L202.278 96.2903L202.733 96.1932L203.187 96.1522L203.642 96.2007L204.097 96.1465L204.552 96.169L205.007 96.181L205.462 96.1336L205.917 96.1435L206.372 96.235L206.827 96.2205L207.281 96.0927L207.736 95.8401L208.191 95.8451L208.646 96.0153L209.101 95.7635L209.556 95.9489L210.011 96.1114L210.465 96.0419L210.92 95.997L211.375 95.8157L211.83 95.6658L212.285 95.6787L212.74 95.6977L213.195 95.4405L213.65 95.3313L214.104 95.2209L214.559 95.1142L215.014 95.1865L215.469 95.1689L215.924 95.3961L216.379 95.4062L216.834 95.2694L217.289 95.2423L217.743 95.3281L218.198 95.5408L218.653 95.5748L219.108 95.6131L219.563 95.479L220.018 95.3479L220.473 94.9743L220.928 95.2543L221.382 95.2619L221.837 95.2318L222.292 95.3153L222.747 95.2049L223.202 95.2564L223.657 95.4115L224.112 95.3865L224.567 95.2521L225.021 95.4703L225.476 95.5557L225.931 95.5392L226.386 95.3601L226.841 95.2925L227.296 94.4312L227.751 94.8698L228.206 94.9683L228.66 95.0472L229.115 94.8016L229.57 94.7968L230.025 94.8189L230.48 94.7543L230.935 94.7897L231.39 94.7935L231.845 94.6557L232.299 94.8246L232.754 94.5686L233.209 94.1896L233.664 94.0068L234.119 93.9737L234.574 94.0479L235.029 94.1264L235.484 94.0519L235.938 93.7791L236.393 93.7826L236.848 93.471L237.303 94.0948L237.758 94.2735L238.213 94.2332L238.668 94.2197L239.123 93.7874L239.577 94.0245L240.032 94.1696L240.487 94.2754L240.942 94.1716L241.397 94.3023L241.852 94.2693L242.307 93.9721L242.762 93.4132L243.216 92.4486L243.671 92.9249L244.126 94.2605L244.581 94.3362L245.036 94.4148L245.491 94.1544L245.946 94.0179L246.401 93.8104L246.855 94.1407L247.31 94.1839L247.765 94.3032L248.22 94.2381L248.675 94.1872L249.13 93.8288L249.585 93.3148L250.04 93.6648L250.494 93.7621L250.949 94.1708L251.404 94.193L251.859 93.9954L252.314 94.2446L252.769 94.6092L253.224 94.524L253.679 94.2483L254.133 94.1818L254.588 94.3086L255.043 94.204L255.498 93.9205L255.953 93.8873L256.408 93.6789L256.863 93.6453L257.318 94.1428L257.772 94.088L258.227 93.985L258.682 94.2095L259.137 94.0143L259.592 93.8017L260.047 93.8651L260.502 93.9213L260.957 94.2992L261.411 94.23" stroke="#BABABA" stroke-width="0.53" stroke-linecap="round" stroke-linejoin="round"/>
</g>
<mask id="mask5_705_2107" style="mask-type:luminance" maskUnits="userSpaceOnUse" x="0" y="0" width="264" height="97">
<path d="M264 0H0V97H264V0Z" fill="white"/>
</mask>
<g mask="url(#mask5_705_2107)">
<path d="M2.58789 96.7226L3.04276 96.7203L3.49764 96.7247L3.95251 96.7037L4.40739 96.6585L4.86226 96.7371L5.31714 96.7623L5.77201 96.7525L6.22689 96.7066L6.68176 96.7336L7.13663 96.6694L7.59151 96.6527L8.04638 96.6805L8.50126 96.7288L8.95613 96.7662L9.41101 96.7702L9.86588 96.7313L10.3208 96.7605L10.7756 96.7913L11.2305 96.7991L11.6854 96.7966L12.1403 96.8072L12.5951 96.8281L13.05 96.8142L13.5049 96.8261L13.9598 96.8133L14.4146 96.8157L14.8695 96.7835L15.3244 96.817L15.7792 96.8395L16.2341 96.836L16.689 96.8309L17.1439 96.8287L17.5987 96.8396L18.0536 96.8002L18.5085 96.7996L18.9634 96.813L19.4182 96.7808L19.8731 96.8057L20.328 96.8105L20.7829 96.8172L21.2377 96.8338L21.6926 96.8635L22.1475 96.8633L22.6024 96.8471L23.0572 96.8214L23.5121 96.8381L23.967 96.8431L24.4219 96.8512L24.8767 96.8635L25.3316 96.8453L25.7865 96.8249L26.2414 96.8371L26.6962 96.8436L27.1511 96.8562L27.606 96.8679L28.0609 96.8752L28.5157 96.87L28.9706 96.8525L29.4255 96.8036L29.8804 96.8598L30.3352 96.8643L30.7901 96.8715L31.245 96.8769L31.6999 96.876L32.1547 96.8576L32.6096 96.8502L33.0645 96.7563L33.5193 96.8558L33.9742 96.8741L34.4291 96.8859L34.884 96.8878L35.3388 96.875L35.7937 96.8674L36.2486 96.8739L36.7035 96.8762L37.1583 96.8777L37.6132 96.882L38.0681 96.8568L38.523 96.8343L38.9778 96.8227L39.4327 96.8584L39.8876 96.8589L40.3425 96.8524L40.7973 96.8724L41.2522 96.8662L41.7071 96.8429L42.162 96.8561L42.6168 96.8631L43.0717 96.863L43.5266 96.8679L43.9815 96.8115L44.4363 96.8694L44.8912 96.8483L45.3461 96.8405L45.801 96.8679L46.2558 96.8724L46.7107 96.8761L47.1656 96.8921L47.6205 96.8826L48.0753 96.8738L48.5302 96.8846L48.9851 96.8904L49.44 96.88L49.8948 96.819L50.3497 96.8896L50.8046 96.8896L51.2595 96.8758L51.7143 96.8676L52.1692 96.8738L52.6241 96.8779L53.079 96.8855L53.5338 96.8971L53.9887 96.8838L54.4436 96.8755L54.8984 96.8737L55.3533 96.8793L55.8082 96.8768L56.2631 96.8833L56.7179 96.8898L57.1728 96.8818L57.6277 96.8854L58.0826 96.8908L58.5374 96.8791L58.9923 96.8792L59.4472 96.8867L59.9021 96.8962L60.3569 96.8866L60.8118 96.8806L61.2667 96.8811L61.7216 96.8695L62.1764 96.8806L62.6313 96.8911L63.0862 96.9089L63.5411 96.8988L63.9959 96.8749L64.4508 96.848L64.9057 96.8917L65.3606 96.8856L65.8154 96.8955L66.2703 96.9044L66.7252 96.9006L67.1801 96.8564L67.6349 96.9028L68.0898 96.908L68.5447 96.9069L68.9996 96.9088L69.4544 96.9098L69.9093 96.8998L70.3642 96.9017L70.8191 96.8669L71.2739 96.8567L71.7288 96.8873L72.1837 96.9027L72.6385 96.8958L73.0934 96.8585L73.5483 96.8674L74.0032 96.8894L74.4581 96.8872L74.9129 96.8886L75.3678 96.8804L75.8227 96.9002L76.2775 96.8875L76.7324 96.863L77.1873 96.8812L77.6422 96.8982L78.097 96.7496L78.5519 96.8876L79.0068 96.9013L79.4617 96.8969L79.9165 96.8848L80.3714 96.8846L80.8263 96.9007L81.2812 96.8852L81.736 96.8641L82.1909 96.8897L82.6458 96.8977L83.1007 96.8966L83.5555 96.8913L84.0104 96.8956L84.4653 96.8231L84.9202 96.8476L85.375 96.8369L85.8299 96.8988L86.2848 96.8636L86.7397 96.9079L87.1945 96.9157L87.6494 96.9164H88.1043L88.5592 96.9212L89.014 96.9163L89.4689 96.9173L89.9238 96.9126L90.3787 96.8984L90.8335 96.92L91.2884 96.9163L91.7433 96.9222L92.1982 96.9204L92.653 96.9136L93.1079 96.9194L93.5628 96.9143L94.0176 96.9101L94.4725 96.8977L94.9274 96.9126L95.3823 96.9133L95.8371 96.9131L96.292 96.9144L96.7469 96.9206L97.2018 96.9193L97.6566 96.9189L98.1115 96.9225L98.5664 96.9169L99.0213 96.9153L99.4761 96.8649L99.931 96.9195L100.386 96.9261L100.841 96.9261L101.296 96.9035L101.751 96.9102L102.205 96.9063L102.66 96.9182L103.115 96.9121L103.57 96.9109L104.025 96.925L104.48 96.6796L104.935 96.9291L105.39 96.9281L105.844 96.9312L106.299 96.923L106.754 96.9287L107.209 96.9307L107.664 96.933L108.119 96.9308L108.574 96.9306L109.029 96.9327L109.483 96.9304L109.938 96.9319L110.393 96.9321L110.848 96.9382L111.303 96.9343L111.758 96.9319L112.213 96.933L112.667 96.932L113.122 96.9269L113.577 96.9262L114.032 96.9342L114.487 96.9285L114.942 96.9253L115.397 96.9169L115.852 96.9158L116.306 96.9203L116.761 96.9181L117.216 96.9279L117.671 96.9238L118.126 96.9222L118.581 96.9272L119.036 96.9303L119.491 96.9277L119.945 96.9107L120.4 96.92L120.855 96.9204L121.31 96.9179L121.765 96.9275L122.22 96.9284L122.675 96.9266L123.13 96.9339L123.584 96.9396L124.039 96.9365L124.494 96.9355L124.949 96.9391L125.404 96.9406L125.859 96.9394L126.314 96.9404L126.769 96.9459L127.223 96.941L127.678 96.9396L128.133 96.9275L128.588 96.9306L129.043 96.9384L129.498 96.9386L129.953 96.9413L130.408 96.9377L130.862 96.935L131.317 96.9399L131.772 96.937L132.227 96.9318L132.682 96.9337L133.137 96.9394L133.592 96.9367L134.047 96.9357L134.501 96.9375L134.956 96.9381L135.411 96.9402L135.866 96.9127L136.321 96.9399L136.776 96.9341L137.231 96.9357L137.686 96.9342L138.14 96.9317L138.595 96.871L139.05 96.879L139.505 96.8702L139.96 96.911L140.415 96.9146L140.87 96.9259L141.325 96.9248L141.779 96.9178L142.234 96.9248L142.689 96.9245L143.144 96.9373L143.599 96.9307L144.054 96.9273L144.509 96.9223L144.964 96.9213L145.418 96.934L145.873 96.9435L146.328 96.9249L146.783 96.9203L147.238 96.9308L147.693 96.9278L148.148 96.9425L148.603 96.9457L149.057 96.9317L149.512 96.9424L149.967 96.9387L150.422 96.9389L150.877 96.9417L151.332 96.9387L151.787 96.9493L152.242 96.9452L152.696 96.9484L153.151 96.9475L153.606 96.9443L154.061 96.9332L154.516 96.9387L154.971 96.939L155.426 96.9464L155.881 96.9507L156.335 96.9419L156.79 96.9492L157.245 96.9463L157.7 96.9493L158.155 96.9494L158.61 96.9493L159.065 96.9482L159.52 96.9434L159.974 96.9426L160.429 96.9424L160.884 96.9439L161.339 96.9251L161.794 96.911L162.249 96.9431L162.704 96.9406L163.159 96.9439L163.613 96.9323L164.068 96.9318L164.523 96.941L164.978 96.9484L165.433 96.9367L165.888 96.8664L166.343 96.9195L166.798 96.9331L167.252 96.9378L167.707 96.949L168.162 96.9144L168.617 96.9554L169.072 96.9531L169.527 96.9496L169.982 96.9439L170.437 96.9536L170.891 96.9483L171.346 96.9575L171.801 96.9586L172.256 96.9477L172.711 96.9519L173.166 96.9559L173.621 96.9515L174.076 96.9543L174.53 96.9507L174.985 96.9585L175.44 96.9538L175.895 96.9452L176.35 96.9535L176.805 96.96L177.26 96.9578L177.715 96.954L178.169 96.9528L178.624 96.9482L179.079 96.9557L179.534 96.9495L179.989 96.9554L180.444 96.9485L180.899 96.9598L181.354 96.9453L181.808 96.9537L182.263 96.9592L182.718 96.9503L183.173 96.9543L183.628 96.9578L184.083 96.9557L184.538 96.9571L184.993 96.9513L185.447 96.9501L185.902 96.944L186.357 96.9479L186.812 96.9541L187.267 96.964L187.722 96.9596L188.177 96.9586L188.632 96.9576L189.086 96.9531L189.541 96.9538L189.996 96.9484L190.451 96.9336L190.906 96.9438L191.361 96.9472L191.816 96.9509L192.271 96.9405L192.725 96.9429L193.18 96.9498H193.635L194.09 96.9517L194.545 96.95L195 96.9547L195.455 96.9535L195.91 96.9537L196.364 96.9523L196.819 96.9581L197.274 96.9571L197.729 96.9544L198.184 96.9523L198.639 96.9518L199.094 96.948L199.549 96.953L200.003 96.9435L200.458 96.9573L200.913 96.9509L201.368 96.9496L201.823 96.9537L202.278 96.9525L202.733 96.949L203.187 96.9515L203.642 96.956L204.097 96.9616L204.552 96.9638L205.007 96.9391L205.462 96.9635L205.917 96.9635L206.372 96.9641L206.827 96.9665L207.281 96.942L207.736 96.9656L208.191 96.9614L208.646 96.9598L209.101 96.9642L209.556 96.9658L210.011 96.9689L210.465 96.9643L210.92 96.9675L211.375 96.9637L211.83 96.964L212.285 96.9677L212.74 96.9709L213.195 96.9616L213.65 96.9652L214.104 96.9666L214.559 96.9617L215.014 96.9575L215.469 96.9628L215.924 96.9566L216.379 96.9597L216.834 96.9601L217.289 96.9592L217.743 96.9576L218.198 96.9624L218.653 96.9702L219.108 96.9722L219.563 96.9678L220.018 96.9646L220.473 96.9642L220.928 96.9606L221.382 96.9661L221.837 96.9678L222.292 96.9742L222.747 96.9722L223.202 96.9706L223.657 96.9729L224.112 96.971L224.567 96.9699L225.021 96.9717L225.476 96.9732L225.931 96.9723L226.386 96.9681L226.841 96.9697L227.296 96.9689L227.751 96.9709L228.206 96.9699L228.66 96.9762L229.115 96.9751L229.57 96.9708L230.025 96.9741L230.48 96.9738L230.935 96.9729L231.39 96.9732L231.845 96.972L232.299 96.9741L232.754 96.9736L233.209 96.9756L233.664 96.9628L234.119 96.9668L234.574 96.9761L235.029 96.9796L235.484 96.9766L235.938 96.9749L236.393 96.9756L236.848 96.9743L237.303 96.9689L237.758 96.9755L238.213 96.9785L238.668 96.9767L239.123 96.972L239.577 96.973L240.032 96.954L240.487 96.9455L240.942 96.9401L241.397 96.9353L241.852 96.9118L242.307 96.9244L242.762 96.9113L243.216 96.9317L243.671 96.9122L244.126 96.9242L244.581 96.9136L245.036 96.9114L245.491 96.9091L245.946 96.8948L246.401 96.9005L246.855 96.875L247.31 96.8899L247.765 96.9152L248.22 96.9034L248.675 96.8875L249.13 96.9258L249.585 96.9206L250.04 96.9126L250.494 96.916L250.949 96.9161L251.404 96.9264L251.859 96.9053L252.314 96.9176L252.769 96.894L253.224 96.9087L253.679 96.9102L254.133 96.9092L254.588 96.9181L255.043 96.858L255.498 96.8878L255.953 96.9082L256.408 96.9082L256.863 96.8961L257.318 96.9167L257.772 96.9218L258.227 96.9093L258.682 96.9102L259.137 96.9093L259.592 96.8917L260.047 96.8958L260.502 96.8712L260.957 96.9028L261.411 96.9007" stroke="#808080" stroke-width="0.53" stroke-linecap="round" stroke-linejoin="round"/>
</g>
<mask id="mask6_705_2107" style="mask-type:luminance" maskUnits="userSpaceOnUse" x="0" y="0" width="264" height="97">
<path d="M264 0H0V97H264V0Z" fill="white"/>
</mask>
<g mask="url(#mask6_705_2107)">
<path d="M2.58789 97H3.04276H3.49764H3.95251H4.40739H4.86226H5.31714H5.77201H6.22689H6.68176L7.13663 96.4111L7.59151 96.6919L8.04638 96.6035L8.50126 96.5338L8.95613 96.5706L9.41101 96.6219L9.86588 96.6327L10.3208 96.4376L10.7756 96.4652L11.2305 96.4955L11.6854 96.634L12.1403 96.6901L12.5951 96.6651L13.05 96.6701L13.5049 96.6668L13.9598 96.691L14.4146 96.6914L14.8695 96.7175L15.3244 96.729L15.7792 96.7661L16.2341 96.7474L16.689 96.7542L17.1439 96.7652L17.5987 96.7545L18.0536 96.7475L18.5085 96.7645L18.9634 96.7563L19.4182 96.7035L19.8731 96.7011L20.328 96.7392L20.7829 96.7567L21.2377 96.7693L21.6926 96.7766L22.1475 96.7726L22.6024 96.7754L23.0572 96.7458L23.5121 96.7484L23.967 96.7644L24.4219 96.7471L24.8767 96.7635L25.3316 96.3983L25.7865 96.4406L26.2414 96.6092L26.6962 96.672L27.1511 96.6415L27.606 96.6337L28.0609 96.7009L28.5157 96.7358L28.9706 96.7021L29.4255 96.6793L29.8804 96.7242L30.3352 96.6939L30.7901 96.7365L31.245 96.7705L31.6999 96.7768L32.1547 96.767L32.6096 96.7758L33.0645 96.7603L33.5193 96.7732L33.9742 96.7042L34.4291 96.7938L34.884 96.8004L35.3388 96.7765L35.7937 96.787L36.2486 96.7979L36.7035 96.7942L37.1583 96.8035L37.6132 96.7872L38.0681 96.7698L38.523 96.7747L38.9778 96.7695L39.4327 96.7903L39.8876 96.7754L40.3425 96.7661L40.7973 96.811L41.2522 96.7882L41.7071 96.7096L42.162 96.7524L42.6168 96.7597L43.0717 96.7721L43.5266 96.7776L43.9815 96.5531L44.4363 96.688L44.8912 96.6243L45.3461 96.7124L45.801 96.7591L46.2558 96.7714L46.7107 96.7877L47.1656 96.8L47.6205 96.7608L48.0753 96.7762L48.5302 96.7856L48.9851 96.7858L49.44 96.8026L49.8948 96.8028L50.3497 96.8044L50.8046 96.8116L51.2595 96.7787L51.7143 96.7783L52.1692 96.7941L52.6241 96.7831L53.079 96.8146L53.5338 96.8301L53.9887 96.8158L54.4436 96.8056L54.8984 96.7586L55.3533 96.8049L55.8082 96.8187L56.2631 96.828L56.7179 96.8451L57.1728 96.843L57.6277 96.8321L58.0826 96.8347L58.5374 96.8257L58.9923 96.8305L59.4472 96.8389L59.9021 96.8527L60.3569 96.8365L60.8118 96.8021L61.2667 96.8199L61.7216 96.8236L62.1764 96.8247L62.6313 96.8417L63.0862 96.8684L63.5411 96.8619L63.9959 96.8545L64.4508 96.8541L64.9057 96.8629L65.3606 96.8647L65.8154 96.8688L66.2703 96.8798L66.7252 96.8696L67.1801 96.8442L67.6349 96.8528L68.0898 96.8612L68.5447 96.8743L68.9996 96.8765L69.4544 96.881L69.9093 96.8805L70.3642 96.841L70.8191 96.8485L71.2739 96.8413L71.7288 96.8411L72.1837 96.8452L72.6385 96.8493L73.0934 96.827L73.5483 96.8443L74.0032 96.8576L74.4581 96.8661L74.9129 96.8597L75.3678 96.8714L75.8227 96.8738L76.2775 96.8547L76.7324 96.839L77.1873 96.8599L77.6422 96.8757L78.097 96.8597L78.5519 96.862L79.0068 96.8777L79.4617 96.8754L79.9165 96.862L80.3714 96.8679L80.8263 96.7653L81.2812 96.6323L81.736 96.8378L82.1909 96.8672L82.6458 96.7731L83.1007 96.8534L83.5555 96.8772L84.0104 96.8761L84.4653 96.8679L84.9202 96.8708L85.375 96.8769L85.8299 96.8777L86.2848 96.8642L86.7397 96.8668L87.1945 96.8757L87.6494 96.8731L88.1043 96.8797L88.5592 96.8893L89.014 96.8816L89.4689 96.8701L89.9238 96.8785L90.3787 96.8784L90.8335 96.8782L91.2884 96.8744L91.7433 96.8846L92.1982 96.8754L92.653 96.8473L93.1079 96.849L93.5628 96.8584L94.0176 96.8769L94.4725 96.8705L94.9274 96.8464L95.3823 96.8327L95.8371 96.8484L96.292 96.8646L96.7469 96.8181L97.2018 96.8149L97.6566 96.6854L98.1115 96.5955L98.5664 96.6153L99.0213 96.6776L99.4761 96.7214L99.931 96.7997L100.386 96.7988L100.841 96.8247L101.296 96.8418L101.751 96.851L102.205 96.8193L102.66 96.854L103.115 96.8485L103.57 96.8365L104.025 96.8622L104.48 96.7605L104.935 96.7897L105.39 96.8266L105.844 96.8502L106.299 96.8504L106.754 96.847L107.209 96.8485L107.664 96.8473L108.119 96.8425L108.574 96.8506L109.029 96.8135L109.483 96.8596L109.938 96.8436L110.393 96.8695L110.848 96.882L111.303 96.8812L111.758 96.8598L112.213 96.5347L112.667 96.8568L113.122 96.8382L113.577 96.8654L114.032 96.8564L114.487 96.8606L114.942 96.842L115.397 96.8437L115.852 96.8676L116.306 96.8733L116.761 96.8246L117.216 96.8443L117.671 96.8396L118.126 96.7858L118.581 96.8438L119.036 96.8547L119.491 96.8606L119.945 96.8643L120.4 96.8418L120.855 96.841L121.31 96.8351L121.765 96.8541L122.22 96.8516L122.675 96.8103L123.13 96.8329L123.584 96.8171L124.039 96.866L124.494 96.8556L124.949 96.8432L125.404 96.864L125.859 96.8576L126.314 96.8652L126.769 96.8748L127.223 96.87L127.678 96.8611L128.133 96.8643L128.588 96.8639L129.043 96.8529L129.498 96.8733L129.953 96.8738L130.408 96.8433L130.862 96.8437L131.317 96.8632L131.772 96.8608L132.227 96.8639L132.682 96.8722L133.137 96.879L133.592 96.8511L134.047 96.853L134.501 95.7095L134.956 95.2723L135.411 95.9196L135.866 96.6306L136.321 96.6344L136.776 96.4945L137.231 96.1891L137.686 96.6289L138.14 96.6829L138.595 96.7102L139.05 96.6758L139.505 96.1964L139.96 96.427L140.415 96.6081L140.87 96.6434L141.325 96.6531L141.779 96.6826L142.234 96.5845L142.689 96.6097L143.144 96.4118L143.599 96.5507L144.054 96.3899L144.509 96.6425L144.964 96.6449L145.418 96.7569L145.873 96.798L146.328 96.2375L146.783 96.7757L147.238 96.7518L147.693 96.7393L148.148 96.7997L148.603 96.8043L149.057 96.7854L149.512 96.7979L149.967 96.496L150.422 96.7949L150.877 96.6554L151.332 96.7567L151.787 96.5835L152.242 96.7515L152.696 96.8036L153.151 96.8481L153.606 96.8055L154.061 96.8351L154.516 96.8483L154.971 96.8429L155.426 96.8536L155.881 96.8577L156.335 96.8601L156.79 96.8575L157.245 96.825L157.7 96.8434L158.155 96.8637L158.61 96.8665L159.065 96.8754L159.52 96.868L159.974 96.8642L160.429 96.8694L160.884 96.876L161.339 96.8747L161.794 96.8827L162.249 96.6918L162.704 96.8875L163.159 96.8849L163.613 96.8883L164.068 96.256L164.523 96.3541L164.978 96.1158L165.433 96.5099L165.888 96.8825L166.343 96.8764L166.798 96.862L167.252 96.8664L167.707 96.8819L168.162 96.9006L168.617 96.901L169.072 96.8869L169.527 96.8888L169.982 96.8709L170.437 96.884L170.891 96.8766L171.346 96.8807L171.801 96.8734L172.256 96.8406L172.711 96.8051L173.166 96.855L173.621 96.8676L174.076 96.8882L174.53 96.8769L174.985 96.8749L175.44 96.8852L175.895 96.8789L176.35 96.8838L176.805 96.9052L177.26 96.8812L177.715 96.864L178.169 96.8547L178.624 96.861L179.079 96.8811L179.534 96.8875L179.989 96.8792L180.444 96.8743L180.899 96.8773L181.354 96.872L181.808 96.892L182.263 96.8954L182.718 96.8897L183.173 96.8812L183.628 96.8884L184.083 96.8683L184.538 96.8798L184.993 96.8805L185.447 96.8737L185.902 96.0671L186.357 95.7089L186.812 95.485L187.267 96.2413L187.722 96.0408L188.177 96.3893L188.632 96.2419L189.086 96.0915L189.541 94.6423L189.996 94.694L190.451 96.4309L190.906 96.4773L191.361 94.8569L191.816 94.7542L192.271 95.843L192.725 96.8665L193.18 96.8856L193.635 96.8262L194.09 96.8303L194.545 96.8471L195 96.8827L195.455 96.8767L195.91 96.8811L196.364 95.9925L196.819 96.248L197.274 96.8804L197.729 96.8927L198.184 96.8842L198.639 96.8786L199.094 96.8715L199.549 96.8712L200.003 96.8755L200.458 96.8868L200.913 96.8633L201.368 96.8203L201.823 96.8875L202.278 96.8918L202.733 96.8472L203.187 96.8383L203.642 96.7972L204.097 96.8232L204.552 96.8412L205.007 96.7263L205.462 96.7978L205.917 96.7864L206.372 96.7901L206.827 96.7606L207.281 96.6505L207.736 96.7671L208.191 96.8039L208.646 96.7607L209.101 96.7988L209.556 96.8262L210.011 96.8444L210.465 96.698L210.92 96.8761L211.375 96.8849L211.83 96.8775L212.285 96.8782L212.74 96.9031L213.195 96.8743L213.65 96.8776L214.104 96.8374L214.559 96.8752L215.014 96.8576L215.469 96.8175L215.924 96.8506L216.379 96.8612L216.834 96.8554L217.289 96.8469L217.743 96.8347L218.198 96.8818L218.653 96.7266L219.108 96.5318L219.563 96.7409L220.018 96.5339L220.473 96.8439L220.928 96.7153L221.382 96.726L221.837 96.8094L222.292 96.8733L222.747 96.8916L223.202 96.8765L223.657 96.8828L224.112 96.8929L224.567 96.902L225.021 96.9039L225.476 96.9033L225.931 96.8998L226.386 96.8896L226.841 96.9085L227.296 96.9014L227.751 96.8573L228.206 96.762L228.66 96.881L229.115 96.8926L229.57 96.8864L230.025 96.8905L230.48 96.874L230.935 96.7471L231.39 96.8894L231.845 96.9102L232.299 96.9188L232.754 96.9032L233.209 96.9076L233.664 96.8704L234.119 96.6842L234.574 96.8836L235.029 96.905L235.484 96.9115L235.938 96.9076L236.393 96.7004L236.848 96.9018L237.303 96.9134L237.758 96.9165L238.213 96.9011L238.668 96.9149L239.123 96.9128L239.577 96.896L240.032 96.89L240.487 96.9136L240.942 96.913L241.397 96.8963L241.852 96.915L242.307 96.8686L242.762 96.8923L243.216 96.8912L243.671 96.8944L244.126 96.9002L244.581 96.9103L245.036 96.879L245.491 96.8854L245.946 96.8895L246.401 96.8762L246.855 96.872L247.31 96.858L247.765 96.8673L248.22 96.8584L248.675 96.8598L249.13 96.8524L249.585 96.807L250.04 96.8444L250.494 96.823L250.949 96.8618L251.404 96.8882L251.859 96.8683L252.314 96.8778L252.769 96.8636L253.224 96.8579L253.679 96.8907L254.133 96.8866L254.588 96.8772L255.043 96.8612L255.498 96.8793L255.953 96.8723L256.408 96.8529L256.863 96.8538L257.318 96.8807L257.772 96.8632L258.227 96.8772L258.682 96.8809L259.137 96.8696L259.592 96.8627L260.047 96.8746L260.502 96.8622L260.957 96.8722L261.411 96.8579" stroke="#A3A3A3" stroke-width="0.53" stroke-linecap="round" stroke-linejoin="round"/>
</g>
<mask id="mask7_705_2107" style="mask-type:luminance" maskUnits="userSpaceOnUse" x="0" y="0" width="264" height="97">
<path d="M264 0H0V97H264V0Z" fill="white"/>
</mask>
<g mask="url(#mask7_705_2107)">
<path d="M2.58789 96.0932L3.04276 95.927L3.49764 96.0428L3.95251 96.0139L4.40739 96.055L4.86226 96.1521L5.31714 96.2034L5.77201 96.2421L6.22689 96.2321L6.68176 96.2114L7.13663 96.228L7.59151 96.2073L8.04638 96.2162L8.50126 96.2379L8.95613 96.2508L9.41101 96.2597L9.86588 96.1845L10.3208 95.9688L10.7756 95.8714L11.2305 96.0785L11.6854 96.2859L12.1403 96.2193L12.5951 96.2628L13.05 96.2605L13.5049 96.2969L13.9598 96.2075L14.4146 96.2082L14.8695 96.1588L15.3244 96.0177L15.7792 96.0356L16.2341 96.0158L16.689 96.0851L17.1439 96.1299L17.5987 96.2414L18.0536 96.1007L18.5085 95.9916L18.9634 95.9721L19.4182 95.8298L19.8731 95.8828L20.328 95.9709L20.7829 95.9097L21.2377 95.9L21.6926 95.9618L22.1475 95.9172L22.6024 95.8446L23.0572 95.768L23.5121 95.7998L23.967 95.8211L24.4219 95.8815L24.8767 95.6724L25.3316 95.8178L25.7865 95.7576L26.2414 95.8859L26.6962 95.8238L27.1511 95.9198L27.606 95.9022L28.0609 95.9545L28.5157 95.9406L28.9706 95.811L29.4255 95.706L29.8804 95.7413L30.3352 95.7293L30.7901 95.7937L31.245 95.8217L31.6999 95.7338L32.1547 95.6854L32.6096 95.8505L33.0645 95.6159L33.5193 95.674L33.9742 95.6101L34.4291 95.6827L34.884 95.6585L35.3388 95.5516L35.7937 95.6544L36.2486 95.6307L36.7035 95.6224L37.1583 95.5663L37.6132 95.6515L38.0681 95.5568L38.523 95.637L38.9778 95.6131L39.4327 95.6313L39.8876 95.5625L40.3425 95.2777L40.7973 95.3311L41.2522 95.3816L41.7071 95.0574L42.162 95.1968L42.6168 95.2138L43.0717 95.2186L43.5266 95.0329L43.9815 95.0456L44.4363 94.9997L44.8912 94.8697L45.3461 95.0886L45.801 94.8057L46.2558 94.8611L46.7107 94.9275L47.1656 94.8969L47.6205 95.0436L48.0753 95.0193L48.5302 94.8982L48.9851 95.0352L49.44 95.1165L49.8948 95.1663L50.3497 95.2236L50.8046 95.2155L51.2595 95.1851L51.7143 95.0299L52.1692 95.1212L52.6241 95.1738L53.079 95.2087L53.5338 95.2176L53.9887 95.2748L54.4436 95.2561L54.8984 95.2392L55.3533 95.2618L55.8082 95.086L56.2631 95.0888L56.7179 95.4729L57.1728 95.4319L57.6277 95.2344L58.0826 95.3539L58.5374 95.495L58.9923 95.2743L59.4472 95.6036L59.9021 95.7294L60.3569 95.4231L60.8118 95.7998L61.2667 95.7832L61.7216 95.7542L62.1764 95.7233L62.6313 95.7564L63.0862 95.9296L63.5411 95.9032L63.9959 95.9402L64.4508 95.9217L64.9057 96.0102L65.3606 95.9425L65.8154 95.9191L66.2703 96.0231L66.7252 96.012L67.1801 95.9674L67.6349 96.0218L68.0898 95.973L68.5447 95.8987L68.9996 96.0971L69.4544 96.1637L69.9093 96.1538L70.3642 96.0585L70.8191 96.0797L71.2739 96.094L71.7288 96.1735L72.1837 96.1959L72.6385 96.2399L73.0934 96.2139L73.5483 96.1138L74.0032 96.1868L74.4581 95.9636L74.9129 96.0844L75.3678 96.1773L75.8227 96.1263L76.2775 96.218L76.7324 95.9593L77.1873 96.1085L77.6422 96.1262L78.097 96.0465L78.5519 96.18L79.0068 96.2285L79.4617 96.2348L79.9165 96.2477L80.3714 96.2861L80.8263 96.3014L81.2812 96.2486L81.736 96.1844L82.1909 96.2464L82.6458 96.2668L83.1007 96.2857L83.5555 96.2759L84.0104 96.3066L84.4653 96.2926L84.9202 96.1769L85.375 96.3144L85.8299 96.3099L86.2848 96.2871L86.7397 96.3302L87.1945 96.3362L87.6494 96.3114L88.1043 96.3263L88.5592 96.3648L89.014 96.371L89.4689 96.3858L89.9238 96.362L90.3787 96.2988L90.8335 96.3168L91.2884 96.3306L91.7433 96.369L92.1982 96.3551L92.653 96.2626L93.1079 96.2601L93.5628 96.295L94.0176 96.3837L94.4725 96.3817L94.9274 96.4191L95.3823 96.3844L95.8371 96.3826L96.292 96.4177L96.7469 96.3895L97.2018 96.3246L97.6566 96.3341L98.1115 96.3381L98.5664 96.3381L99.0213 96.2999L99.4761 96.1781L99.931 96.1824L100.386 96.2825L100.841 96.3541L101.296 96.3645L101.751 96.3826L102.205 96.241L102.66 96.2905L103.115 96.2927L103.57 96.3215L104.025 96.326L104.48 96.3282L104.935 96.3627L105.39 96.3034L105.844 96.3722L106.299 96.3788L106.754 96.4168L107.209 96.2338L107.664 96.4652L108.119 96.4669L108.574 96.3681L109.029 96.3671L109.483 96.4249L109.938 96.433L110.393 96.4321L110.848 96.5041L111.303 96.5105L111.758 96.4424L112.213 96.4378L112.667 96.3902L113.122 96.3709L113.577 96.4359L114.032 96.4801L114.487 96.456L114.942 96.4438L115.397 96.4392L115.852 96.4428L116.306 96.414L116.761 96.4204L117.216 96.4648L117.671 96.4797L118.126 96.462L118.581 96.4976L119.036 96.5115L119.491 96.4773L119.945 96.5032L120.4 96.5148L120.855 96.5215L121.31 96.5179L121.765 96.5581L122.22 96.5151L122.675 96.4975L123.13 96.4207L123.584 96.4956L124.039 96.5091L124.494 96.5077L124.949 96.5062L125.404 96.542L125.859 96.5417L126.314 96.5174L126.769 96.5373L127.223 96.5224L127.678 96.5272L128.133 96.5431L128.588 96.5408L129.043 96.5063L129.498 96.5232L129.953 96.5568L130.408 96.5247L130.862 96.5364L131.317 96.5509L131.772 96.5602L132.227 96.5261L132.682 96.5333L133.137 96.5758L133.592 96.5326L134.047 96.4772L134.501 96.5194L134.956 96.5531L135.411 96.5686L135.866 96.543L136.321 96.5388L136.776 96.5459L137.231 96.5497L137.686 96.534L138.14 96.5096L138.595 96.5447L139.05 96.5325L139.505 96.4999L139.96 96.5495L140.415 96.5309L140.87 96.5387L141.325 96.5541L141.779 96.4453L142.234 96.4681L142.689 96.4463L143.144 96.4227L143.599 96.5177L144.054 96.4795L144.509 96.3823L144.964 96.4798L145.418 96.5434L145.873 96.5025L146.328 96.0861L146.783 96.2765L147.238 96.4698L147.693 96.5715L148.148 96.516L148.603 96.5853L149.057 96.5963L149.512 96.6037L149.967 96.6064L150.422 96.6276L150.877 96.602L151.332 96.6131L151.787 96.6162L152.242 96.6559L152.696 96.6281L153.151 96.6237L153.606 96.6257L154.061 96.5831L154.516 96.6031L154.971 96.6302L155.426 96.6416L155.881 96.6392L156.335 96.5736L156.79 96.6314L157.245 96.6519L157.7 96.6176L158.155 96.6386L158.61 96.651L159.065 96.5908L159.52 96.6425L159.974 96.6221L160.429 96.612L160.884 96.6314L161.339 96.5993L161.794 96.632L162.249 96.6654L162.704 96.6494L163.159 96.6723L163.613 96.6913L164.068 96.6965L164.523 96.6844L164.978 96.7074L165.433 96.7168L165.888 96.679L166.343 96.6939L166.798 96.6857L167.252 96.6922L167.707 96.5771L168.162 96.6837L168.617 96.6892L169.072 96.659L169.527 96.661L169.982 95.7745L170.437 96.5836L170.891 96.6264L171.346 96.6262L171.801 96.6288L172.256 96.4713L172.711 96.6581L173.166 96.5738L173.621 96.5957L174.076 96.4186L174.53 96.4592L174.985 96.5805L175.44 96.3344L175.895 96.4552L176.35 96.4522L176.805 96.6007L177.26 96.5692L177.715 96.5424L178.169 96.5816L178.624 96.6008L179.079 96.5961L179.534 96.6338L179.989 96.5874L180.444 96.6146L180.899 96.6267L181.354 96.5728L181.808 96.612L182.263 96.619L182.718 96.6032L183.173 96.585L183.628 96.6236L184.083 96.5724L184.538 96.5954L184.993 96.6025L185.447 96.6116L185.902 96.5441L186.357 96.6224L186.812 96.6526L187.267 96.6672L187.722 96.5975L188.177 96.6611L188.632 96.6193L189.086 96.6066L189.541 96.5826L189.996 96.5578L190.451 96.6175L190.906 96.6417L191.361 96.6066L191.816 96.6225L192.271 96.4935L192.725 96.6589L193.18 96.6804L193.635 96.6921L194.09 96.6675L194.545 96.6475L195 96.6555L195.455 96.6745L195.91 96.681L196.364 96.6773L196.819 96.6959L197.274 96.6702L197.729 96.6819L198.184 96.6777L198.639 96.6668L199.094 96.67L199.549 96.6072L200.003 96.5173L200.458 96.6426L200.913 96.589L201.368 96.2326L201.823 96.5598L202.278 96.6286L202.733 96.5076L203.187 96.6311L203.642 96.4578L204.097 96.6254L204.552 96.6764L205.007 96.5885L205.462 96.6865L205.917 96.6872L206.372 96.6947L206.827 96.6965L207.281 96.5596L207.736 96.6999L208.191 96.6326L208.646 96.6265L209.101 96.4712L209.556 96.6786L210.011 96.69L210.465 96.6624L210.92 96.6653L211.375 96.6417L211.83 96.7144L212.285 96.717L212.74 96.7331L213.195 96.6925L213.65 96.6938L214.104 96.5066L214.559 96.7186L215.014 96.6804L215.469 96.6627L215.924 96.7003L216.379 96.6425L216.834 96.6569L217.289 96.6322L217.743 96.6979L218.198 96.5745L218.653 96.622L219.108 96.7229L219.563 96.733L220.018 96.7316L220.473 96.6935L220.928 96.6753L221.382 96.6976L221.837 96.688L222.292 96.7308L222.747 96.7094L223.202 96.7041L223.657 96.715L224.112 96.7304L224.567 96.7094L225.021 96.6983L225.476 96.7235L225.931 96.7264L226.386 96.7145L226.841 96.7398L227.296 96.747L227.751 96.7419L228.206 96.7391L228.66 96.7573L229.115 96.7447L229.57 96.7337L230.025 96.7294L230.48 96.7539L230.935 96.7143L231.39 96.7571L231.845 96.7703L232.299 96.7756L232.754 96.7547L233.209 96.6977L233.664 96.7389L234.119 96.7706L234.574 96.776L235.029 96.7686L235.484 96.7712L235.938 96.7604L236.393 96.7377L236.848 96.7577L237.303 96.744L237.758 96.7667L238.213 96.7701L238.668 96.7458L239.123 96.7311L239.577 96.7544L240.032 96.7288L240.487 96.7085L240.942 96.7532L241.397 96.7264L241.852 96.7609L242.307 96.7612L242.762 96.7706L243.216 96.7663L243.671 96.7298L244.126 96.7158L244.581 96.7256L245.036 96.7563L245.491 96.7504L245.946 96.7361L246.401 96.7266L246.855 96.7287L247.31 96.7395L247.765 96.7481L248.22 96.7532L248.675 96.741L249.13 96.7451L249.585 96.7495L250.04 96.7558L250.494 96.7379L250.949 96.7502L251.404 96.7366L251.859 96.7398L252.314 96.7509L252.769 96.7291L253.224 96.7177L253.679 96.7255L254.133 96.7546L254.588 96.7653L255.043 96.7505L255.498 96.729L255.953 96.735L256.408 96.6941L256.863 96.6767L257.318 96.7212L257.772 96.7261L258.227 96.7383L258.682 96.736L259.137 96.7218L259.592 96.7348L260.047 96.7435L260.502 96.759L260.957 96.7622L261.411 96.7549" stroke="#8C8C8C" stroke-width="0.53" stroke-linecap="round" stroke-linejoin="round"/>
</g>
<mask id="mask8_705_2107" style="mask-type:luminance" maskUnits="userSpaceOnUse" x="0" y="0" width="264" height="97">
<path d="M264 0H0V97H264V0Z" fill="white"/>
</mask>
<g mask="url(#mask8_705_2107)">
<path d="M2.58789 96.9995H3.04276L3.49764 96.9994L3.95251 96.9991L4.40739 96.9993L4.86226 96.9992L5.31714 96.9994L5.77201 96.9995L6.22689 96.9995L6.68176 96.9992L7.13663 96.9993L7.59151 96.9995L8.04638 96.9993L8.50126 96.9996H8.95613L9.41101 96.9993L9.86588 96.9992L10.3208 96.9989L10.7756 96.9994L11.2305 96.9995L11.6854 96.9992L12.1403 96.9993L12.5951 96.9995L13.05 96.9995L13.5049 96.9985L13.9598 96.999L14.4146 96.9992L14.8695 96.9993H15.3244H15.7792L16.2341 96.9993L16.689 96.9992L17.1439 96.9991H17.5987L18.0536 96.9991L18.5085 96.9989L18.9634 96.9994L19.4182 96.9992L19.8731 96.9985L20.328 96.9994L20.7829 96.9988L21.2377 96.9988L21.6926 96.9991L22.1475 96.9992L22.6024 96.9988L23.0572 96.9989L23.5121 96.9988L23.967 96.9987L24.4219 96.9945L24.8767 96.9548L25.3316 96.5916L25.7865 96.6595L26.2414 96.8458L26.6962 96.5122L27.1511 96.1244L27.606 95.393L28.0609 95.3294L28.5157 94.182L28.9706 95.4432L29.4255 89.5326L29.8804 93.5113L30.3352 96.3301L30.7901 96.2814L31.245 96.1059L31.6999 96.2194L32.1547 91.4899L32.6096 90.2858L33.0645 96.2674L33.5193 95.4726L33.9742 96.2963L34.4291 95.6573L34.884 87.797L35.3388 90.2657L35.7937 91.4964L36.2486 90.391L36.7035 92.231L37.1583 96.8173L37.6132 96.5213L38.0681 96.6888L38.523 96.6973L38.9778 96.5061L39.4327 96.4383L39.8876 96.6088L40.3425 96.6108L40.7973 96.8845L41.2522 96.9365L41.7071 96.8834L42.162 96.6212L42.6168 96.8634L43.0717 96.7896L43.5266 96.7864L43.9815 96.8419L44.4363 96.7912L44.8912 96.5892L45.3461 96.72L45.801 88.6397L46.2558 84.3666L46.7107 79.4567L47.1656 86.6253L47.6205 76.7316L48.0753 90.8224L48.5302 91.5158L48.9851 94.1531L49.44 96.6158L49.8948 96.4125L50.3497 96.6179L50.8046 95.7132L51.2595 95.0918L51.7143 96.6747H52.1692L52.6241 96.7394L53.079 96.7893L53.5338 96.712L53.9887 96.6992L54.4436 96.6091L54.8984 96.5504L55.3533 96.7113L55.8082 95.6229L56.2631 96.49L56.7179 96.8549L57.1728 96.8806L57.6277 96.7561L58.0826 96.5278L58.5374 96.8642L58.9923 96.9757L59.4472 96.8351L59.9021 89.0255L60.3569 95.7826L60.8118 96.8128L61.2667 96.7303L61.7216 96.771L62.1764 96.9659L62.6313 96.7317L63.0862 96.9817L63.5411 96.6827L63.9959 96.5582L64.4508 96.5828L64.9057 96.5896L65.3606 96.4897L65.8154 96.4039L66.2703 96.4081L66.7252 96.6905L67.1801 96.6192L67.6349 96.3748L68.0898 96.4148L68.5447 96.6512L68.9996 96.7015L69.4544 96.6323L69.9093 96.5549L70.3642 96.59L70.8191 96.6419L71.2739 96.7608L71.7288 96.7762L72.1837 95.4737L72.6385 96.8145L73.0934 96.9593L73.5483 96.7L74.0032 96.5847L74.4581 96.7111L74.9129 96.715L75.3678 96.8874L75.8227 96.4501L76.2775 96.5793L76.7324 96.7108L77.1873 96.7777L77.6422 96.8053L78.097 96.713L78.5519 96.6885L79.0068 96.9362L79.4617 96.766L79.9165 96.7664L80.3714 96.6796L80.8263 96.7117L81.2812 96.8268L81.736 96.6353L82.1909 96.6725L82.6458 96.7034L83.1007 96.7001L83.5555 96.7763L84.0104 96.6564L84.4653 96.7605L84.9202 96.6967L85.375 96.7681L85.8299 96.955L86.2848 96.9847L86.7397 96.8466L87.1945 95.168L87.6494 96.6271L88.1043 96.6787L88.5592 96.7151L89.014 96.9373L89.4689 96.871L89.9238 87.4921L90.3787 94.2879L90.8335 96.2679L91.2884 96.0652L91.7433 96.1187L92.1982 96.4229L92.653 96.3904L93.1079 96.1449L93.5628 96.3778L94.0176 96.4499L94.4725 96.3936L94.9274 96.3961L95.3823 96.2309L95.8371 96.2583L96.292 96.1582L96.7469 96.2535L97.2018 96.6444L97.6566 96.3925L98.1115 96.2625L98.5664 96.5866L99.0213 95.4298L99.4761 91.7807L99.931 88.6836L100.386 87.622L100.841 86.2381L101.296 85.2593L101.751 85.0049L102.205 84.6975L102.66 84.7745L103.115 83.8223L103.57 83.3821L104.025 80.225L104.48 74.1841L104.935 74.115L105.39 73.8782L105.844 74.0353L106.299 74.0221L106.754 73.5194L107.209 73.5165L107.664 73.4777L108.119 73.5505L108.574 73.6186L109.029 73.6367L109.483 74.031L109.938 73.8408L110.393 72.1887L110.848 68.7743L111.303 66.7365L111.758 62.9736L112.213 58.5427L112.667 52.6432L113.122 49.4077L113.577 50.7617L114.032 51.6136L114.487 49.4302L114.942 45.7974L115.397 50.9609L115.852 45.9691L116.306 46.2538L116.761 46.6247L117.216 46.763L117.671 47.1257L118.126 47.1039L118.581 47.1014L119.036 47.1935L119.491 46.1697L119.945 47.1748L120.4 47.0658L120.855 47.1308L121.31 47.3898L121.765 47.4614L122.22 47.8337L122.675 47.9225L123.13 48.2292L123.584 48.6173L124.039 49.686L124.494 49.3429L124.949 48.4017L125.404 48.5667L125.859 48.8257L126.314 48.1018L126.769 48.6262L127.223 48.7379L127.678 48.7902L128.133 48.8896L128.588 49.2304L129.043 49.5326L129.498 49.4458L129.953 49.1919L130.408 47.918L130.862 47.8991L131.317 47.9181L131.772 47.4395L132.227 46.9408L132.682 45.4351L133.137 45.8569L133.592 44.7249L134.047 44.5348L134.501 43.5472L134.956 43.4009L135.411 41.6806L135.866 38.2327L136.321 37.4121L136.776 37.3246L137.231 37.0296L137.686 36.7764L138.14 36.9898L138.595 36.7859L139.05 36.0414L139.505 35.6617L139.96 36.0719L140.415 36.1421L140.87 34.6329L141.325 35.2733L141.779 34.3278L142.234 35.5632L142.689 35.4619L143.144 30.0184L143.599 29.9382L144.054 29.9681L144.509 29.999L144.964 30.1755L145.418 30.4211L145.873 30.7649L146.328 34.3592L146.783 31.3083L147.238 29.1943L147.693 27.7729L148.148 27.8434L148.603 27.3888L149.057 27.5091L149.512 27.5225L149.967 27.398L150.422 27.6225L150.877 27.5581L151.332 27.4261L151.787 27.4976L152.242 27.722L152.696 27.4825L153.151 27.0952L153.606 28.0959L154.061 28.2478L154.516 28.4628L154.971 28.6687L155.426 28.4562L155.881 28.3706L156.335 28.0637L156.79 28.1529L157.245 28.1337L157.7 28.3065L158.155 27.9134L158.61 27.1427L159.065 26.5997L159.52 27.0116L159.974 27.7632L160.429 23.2704L160.884 48.5943L161.339 47.8531L161.794 48.5668L162.249 50.6781L162.704 54.4591L163.159 75.2634L163.613 94.7912L164.068 93.8558L164.523 96.329L164.978 96.7595L165.433 96.4801L165.888 96.4288L166.343 95.92L166.798 96.0469L167.252 92.9427L167.707 94.9911L168.162 96.8574L168.617 96.253L169.072 96.1985L169.527 86.5774L169.982 95.0623L170.437 94.4053L170.891 95.6766L171.346 95.0704L171.801 90.4741L172.256 95.6845L172.711 95.5567L173.166 95.1049L173.621 93.3882L174.076 95.1525L174.53 91.8901L174.985 93.3223L175.44 94.9192L175.895 96.0932L176.35 96.0193L176.805 95.8552L177.26 95.7025L177.715 96.2734L178.169 96.005L178.624 96.3127L179.079 96.0029L179.534 95.9577L179.989 96.0743L180.444 95.9959L180.899 95.6332L181.354 95.8097L181.808 93.04L182.263 95.1978L182.718 96.2584L183.173 96.4236L183.628 93.5214L184.083 94.4028L184.538 95.9878L184.993 96.2939L185.447 95.6645L185.902 96.1961L186.357 96.7399L186.812 96.7254L187.267 96.7154L187.722 96.4174L188.177 96.622L188.632 96.591L189.086 96.5226L189.541 96.4909L189.996 96.6279L190.451 96.4587L190.906 96.7998L191.361 96.0919L191.816 96.6532L192.271 96.8368L192.725 94.9988L193.18 95.9418L193.635 96.953L194.09 96.8205L194.545 95.011L195 94.697L195.455 96.2837L195.91 96.5696L196.364 95.7144L196.819 94.4632L197.274 96.4445L197.729 96.7011L198.184 96.7678L198.639 96.4557L199.094 96.6541L199.549 96.9491L200.003 96.6039L200.458 96.484L200.913 96.5215L201.368 95.2514L201.823 95.5172L202.278 96.5244L202.733 94.6789L203.187 96.2784L203.642 96.6186L204.097 96.4194L204.552 96.0786L205.007 96.4377L205.462 96.408L205.917 96.5472L206.372 96.9836L206.827 96.982L207.281 96.5097L207.736 92.5289L208.191 96.6355L208.646 96.4517L209.101 95.2031L209.556 96.8036L210.011 96.9304L210.465 96.8756L210.92 96.3769L211.375 94.0059L211.83 96.6406L212.285 96.9038L212.74 96.6802L213.195 91.7453L213.65 95.6871L214.104 96.4153L214.559 95.8067L215.014 95.2551L215.469 96.9403L215.924 96.0861L216.379 96.6259L216.834 96.94L217.289 95.7401L217.743 96.4718L218.198 96.4212L218.653 96.8357L219.108 95.5059L219.563 96.2847L220.018 96.6507L220.473 96.471L220.928 96.2168L221.382 96.3944L221.837 96.5185L222.292 96.7593L222.747 96.9737L223.202 96.9854L223.657 96.697L224.112 96.8448L224.567 96.6744L225.021 96.5292L225.476 96.4283L225.931 96.9016L226.386 96.9789L226.841 96.5378L227.296 96.5796L227.751 96.5389L228.206 96.7793L228.66 96.9836L229.115 96.6697L229.57 96.5126L230.025 93.639L230.48 96.5267L230.935 96.6377L231.39 96.4764L231.845 96.8071L232.299 96.9592L232.754 96.6721L233.209 96.5741L233.664 96.4465L234.119 96.4929L234.574 96.8032L235.029 96.9822L235.484 96.9845L235.938 96.6091L236.393 94.9883L236.848 93.7971L237.303 94.388L237.758 96.4601L238.213 96.8073L238.668 96.9867L239.123 96.9219L239.577 96.8263L240.032 96.9314L240.487 96.9311L240.942 96.929L241.397 96.9899L241.852 96.9895L242.307 96.6707L242.762 96.7396L243.216 96.6309L243.671 96.5562L244.126 96.779L244.581 96.8478L245.036 96.9511L245.491 96.7622L245.946 96.6787L246.401 96.8594L246.855 96.5274L247.31 94.0792L247.765 96.9099L248.22 96.9446L248.675 96.6297L249.13 96.5083L249.585 96.5234L250.04 96.8842L250.494 96.9604L250.949 96.9936L251.404 96.2692L251.859 91.0988L252.314 90.0088L252.769 89.9822L253.224 95.7497L253.679 96.8392" stroke="#303030" stroke-width="0.53" stroke-linecap="round" stroke-linejoin="round"/>
</g>
<mask id="mask9_705_2107" style="mask-type:luminance" maskUnits="userSpaceOnUse" x="0" y="0" width="264" height="97">
<path d="M264 0H0V97H264V0Z" fill="white"/>
</mask>
<g mask="url(#mask9_705_2107)">
<path d="M2.58789 96.6645L3.04276 96.6575L3.49764 96.5859L3.95251 96.5077L4.40739 96.5813L4.86226 96.6465L5.31714 96.5475L5.77201 96.5854L6.22689 96.6584L6.68176 96.634L7.13663 96.5423L7.59151 96.6947L8.04638 96.7075L8.50126 96.6953L8.95613 96.6805L9.41101 96.6709L9.86588 96.6766L10.3208 96.1816L10.7756 96.6909L11.2305 96.6869L11.6854 96.7473L12.1403 96.7965L12.5951 96.7511L13.05 96.7014L13.5049 96.7393L13.9598 96.7437L14.4146 96.7587L14.8695 96.7399L15.3244 96.7891L15.7792 96.7487L16.2341 96.7885L16.689 96.7951L17.1439 96.7919L17.5987 96.7965L18.0536 96.7649L18.5085 96.8005L18.9634 96.8025L19.4182 96.7722L19.8731 96.7475L20.328 96.704L20.7829 96.6784L21.2377 96.2704L21.6926 96.2355L22.1475 96.6054L22.6024 96.5921L23.0572 96.6406L23.5121 96.6823L23.967 96.7139L24.4219 96.6878L24.8767 96.683L25.3316 96.7369L25.7865 96.6742L26.2414 96.7058L26.6962 96.7351L27.1511 96.7108L27.606 96.7205L28.0609 96.7605L28.5157 96.7803L28.9706 96.7696L29.4255 96.7604L29.8804 96.7459L30.3352 96.7626L30.7901 96.7386L31.245 96.7592L31.6999 96.7684L32.1547 96.7804L32.6096 96.7357L33.0645 96.7103L33.5193 96.6924L33.9742 96.4404L34.4291 96.7068L34.884 96.7609L35.3388 96.7579L35.7937 96.7457L36.2486 96.7132L36.7035 96.6859L37.1583 96.6692L37.6132 96.7898L38.0681 96.778L38.523 96.7632L38.9778 96.7689L39.4327 96.7482L39.8876 96.7236L40.3425 96.6901L40.7973 96.7867L41.2522 96.8045L41.7071 96.1517L42.162 96.4319L42.6168 96.6676L43.0717 96.7182L43.5266 96.7383L43.9815 96.7116L44.4363 96.7755L44.8912 96.7692L45.3461 96.759L45.801 96.7305L46.2558 96.703L46.7107 96.7537L47.1656 96.7705L47.6205 96.7413L48.0753 96.7414L48.5302 96.7479L48.9851 96.7925L49.44 96.7606L49.8948 96.7335L50.3497 96.7915L50.8046 96.7954L51.2595 96.7234L51.7143 96.7049L52.1692 96.7751L52.6241 96.7211L53.079 96.7967L53.5338 96.7303L53.9887 96.7682L54.4436 96.7871L54.8984 96.7738L55.3533 96.7324L55.8082 96.7378L56.2631 96.7665L56.7179 96.7259L57.1728 96.7657L57.6277 96.7193L58.0826 96.7217L58.5374 96.7435L58.9923 96.6103L59.4472 96.6704L59.9021 96.786L60.3569 96.7767L60.8118 96.7692L61.2667 96.7923L61.7216 96.7942L62.1764 96.7375L62.6313 96.7817L63.0862 96.8053L63.5411 96.7923L63.9959 96.8128L64.4508 96.7735L64.9057 96.788L65.3606 96.8099L65.8154 96.8554L66.2703 96.7878L66.7252 96.8112L67.1801 96.7414L67.6349 96.8112L68.0898 96.8229L68.5447 96.8267L68.9996 96.8349L69.4544 96.8471L69.9093 96.8445L70.3642 96.7628L70.8191 96.8223L71.2739 96.8093L71.7288 96.7771L72.1837 96.8494L72.6385 96.8661L73.0934 96.8777L73.5483 96.8287L74.0032 96.8511L74.4581 96.8528L74.9129 96.8069L75.3678 96.8547L75.8227 96.8799L76.2775 96.7868L76.7324 96.7553L77.1873 96.8354L77.6422 96.8572L78.097 96.867L78.5519 96.8147L79.0068 96.8935L79.4617 96.8723L79.9165 96.7797L80.3714 96.8621L80.8263 96.8517L81.2812 96.8639L81.736 96.8578L82.1909 96.8843L82.6458 96.8746L83.1007 96.8127L83.5555 96.8609L84.0104 96.8873L84.4653 96.896L84.9202 96.8891L85.375 96.9004L85.8299 96.8202L86.2848 96.7677L86.7397 96.8593L87.1945 96.8725L87.6494 96.872L88.1043 96.8471L88.5592 96.9042L89.014 96.9077L89.4689 96.8893L89.9238 96.892L90.3787 96.8767L90.8335 96.8781L91.2884 96.8876L91.7433 96.9068L92.1982 96.9065L92.653 96.8654L93.1079 96.8893L93.5628 96.8681L94.0176 96.844L94.4725 96.8886L94.9274 96.9037L95.3823 96.9019L95.8371 96.8779L96.292 96.8764L96.7469 96.8833L97.2018 96.8527L97.6566 96.8885L98.1115 96.908L98.5664 96.8955L99.0213 96.8432L99.4761 96.8769L99.931 96.8306L100.386 96.8528L100.841 96.8609L101.296 96.8843L101.751 96.8931L102.205 96.7578L102.66 96.8732L103.115 96.882L103.57 96.7986L104.025 96.8711L104.48 96.9083L104.935 96.9089L105.39 96.7223L105.844 96.8666L106.299 96.843L106.754 96.8655L107.209 96.8733L107.664 96.8862L108.119 96.881L108.574 96.7535L109.029 96.8742L109.483 96.8819L109.938 96.8697L110.393 96.8738L110.848 96.8824L111.303 96.8785L111.758 96.7064L112.213 96.8634L112.667 96.8843L113.122 96.8555L113.577 96.8861L114.032 96.8991L114.487 96.8737L114.942 96.7487L115.397 96.8417L115.852 96.8813L116.306 96.8857L116.761 96.8896L117.216 96.9016L117.671 96.8986L118.126 96.878L118.581 96.8612L119.036 96.8807L119.491 96.8624L119.945 96.8632L120.4 96.8827L120.855 96.8842L121.31 96.879L121.765 96.8796L122.22 96.8887L122.675 96.8748L123.13 96.878L123.584 96.8927L124.039 96.8783L124.494 96.8686L124.949 96.6031L125.404 96.4696L125.859 96.8664L126.314 96.8851L126.769 96.8978L127.223 96.8951L127.678 96.881L128.133 96.8954L128.588 94.7732L129.043 96.8846L129.498 96.8889L129.953 96.881L130.408 96.887L130.862 96.8945L131.317 96.8666L131.772 96.8911L132.227 96.8803L132.682 96.8966L133.137 96.9083L133.592 96.8886L134.047 96.8613L134.501 96.8618L134.956 96.8747L135.411 96.866L135.866 96.8743L136.321 96.8862L136.776 96.8942L137.231 96.8756L137.686 96.8677L138.14 96.8682L138.595 96.851L139.05 96.8718L139.505 96.8739L139.96 96.8862L140.415 96.8756L140.87 96.8781L141.325 96.8817L141.779 96.8709L142.234 96.8563L142.689 96.8674L143.144 96.8966L143.599 96.8548L144.054 96.869L144.509 96.8767L144.964 96.8698L145.418 96.8893L145.873 96.8588L146.328 96.889L146.783 96.8727L147.238 96.8661L147.693 96.8705L148.148 96.8794L148.603 96.9023L149.057 96.9216L149.512 96.9073L149.967 96.8918L150.422 96.8906L150.877 96.8603L151.332 96.8722L151.787 96.8894L152.242 96.9045L152.696 96.9024L153.151 96.8863L153.606 96.8644L154.061 96.8824L154.516 96.8994L154.971 96.8952L155.426 96.9119L155.881 96.9123L156.335 96.8967L156.79 96.8844L157.245 96.9014L157.7 96.898L158.155 96.8993L158.61 96.9065L159.065 96.9209L159.52 96.9049L159.974 96.8985L160.429 96.9017L160.884 96.8841L161.339 96.8935L161.794 96.9041L162.249 96.9112L162.704 96.902L163.159 96.8937L163.613 96.8686L164.068 96.8752L164.523 96.9023L164.978 96.9157L165.433 96.9238L165.888 96.9113L166.343 96.9063L166.798 96.8867L167.252 96.894L167.707 96.8937L168.162 96.9064L168.617 96.9186L169.072 96.8988L169.527 96.882L169.982 96.8998L170.437 96.8951L170.891 96.89L171.346 96.9082L171.801 96.9014L172.256 96.8867L172.711 96.882L173.166 96.8661L173.621 96.8523L174.076 96.8482L174.53 96.8745L174.985 96.8602L175.44 96.8723L175.895 96.8646L176.35 96.8681L176.805 96.8722L177.26 96.8772L177.715 96.9063L178.169 96.9129L178.624 96.876L179.079 96.8821L179.534 96.8978L179.989 96.8672L180.444 96.8737L180.899 96.8905L181.354 96.856L181.808 96.8377L182.263 96.8221L182.718 96.8034L183.173 96.7521L183.628 96.7584L184.083 96.9097L184.538 96.7821L184.993 96.7607L185.447 96.7571L185.902 96.6816L186.357 96.8947L186.812 96.7474L187.267 96.7795L187.722 96.9136L188.177 96.7638L188.632 96.7512L189.086 96.7589L189.541 96.8503L189.996 96.8684L190.451 96.8988L190.906 96.7655L191.361 96.8783L191.816 96.8771L192.271 96.89L192.725 96.8633L193.18 96.8756L193.635 96.8781L194.09 96.9006L194.545 96.7554L195 96.8465L195.455 96.8837L195.91 96.8832L196.364 96.8935L196.819 96.8792L197.274 96.8961L197.729 96.8928L198.184 96.8655L198.639 96.868L199.094 96.8251L199.549 96.7438L200.003 96.8768L200.458 96.8834L200.913 96.7192L201.368 96.8603L201.823 96.8846L202.278 96.7092L202.733 96.7967L203.187 96.8414L203.642 96.813L204.097 96.7717L204.552 96.6472L205.007 96.7137L205.462 96.774L205.917 96.7814L206.372 96.8047L206.827 96.7833L207.281 96.7775L207.736 96.7703L208.191 96.7579L208.646 96.8231L209.101 96.8049L209.556 96.8165L210.011 96.811L210.465 96.7843L210.92 96.7629L211.375 96.6756L211.83 96.651L212.285 96.3584L212.74 96.7707L213.195 96.4893L213.65 96.6722L214.104 96.8001L214.559 96.6621L215.014 96.7834L215.469 96.8072L215.924 96.7935L216.379 96.811L216.834 96.7383L217.289 96.8134L217.743 96.8203L218.198 96.7716L218.653 96.5093L219.108 95.6037L219.563 96.4639L220.018 96.5492L220.473 96.7741L220.928 96.6481L221.382 96.6177L221.837 95.8251L222.292 96.7487L222.747 96.2327L223.202 96.3577L223.657 96.5355L224.112 96.5533L224.567 96.5946L225.021 96.5124L225.476 96.7741L225.931 96.7854L226.386 96.7591L226.841 96.2001L227.296 96.5486L227.751 96.4159L228.206 96.4249L228.66 96.4256L229.115 96.6543L229.57 96.7556L230.025 96.8243L230.48 96.786L230.935 96.8573L231.39 96.8559L231.845 96.6779L232.299 96.6977L232.754 96.773L233.209 96.7527L233.664 96.6687L234.119 96.6171L234.574 96.6529L235.029 96.8133L235.484 96.7985L235.938 96.7674L236.393 96.7644L236.848 96.762L237.303 96.6489L237.758 96.3186L238.213 96.4004L238.668 96.561L239.123 96.5255L239.577 96.4901L240.032 96.3819L240.487 96.3692L240.942 96.3309L241.397 96.3221L241.852 96.3425L242.307 96.1971L242.762 96.2781L243.216 96.2552L243.671 96.2649L244.126 96.1251L244.581 96.2293L245.036 96.1963L245.491 96.1457L245.946 96.1868L246.401 96.2333L246.855 96.1663L247.31 96.1556L247.765 96.0802L248.22 96.1234L248.675 95.8679L249.13 95.6479L249.585 95.6659L250.04 95.477L250.494 95.7202L250.949 95.4881L251.404 95.9831L251.859 96.0759L252.314 96.0452L252.769 96.0673L253.224 96.1211L253.679 96.1122L254.133 96.1797L254.588 96.2033L255.043 96.2043L255.498 96.2491L255.953 96.2102L256.408 96.283L256.863 96.2356L257.318 96.2214L257.772 96.301L258.227 96.2798L258.682 96.3124L259.137 96.2967L259.592 96.3893L260.047 96.3729L260.502 96.3813L260.957 96.3716L261.411 96.333" stroke="#5E5E5E" stroke-width="0.53" stroke-linecap="round" stroke-linejoin="round"/>
</g>
</g>
<defs>
<clipPath id="clip0_705_2107">
<rect width="264" height="97" fill="white"/>
</clipPath>
</defs>
</svg>
