<svg width="264" height="97" viewBox="0 0 264 97" fill="none" xmlns="http://www.w3.org/2000/svg">
<mask id="mask0_705_65" style="mask-type:luminance" maskUnits="userSpaceOnUse" x="0" y="0" width="264" height="97">
<path d="M264 0H0V97H264V0Z" fill="white"/>
</mask>
<g mask="url(#mask0_705_65)">
<path d="M2.58691 72.438L3.04179 73.4387L3.49666 71.4513L3.95154 70.8131L4.40641 69.6457L4.86129 70.6282L5.31616 72.002L5.77103 71.6748L6.22591 74.2904L6.68078 74.3002L7.13566 71.47L7.59053 71.6726L8.04541 69.9845L8.50028 72.4365L8.95515 72.0892L9.41003 72.5595L9.8649 72.3771L10.3198 73.0843L10.7747 70.9514L11.2295 71.6638L11.6844 71.6644L12.1393 72.6075L12.5941 74.2521L13.049 73.5333L13.5039 72.3625L13.9588 73.1523L14.4136 74.6046L14.8685 73.7122L15.3234 73.2276L15.7783 73.6661L16.2331 72.5178L16.688 71.9001L17.1429 72.9255L17.5978 74.0182L18.0526 72.9459L18.5075 69.5115L18.9624 72.5465L19.4173 72.9821L19.8721 72.7055L20.327 72.0039L20.7819 72.039L21.2368 72.8763L21.6916 75.7563L22.1465 75.5306L22.6014 74.7574L23.0563 73.6798L23.5111 74.2959L23.966 74.5926L24.4209 74.8937L24.8758 75.2795L25.3306 75.0307L25.7855 75.2119L26.2404 74.5564L26.6953 73.3709L27.1501 73.002L27.605 74.62L28.0599 74.3586L28.5148 75.8094L28.9696 74.5623L29.4245 72.9023L29.8794 73.7L30.3342 74.1695L30.7891 74.364L31.244 76.3863L31.6989 74.9632L32.1537 73.1006L32.6086 74.0887L33.0635 74.6989L33.5184 76.0894L33.9732 75.9703L34.4281 75.7618L34.883 77.1635L35.3379 75.6576L35.7927 74.5002L36.2476 75.1491L36.7025 73.489L37.1574 74.599L37.6122 75.2314L38.0671 76.3226L38.522 76.0507L38.9769 74.9609L39.4317 74.5419L39.8866 73.735L40.3415 73.9985L40.7964 75.4325L41.2512 74.7105L41.7061 72.1725L42.161 71.9619L42.6159 73.7618L43.0707 72.5849L43.5256 73.0197L43.9805 74.3055L44.4354 74.961L44.8902 74.6173L45.3451 74.0417L45.8 73.9858L46.2549 73.712L46.7097 74.3557L47.1646 75.2259L47.6195 75.0289L48.0744 75.225L48.5292 75.2923L48.9841 75.7621L49.439 76.1268L49.8938 75.6858L50.3487 76.499L50.8036 77.4525L51.2585 75.3915L51.7133 74.3621L52.1682 74.3932L52.6231 73.8979L53.078 73.2142L53.5328 76.2186L53.9877 76.5133L54.4426 74.1322L54.8975 73.6705L55.3523 72.4509L55.8072 73.4067L56.2621 73.532L56.717 73.8597L57.1718 73.6056L57.6267 75.1627L58.0816 75.5652L58.5365 74.5248L58.9913 72.5675L59.4462 73.4063L59.9011 76.0009L60.356 75.1887L60.8108 73.0376L61.2657 71.4988L61.7206 73.5674L62.1755 71.8214L62.6303 71.5316L63.0852 74.508L63.5401 76.5046L63.995 75.4873L64.4498 75.6746L64.9047 75.2491L65.3596 77.5709L65.8144 77.0614L66.2693 77.7633L66.7242 78.8212L67.1791 77.0683L67.6339 77.3176L68.0888 76.5413L68.5437 76.8755L68.9986 76.4104L69.4534 77.4774L69.9083 76.9983L70.3632 78.2254L70.8181 76.2789L71.2729 76.6658L71.7278 77.3251L72.1827 77.413L72.6376 78.8191L73.0924 79.1453L73.5473 77.6219L74.0022 77.7692L74.4571 78.5149L74.9119 77.7288L75.3668 76.0154L75.8217 76.5949L76.2766 77.7864L76.7314 73.6599L77.1863 73.8844L77.6412 74.9232L78.0961 75.6919L78.5509 77.2657L79.0058 76.0144L79.4607 79.0083L79.9156 78.3099L80.3704 79.2012L80.8253 78.0134L81.2802 79.1022L81.7351 78.0345L82.1899 79.7109L82.6448 80.6385L83.0997 77.7633L83.5546 78.6625L84.0094 78.1882L84.4643 78.186L84.9192 75.7391L85.374 75.6659L85.8289 78.4834L86.2838 78.2049L86.7387 77.7716L87.1935 76.1849L87.6484 75.8363L88.1033 76.1216L88.5582 77.0029L89.013 76.8497L89.4679 78.7795L89.9228 78.1791L90.3777 78.6903L90.8325 77.8484L91.2874 77.1318L91.7423 78.1932L92.1972 78.8897L92.652 76.4946L93.1069 76.529L93.5618 76.582L94.0167 77.0781L94.4715 76.6974L94.9264 78.13L95.3813 78.5559L95.8362 76.9681L96.291 76.0284L96.7459 74.7255L97.2008 76.3638L97.6557 77.3082L98.1105 77.5034L98.5654 78.9105L99.0203 75.5237L99.4752 75.9738L99.93 74.5433L100.385 76.1989L100.84 77.5154L101.295 77.6265L101.75 77.5717L102.204 77.261L102.659 77.8065L103.114 77.2971L103.569 77.8257L104.024 77.7352L104.479 78.6988L104.934 79.6493L105.389 78.9635L105.843 79.2071L106.298 78.9158L106.753 79.0522L107.208 78.6518L107.663 79.9358L108.118 79.78L108.573 80.2248L109.028 79.9722L109.482 79.592L109.937 78.6228L110.392 79.4646L110.847 80.2145L111.302 81.2379L111.757 79.7221L112.212 79.1618L112.667 78.3727L113.121 77.916L113.576 78.7623L114.031 80.1588L114.486 81.139L114.941 78.8256L115.396 78.1147L115.851 78.649L116.306 78.8776L116.76 78.7416L117.215 79.5256L117.67 79.7239L118.125 78.9939L118.58 77.6045L119.035 75.3434L119.49 71.0671L119.945 71.1773L120.399 81.2916L120.854 82.2926L121.309 81.9922L121.764 81.7006L122.219 81.1984L122.674 82.5775L123.129 82.9849L123.583 84.5798L124.038 84.8981L124.493 82.565L124.948 81.1516L125.403 80.5741L125.858 81.3506L126.313 80.3608L126.768 81.5573L127.222 81.7491L127.677 81.6721L128.132 81.3372L128.587 81.7559L129.042 80.1753L129.497 80.7408L129.952 77.1987L130.407 74.7529L130.861 74.7196L131.316 77.9965L131.771 79.7938L132.226 78.7565L132.681 78.9206L133.136 80.0517L133.591 84.11L134.046 81.5379L134.5 82.5037L134.955 82.0407L135.41 80.5196L135.865 81.0011L136.32 83.0638L136.775 83.0519L137.23 81.9931L137.685 81.7888L138.139 81.2101L138.594 80.1457L139.049 82.1623L139.504 82.7247L139.959 82.4321L140.414 81.116L140.869 81.3907L141.324 81.4456L141.778 80.0875L142.233 81.2847L142.688 82.083L143.143 81.4055L143.598 79.9357L144.053 79.5723L144.508 78.2595L144.963 78.2702L145.417 78.7928L145.872 80.3888L146.327 77.9151L146.782 76.6263L147.237 78.0289L147.692 79.2468L148.147 79.3478L148.602 80.5653L149.056 82.4855L149.511 82.0718L149.966 81.8197L150.421 81.5405L150.876 81.1598L151.331 79.1169L151.786 80.2365L152.241 82.7175L152.695 84.1137L153.15 81.5231L153.605 81.439L154.06 81.485L154.515 82.1004L154.97 82.098L155.425 83.7843L155.88 83.243L156.334 82.0844L156.789 81.3532L157.244 82.5821L157.699 82.641L158.154 83.2472L158.609 81.9873L159.064 81.2381L159.519 81.2836L159.973 79.4694L160.428 81.1219L160.883 81.8232L161.338 81.3142L161.793 82.6016L162.248 85.0784L162.703 82.6019L163.158 82.6175L163.612 82.89L164.067 82.5511L164.522 81.4687L164.977 83.538L165.432 85.8693L165.887 83.9216L166.342 82.7621L166.797 82.9954L167.251 83.1344L167.706 82.8036L168.161 84.653L168.616 86.4614L169.071 84.4317L169.526 84.0845L169.981 81.8728L170.436 82.6108L170.89 82.0672L171.345 82.4341L171.8 84.7601L172.255 81.8592L172.71 81.831L173.165 81.5407L173.62 81.6254L174.075 81.4093L174.529 80.7786L174.984 82.1182L175.439 81.1385L175.894 81.3974L176.349 81.5855L176.804 82.3484L177.259 81.3991L177.714 82.8196L178.168 83.8123L178.623 83.4787L179.078 82.2432L179.533 82.6576L179.988 82.1034L180.443 79.3877L180.898 83.2723L181.353 83.1967L181.807 81.6102L182.262 81.4548L182.717 81.2701L183.172 80.4874L183.627 81.6019L184.082 80.463L184.537 80.3248L184.992 80.0716L185.446 79.8021L185.901 80.3656L186.356 81.0364L186.811 80.8522L187.266 82.6219L187.721 82.553L188.176 81.7757L188.631 79.4985L189.085 80.2347L189.54 80.2258L189.995 81.1459L190.45 82.6652L190.905 82.5867L191.36 81.1106L191.815 80.589L192.27 80.1621L192.724 79.5265L193.179 79.7825L193.634 81.1193L194.089 81.0277L194.544 81.4957L194.999 81.3523L195.454 80.2685L195.909 80.9741L196.363 80.6955L196.818 83.0754L197.273 83.1845L197.728 81.7332L198.183 81.7452L198.638 82.0394L199.093 80.9289L199.548 80.7491L200.002 81.1466L200.457 82.684L200.912 80.1061L201.367 79.8652L201.822 80.8794L202.277 81.4893L202.732 79.9867L203.186 81.02L203.641 81.577L204.096 78.6555L204.551 79.4901L205.006 79.4165L205.461 78.0918L205.916 78.0345L206.371 78.9688L206.826 80.144L207.28 78.1031L207.735 78.5198L208.19 79.166L208.645 78.2314L209.1 77.303L209.555 80.6436L210.01 81.2318L210.464 80.0148L210.919 79.1298L211.374 78.5486L211.829 79.7971L212.284 79.4455L212.739 81.5855L213.194 82.0603L213.649 80.8167L214.103 78.8679L214.558 80.0298L215.013 78.5615L215.468 77.9607L215.923 80.1424L216.378 82.2648L216.833 80.4241L217.288 79.7959L217.742 79.6098L218.197 80.0854L218.652 80.8182L219.107 83.1471L219.562 83.4733L220.017 82.2325L220.472 81.5266L220.927 80.942L221.381 81.4209L221.836 80.9669L222.291 82.7979L222.746 82.2794L223.201 80.2444L223.656 80.2084L224.111 80.6613L224.566 79.8555L225.02 76.921L225.475 79.1561L225.93 80.5257L226.385 78.8541L226.84 79.0364L227.295 80.2119L227.75 80.2649L228.205 79.904L228.659 81.16L229.114 81.4878L229.569 80.0538L230.024 80.0882L230.479 80.2374L230.934 80.919L231.389 80.2541L231.844 80.6776L232.298 81.5057L232.753 81.1784L233.208 80.6324L233.663 81.0747L234.118 80.3435L234.573 81.0558L235.028 82.1203L235.483 83.0633L235.937 81.5716L236.392 78.8604L236.847 80.1994L237.302 81.6278L237.757 80.8281L238.212 81.6552L238.667 82.1936L239.122 80.0638L239.576 79.7371L240.031 79.8304L240.486 81.7367L240.941 77.2897L241.396 73.9323L241.851 76.338L242.306 81.7851L242.761 81.4749L243.215 81.8126L243.67 80.431L244.125 80.0733L244.58 82.7021L245.035 83.6002L245.49 81.4961L245.945 81.4876L246.4 80.4371L246.854 81.2275L247.309 81.2632L247.764 81.245L248.219 82.0494L248.674 80.6124L249.129 79.8954L249.584 80.1356L250.039 79.4738L250.493 79.7226L250.948 80.7231L251.403 82.0885L251.858 80.7733L252.313 81.4556L252.768 83.8053L253.223 83.2126L253.678 81.8368L254.132 81.4749L254.587 82.6389L255.042 80.9282L255.497 80.492L255.952 80.8416L256.407 79.8662L256.862 79.5598L257.317 81.9292L257.771 82.7707L258.226 81.6927L258.681 77.9806L259.136 79.5622L259.591 80.7341L260.046 80.0601L260.501 82.3538L260.956 83.1188L261.41 81.8978" stroke="#A3A3A3" stroke-width="0.532967" stroke-linecap="round" stroke-linejoin="round"/>
</g>
<mask id="mask1_705_65" style="mask-type:luminance" maskUnits="userSpaceOnUse" x="0" y="0" width="264" height="97">
<path d="M264 0H0V97H264V0Z" fill="white"/>
</mask>
<g mask="url(#mask1_705_65)">
<path d="M2.58691 65.7794L3.04179 63.0721L3.49666 59.8816L3.95154 58.379L4.40641 58.6568L4.86129 60.3567L5.31616 60.2878L5.77103 63.8871L6.22591 66.6075L6.68078 62.2364L7.13566 64.6246L7.59053 62.1488L8.04541 63.2072L8.50028 62.9066L8.95515 63.8538L9.41003 64.0201L9.8649 62.4052L10.3198 62.3292L10.7747 63.5114L11.2295 61.2675L11.6844 62.304L12.1393 64.7361L12.5941 69.5137L13.049 68.6703L13.5039 67.4763L13.9588 66.7289L14.4136 68.0979L14.8685 68.4497L15.3234 70.173L15.7783 71.7354L16.2331 70.9844L16.688 70.8418L17.1429 71.3105L17.5978 72.2781L18.0526 72.9051L18.5075 69.5531L18.9624 69.9374L19.4173 64.7081L19.8721 64.4072L20.327 67.0436L20.7819 65.6402L21.2368 66.3911L21.6916 70.5179L22.1465 71.2825L22.6014 69.1984L23.0563 64.3385L23.5111 63.1609L23.966 65.2553L24.4209 67.3613L24.8758 69.8667L25.3306 70.4151L25.7855 67.6281L26.2404 65.7L26.6953 65.4559L27.1501 67.1026L27.605 68.3611L28.0599 71.9044L28.5148 72.5258L28.9696 69.3172L29.4245 67.1503L29.8794 67.7411L30.3342 69.1116L30.7891 69.6922L31.244 71.3517L31.6989 72.4904L32.1537 69.9865L32.6086 71.2587L33.0635 69.2174L33.5184 70.1334L33.9732 71.1038L34.4281 72.6359L34.883 72.2258L35.3379 69.4611L35.7927 68.9471L36.2476 69.272L36.7025 68.5109L37.1574 69.6331L37.6122 68.9766L38.0671 69.9232L38.522 66.9476L38.9769 66.1965L39.4317 67.4035L39.8866 66.4333L40.3415 67.4718L40.7964 69.708L41.2512 69.2394L41.7061 65.0682L42.161 64.0531L42.6159 65.0431L43.0707 63.4565L43.5256 65.8202L43.9805 65.9298L44.4354 67.1396L44.8902 63.6109L45.3451 62.5395L45.8 65.1993L46.2549 68.5045L46.7097 69.5157L47.1646 72.3875L47.6195 71.9562L48.0744 68.8093L48.5292 68.1088L48.9841 69.6143L49.439 71.4421L49.8938 69.9873L50.3487 72.9215L50.8036 73.5931L51.2585 70.5124L51.7133 68.8838L52.1682 66.6643L52.6231 60.6312L53.078 58.9981L53.5328 61.1557L53.9877 70.6085L54.4426 66.2904L54.8975 67.8103L55.3523 69.0063L55.8072 68.0022L56.2621 67.8789L56.717 71.0956L57.1718 70.8869L57.6267 71.289L58.0816 71.4546L58.5365 70.2589L58.9913 68.3907L59.4462 71.1902L59.9011 64.5985L60.356 71.8349L60.8108 67.7895L61.2657 70.9628L61.7206 68.0204L62.1755 65.444L62.6303 67.9024L63.0852 67.1706L63.5401 71.4546L63.995 71.1184L64.4498 72.627L64.9047 73.0481L65.3596 72.9311L65.8144 74.0922L66.2693 74.9157L66.7242 73.5131L67.1791 67.1757L67.6339 71.6228L68.0888 71.3571L68.5437 71.2129L68.9986 72.9979L69.4534 73.1384L69.9083 73.158L70.3632 71.1491L70.8181 70.5074L71.2729 72.1347L71.7278 74.3671L72.1827 76.3027L72.6376 75.8893L73.0924 75.8802L73.5473 73.4421L74.0022 72.7259L74.4571 71.5763L74.9119 71.8633L75.3668 72.7995L75.8217 75.6541L76.2766 76.2181L76.7314 73.1745L77.1863 74.5513L77.6412 73.4665L78.0961 75.3845L78.5509 76.3478L79.0058 77.3276L79.4607 79.1008L79.9156 75.9647L80.3704 73.8925L80.8253 75.4288L81.2802 74.8363L81.7351 73.1339L82.1899 74.7596L82.6448 74.7785L83.0997 74.8388L83.5546 75.24L84.0094 74.6162L84.4643 73.3499L84.9192 75.6251L85.374 77.2655L85.8289 77.9753L86.2838 74.9435L86.7387 74.7958L87.1935 75.0085L87.6484 75.0066L88.1033 75.045L88.5582 77.912L89.013 77.6553L89.4679 76.2387L89.9228 74.2432L90.3777 73.9839L90.8325 75.9249L91.2874 76.3198L91.7423 78.1569L92.1972 77.976L92.652 74.6323L93.1069 75.7381L93.5618 76.1906L94.0167 76.9084L94.4715 76.6254L94.9264 79.1131L95.3813 79.7747L95.8362 76.9263L96.291 76.7892L96.7459 77.8296L97.2008 76.0313L97.6557 75.8961L98.1105 77.1617L98.5654 76.6576L99.0203 76.9926L99.4752 77.8404L99.93 76.141L100.385 76.89L100.84 77.051L101.295 77.9785L101.75 78.9088L102.204 75.6113L102.659 75.716L103.114 76.4024L103.569 76.0333L104.024 77.9051L104.479 78.0082L104.934 77.6481L105.389 75.9202L105.843 75.9774L106.298 76.7603L106.753 76.911L107.208 77.8639L107.663 79.6216L108.118 80.4372L108.573 78.4774L109.028 78.8524L109.482 79.0214L109.937 77.6263L110.392 77.3752L110.847 80.4186L111.302 80.3971L111.757 76.915L112.212 74.4357L112.667 72.3685L113.121 70.4419L113.576 68.3452L114.031 69.9415L114.486 72.7842L114.941 71.3194L115.396 67.7091L115.851 68.6548L116.306 69.0198L116.76 70.3968L117.215 72.4899L117.67 74.1348L118.125 72.013L118.58 73.4092L119.035 71.92L119.49 67.3662L119.945 67.0159L120.399 71.2488L120.854 71.0753L121.309 69.9701L121.764 70.104L122.219 71.3026L122.674 71.2505L123.129 72.0087L123.583 72.4869L124.038 73.3516L124.493 70.7945L124.948 70.5723L125.403 70.8103L125.858 71.8124L126.313 68.6126L126.768 71.676L127.222 71.4075L127.677 71.8892L128.132 72.1165L128.587 71.9493L129.042 72.8811L129.497 77.4745L129.952 71.8964L130.407 71.8627L130.861 68.8988L131.316 60.1149L131.771 46.1005L132.226 66.0294L132.681 69.6572L133.136 69.4969L133.591 70.3455L134.046 68.5744L134.5 68.6855L134.955 67.1651L135.41 64.7641L135.865 62.9067L136.32 63.7656L136.775 67.3951L137.23 66.1255L137.685 65.3062L138.139 63.0154L138.594 63.3479L139.049 64.0324L139.504 66.2053L139.959 61.7967L140.414 56.3632L140.869 57.8384L141.324 61.4536L141.778 59.3359L142.233 60.6821L142.688 61.0209L143.143 64.0927L143.598 61.4648L144.053 61.2967L144.508 62.7603L144.963 59.9478L145.417 59.4829L145.872 62.9655L146.327 62.9782L146.782 61.5556L147.237 59.6152L147.692 61.032L148.147 61.2016L148.602 61.9136L149.056 64.6701L149.511 63.8023L149.966 64.4815L150.421 62.868L150.876 58.3709L151.331 56.4138L151.786 58.3874L152.241 61.8982L152.695 54.7297L153.15 54.3476L153.605 59.97L154.06 61.0321L154.515 50.5599L154.97 58.8452L155.425 62.6309L155.88 61.5949L156.334 60.9754L156.789 68.5847L157.244 66.6337L157.699 64.4401L158.154 69.0976L158.609 72.0998L159.064 70.3353L159.519 69.2792L159.973 63.9225L160.428 66.345L160.883 67.2339L161.338 64.9083L161.793 69.8999L162.248 73.6357L162.703 74.26L163.158 74.2574L163.612 74.0153L164.067 74.2199L164.522 71.2522L164.977 61.5171L165.432 65.8025L165.887 68.5564L166.342 71.1589L166.797 71.0051L167.251 68.632L167.706 69.0461L168.161 69.5019L168.616 79.617L169.071 78.6893L169.526 78.7775L169.981 78.0843L170.436 77.2491L170.89 76.0457L171.345 78.1067L171.8 74.831L172.255 75.7443L172.71 76.3974L173.165 77.1016L173.62 75.287L174.075 75.0985L174.529 74.438L174.984 76.9436L175.439 75.0658L175.894 75.4658L176.349 75.1536L176.804 76.1659L177.259 75.6132L177.714 76.57L178.168 78.6798L178.623 78.7833L179.078 73.1509L179.533 73.9403L179.988 75.9374L180.443 75.3794L180.898 76.6234L181.353 75.6053L181.807 74.1429L182.262 73.6052L182.717 73.4516L183.172 72.0572L183.627 74.7762L184.082 75.3315L184.537 75.6137L184.992 75.9177L185.446 72.6204L185.901 71.8112L186.356 69.647L186.811 72.5338L187.266 75.2047L187.721 74.1396L188.176 71.6451L188.631 73.5287L189.085 71.6656L189.54 71.6292L189.995 69.9131L190.45 71.5912L190.905 71.7393L191.36 70.2205L191.815 68.9765L192.27 67.0179L192.724 58.5974L193.179 57.1402L193.634 53.7391L194.089 53.8516L194.544 51.0566L194.999 37.1748L195.454 31.9968L195.909 16.8389L196.363 43.3494L196.818 49.7596L197.273 51.1551L197.728 54.627L198.183 68.0832L198.638 66.9533L199.093 62.8825L199.548 63.7041L200.002 65.5839L200.457 65.8204L200.912 59.5915L201.367 61.545L201.822 60.7171L202.277 59.1001L202.732 59.721L203.186 63.2041L203.641 65.5725L204.096 62.0978L204.551 56.2604L205.006 51.8369L205.461 58.747L205.916 56.4799L206.371 57.4466L206.826 59.2526L207.28 57.5055L207.735 54.0046L208.19 52.2105L208.645 53.6319L209.1 51.5891L209.555 56.3785L210.01 61.1136L210.464 54.9966L210.919 54.1263L211.374 54.6773L211.829 56.2653L212.284 55.065L212.739 60.8947L213.194 59.7178L213.649 58.6991L214.103 56.3359L214.558 61.6765L215.013 61.6677L215.468 59.7721L215.923 61.2185L216.378 62.5005L216.833 60.1603L217.288 57.5L217.742 61.9494L218.197 65.0757L218.652 64.3962L219.107 63.0225L219.562 61.3459L220.017 59.0952L220.472 53.0475L220.927 65.1914L221.381 49.3481L221.836 49.0266L222.291 52.4041L222.746 54.9658L223.201 55.0213L223.656 55.2737L224.111 55.2511L224.566 54.8335L225.02 51.2607L225.475 52.425L225.93 51.9713L226.385 51.6191L226.84 42.6025L227.295 47.9123L227.75 43.4197L228.205 49.8333L228.659 54.5981L229.114 57.0127L229.569 48.9761L230.024 46.2924L230.479 47.8443L230.934 48.223L231.389 48.2041L231.844 51.7784L232.298 50.372L232.753 46.6741L233.208 49.2328L233.663 50.9047L234.118 50.0991L234.573 50.1331L235.028 53.7849L235.483 57.3871L235.937 53.2146L236.392 45.5826L236.847 46.4875L237.302 46.0341L237.757 49.8553L238.212 51.5983L238.667 65.365L239.122 46.2016L239.576 48.3711L240.031 51.8185L240.486 56.1797L240.941 52.2184L241.396 54.5947L241.851 57.5498L242.306 55.5254L242.761 54.112L243.215 51.2553L243.67 52.7687L244.125 54.6375L244.58 55.1944L245.035 58.1558L245.49 54.5491L245.945 50.0115L246.4 51.6716L246.854 54.2658L247.309 55.1828L247.764 62.04L248.219 55.889L248.674 56.812L249.129 57.1278L249.584 60.2869L250.039 54.3598L250.493 55.8663L250.948 60.5429L251.403 62.7585L251.858 61.9625L252.313 61.7227L252.768 62.8602L253.223 65.0288L253.678 62.6749L254.132 64.0796L254.587 64.6019L255.042 61.906L255.497 61.9124L255.952 59.575L256.407 59.6065L256.862 59.928L257.317 57.4703L257.771 66.7239L258.226 65.2579L258.681 58.2534L259.136 61.8083L259.591 61.1161L260.046 59.8411L260.501 58.7906L260.956 59.1029L261.41 55.6508" stroke="#838383" stroke-width="0.532967" stroke-linecap="round" stroke-linejoin="round"/>
</g>
<mask id="mask2_705_65" style="mask-type:luminance" maskUnits="userSpaceOnUse" x="0" y="0" width="264" height="97">
<path d="M264 0H0V97H264V0Z" fill="white"/>
</mask>
<g mask="url(#mask2_705_65)">
<path d="M2.58691 86.9927L3.04179 83.4094L3.49666 78.8451L3.95154 75.7731L4.40641 78.3924L4.86129 80.7877L5.31616 83.821L5.77103 89.9655L6.22591 90.8465L6.68078 89.2451L7.13566 89.5239L7.59053 89.5211L8.04541 89.4383L8.50028 89.8928L8.95515 89.7301L9.41003 90.6243L9.8649 89.1907L10.3198 91.0755L10.7747 91.4153L11.2295 91.5973L11.6844 90.9883L12.1393 90.774L12.5941 90.4591L13.049 90.8239L13.5039 90.9527L13.9588 89.4184L14.4136 89.9974L14.8685 90.3135L15.3234 90.8661L15.7783 91.2207L16.2331 90.9668L16.688 90.5067L17.1429 89.9605L17.5978 89.0831L18.0526 89.358L18.5075 90.398L18.9624 90.3915L19.4173 89.4043L19.8721 88.8941L20.327 90.1424L20.7819 89.7952L21.2368 89.8235L21.6916 90.1055L22.1465 90.0191L22.6014 88.1314L23.0563 88.3918L23.5111 88.7379L23.966 89.4318L24.4209 89.3523L24.8758 89.6359L25.3306 90.65L25.7855 89.7423L26.2404 90.1107L26.6953 89.8984L27.1501 89.6515L27.605 90.305L28.0599 90.6497L28.5148 90.0243L28.9696 89.702L29.4245 87.9578L29.8794 88.5072L30.3342 89.2075L30.7891 89.5768L31.244 90.4893L31.6989 90.7384L32.1537 89.8254L32.6086 90.5255L33.0635 90.4363L33.5184 92.1473L33.9732 92.4847L34.4281 92.6997L34.883 92.6851L35.3379 91.863L35.7927 92.0089L36.2476 89.9981L36.7025 89.1081L37.1574 91.1626L37.6122 90.8458L38.0671 90.7965L38.522 90.8191L38.9769 90.4733L39.4317 90.3601L39.8866 90.1197L40.3415 90.3683L40.7964 90.9666L41.2512 90.6947L41.7061 89.7051L42.161 89.9229L42.6159 90.071L43.0707 89.6212L43.5256 89.7133L43.9805 88.4456L44.4354 88.9458L44.8902 89.5204L45.3451 88.506L45.8 88.3938L46.2549 87.8518L46.7097 88.1119L47.1646 89.855L47.6195 90.0499L48.0744 89.2006L48.5292 89.0532L48.9841 89.3362L49.439 90.0636L49.8938 89.5404L50.3487 89.3066L50.8036 89.7997L51.2585 89.1965L51.7133 88.3176L52.1682 88.5577L52.6231 89.1137L53.078 89.127L53.5328 90.2485L53.9877 89.7598L54.4426 89.2604L54.8975 89.4223L55.3523 89.0105L55.8072 88.6787L56.2621 88.7858L56.717 89.3844L57.1718 89.6317L57.6267 89.7217L58.0816 88.9547L58.5365 87.9403L58.9913 88.1223L59.4462 88.8027L59.9011 89.7353L60.356 89.7279L60.8108 88.8764L61.2657 89.2444L61.7206 90.1205L62.1755 90.4056L62.6303 88.4325L63.0852 90.0061L63.5401 91.3895L63.995 88.6626L64.4498 90.7347L64.9047 90.6999L65.3596 91.1363L65.8144 90.363L66.2693 91.7053L66.7242 92.0641L67.1791 90.7962L67.6339 90.9465L68.0888 90.2067L68.5437 90.844L68.9986 90.2501L69.4534 90.8723L69.9083 90.3371L70.3632 90.1379L70.8181 90.4659L71.2729 90.6406L71.7278 90.9289L72.1827 90.9229L72.6376 91.472L73.0924 90.4126L73.5473 90.0068L74.0022 88.7417L74.4571 88.8988L74.9119 89.3249L75.3668 85.9759L75.8217 90.5938L76.2766 91.2471L76.7314 90.1028L77.1863 89.4109L77.6412 89.229L78.0961 88.9783L78.5509 90.052L79.0058 90.5305L79.4607 90.3501L79.9156 89.3437L80.3704 88.7483L80.8253 89.2087L81.2802 88.5162L81.7351 86.9244L82.1899 89.5542L82.6448 88.55L83.0997 87.371L83.5546 88.6368L84.0094 87.5487L84.4643 88.2537L84.9192 89.2859L85.374 90.9238L85.8289 91.5545L86.2838 90.8427L86.7387 90.3708L87.1935 89.6146L87.6484 89.4907L88.1033 90.3006L88.5582 90.8388L89.013 91.3982L89.4679 90.6342L89.9228 91.0028L90.3777 89.9103L90.8325 89.55L91.2874 90.5363L91.7423 91.3019L92.1972 90.8635L92.652 88.6347L93.1069 89.8891L93.5618 90.374L94.0167 88.2731L94.4715 90.1544L94.9264 90.6786L95.3813 90.7855L95.8362 89.4246L96.291 90.5918L96.7459 89.1291L97.2008 89.6191L97.6557 89.7462L98.1105 89.5717L98.5654 90.4355L99.0203 88.5612L99.4752 90.4805L99.93 88.9002L100.385 90.4856L100.84 90.4556L101.295 90.9408L101.75 91.3576L102.204 90.1954L102.659 90.262L103.114 90.4335L103.569 89.799L104.024 89.8483L104.479 89.7808L104.934 90.4299L105.389 89.2841L105.843 89.6493L106.298 90.2127L106.753 90.3025L107.208 90.494L107.663 91.3277L108.118 90.8504L108.573 89.5604L109.028 87.3829L109.482 88.3781L109.937 89.6638L110.392 89.5822L110.847 90.1301L111.302 90.029L111.757 88.5218L112.212 85.411L112.667 88.9834L113.121 86.5516L113.576 88.3938L114.031 89.411L114.486 88.9885L114.941 88.9982L115.396 88.8418L115.851 87.2341L116.306 88.1026L116.76 89.1692L117.215 89.9136L117.67 89.4381L118.125 89.3445L118.58 88.635L119.035 89.8793L119.49 88.2343L119.945 88.136L120.399 88.511L120.854 89.6049L121.309 87.1913L121.764 88.4182L122.219 88.5452L122.674 89.086L123.129 89.3789L123.583 88.6612L124.038 86.2968L124.493 84.2591L124.948 82.5235L125.403 81.6812L125.858 83.8647L126.313 86.8544L126.768 86.1014L127.222 84.1678L127.677 83.9549L128.132 84.7619L128.587 82.7417L129.042 85.5444L129.497 83.9405L129.952 80.3178L130.407 82.4626L130.861 78.9767L131.316 83.798L131.771 81.0408L132.226 78.6194L132.681 83.227L133.136 83.2335L133.591 85.5358L134.046 86.3058L134.5 87.2829L134.955 87.145L135.41 85.978L135.865 84.9229L136.32 85.8608L136.775 85.8165L137.23 87.5691L137.685 88.8057L138.139 88.0889L138.594 85.5563L139.049 86.2209L139.504 87.4406L139.959 87.2081L140.414 87.9374L140.869 87.8944L141.324 87.595L141.778 87.0304L142.233 85.4662L142.688 85.5834L143.143 86.394L143.598 84.9502L144.053 87.0208L144.508 85.6301L144.963 82.3427L145.417 84.7123L145.872 84.1536L146.327 85.5779L146.782 85.3228L147.237 85.2131L147.692 85.8768L148.147 86.7252L148.602 86.3651L149.056 86.939L149.511 86.0629L149.966 82.8084L150.421 85.0289L150.876 82.1644L151.331 82.9432L151.786 83.9043L152.241 86.5528L152.695 84.4442L153.15 83.4359L153.605 83.982L154.06 84.5724L154.515 83.4256L154.97 80.334L155.425 79.4335L155.88 83.3093L156.334 87.243L156.789 87.2127L157.244 85.6438L157.699 84.5841L158.154 84.6481L158.609 86.2359L159.064 86.164L159.519 86.8919L159.973 84.5074L160.428 80.6301L160.883 85.004L161.338 85.1837L161.793 82.5332L162.248 84.2186L162.703 84.357L163.158 83.537L163.612 85.4734L164.067 85.9388L164.522 85.651L164.977 86.7926L165.432 82.5331L165.887 85.9733L166.342 86.8519L166.797 86.0201L167.251 86.9133L167.706 84.8372L168.161 81.9259L168.616 82.9796L169.071 83.2505L169.526 82.9348L169.981 84.7742L170.436 82.2295L170.89 81.4012L171.345 87.7517L171.8 83.8687L172.255 85.4715L172.71 85.5396L173.165 85.3057L173.62 86.7253L174.075 87.7055L174.529 88.0411L174.984 88.6811L175.439 87.1736L175.894 86.5249L176.349 87.193L176.804 87.0829L177.259 87.233L177.714 87.4609L178.168 87.6913L178.623 88.5699L179.078 87.8624L179.533 86.2188L179.988 86.9379L180.443 87.1902L180.898 87.4087L181.353 87.9185L181.807 86.9196L182.262 86.5453L182.717 86.0413L183.172 85.2555L183.627 86.6969L184.082 87.964L184.537 88.106L184.992 87.8758L185.446 86.5143L185.901 85.3175L186.356 86.6028L186.811 85.7186L187.266 85.8776L187.721 86.6642L188.176 85.2302L188.631 86.5246L189.085 85.1736L189.54 85.6975L189.995 86.3301L190.45 87.2893L190.905 87.1146L191.36 85.9897L191.815 87.0056L192.27 87.1837L192.724 86.8913L193.179 85.5356L193.634 87.1122L194.089 86.891L194.544 86.6599L194.999 87.0564L195.454 86.1815L195.909 85.7184L196.363 86.4811L196.818 87.0715L197.273 87.4316L197.728 86.3015L198.183 86.2726L198.638 86.9684L199.093 86.037L199.548 84.8566L200.002 86.9564L200.457 87.6206L200.912 85.2518L201.367 84.7997L201.822 85.8969L202.277 85.7752L202.732 82.7074L203.186 82.4905L203.641 83.5619L204.096 79.6512L204.551 84.4319L205.006 84.8912L205.461 84.5081L205.916 83.8643L206.371 84.4733L206.826 85.5168L207.28 84.7322L207.735 83.0348L208.19 83.3832L208.645 83.8794L209.1 82.3544L209.555 83.4412L210.01 85.9203L210.464 84.7111L210.919 84.7334L211.374 83.5186L211.829 84.1282L212.284 84.6921L212.739 85.3888L213.194 86.1714L213.649 85.2485L214.103 84.5618L214.558 85.9468L215.013 86.0247L215.468 85.3741L215.923 85.7249L216.378 85.9274L216.833 85.9894L217.288 85.2934L217.742 85.0148L218.197 84.8519L218.652 84.6333L219.107 86.3577L219.562 87.1476L220.017 84.1983L220.472 84.0107L220.927 86.1394L221.381 84.5239L221.836 85.7422L222.291 86.2348L222.746 85.6643L223.201 85.1417L223.656 85.4809L224.111 87.3184L224.566 86.5478L225.02 86.5946L225.475 87.3925L225.93 88.743L226.385 86.8131L226.84 86.3154L227.295 85.5891L227.75 83.2125L228.205 86.1189L228.659 87.4421L229.114 86.9929L229.569 85.003L230.024 85.4015L230.479 85.6801L230.934 84.6685L231.389 84.5027L231.844 84.4955L232.298 85.2737L232.753 84.8545L233.208 84.4018L233.663 84.2293L234.118 84.027L234.573 84.1447L235.028 84.9574L235.483 85.7348L235.937 84.7102L236.392 83.5709L236.847 85.4211L237.302 85.8481L237.757 87.1116L238.212 88.0061L238.667 88.0939L239.122 87.317L239.576 86.8177L240.031 87.2757L240.486 87.4555L240.941 87.1616L241.396 86.4718L241.851 87.3541L242.306 86.9797L242.761 86.5283L243.215 84.9211L243.67 85.3878L244.125 86.8708L244.58 88.5653L245.035 89.1581L245.49 86.207L245.945 85.9061L246.4 86.1732L246.854 87.0167L247.309 87.678L247.764 87.9663L248.219 88.322L248.674 87.9462L249.129 87.7847L249.584 87.5059L250.039 86.6531L250.493 86.4591L250.948 87.991L251.403 88.6656L251.858 87.6774L252.313 87.6325L252.768 88.0315L253.223 87.9311L253.678 88.5822L254.132 88.3174L254.587 87.0735L255.042 86.0005L255.497 87.3184L255.952 87.5962L256.407 85.6011L256.862 86.6651L257.317 88.2682L257.771 88.2561L258.226 86.5958L258.681 87.1821L259.136 87.1892L259.591 87.5568L260.046 86.4381L260.501 85.2639L260.956 86.1218L261.41 84.2161" stroke="#CDCDCD" stroke-width="0.532967" stroke-linecap="round" stroke-linejoin="round"/>
</g>
<mask id="mask3_705_65" style="mask-type:luminance" maskUnits="userSpaceOnUse" x="0" y="0" width="264" height="97">
<path d="M264 0H0V97H264V0Z" fill="white"/>
</mask>
<g mask="url(#mask3_705_65)">
<path d="M2.58691 95.9042L3.04179 95.662L3.49666 95.1328L3.95154 95.0488L4.40641 94.5685L4.86129 94.9977L5.31616 95.209L5.77104 95.3869L6.22591 95.5877L6.68078 95.4274L7.13566 95.0497L7.59053 94.5274L8.04541 94.6094L8.50028 94.9157L8.95516 95.1594L9.41003 94.6997L9.8649 94.6028L10.3198 94.7807L10.7747 94.9291L11.2295 94.9544L11.6844 94.3711L12.1393 93.9785L12.5942 94.4231L13.049 94.7937L13.5039 94.8144L13.9588 94.6728L14.4136 94.874L14.8685 94.9911L15.3234 95.1229L15.7783 95.4001L16.2331 95.2643L16.688 94.9954L17.1429 95.199L17.5978 95.3204L18.0526 95.1945L18.5075 95.2551L18.9624 95.2425L19.4173 94.9021L19.8721 94.8017L20.327 94.7406L20.7819 94.943L21.2368 95.0771L21.6916 95.258L22.1465 95.2652L22.6014 95.2362L23.0563 95.1227L23.5111 95.2777L23.966 95.0165L24.4209 95.215L24.8758 95.4465L25.3306 95.3336L25.7855 94.8853L26.2404 95.0994L26.6953 94.4817L27.1501 93.9346L27.605 94.3724L28.0599 94.7013L28.5148 94.8937L28.9696 94.785L29.4245 94.7809L29.8794 94.5411L30.3343 94.9795L30.7891 95.2139L31.244 95.5131L31.6989 94.1887L32.1537 94.8595L32.6086 95.2097L33.0635 95.2924L33.5184 95.2792L33.9732 95.3498L34.4281 95.5074L34.883 95.533L35.3379 95.3818L35.7927 95.3951L36.2476 95.5106L36.7025 95.5359L37.1574 95.6771L37.6122 95.6667L38.0671 95.829L38.522 95.7135L38.9769 95.4696L39.4317 95.2157L39.8866 95.156L40.3415 95.2032L40.7964 95.5878L41.2512 95.6102L41.7061 95.3547L42.161 95.0307L42.6159 95.2769L43.0707 95.2951L43.5256 95.4631L43.9805 95.5459L44.4354 95.6127L44.8902 95.5851L45.3451 95.6247L45.8 95.2642L46.2549 95.4551L46.7097 95.4385L47.1646 95.7802L47.6195 95.7228L48.0744 95.3631L48.5292 95.4096L48.9841 95.3542L49.439 95.5044L49.8939 95.4204L50.3487 95.819L50.8036 95.771L51.2585 95.0552L51.7134 95.0396L52.1682 95.6929L52.6231 95.6389L53.078 95.7301L53.5328 95.789L53.9877 95.7831L54.4426 95.4609L54.8975 95.595L55.3523 95.7155L55.8072 95.5601L56.2621 95.2064L56.717 95.1025L57.1718 95.0968L57.6267 95.4995L58.0816 95.8194L58.5365 95.8913L58.9913 95.827L59.4462 95.7981L59.9011 95.6056L60.356 95.6833L60.8108 95.1872L61.2657 95.3109L61.7206 94.9628L62.1755 94.612L62.6303 95.1547L63.0852 95.6668L63.5401 95.7398L63.995 95.7278L64.4498 95.4852L64.9047 95.6153L65.3596 95.547L65.8145 95.7813L66.2693 95.1162L66.7242 95.8177L67.1791 95.6713L67.634 95.6692L68.0888 95.9935L68.5437 95.8177L68.9986 95.9213L69.4534 96.061L69.9083 96.0756L70.3632 95.9086L70.8181 95.8748L71.273 95.9154L71.7278 95.9836L72.1827 96.0258L72.6376 96.0787L73.0925 96.0597L73.5473 95.8754L74.0022 95.9422L74.4571 95.992L74.9119 95.9425L75.3668 95.88L75.8217 95.976L76.2766 95.5517L76.7314 95.3677L77.1863 95.783L77.6412 95.8046L78.0961 95.9026L78.5509 95.9429L79.0058 95.6761L79.4607 95.9817L79.9156 95.944L80.3704 95.877L80.8253 96.0603L81.2802 96.044L81.7351 96.0196L82.1899 96.0547L82.6448 96.1076L83.0997 95.9483L83.5546 96.1678L84.0094 96.0944L84.4643 96.0514L84.9192 96.1215L85.3741 96.0733L85.8289 96.138L86.2838 96.2049L86.7387 96.1443L87.1936 96.1732L87.6484 96.0686L88.1033 96.2002L88.5582 96.2204L89.0131 96.2875L89.4679 96.1277L89.9228 96.1619L90.3777 96.1346L90.8325 96.1582L91.2874 96.1231L91.7423 96.2331L92.1972 96.2327L92.652 96.0914L93.1069 95.9437L93.5618 95.9878L94.0167 96.158L94.4715 96.1686L94.9264 96.2167L95.3813 96.1563L95.8362 96.0466L96.291 96.0954L96.7459 96.1036L97.2008 96.1479L97.6557 96.2042L98.1105 96.1276L98.5654 96.137L99.0203 96.1145L99.4752 96.1765L99.93 96.1635L100.385 96.141L100.84 96.1382L101.295 96.2451L101.75 96.195L102.204 96.0675L102.659 96.1939L103.114 96.0717L103.569 96.1758L104.024 96.1993L104.479 96.193L104.934 96.2922L105.389 96.2194L105.843 96.2432L106.298 96.2112L106.753 96.1879L107.208 96.1056L107.663 96.2993L108.118 96.3617L108.573 96.2578L109.028 96.4018L109.482 96.435L109.937 96.4284L110.392 96.2753L110.847 96.3842L111.302 96.266L111.757 96.1918L112.212 96.2735L112.667 96.1448L113.121 96.291L113.576 96.1916L114.031 96.3051L114.486 96.3286L114.941 96.2438L115.396 96.1777L115.851 96.2284L116.306 96.2958L116.76 96.1974L117.215 96.258L117.67 96.3132L118.125 96.2236L118.58 96.2463L119.035 96.3344L119.49 96.2229L119.945 96.3186L120.399 96.3479L120.854 96.2503L121.309 96.2538L121.764 96.3046L122.219 96.2858L122.674 96.3846L123.129 96.4312L123.584 96.3983L124.038 96.4272L124.493 96.3832L124.948 96.3519L125.403 96.3585L125.858 96.3752L126.313 96.4115L126.768 96.4497L127.223 96.4174L127.677 96.3318L128.132 96.394L128.587 96.4405L129.042 96.3837L129.497 96.3805L129.952 96.4422L130.407 96.4896L130.861 96.344L131.316 96.3813L131.771 96.441L132.226 96.3501L132.681 96.4469L133.136 96.5584L133.591 96.5342L134.046 96.4232L134.5 96.3737L134.955 96.5063L135.41 96.488L135.865 96.3806L136.32 96.4356L136.775 96.4049L137.23 96.3718L137.685 96.2131L138.139 96.3353L138.594 95.838L139.049 94.3281L139.504 95.1156L139.959 89.2813L140.414 94.6299L140.869 80.1489L141.324 90.1707L141.778 94.7701L142.233 93.7678L142.688 89.7503L143.143 79.9046L143.598 93.4109L144.053 89.4412L144.508 95.9119L144.963 95.9903L145.417 95.4666L145.872 95.0568L146.327 94.9248L146.782 95.5412L147.237 95.5859L147.692 88.8248L148.147 95.3763L148.602 95.4108L149.056 92.8501L149.511 95.1062L149.966 95.9171L150.421 94.1281L150.876 92.6053L151.331 92.8006L151.786 95.2622L152.241 95.5001L152.695 94.8329L153.15 95.0908L153.605 94.059L154.06 95.4938L154.515 95.538L154.97 95.5375L155.425 95.7683L155.88 94.4561L156.334 94.792L156.789 95.0177L157.244 93.8693L157.699 94.6688L158.154 94.2369L158.609 95.397L159.064 95.5946L159.519 95.3846L159.973 95.2974L160.428 94.9866L160.883 93.5951L161.338 94.2856L161.793 94.0696L162.248 93.7339L162.703 93.9143L163.158 93.5664L163.612 93.8188L164.067 95.3069L164.522 93.2608L164.977 92.894L165.432 93.5546L165.887 93.56L166.342 93.8406L166.797 93.9007L167.251 91.6889L167.706 91.1876L168.161 90.8724L168.616 77.887L169.071 82.3897L169.526 93.6852L169.981 94.9123L170.436 93.0984L170.89 93.1963L171.345 95.6236L171.8 94.164L172.255 95.5975L172.71 95.0328L173.165 95.1501L173.62 95.5703L174.075 95.3408L174.529 95.5001L174.984 93.8482L175.439 93.7673L175.894 93.3276L176.349 93.6879L176.804 94.7634L177.259 94.5892L177.714 94.5469L178.168 95.0976L178.623 95.2027L179.078 94.8404L179.533 95.32L179.988 95.6212L180.443 95.206L180.898 93.9609L181.353 92.2284L181.807 94.8262L182.262 95.6547L182.717 94.6486L183.172 96.0447L183.627 96.1617L184.082 95.6245L184.537 95.9518L184.992 93.7513L185.446 93.2669L185.901 95.0242L186.356 94.3806L186.811 93.434L187.266 95.4679L187.721 95.1872L188.176 95.6303L188.631 94.8725L189.085 94.3276L189.54 95.9716L189.995 94.0046L190.45 94.0019L190.905 94.3766L191.36 94.9177L191.815 95.8973L192.27 94.1245L192.724 94.9892L193.179 94.0126L193.634 94.447L194.089 94.5179L194.544 95.1364L194.999 95.442L195.454 94.7563L195.909 95.043L196.363 94.9261L196.818 96.199L197.273 93.8757L197.728 94.1587L198.183 95.0205L198.638 95.1951L199.093 95.695L199.548 96.115L200.002 96.189L200.457 94.9587L200.912 95.6452L201.367 94.4804L201.822 95.2028L202.277 95.1288L202.732 95.4503L203.187 95.5491L203.641 95.1307L204.096 95.5102L204.551 95.3323L205.006 95.1981L205.461 95.554L205.916 95.5985L206.371 95.546L206.826 95.2331L207.28 93.9487L207.735 94.2528L208.19 95.7579L208.645 95.7953L209.1 94.1744L209.555 92.0418L210.01 94.4794L210.465 95.3349L210.919 95.6236L211.374 95.9688L211.829 95.5043L212.284 95.8577L212.739 95.2146L213.194 95.4705L213.649 94.8548L214.104 95.4179L214.558 95.973L215.013 95.9096L215.468 95.6124L215.923 95.4497L216.378 95.4069L216.833 95.5444L217.288 95.5089L217.743 95.7487L218.197 95.6016L218.652 95.9112L219.107 95.6522L219.562 95.5247L220.017 95.311L220.472 95.6524L220.927 95.4122L221.382 95.2249L221.836 94.8653L222.291 93.5992L222.746 94.0064L223.201 93.8262L223.656 93.4215L224.111 93.631L224.566 95.4575L225.02 93.8237L225.475 95.4163L225.93 94.02L226.385 95.6104L226.84 95.1138L227.295 94.7584L227.75 95.6007L228.205 95.6841L228.659 95.5666L229.114 93.4521L229.569 94.3273L230.024 94.2517L230.479 93.9751L230.934 95.6L231.389 95.2939L231.844 95.2513L232.298 95.5482L232.753 95.4233L233.208 95.8694L233.663 95.4305L234.118 95.5937L234.573 94.9274L235.028 94.8946L235.483 95.4229L235.937 95.0958L236.392 95.3191L236.847 95.3517L237.302 95.4182L237.757 95.816L238.212 96.1012L238.667 96.0256L239.122 95.8423L239.576 96.037L240.031 95.4433L240.486 95.6601L240.941 95.6085L241.396 95.8635L241.851 95.7967L242.306 95.5262L242.761 95.77L243.215 95.7116L243.67 96.0871L244.125 96.1117L244.58 95.8936L245.035 95.4229L245.49 95.1075L245.945 95.6605L246.4 95.2905L246.854 94.906L247.309 95.6611L247.764 95.1425L248.219 95.1689L248.674 95.5974L249.129 94.7788L249.584 94.6295L250.039 95.1957L250.493 95.5179L250.948 95.6549L251.403 95.8299L251.858 95.9163L252.313 95.7665L252.768 94.8171L253.223 94.916L253.678 95.957L254.132 95.922L254.587 95.8653L255.042 95.7497L255.497 95.6153" stroke="#B3B8C1" stroke-width="0.532967" stroke-linecap="round" stroke-linejoin="round"/>
</g>
<mask id="mask4_705_65" style="mask-type:luminance" maskUnits="userSpaceOnUse" x="0" y="0" width="264" height="97">
<path d="M264 0H0V97H264V0Z" fill="white"/>
</mask>
<g mask="url(#mask4_705_65)">
<path d="M2.58691 94.886L3.04179 94.2242L3.49666 93.9775L3.95154 93.8348L4.40641 93.4928L4.86129 94.0154L5.31616 93.926L5.77103 94.4256L6.22591 94.6959L6.68078 94.2615L7.13566 94.364L7.59053 94.3491L8.04541 94.5577L8.50028 94.2319L8.95515 94.2534L9.41003 94.1158L9.8649 92.6594L10.3198 94.0926L10.7747 94.2928L11.2295 94.384L11.6844 94.0879L12.1393 94.344L12.5941 94.7326L13.049 94.5812L13.5039 94.6059L13.9588 93.9878L14.4136 93.6706L14.8685 94.2081L15.3234 93.8997L15.7783 94.4715L16.2331 93.7905L16.688 94.2366L17.1429 94.4969L17.5978 94.5839L18.0526 94.5567L18.5075 94.8123L18.9624 94.5914L19.4173 94.0173L19.8721 93.8642L20.327 94.2205L20.7819 93.8195L21.2368 94.2465L21.6916 94.4661L22.1465 94.768L22.6014 94.6103L23.0563 94.4085L23.5111 94.4351L23.966 94.3489L24.4209 94.3823L24.8758 93.9996L25.3306 94.683L25.7855 94.6788L26.2404 94.3161L26.6953 94.7172L27.1501 94.7026L27.605 94.7779L28.0599 95.105L28.5148 95.0282L28.9696 94.5445L29.4245 94.5123L29.8794 94.5872L30.3342 94.6803L30.7891 94.4893L31.244 94.9332L31.6989 94.9626L32.1537 94.662L32.6086 94.8292L33.0635 94.7373L33.5184 94.8512L33.9732 94.593L34.4281 94.9531L34.883 94.9155L35.3379 93.6959L35.7927 94.396L36.2476 94.8135L36.7025 94.586L37.1574 94.7239L37.6122 94.8376L38.0671 95.0974L38.522 94.7319L38.9769 94.6547L39.4317 94.6751L39.8866 94.6611L40.3415 94.7066L40.7964 95.1216L41.2512 95.2351L41.7061 94.6635L42.161 94.6654L42.6159 94.7646L43.0707 94.7168L43.5256 94.8529L43.9805 94.854L44.4354 95.0804L44.8902 94.7942L45.3451 94.9652L45.8 95.0918L46.2549 94.9848L46.7097 94.9665L47.1646 95.1652L47.6195 95.0539L48.0744 94.5678L48.5292 94.7188L48.9841 94.8094L49.439 94.8857L49.8938 94.1569L50.3487 95.1294L50.8036 95.2438L51.2585 95.1685L51.7133 94.8485L52.1682 94.7484L52.6231 95.0007L53.078 95.1444L53.5328 95.3057L53.9877 95.2964L54.4426 95.1193L54.8975 94.9072L55.3523 94.9913L55.8072 95.0343L56.2621 94.9423L56.717 95.1901L57.1718 95.2943L57.6267 95.0076L58.0816 94.7512L58.5365 94.5847L58.9913 93.6996L59.4462 93.0768L59.9011 94.3844L60.356 95.0822L60.8108 94.9725L61.2657 94.8576L61.7206 94.4218L62.1755 94.4746L62.6303 94.748L63.0852 95.205L63.5401 95.5187L63.995 95.4879L64.4498 95.6144L64.9047 95.5898L65.3596 95.6309L65.8144 95.652L66.2693 95.8658L66.7242 95.894L67.1791 95.6098L67.6339 95.7269L68.0888 95.7883L68.5437 95.7457L68.9986 95.7672L69.4534 95.9877L69.9083 96.0576L70.3632 95.8354L70.8181 95.8319L71.2729 95.8124L71.7278 95.879L72.1827 95.8619L72.6376 96.0531L73.0924 96.1055L73.5473 95.8763L74.0022 95.9021L74.4571 95.9603L74.9119 95.9898L75.3668 95.9571L75.8217 95.954L76.2766 95.9152L76.7314 95.6102L77.1863 95.8911L77.6412 95.8266L78.0961 95.9547L78.5509 95.9373L79.0058 95.9242L79.4607 96.0204L79.9156 95.9911L80.3704 96.0268L80.8253 96.0728L81.2802 95.9697L81.7351 95.8884L82.1899 95.9317L82.6448 96.0556L83.0997 95.9649L83.5546 96.0069L84.0094 95.9066L84.4643 95.881L84.9192 95.8963L85.374 95.9774L85.8289 96.0153L86.2838 95.8932L86.7387 95.9115L87.1935 95.9365L87.6484 95.8865L88.1033 95.9381L88.5582 96.1479L89.013 96.0883L89.4679 95.8772L89.9228 95.6974L90.3777 95.92L90.8325 95.8489L91.2874 95.776L91.7423 96.0539L92.1972 96.0605L92.652 95.7773L93.1069 95.786L93.5618 95.6657L94.0167 95.8744L94.4715 95.8423L94.9264 95.851L95.3813 95.7574L95.8362 95.8346L96.291 95.779L96.7459 95.8436L97.2008 95.8485L97.6557 95.9569L98.1105 96.0661L98.5654 96.0319L99.0203 95.995L99.4752 95.9787L99.93 95.9074L100.385 95.9717L100.84 96.0015L101.295 96.0866L101.75 96.0652L102.204 95.9126L102.659 96.0003L103.114 95.9464L103.569 95.9242L104.024 96.0233L104.479 96.1344L104.934 96.1745L105.389 96.0666L105.843 96.0944L106.298 96.0691L106.753 96.0317L107.208 95.9989L107.663 96.1801L108.118 96.2006L108.573 96.1041L109.028 96.1192L109.482 96.165L109.937 96.1193L110.392 96.1359L110.847 96.1739L111.302 96.2132L111.757 96.026L112.212 96.0777L112.667 96.064L113.121 96.023L113.576 96.0897L114.031 96.2208L114.486 96.3126L114.941 96.1981L115.396 96.1481L115.851 96.1492L116.306 96.1768L116.76 96.0351L117.215 96.2121L117.67 96.2462L118.125 96.1139L118.58 96.0511L119.035 96.1804L119.49 96.1107L119.945 96.1824L120.399 96.2118L120.854 96.2161L121.309 96.1174L121.764 96.2068L122.219 96.0904L122.674 96.2655L123.129 96.2236L123.583 96.3009L124.038 96.2441L124.493 96.1353L124.948 95.8738L125.403 96.1319L125.858 96.103L126.313 96.1617L126.768 96.2216L127.222 96.2481L127.677 96.1108L128.132 96.188L128.587 96.1563L129.042 96.1452L129.497 96.1635L129.952 96.3192L130.407 96.3133L130.861 96.2371L131.316 96.1747L131.771 96.1885L132.226 94.3125L132.681 93.269L133.136 95.485L133.591 95.7047L134.046 95.4118L134.5 95.7283L134.955 95.7811L135.41 95.3119L135.865 95.5115L136.32 95.9297L136.775 95.8535L137.23 95.8986L137.685 95.6672L138.139 95.7726L138.594 95.8722L139.049 95.8581L139.504 95.8539L139.959 96.1759L140.414 94.9117L140.869 94.8866L141.324 95.8151L141.778 95.7831L142.233 95.9509L142.688 96.016L143.143 95.9098L143.598 95.9126L144.053 95.8249L144.508 95.6707L144.963 95.3229L145.417 95.7831L145.872 95.8765L146.327 95.5412L146.782 95.6866L147.237 95.596L147.692 95.1387L148.147 95.8355L148.602 95.6974L149.056 96.0425L149.511 96.0809L149.966 95.904L150.421 96.0392L150.876 96.1022L151.331 96.1231L151.786 96.1599L152.241 96.2201L152.695 96.2403L153.15 96.1547L153.605 95.8974L154.06 95.9521L154.515 96.0306L154.97 96.0649L155.425 96.131L155.88 96.2504L156.334 96.1592L156.789 96.2019L157.244 96.1467L157.699 95.8265L158.154 95.9757L158.609 96.1101L159.064 96.2626L159.519 96.0333L159.973 95.7036L160.428 95.8524L160.883 95.9681L161.338 95.9834L161.793 96.0662L162.248 96.2703L162.703 96.0959L163.158 96.1277L163.612 96.1991L164.067 96.2174L164.522 95.1761L164.977 95.5394L165.432 96.2664L165.887 96.1167L166.342 96.2096L166.797 96.0821L167.251 96.0818L167.706 96.1467L168.161 96.2928L168.616 96.2037L169.071 96.2239L169.526 96.1963L169.981 95.9774L170.436 96.237L170.89 96.1297L171.345 96.0997L171.8 96.0189L172.255 95.8831L172.71 96.2694L173.165 96.0561L173.62 95.8975L174.075 96.0568L174.529 96.0315L174.984 96.1779L175.439 96.184L175.894 96.1791L176.349 96.0302L176.804 95.8905L177.259 95.781L177.714 95.9931L178.168 96.0087L178.623 96.1099L179.078 96.0796L179.533 96.0388L179.988 95.9425L180.443 95.8951L180.898 95.9167L181.353 94.8225L181.807 94.9845L182.262 95.2996L182.717 94.3665L183.172 95.6785L183.627 96.054L184.082 95.9712L184.537 95.9373L184.992 96.0028L185.446 95.9677L185.901 96.0374L186.356 96.0067L186.811 96.0043L187.266 96.18L187.721 96.1198L188.176 96.0077L188.631 95.9809L189.085 95.8156L189.54 95.7098L189.995 95.7684L190.45 96.0516L190.905 96.1256L191.36 95.8447L191.815 96.022L192.27 95.9198L192.724 95.8707L193.179 95.837L193.634 95.9136L194.089 96.0482L194.544 95.2568L194.999 96.0816L195.454 96.1535L195.909 96.1314L196.363 95.1064L196.818 96.2667L197.273 96.1922L197.728 96.1521L198.183 96.1989L198.638 96.0843L199.093 96.0146L199.548 95.961L200.002 95.8302L200.457 96.099L200.912 95.7764L201.367 96.0155L201.822 96.0611L202.277 96.1302L202.732 96.0231L203.186 95.9812L203.641 96.0432L204.096 96.0042L204.551 96.0092L205.006 96.0256L205.461 96.0924L205.916 95.9718L206.371 96.0305L206.826 96.1924L207.28 95.8507L207.735 95.4749L208.19 95.7276L208.645 95.8347L209.1 95.3279L209.555 95.8222L210.01 95.9355L210.464 95.8523L210.919 95.7979L211.374 95.6556L211.829 95.4619L212.284 95.445L212.739 95.4523L213.194 95.398L213.649 95.2256L214.103 95.2197L214.558 95.2475L215.013 95.2328L215.468 95.1854L215.923 95.4485L216.378 95.4762L216.833 95.3051L217.288 95.1707L217.742 95.1753L218.197 95.5445L218.652 95.725L219.107 95.6136L219.562 95.3952L220.017 95.213L220.472 94.7182L220.927 95.1307L221.381 94.9809L221.836 95.2483L222.291 95.2724L222.746 94.9033L223.201 95.1779L223.656 95.3884L224.111 95.519L224.566 95.4625L225.02 95.4709L225.475 95.5995L225.93 95.6857L226.385 95.5005L226.84 95.5157L227.295 95.1464L227.75 95.0776L228.205 95.021L228.659 95.4138L229.114 95.264L229.569 94.8475L230.024 95.0842L230.479 94.9304L230.934 95.0514L231.389 95.1587L231.844 95.1349L232.298 95.0573L232.753 94.9697L233.208 94.864L233.663 94.6289L234.118 94.5511L234.573 94.5052L235.028 94.7339L235.483 94.3268L235.937 94.2519L236.392 94.3755L236.847 94.4122L237.302 94.9414L237.757 95.167L238.212 94.9565L238.667 95.0189L239.122 94.766L239.576 94.8269L240.031 94.8194L240.486 95.0093L240.941 94.9958L241.396 94.6871L241.851 94.9788L242.306 94.8667L242.761 94.7866L243.215 94.5991L243.67 94.7682L244.125 95.1772L244.58 95.3098L245.035 95.4265L245.49 95.2879L245.945 94.9922L246.4 94.9494L246.854 95.3805L247.309 95.3435L247.764 95.5514L248.219 95.2537L248.674 94.8131L249.129 94.8914L249.584 94.7194L250.039 94.9802L250.493 94.7004L250.948 94.9656L251.403 95.2516L251.858 95.0894L252.313 95.0781L252.768 95.3957L253.223 95.2898L253.678 95.194L254.132 95.3213L254.587 95.2019L255.042 95.2764L255.497 95.2125L255.952 95.2931L256.407 95.0625L256.862 94.9747L257.317 95.186L257.771 94.9423L258.226 95.0156L258.681 95.2619L259.136 95.2177L259.591 95.1514L260.046 95.1733L260.501 95.3697L260.956 95.5702L261.41 95.3694" stroke="#BABABA" stroke-width="0.532967" stroke-linecap="round" stroke-linejoin="round"/>
</g>
<mask id="mask5_705_65" style="mask-type:luminance" maskUnits="userSpaceOnUse" x="0" y="0" width="264" height="97">
<path d="M264 0H0V97H264V0Z" fill="white"/>
</mask>
<g mask="url(#mask5_705_65)">
<path d="M2.58691 96.8269L3.04179 96.8422L3.49666 96.8509L3.95154 96.7661L4.40641 96.7461L4.86129 96.8209L5.31616 96.8108L5.77103 96.7689L6.22591 96.7145L6.68078 96.7751L7.13566 96.7128L7.59053 96.7097L8.04541 96.7336L8.50028 96.8036L8.95515 96.8233L9.41003 96.8353L9.8649 96.8016L10.3198 96.8261L10.7747 96.8307L11.2295 96.8542L11.6844 96.853L12.1393 96.8526L12.5941 96.8737L13.049 96.8667L13.5039 96.8694L13.9588 96.8648L14.4136 96.8659L14.8685 96.8794L15.3234 96.8668L15.7783 96.8753L16.2331 96.8804L16.688 96.8811L17.1429 96.88L17.5978 96.8889L18.0526 96.8593L18.5075 96.8661L18.9624 96.8807L19.4173 96.8417L19.8721 96.8633L20.327 96.8757L20.7819 96.8753L21.2368 96.8745L21.6916 96.899L22.1465 96.9019L22.6014 96.8905L23.0563 96.8666L23.5111 96.8865L23.966 96.8923L24.4209 96.8917L24.8758 96.9008L25.3306 96.8827L25.7855 96.8789L26.2404 96.8927L26.6953 96.8902L27.1501 96.8911L27.605 96.9086L28.0599 96.9123L28.5148 96.905L28.9696 96.8969L29.4245 96.8937L29.8794 96.8969L30.3342 96.892L30.7891 96.9027L31.244 96.8986L31.6989 96.9105L32.1537 96.8747L32.6086 96.8628L33.0635 96.7259L33.5184 96.8895L33.9732 96.8985L34.4281 96.9114L34.883 96.9115L35.3379 96.8991L35.7927 96.89L36.2476 96.9027L36.7025 96.899L37.1574 96.9044L37.6122 96.8994L38.0671 96.877L38.522 96.8914L38.9769 96.8871L39.4317 96.9027L39.8866 96.8995L40.3415 96.8876L40.7964 96.9058L41.2512 96.9013L41.7061 96.8732L42.161 96.8766L42.6159 96.8872L43.0707 96.8875L43.5256 96.8843L43.9805 96.8515L44.4354 96.8984L44.8902 96.8727L45.3451 96.881L45.8 96.8869L46.2549 96.8831L46.7097 96.8893L47.1646 96.9048L47.6195 96.8988L48.0744 96.8909L48.5292 96.8993L48.9841 96.9092L49.439 96.9003L49.8938 96.9082L50.3487 96.9038L50.8036 96.907L51.2585 96.8955L51.7133 96.8789L52.1682 96.8793L52.6231 96.8924L53.078 96.8953L53.5328 96.9124L53.9877 96.905L54.4426 96.8936L54.8975 96.8988L55.3523 96.9017L55.8072 96.8868L56.2621 96.9006L56.717 96.9091L57.1718 96.9034L57.6267 96.9061L58.0816 96.9026L58.5365 96.9005L58.9913 96.8897L59.4462 96.8906L59.9011 96.9179L60.356 96.9068L60.8108 96.9013L61.2657 96.8997L61.7206 96.8876L62.1755 96.8916L62.6303 96.9127L63.0852 96.9263L63.5401 96.9209L63.995 96.9048L64.4498 96.8751L64.9047 96.9043L65.3596 96.8933L65.8144 96.9154H66.2693L66.7242 96.9229L67.1791 96.8327L67.6339 96.9246L68.0888 96.9261L68.5437 96.9288L68.9986 96.917L69.4534 96.9272L69.9083 96.9238L70.3632 96.9262L70.8181 96.8553L71.2729 96.8568L71.7278 96.8913L72.1827 96.9233L72.6376 96.9217L73.0924 96.9171L73.5473 96.8993L74.0022 96.9101L74.4571 96.9119L74.9119 96.9272L75.3668 96.922L75.8217 96.9205L76.2766 96.9159L76.7314 96.8978L77.1863 96.9133L77.6412 96.9154L78.0961 96.9268L78.5509 96.9137L79.0058 96.9104L79.4607 96.9217L79.9156 96.9233L80.3704 96.9327L80.8253 96.9262L81.2802 96.9209L81.7351 96.9027L82.1899 96.9282L82.6448 96.9335L83.0997 96.9323L83.5546 96.9301L84.0094 96.9086L84.4643 96.8918L84.9192 96.8752L85.374 96.8958L85.8289 96.9027L86.2838 96.9073L86.7387 96.9262L87.1935 96.9292L87.6484 96.9264L88.1033 96.932L88.5582 96.9394L89.013 96.9382L89.4679 96.9323L89.9228 96.9214L90.3777 96.9342L90.8325 96.9321L91.2874 96.9294L91.7423 96.9286L92.1972 96.9366L92.652 96.9319L93.1069 96.9349L93.5618 96.9321L94.0167 96.9304L94.4715 96.9221L94.9264 96.9351L95.3813 96.932L95.8362 96.9362L96.291 96.932L96.7459 96.9358L97.2008 96.9335L97.6557 96.9361L98.1105 96.9316L98.5654 96.9339L99.0203 96.9264L99.4752 96.923L99.93 96.9337L100.385 96.936L100.84 96.9388L101.295 96.9085L101.75 96.921L102.204 96.9199L102.659 96.9264L103.114 96.9316L103.569 96.9311L104.024 96.9362L104.479 96.9463L104.934 96.9348L105.389 96.9378L105.843 96.9352L106.298 96.9342L106.753 96.9378L107.208 96.9345L107.663 96.9432L108.118 96.9315L108.573 96.9436L109.028 96.9368L109.482 96.9433L109.937 96.9328L110.392 96.9394L110.847 96.9441L111.302 96.9475L111.757 96.9391L112.212 96.941L112.667 96.9443L113.121 96.94L113.576 96.9321L114.031 96.9431L114.486 96.9351L114.941 96.9326L115.396 96.9335L115.851 96.9324L116.306 96.9306L116.76 96.9286L117.215 96.9415L117.67 96.9381L118.125 96.9366L118.58 96.9404L119.035 96.9483L119.49 96.9355L119.945 96.9129L120.399 96.9344L120.854 96.9377L121.309 96.9323L121.764 96.9377L122.219 96.945L122.674 96.9389L123.129 96.9453L123.583 96.9508L124.038 96.9492L124.493 96.9499L124.948 96.9436L125.403 96.9479L125.858 96.9431L126.313 96.9499L126.768 96.9528L127.222 96.9546L127.677 96.9423L128.132 96.923L128.587 96.9412L129.042 96.9409L129.497 96.9432L129.952 96.9477L130.407 96.9488L130.861 96.9441L131.316 96.9477L131.771 96.9466L132.226 96.9296L132.681 96.9421L133.136 96.943L133.591 96.9435L134.046 96.9441L134.5 96.9449L134.955 96.9303L135.41 96.9466L135.865 96.9442L136.32 96.9466L136.775 96.949L137.23 96.9453L137.685 96.9417L138.139 96.9416L138.594 96.9002L139.049 96.9247L139.504 96.93L139.959 96.9398L140.414 96.9341L140.869 96.9251L141.324 96.9324L141.778 96.9208L142.233 96.9303L142.688 96.9457L143.143 96.9506L143.598 96.945L144.053 96.9338L144.508 96.9116L144.963 96.9181L145.417 96.9203L145.872 96.9316L146.327 96.8878L146.782 96.8942L147.237 96.9259L147.692 96.9348L148.147 96.9445L148.602 96.9487L149.056 96.9336L149.511 96.9451L149.966 96.9419L150.421 96.9453L150.876 96.9482L151.331 96.9516L151.786 96.9545L152.241 96.9516L152.695 96.9507L153.15 96.9452L153.605 96.9442L154.06 96.9371L154.515 96.9278L154.97 96.9383L155.425 96.9492L155.88 96.9472L156.334 96.9459L156.789 96.9516L157.244 96.9466L157.699 96.9535L158.154 96.9559L158.609 96.949L159.064 96.9494L159.519 96.9493L159.973 96.9384L160.428 96.9443L160.883 96.9413L161.338 96.9331L161.793 96.9363L162.248 96.9466L162.703 96.9474L163.158 96.9467L163.612 96.9502L164.067 96.9503L164.522 96.9566L164.977 96.9521L165.432 96.9436L165.887 96.9295L166.342 96.9316L166.797 96.9377L167.251 96.9519L167.706 96.9536L168.161 96.9525L168.616 96.9536L169.071 96.9498L169.526 96.9491L169.981 96.9415L170.436 96.9506L170.89 96.9571L171.345 96.9549L171.8 96.9591L172.255 96.9479L172.71 96.9539L173.165 96.9546L173.62 96.953L174.075 96.9525L174.529 96.9491L174.984 96.9539L175.439 96.9498L175.894 96.9552L176.349 96.9441L176.804 96.9565L177.259 96.9538L177.714 96.9517L178.168 96.9555L178.623 96.9512L179.078 96.9543L179.533 96.9537L179.988 96.9509L180.443 96.9488L180.898 96.9545L181.353 96.9483L181.807 96.9505L182.262 96.9558L182.717 96.9429L183.172 96.9445L183.627 96.953L184.082 96.954L184.537 96.9504L184.992 96.9504L185.446 96.9466L185.901 96.9406L186.356 96.9422L186.811 96.9491L187.266 96.955L187.721 96.957L188.176 96.9511L188.631 96.9513L189.085 96.9473L189.54 96.9502L189.995 96.9479L190.45 96.9268L190.905 96.9458L191.36 96.9473L191.815 96.9504L192.27 96.9495L192.724 96.9476L193.179 96.9521L193.634 96.9478L194.089 96.9504L194.544 96.9498L194.999 96.9542L195.454 96.9494L195.909 96.9525L196.363 96.9512L196.818 96.9614L197.273 96.9571L197.728 96.9529L198.183 96.9552L198.638 96.9533L199.093 96.9452L199.548 96.946L200.002 96.949L200.457 96.9605L200.912 96.9529L201.367 96.9532L201.822 96.958L202.277 96.9538L202.732 96.9515L203.186 96.9562L203.641 96.9605L204.096 96.9578L204.551 96.9573L205.006 96.9592L205.461 96.9542L205.916 96.9587L206.371 96.9584L206.826 96.9613L207.28 96.9563L207.735 96.9569L208.19 96.9592L208.645 96.9556L209.1 96.9613L209.555 96.9632L210.01 96.9649L210.464 96.9622L210.919 96.966L211.374 96.9596L211.829 96.9606L212.284 96.9634L212.739 96.9636L213.194 96.9555L213.649 96.9556L214.103 96.9572L214.558 96.9625L215.013 96.9581L215.468 96.9594L215.923 96.9572L216.378 96.9566L216.833 96.961L217.288 96.9567L217.742 96.9588L218.197 96.9549L218.652 96.9616L219.107 96.966L219.562 96.9618L220.017 96.9622L220.472 96.9602L220.927 96.9618L221.381 96.9625L221.836 96.9656L222.291 96.9695L222.746 96.9649L223.201 96.9656L223.656 96.9662L224.111 96.9654L224.566 96.9651L225.02 96.9671L225.475 96.9674L225.93 96.9668L226.385 96.9582L226.84 96.9622L227.295 96.963L227.75 96.9651L228.205 96.9592L228.659 96.9704L229.114 96.9694L229.569 96.9631L230.024 96.9664L230.479 96.9681L230.934 96.9683L231.389 96.9588L231.844 96.9653L232.298 96.9657L232.753 96.9676L233.208 96.9702L233.663 96.9428L234.118 96.9677L234.573 96.9683L235.028 96.9722L235.483 96.968L235.937 96.9668L236.392 96.9662L236.847 96.9683L237.302 96.9578L237.757 96.9719L238.212 96.9722L238.667 96.9713L239.122 96.9632L239.576 96.9589L240.031 96.9443L240.486 96.9279L240.941 96.9196L241.396 96.9199L241.851 96.8927L242.306 96.896L242.761 96.8787L243.215 96.8869L243.67 96.9155L244.125 96.9192L244.58 96.8455L245.035 96.8875L245.49 96.8758L245.945 96.8907L246.4 96.8865L246.854 96.8885L247.309 96.8746L247.764 96.8838L248.219 96.8473L248.674 96.8551L249.129 96.8682L249.584 96.8751L250.039 96.8361L250.493 96.8958L250.948 96.9141L251.403 96.9101L251.858 96.8639L252.313 96.9128L252.768 96.869L253.223 96.8831L253.678 96.8882L254.132 96.8867L254.587 96.9143L255.042 96.7522L255.497 96.8416L255.952 96.8513L256.407 96.8501L256.862 96.8428L257.317 96.8824L257.771 96.9065L258.226 96.8709L258.681 96.918L259.136 96.9092L259.591 96.857L260.046 96.8757L260.501 96.8835L260.956 96.8658L261.41 96.868" stroke="#808080" stroke-width="0.532967" stroke-linecap="round" stroke-linejoin="round"/>
</g>
<mask id="mask6_705_65" style="mask-type:luminance" maskUnits="userSpaceOnUse" x="0" y="0" width="264" height="97">
<path d="M264 0H0V97H264V0Z" fill="white"/>
</mask>
<g mask="url(#mask6_705_65)">
<path d="M2.58691 96.9999H3.04179H3.49666H3.95154H4.40641H4.86129H5.31616H5.77103H6.22591H6.68078L7.13566 96.0748L7.59053 96.7777L8.04541 96.3404L8.50028 96.4691L8.95515 96.5695L9.41003 96.6539L9.8649 96.6615L10.3198 96.0768L10.7747 96.5106L11.2295 96.5403L11.6844 96.7138L12.1393 96.786L12.5941 96.6934L13.049 96.7147L13.5039 96.7127L13.9588 96.7591L14.4136 96.7559L14.8685 96.8288L15.3234 96.7034L15.7783 96.8518L16.2331 96.7699L16.688 96.8283L17.1429 96.8732L17.5978 96.7357L18.0526 96.7622L18.5075 96.8225L18.9624 96.8489L19.4173 96.7466L19.8721 96.6859L20.327 96.6951L20.7819 96.8307L21.2368 96.8573L21.6916 96.742L22.1465 96.8584L22.6014 96.8157L23.0563 96.7214L23.5111 96.8059L23.966 96.8255L24.4209 96.8234L24.8758 96.7884L25.3306 96.0556L25.7855 96.5059L26.2404 96.7467L26.6953 96.5969L27.1501 96.7725L27.605 96.6592L28.0599 96.6865L28.5148 96.6876L28.9696 96.7325L29.4245 96.7811L29.8794 96.8198L30.3342 96.6661L30.7891 96.5944L31.244 96.7612L31.6989 96.842L32.1537 96.7144L32.6086 96.8142L33.0635 96.7756L33.5184 96.7654L33.9732 96.7857L34.4281 96.7984L34.883 96.8078L35.3379 96.8134L35.7927 96.7812L36.2476 96.8012L36.7025 96.8124L37.1574 96.7978L37.6122 96.765L38.0671 96.7878L38.522 96.7838L38.9769 96.8133L39.4317 96.7969L39.8866 96.7533L40.3415 96.794L40.7964 96.7819L41.2512 96.769L41.7061 96.7479L42.161 96.7899L42.6159 96.7309L43.0707 96.7863L43.5256 96.7506L43.9805 96.6149L44.4354 96.7134L44.8902 96.6453L45.3451 96.7128L45.8 96.8238L46.2549 96.6867L46.7097 96.7823L47.1646 96.763L47.6195 96.7506L48.0744 96.8112L48.5292 96.7145L48.9841 96.7412L49.439 96.7857L49.8938 96.7744L50.3487 96.8044L50.8036 96.7776L51.2585 96.6937L51.7133 96.7526L52.1682 96.7712L52.6231 96.7932L53.078 96.8133L53.5328 96.7884L53.9877 96.87L54.4426 96.7428L54.8975 96.7004L55.3523 96.7518L55.8072 96.7872L56.2621 96.7807L56.717 96.7739L57.1718 96.7994L57.6267 96.8063L58.0816 96.8014L58.5365 96.7933L58.9913 96.7699L59.4462 96.777L59.9011 96.8116L60.356 96.8237L60.8108 96.7725L61.2657 96.8008L61.7206 96.7491L62.1755 96.7545L62.6303 96.7855L63.0852 96.8207L63.5401 96.8023L63.995 96.8219L64.4498 96.8229L64.9047 96.8127L65.3596 96.8319L65.8144 96.8381L66.2693 96.8259L66.7242 96.9099L67.1791 96.8981L67.6339 96.8825L68.0888 96.8951L68.5437 96.9076L68.9986 96.9024L69.4534 96.9051L69.9083 96.9034L70.3632 96.8903L70.8181 96.8791L71.2729 96.8648L71.7278 96.8629L72.1827 96.8585L72.6376 96.8439L73.0924 96.8455L73.5473 96.8834L74.0022 96.892L74.4571 96.9006L74.9119 96.8922L75.3668 96.8934L75.8217 96.899L76.2766 96.8745L76.7314 96.8428L77.1863 96.8859L77.6412 96.8967L78.0961 96.896L78.5509 96.8759L79.0058 96.8801L79.4607 96.8914L79.9156 96.8947L80.3704 96.8933L80.8253 96.8149L81.2802 96.5716L81.7351 96.8643L82.1899 96.893L82.6448 96.7349L83.0997 96.8897L83.5546 96.9038L84.0094 96.8967L84.4643 96.889L84.9192 96.8821L85.374 96.8778L85.8289 96.9015L86.2838 96.8871L86.7387 96.8932L87.1935 96.8945L87.6484 96.897L88.1033 96.9023L88.5582 96.9157L89.013 96.9078L89.4679 96.886L89.9228 96.8963L90.3777 96.8933L90.8325 96.8954L91.2874 96.9057L91.7423 96.9134L92.1972 96.9061L92.652 96.8892L93.1069 96.8914L93.5618 96.8922L94.0167 96.9048L94.4715 96.9076L94.9264 96.8829L95.3813 96.8871L95.8362 96.896L96.291 96.8994L96.7459 96.8955L97.2008 96.8867L97.6557 96.7873L98.1105 96.7652L98.5654 96.8057L99.0203 96.7961L99.4752 96.7378L99.93 96.8583L100.385 96.8746L100.84 96.8723L101.295 96.8763L101.75 96.8913L102.204 96.872L102.659 96.8884L103.114 96.8866L103.569 96.8846L104.024 96.8858L104.479 96.8911L104.934 96.797L105.389 96.8684L105.843 96.8877L106.298 96.8932L106.753 96.885L107.208 96.8795L107.663 96.903L108.118 96.8985L108.573 96.8854L109.028 96.8742L109.482 96.8921L109.937 96.8468L110.392 96.8868L110.847 96.8923L111.302 96.9003L111.757 96.8802L112.212 96.8559L112.667 96.861L113.121 96.8299L113.576 96.8977L114.031 96.8829L114.486 96.8982L114.941 96.8893L115.396 96.882L115.851 96.8947L116.306 96.9025L116.76 96.8661L117.215 96.8736L117.67 96.877L118.125 96.8457L118.58 96.8729L119.035 96.883L119.49 96.882L119.945 96.8914L120.399 96.8681L120.854 96.8763L121.309 96.851L121.764 96.8799L122.219 96.8669L122.674 96.8378L123.129 96.8677L123.583 96.8447L124.038 96.9049L124.493 96.8807L124.948 96.8766L125.403 96.8989L125.858 96.888L126.313 96.8921L126.768 96.9048L127.222 96.9103L127.677 96.9027L128.132 96.9053L128.587 96.8996L129.042 96.8778L129.497 96.8981L129.952 96.9042L130.407 96.8947L130.861 96.8955L131.316 96.8997L131.771 96.9009L132.226 96.881L132.681 96.9082L133.136 96.9064L133.591 96.8881L134.046 96.896L134.5 95.0001L134.955 95.5234L135.41 96.5147L135.865 96.6272L136.32 96.559L136.775 96.3291L137.23 95.5964L137.685 96.7193L138.139 96.7637L138.594 96.7568L139.049 96.7059L139.504 95.609L139.959 96.2408L140.414 96.6309L140.869 96.5897L141.324 96.4915L141.778 96.6207L142.233 96.6846L142.688 96.6071L143.143 96.213L143.598 96.365L144.053 96.2957L144.508 96.6669L144.963 96.586L145.417 96.698L145.872 96.7901L146.327 95.598L146.782 96.7293L147.237 96.7362L147.692 96.7584L148.147 96.7958L148.602 96.8167L149.056 96.8077L149.511 96.7623L149.966 96.8319L150.421 96.8095L150.876 96.7378L151.331 96.7243L151.786 96.7154L152.241 96.6752L152.695 96.7891L153.15 96.8366L153.605 96.7976L154.06 96.8487L154.515 96.8616L154.97 96.8461L155.425 96.8591L155.88 96.8611L156.334 96.8665L156.789 96.8757L157.244 96.8601L157.699 96.8329L158.154 96.8671L158.609 96.8718L159.064 96.8926L159.519 96.8576L159.973 96.8355L160.428 96.8626L160.883 96.8671L161.338 96.8452L161.793 96.6539L162.248 96.6821L162.703 96.0781L163.158 96.8765L163.612 96.8925L164.067 96.0761L164.522 95.1864L164.977 95.2575L165.432 96.8985L165.887 96.8942L166.342 96.8829L166.797 96.8851L167.251 96.88L167.706 96.8819L168.161 96.9056L168.616 96.9103L169.071 96.898L169.526 96.8985L169.981 96.8787L170.436 96.8783L170.89 96.8702L171.345 96.8952L171.8 96.8676L172.255 96.8486L172.71 96.7861L173.165 96.8815L173.62 96.8771L174.075 96.8913L174.529 96.8865L174.984 96.8878L175.439 96.8922L175.894 96.8919L176.349 96.8998L176.804 96.9057L177.259 96.8789L177.714 96.8631L178.168 96.8788L178.623 96.8862L179.078 96.9L179.533 96.9002L179.988 96.9004L180.443 96.8992L180.898 96.8978L181.353 96.8957L181.807 96.9043L182.262 96.9069L182.717 96.8906L183.172 96.8838L183.627 96.8929L184.082 96.9056L184.537 96.8782L184.992 96.9043L185.446 96.8882L185.901 94.9043L186.356 94.805L186.811 93.6392L187.266 95.8561L187.721 95.1356L188.176 95.8458L188.631 95.549L189.085 94.4269L189.54 92.6373L189.995 92.7389L190.45 95.9766L190.905 95.1666L191.36 92.0186L191.815 93.6383L192.27 95.2516L192.724 96.8846L193.179 96.8969L193.634 96.8459L194.089 96.8508L194.544 96.8691L194.999 96.8698L195.454 96.877L195.909 96.8922L196.363 93.6544L196.818 96.9108L197.273 96.8858L197.728 96.9053L198.183 96.8915L198.638 96.8758L199.093 96.8571L199.548 96.8492L200.002 96.8683L200.457 96.8875L200.912 96.8697L201.367 96.7938L201.822 96.9061L202.277 96.9033L202.732 96.8324L203.186 96.8378L203.641 96.7728L204.096 96.8071L204.551 96.8517L205.006 96.8432L205.461 96.8196L205.916 96.8097L206.371 96.7984L206.826 96.7707L207.28 96.7494L207.735 96.7992L208.19 96.8318L208.645 96.84L209.1 96.7845L209.555 96.8432L210.01 96.8521L210.464 96.5872L210.919 96.8869L211.374 96.8931L211.829 96.8865L212.284 96.8778L212.739 96.8989L213.194 96.8242L213.649 96.8369L214.103 96.8821L214.558 96.8614L215.013 96.8584L215.468 96.8486L215.923 96.849L216.378 96.858L216.833 96.8576L217.288 96.8589L217.742 96.844L218.197 96.8685L218.652 96.8403L219.107 96.3964L219.562 96.8467L220.017 96.8498L220.472 96.8147L220.927 96.8729L221.381 96.8662L221.836 96.8656L222.291 96.8686L222.746 96.8932L223.201 96.8847L223.656 96.8866L224.111 96.8763L224.566 96.9014L225.02 96.9048L225.475 96.8951L225.93 96.8956L226.385 96.863L226.84 96.8896L227.295 96.9025L227.75 96.8175L228.205 96.5886L228.659 96.735L229.114 96.8923L229.569 96.8304L230.024 96.8766L230.479 96.856L230.934 96.6273L231.389 96.9023L231.844 96.908L232.298 96.9222L232.753 96.8985L233.208 96.904L233.663 96.8875L234.118 96.4139L234.573 96.9069L235.028 96.9099L235.483 96.8732L235.937 96.8933L236.392 96.8846L236.847 96.9131L237.302 96.9108L237.757 96.885L238.212 96.905L238.667 96.9017L239.122 96.884L239.576 96.8565L240.031 96.8806L240.486 96.8858L240.941 96.8889L241.396 96.8479L241.851 96.8854L242.306 96.8396L242.761 96.8678L243.215 96.8531L243.67 96.8677L244.125 96.8753L244.58 96.8913L245.035 96.8631L245.49 96.8623L245.945 96.8568L246.4 96.8432L246.854 96.8284L247.309 96.8331L247.764 96.8735L248.219 96.7918L248.674 96.815L249.129 96.7726L249.584 96.7798L250.039 96.8352L250.493 96.8257L250.948 96.8675L251.403 96.8599L251.858 96.8479L252.313 96.8472L252.768 96.7997L253.223 96.8049L253.678 96.8366L254.132 96.8341L254.587 96.8553L255.042 96.82L255.497 96.826L255.952 96.8289L256.407 96.8442L256.862 96.808L257.317 96.8712L257.771 96.8789L258.226 96.8662L258.681 96.8664L259.136 96.8507L259.591 96.8858L260.046 96.8882L260.501 96.8916L260.956 96.8992L261.41 96.897" stroke="#A8A8A8" stroke-width="0.532967" stroke-linecap="round" stroke-linejoin="round"/>
</g>
<mask id="mask7_705_65" style="mask-type:luminance" maskUnits="userSpaceOnUse" x="0" y="0" width="264" height="97">
<path d="M264 0H0V97H264V0Z" fill="white"/>
</mask>
<g mask="url(#mask7_705_65)">
<path d="M2.58691 96.3004L3.04179 96.2225L3.49666 96.4341L3.95154 96.4222L4.40641 96.428L4.86129 96.4428L5.31616 96.5269L5.77103 96.5438L6.22591 96.5431L6.68078 96.5108L7.13566 96.5431L7.59053 96.5488L8.04541 96.5144L8.50028 96.5145L8.95515 96.548L9.41003 96.5445L9.8649 96.6027L10.3198 96.4987L10.7747 96.3902L11.2295 96.4721L11.6844 96.5588L12.1393 96.4854L12.5941 96.5428L13.049 96.5583L13.5039 96.6212L13.9588 96.5401L14.4136 96.5508L14.8685 96.5187L15.3234 96.4652L15.7783 96.4401L16.2331 96.4407L16.688 96.4811L17.1429 96.4678L17.5978 96.5423L18.0526 96.4958L18.5075 96.4289L18.9624 96.4253L19.4173 96.3433L19.8721 96.3492L20.327 96.3701L20.7819 96.3187L21.2368 96.3487L21.6916 96.3686L22.1465 96.332L22.6014 96.301L23.0563 96.2196L23.5111 96.2725L23.966 96.2683L24.4209 96.3179L24.8758 96.3092L25.3306 96.2997L25.7855 96.2636L26.2404 96.2999L26.6953 96.2995L27.1501 96.2758L27.605 96.3083L28.0599 96.319L28.5148 96.3047L28.9696 96.2392L29.4245 96.1636L29.8794 96.1686L30.3342 96.1996L30.7891 96.2446L31.244 96.2566L31.6989 96.088L32.1537 96.0564L32.6086 96.2738L33.0635 96.1583L33.5184 96.2042L33.9732 96.205L34.4281 96.2556L34.883 96.179L35.3379 96.1672L35.7927 96.2111L36.2476 96.229L36.7025 96.1589L37.1574 96.1821L37.6122 96.2646L38.0671 96.1662L38.522 96.195L38.9769 96.1897L39.4317 96.1972L39.8866 96.1653L40.3415 95.9754L40.7964 96.0273L41.2512 95.9888L41.7061 95.7461L42.161 95.8724L42.6159 95.8976L43.0707 95.8364L43.5256 95.4019L43.9805 95.6286L44.4354 95.0061L44.8902 95.3235L45.3451 95.4264L45.8 95.4519L46.2549 95.2842L46.7097 95.5835L47.1646 95.3473L47.6195 95.6775L48.0744 95.5175L48.5292 95.321L48.9841 95.6806L49.439 95.6352L49.8938 95.6893L50.3487 95.7465L50.8036 95.7835L51.2585 95.8034L51.7133 95.7634L52.1682 95.7944L52.6231 95.7804L53.078 95.7909L53.5328 95.8554L53.9877 95.9211L54.4426 95.8216L54.8975 95.8296L55.3523 95.8596L55.8072 95.7642L56.2621 95.9725L56.717 96.3049L57.1718 96.0995L57.6267 95.5238L58.0816 95.8802L58.5365 95.9383L58.9913 95.891L59.4462 96.0631L59.9011 96.167L60.356 96.1803L60.8108 96.1869L61.2657 96.1954L61.7206 96.1386L62.1755 96.0558L62.6303 96.0735L63.0852 96.152L63.5401 96.1572L63.995 96.2038L64.4498 96.2442L64.9047 96.2703L65.3596 96.2746L65.8144 96.2378L66.2693 96.3287L66.7242 96.3296L67.1791 96.2982L67.6339 96.3314L68.0888 96.2807L68.5437 96.2306L68.9986 96.3194L69.4534 96.4109L69.9083 96.4065L70.3632 96.326L70.8181 96.3335L71.2729 96.3148L71.7278 96.3821L72.1827 96.3746L72.6376 96.4136L73.0924 96.4104L73.5473 96.3736L74.0022 96.3924L74.4571 96.0835L74.9119 96.3185L75.3668 96.3795L75.8217 96.3177L76.2766 96.4275L76.7314 96.1059L77.1863 96.2291L77.6412 96.3316L78.0961 96.1592L78.5509 96.3456L79.0058 96.3856L79.4607 96.3897L79.9156 96.4439L80.3704 96.4892L80.8253 96.5028L81.2802 96.4394L81.7351 96.4017L82.1899 96.4558L82.6448 96.4713L83.0997 96.49L83.5546 96.4614L84.0094 96.4958L84.4643 96.4332L84.9192 96.3073L85.374 96.4397L85.8289 96.4532L86.2838 96.4252L86.7387 96.4905L87.1935 96.494L87.6484 96.4796L88.1033 96.4966L88.5582 96.5064L89.013 96.5183L89.4679 96.5491L89.9228 96.4905L90.3777 96.4052L90.8325 96.424L91.2874 96.4668L91.7423 96.5089L92.1972 96.5045L92.652 96.4502L93.1069 96.4568L93.5618 96.4905L94.0167 96.5366L94.4715 96.5172L94.9264 96.5651L95.3813 96.541L95.8362 96.5428L96.291 96.5398L96.7459 96.5156L97.2008 96.4555L97.6557 96.41L98.1105 96.4346L98.5654 96.4773L99.0203 96.4495L99.4752 96.3795L99.93 96.3513L100.385 96.3758L100.84 96.4803L101.295 96.5231L101.75 96.5214L102.204 96.4559L102.659 96.5263L103.114 96.5147L103.569 96.5259L104.024 96.5329L104.479 96.5264L104.934 96.5351L105.389 96.5045L105.843 96.542L106.298 96.5468L106.753 96.5881L107.208 96.1817L107.663 96.5757L108.118 96.5922L108.573 96.5538L109.028 96.5351L109.482 96.5644L109.937 96.5438L110.392 96.5486L110.847 96.5953L111.302 96.6175L111.757 96.5201L112.212 96.5509L112.667 96.5236L113.121 96.508L113.576 96.5234L114.031 96.5741L114.486 96.5606L114.941 96.5536L115.396 96.5516L115.851 96.5471L116.306 96.5542L116.76 96.5476L117.215 96.5611L117.67 96.5771L118.125 96.5643L118.58 96.5808L119.035 96.5779L119.49 96.5545L119.945 96.5738L120.399 96.5842L120.854 96.6013L121.309 96.5706L121.764 96.5963L122.219 96.5878L122.674 96.5693L123.129 96.5499L123.583 96.5854L124.038 96.5926L124.493 96.5994L124.948 96.5954L125.403 96.603L125.858 96.6004L126.313 96.5647L126.768 96.5929L127.222 96.6013L127.677 96.5841L128.132 96.6054L128.587 96.6108L129.042 96.5363L129.497 96.5758L129.952 96.6207L130.407 96.603L130.861 96.5942L131.316 96.6033L131.771 96.6109L132.226 96.5625L132.681 96.5221L133.136 96.6076L133.591 96.5662L134.046 96.503L134.5 96.5655L134.955 96.5864L135.41 96.568L135.865 96.5832L136.32 96.5936L136.775 96.6025L137.23 96.5954L137.685 96.5966L138.139 96.5765L138.594 96.5984L139.049 96.5757L139.504 96.5556L139.959 96.5959L140.414 96.5765L140.869 96.593L141.324 96.5883L141.778 96.447L142.233 96.5137L142.688 96.4872L143.143 96.4497L143.598 96.5682L144.053 96.4511L144.508 96.2441L144.963 96.4278L145.417 96.4824L145.872 96.3454L146.327 95.636L146.782 96.0109L147.237 96.3555L147.692 96.4909L148.147 96.5324L148.602 96.5651L149.056 96.5884L149.511 96.577L149.966 96.5602L150.421 96.5952L150.876 96.5963L151.331 96.5856L151.786 96.6027L152.241 96.6279L152.695 96.6224L153.15 96.6249L153.605 96.6166L154.06 96.587L154.515 96.5786L154.97 96.6099L155.425 96.6298L155.88 96.6355L156.334 96.581L156.789 96.6267L157.244 96.6355L157.699 96.6137L158.154 96.6214L158.609 96.6413L159.064 96.6372L159.519 96.6263L159.973 96.5767L160.428 96.5998L160.883 96.6018L161.338 96.5903L161.793 96.5994L162.248 96.6466L162.703 96.6342L163.158 96.6417L163.612 96.6703L164.067 96.6799L164.522 96.6589L164.977 96.6887L165.432 96.6985L165.887 96.6573L166.342 96.6807L166.797 96.6756L167.251 96.6752L167.706 96.4517L168.161 96.6516L168.616 96.6681L169.071 96.6267L169.526 96.6479L169.981 96.1008L170.436 96.569L170.89 96.6077L171.345 96.6092L171.8 96.5927L172.255 96.637L172.71 96.6636L173.165 96.5485L173.62 96.577L174.075 96.3351L174.529 96.4487L174.984 96.5827L175.439 96.5051L175.894 96.5127L176.349 96.5328L176.804 96.5576L177.259 96.5623L177.714 96.5272L178.168 96.5725L178.623 96.5979L179.078 96.6024L179.533 96.623L179.988 96.5923L180.443 96.5973L180.898 96.6037L181.353 96.5876L181.807 96.5987L182.262 96.6035L182.717 96.5703L183.172 96.5655L183.627 96.5705L184.082 96.5566L184.537 96.5763L184.992 96.5934L185.446 96.5878L185.901 96.5791L186.356 96.612L186.811 96.6287L187.266 96.6369L187.721 96.5696L188.176 96.6513L188.631 96.5691L189.085 96.5864L189.54 96.6072L189.995 96.6328L190.45 96.6185L190.905 96.6388L191.36 96.6052L191.815 96.6115L192.27 96.3774L192.724 96.6533L193.179 96.6602L193.634 96.6699L194.089 96.66L194.544 96.6658L194.999 96.6419L195.454 96.6523L195.909 96.664L196.363 96.6541L196.818 96.6702L197.273 96.6435L197.728 96.654L198.183 96.662L198.638 96.6563L199.093 96.6461L199.548 96.606L200.002 96.4938L200.457 96.6469L200.912 96.6134L201.367 96.5997L201.822 96.5877L202.277 96.6729L202.732 96.5789L203.186 96.6302L203.641 96.6465L204.096 96.4021L204.551 96.6642L205.006 96.6551L205.461 96.6677L205.916 96.6709L206.371 96.6764L206.826 96.677L207.28 96.672L207.735 96.6828L208.19 96.653L208.645 96.4925L209.1 96.6448L209.555 96.6509L210.01 96.6147L210.464 96.6494L210.919 96.5053L211.374 96.6334L211.829 96.6878L212.284 96.6977L212.739 96.703L213.194 96.6789L213.649 96.6757L214.103 96.665L214.558 96.695L215.013 96.6731L215.468 96.6486L215.923 96.6768L216.378 96.6477L216.833 96.6878L217.288 96.6735L217.742 96.6756L218.197 96.6483L218.652 96.5607L219.107 96.7143L219.562 96.6967L220.017 96.7101L220.472 96.6747L220.927 96.6615L221.381 96.6648L221.836 96.6542L222.291 96.6926L222.746 96.6836L223.201 96.6742L223.656 96.6843L224.111 96.6978L224.566 96.6884L225.02 96.6614L225.475 96.6916L225.93 96.6945L226.385 96.6783L226.84 96.7067L227.295 96.7199L227.75 96.7033L228.205 96.6976L228.659 96.7141L229.114 96.7212L229.569 96.6994L230.024 96.7251L230.479 96.7302L230.934 96.717L231.389 96.7244L231.844 96.7297L232.298 96.7423L232.753 96.7104L233.208 96.6307L233.663 96.6881L234.118 96.7221L234.573 96.7363L235.028 96.7444L235.483 96.7304L235.937 96.7289L236.392 96.7166L236.847 96.7199L237.302 96.6919L237.757 96.7224L238.212 96.7277L238.667 96.7101L239.122 96.7129L239.576 96.7282L240.031 96.7105L240.486 96.6582L240.941 96.7072L241.396 96.6608L241.851 96.715L242.306 96.7237L242.761 96.7326L243.215 96.7304L243.67 96.6967L244.125 96.6892L244.58 96.7068L245.035 96.7428L245.49 96.7283L245.945 96.7144L246.4 96.7055L246.854 96.7052L247.309 96.7213L247.764 96.7138L248.219 96.7207L248.674 96.7262L249.129 96.7251L249.584 96.7275L250.039 96.7342L250.493 96.7145L250.948 96.7185L251.403 96.7213L251.858 96.7104L252.313 96.7163L252.768 96.7359L253.223 96.7199L253.678 96.7139L254.132 96.7228L254.587 96.7481L255.042 96.73L255.497 96.7192L255.952 96.7287L256.407 96.6756L256.862 96.6526L257.317 96.715L257.771 96.7184L258.226 96.7177L258.681 96.7245L259.136 96.7249L259.591 96.7287L260.046 96.7273L260.501 96.746L260.956 96.7471L261.41 96.735" stroke="#8D8D8D" stroke-width="0.532967" stroke-linecap="round" stroke-linejoin="round"/>
</g>
<mask id="mask8_705_65" style="mask-type:luminance" maskUnits="userSpaceOnUse" x="0" y="0" width="264" height="97">
<path d="M264 0H0V97H264V0Z" fill="white"/>
</mask>
<g mask="url(#mask8_705_65)">
<path d="M2.58691 96.9997L3.04179 96.9995L3.49666 96.9993L3.95154 96.9983L4.40641 96.9988L4.86129 96.9986L5.31616 96.999L5.77104 96.9997L6.22591 96.9993L6.68078 96.9984L7.13566 96.9988L7.59053 96.9989L8.04541 96.999L8.50028 96.9988L8.95516 96.9994L9.41003 96.9988L9.8649 96.9992L10.3198 96.9982L10.7747 96.999L11.2295 96.9995L11.6844 96.9996L12.1393 96.9993L12.5942 96.9993L13.049 96.9991L13.5039 96.9985L13.9588 96.9993L14.4136 96.9994L14.8685 96.9993L15.3234 96.9993L15.7783 96.9993L16.2331 96.9972L16.688 96.9988L17.1429 96.9984L17.5978 96.9987L18.0526 96.9988L18.5075 96.9988L18.9624 96.9989H19.4173L19.8721 96.998L20.327 96.9994L20.7819 96.9981L21.2368 96.9986L21.6916 96.9991L22.1465 96.9987L22.6014 96.9984L23.0563 96.9979L23.5111 96.9985L23.966 95.9828L24.4209 95.9767L24.8758 96.8903L25.3306 96.0297L25.7855 94.3523L26.2404 94.9165L26.6953 96.2008L27.1501 95.0571L27.605 93.2392L28.0599 88.55L28.5148 85.7527L28.9696 89.7244L29.4245 91.104L29.8794 91.2024L30.3343 94.7229L30.7891 94.8277L31.244 95.5849L31.6989 95.6784L32.1537 94.982L32.6086 95.6511L33.0635 95.6501L33.5184 93.6991L33.9732 91.1594L34.4281 63.7818L34.883 86.4001L35.3379 94.904L35.7927 87.3897L36.2476 91.9426L36.7025 96.8156L37.1574 95.3822L37.6122 96.6061L38.0671 96.461L38.522 95.3304L38.9769 95.4021L39.4317 95.4353L39.8866 95.4174L40.3415 96.1621L40.7964 96.9717L41.2512 96.868L41.7061 96.2758L42.161 96.1108L42.6159 95.8273L43.0707 96.9166L43.5256 95.5804L43.9805 96.9836L44.4354 95.1336L44.8902 96.8074L45.3451 95.1223L45.8 53.85L46.2549 33.4674L46.7097 75.9376L47.1646 96.0107L47.6195 69.6712L48.0744 89.5116L48.5292 94.5442L48.9841 94.6733L49.439 95.2389L49.8939 96.1345L50.3487 95.2232L50.8036 92.3062L51.2585 94.956L51.7134 95.246L52.1682 96.9544L52.6231 96.009L53.078 96.6638L53.5328 95.0639L53.9877 96.8317L54.4426 95.0073L54.8975 95.296L55.3523 96.9025L55.8072 94.9935L56.2621 96.5845L56.717 96.734L57.1718 96.7566L57.6267 95.118L58.0816 95.068L58.5365 96.9829L58.9913 96.9853L59.4462 95.3631L59.9011 75.0735L60.356 93.2508L60.8108 94.8669L61.2657 94.1678L61.7206 96.5124L62.1755 96.7799L62.6303 96.9234L63.0852 96.9485L63.5401 94.9684L63.995 95.0179L64.4498 96.6695L64.9047 94.8061L65.3596 96.5784L65.8145 93.589L66.2693 94.9888L66.7242 96.8092L67.1791 94.8279L67.634 94.7541L68.0888 94.7789L68.5437 96.6818L68.9986 95.0622L69.4534 96.675L69.9083 94.8235L70.3632 94.922L70.8181 96.8731L71.273 95.1422L71.7278 96.9413L72.1827 95.7391L72.6376 96.8868L73.0925 96.9681L73.5473 94.7922L74.0022 96.939L74.4571 94.9227L74.9119 96.8534L75.3668 96.8313L75.8217 93.7668L76.2766 95.0786L76.7314 96.9163L77.1863 95.1363L77.6412 96.9748L78.0961 94.8403L78.5509 96.9311L79.0058 96.9122L79.4607 95.0757L79.9156 96.9721L80.3704 94.8531L80.8253 96.9739L81.2802 94.9437L81.7351 96.9654L82.1899 94.7614L82.6448 96.9083L83.0997 94.953L83.5546 96.956L84.0094 95.0366L84.4643 96.8371L84.9192 94.9446L85.3741 96.9581L85.8289 96.9557L86.2838 96.9914L86.7387 94.9871L87.1936 95.1264L87.6484 96.6217L88.1033 94.9444L88.5582 96.8219L89.0131 96.8694L89.4679 95.9597L89.9228 77.066L90.3777 93.2555L90.8325 94.2885L91.2874 94.4879L91.7423 94.9822L92.1972 96.1025L92.652 94.0464L93.1069 96.0634L93.5618 94.284L94.0167 96.2371L94.4715 94.2596L94.9264 96.1963L95.3813 94.9225L95.8362 94.165L96.291 93.7543L96.7459 96.1978L97.2008 96.2663L97.6557 94.2017L98.1105 96.1975L98.5654 96.2228L99.0203 91.3718L99.4752 89.144L99.93 91.1548L100.385 91.5964L100.84 96.7007L101.295 90.7442L101.75 94.4094L102.204 94.8791L102.659 96.5788L103.114 93.6435L103.569 94.662L104.024 92.8916L104.479 90.7255L104.934 94.4724L105.389 91.7755L105.843 94.514L106.298 92.6304L106.753 91.8526L107.208 94.4752L107.663 91.8998L108.118 94.4588L108.573 92.3323L109.028 69.1398L109.482 61.4665L109.937 88.2328L110.392 89.4889L110.847 94.0348L111.302 94.5357L111.757 85.9969L112.212 84.8422L112.667 92.1088L113.121 94.5961L113.576 90.3994L114.031 95.851L114.486 78.1653L114.941 86.3888L115.396 91.1439L115.851 89.2224L116.306 91.955L116.76 90.7291L117.215 93.1905L117.67 93.1066L118.125 92.9774L118.58 91.0201L119.035 91.4076L119.49 91.9577L119.945 91.9853L120.399 92.8099L120.854 94.2949L121.309 63.6395L121.764 65.2878L122.219 94.8214L122.674 92.8885L123.129 95.3244L123.584 93.5648L124.038 95.5995L124.493 84.9934L124.948 89.9461L125.403 96.0919L125.858 90.0542L126.313 95.9037L126.768 93.8632L127.223 96.1398L127.677 94.0892L128.132 96.3832L128.587 96.7658L129.042 92.7189L129.497 94.6464L129.952 96.0647L130.407 94.0371L130.861 94.1971L131.316 94.7084L131.771 88.9637L132.226 96.1372L132.681 96.4149L133.136 94.0934L133.591 96.3928L134.046 94.1023L134.5 92.2493L134.955 96.6804L135.41 87.2873L135.865 82.8939L136.32 88.1651L136.775 86.889L137.23 83.4933L137.685 84.9514L138.139 87.2931L138.594 82.6302L139.049 73.9527L139.504 86.4878L139.959 85.15L140.414 78.7451L140.869 84.8475L141.324 89.8238L141.778 92.762L142.233 84.5639L142.688 85.3146L143.143 90.4619L143.598 89.6872L144.053 90.7605L144.508 92.2809L144.963 89.5403L145.417 80.0945L145.872 79.8834L146.327 83.0552L146.782 89.5197L147.237 85.0766L147.692 77.6035L148.147 91.4932L148.602 85.9342L149.056 93.2863L149.511 94.156L149.966 96.7593L150.421 95.3865L150.876 93.7786L151.331 96.8514L151.786 96.4677L152.241 96.47L152.695 92.5971L153.15 91.6972L153.605 90.7686L154.06 86.8951L154.515 95.7105L154.97 85.3927L155.425 85.7578L155.88 96.574L156.334 92.1668L156.789 96.7463L157.244 96.8248L157.699 93.6094L158.154 92.4474L158.609 96.5611L159.064 91.394L159.519 95.917L159.973 90.9763L160.428 58.3368L160.883 73.2355L161.338 63.6734L161.793 73.4108L162.248 86.0683L162.703 85.8291L163.158 70.7907L163.612 94.2224L164.067 91.4928L164.522 96.8739L164.977 96.9659L165.432 96.3291L165.887 96.1894L166.342 93.7394L166.797 90.49L167.251 92.1924L167.706 96.8369L168.161 96.9879L168.616 94.7518L169.071 94.2963L169.526 71.7413L169.981 91.6501L170.436 90.8973L170.89 93.4795L171.345 84.1688L171.8 89.8176L172.255 93.1003L172.71 93.2238L173.165 90.2613L173.62 91.7756L174.075 92.0381L174.529 88.5318L174.984 91.8115L175.439 90.5796L175.894 95.942L176.349 93.169L176.804 93.5424L177.259 93.3193L177.714 95.9692L178.168 93.3892L178.623 95.9502L179.078 93.3537L179.533 95.1758L179.988 93.3576L180.443 93.4786L180.898 92.8733L181.353 88.5315L181.807 91.8867L182.262 92.0032L182.717 94.1973L183.172 94.5034L183.627 93.0517L184.082 96.0294L184.537 95.0335L184.992 93.871L185.446 92.7201L185.901 95.9807L186.356 95.6117L186.811 96.7365L187.266 96.4932L187.721 94.0446L188.176 96.7157L188.631 94.3863L189.085 94.7782L189.54 94.4803L189.995 96.7437L190.45 93.8434L190.905 96.8524L191.36 90.5359L191.815 96.85L192.27 96.9851L192.724 93.5518L193.179 96.9788L193.634 96.9844L194.089 94.5338L194.544 93.6818L194.999 90.3352L195.454 90.259L195.909 94.7247L196.363 94.6767L196.818 96.985L197.273 96.8229L197.728 96.366L198.183 96.5446L198.638 94.3001L199.093 96.917L199.548 96.9156L200.002 94.3787L200.457 96.9869L200.912 94.3145L201.367 96.9842L201.822 93.697L202.277 96.5798L202.732 91.1493L203.187 95.21L203.641 94.4713L204.096 95.6768L204.551 95.0816L205.006 94.1624L205.461 94.2956L205.916 96.5851L206.371 96.9916L206.826 96.99L207.28 94.2622L207.735 85.7571L208.19 94.5959L208.645 86.4306L209.1 94.696L209.555 96.9898L210.01 96.9331L210.465 95.8414L210.919 95.7025L211.374 87.1813L211.829 95.6375L212.284 96.8234L212.739 94.5459L213.194 96.9579L213.649 94.3032L214.104 96.99L214.558 88.9078L215.013 96.987L215.468 96.9917L215.923 96.8709L216.378 96.8057L216.833 96.9913H217.288L217.743 94.2696L218.197 94.655L218.652 96.9873L219.107 96.9876L219.562 88.9031L220.017 94.5288L220.472 94.4823L220.927 94.7949L221.382 94.5427L221.836 94.5571L222.291 96.9804L222.746 96.9831L223.201 96.9828L223.656 94.7299L224.111 96.9845L224.566 94.7577L225.02 94.4992L225.475 96.987L225.93 96.9812L226.385 96.9793L226.84 94.4962L227.295 94.8088L227.75 94.6715L228.205 96.9799L228.659 96.9815L229.114 94.7595L229.569 94.6982L230.024 96.978L230.479 96.9819L230.934 94.5888L231.389 94.5735L231.844 96.9808L232.298 96.9742L232.753 94.7083L233.208 94.6801L233.663 94.6627L234.118 94.5588L234.573 96.9792L235.028 96.9815L235.483 96.9849L235.937 94.4639L236.392 94.6088L236.847 96.968L237.302 94.5022L237.757 94.4633L238.212 96.972L238.667 96.9725L239.122 96.8541L239.576 96.8571L240.031 96.8548L240.486 96.8582L240.941 96.8621L241.396 96.9833L241.851 96.9843L242.306 94.508L242.761 96.98L243.215 94.7015L243.67 94.5025L244.125 96.9831L244.58 95.8464L245.035 96.9863L245.49 95.6848L245.945 94.6438L246.4 96.9826L246.854 95.7427L247.309 94.5144L247.764 96.9874L248.219 96.9875L248.674 94.5959L249.129 94.3742L249.584 94.5394L250.039 96.9834L250.493 96.9874L250.948 96.9897L251.403 94.5436L251.858 94.7262L252.313 94.8304L252.768 94.38L253.223 94.2864L253.678 96.9841" stroke="#222F3E" stroke-width="0.532967" stroke-linecap="round" stroke-linejoin="round"/>
</g>
<mask id="mask9_705_65" style="mask-type:luminance" maskUnits="userSpaceOnUse" x="0" y="0" width="264" height="97">
<path d="M264 0H0V97H264V0Z" fill="white"/>
</mask>
<g mask="url(#mask9_705_65)">
<path d="M2.58691 96.825L3.04179 96.7798L3.49666 96.6927L3.95154 96.3781L4.40641 96.5286L4.86129 96.7336L5.31616 96.6768L5.77103 96.6663L6.22591 96.4465L6.68078 96.7657L7.13566 96.7859L7.59053 96.7716L8.04541 96.7548L8.50028 96.7617L8.95515 96.7862L9.41003 96.7854L9.8649 96.7895L10.3198 96.7877L10.7747 96.7899L11.2295 96.7733L11.6844 96.7909L12.1393 96.8162L12.5941 96.8205L13.049 96.7956L13.5039 96.8222L13.9588 96.8224L14.4136 96.7936L14.8685 96.8115L15.3234 96.8305L15.7783 96.8407L16.2331 96.8193L16.688 96.8222L17.1429 96.8173L17.5978 96.8183L18.0526 96.8277L18.5075 96.8419L18.9624 96.8462L19.4173 96.8238L19.8721 96.7906L20.327 96.7369L20.7819 96.6542L21.2368 96.6338L21.6916 96.6336L22.1465 96.6623L22.6014 96.6435L23.0563 96.624L23.5111 96.6006L23.966 96.6421L24.4209 96.6427L24.8758 96.6789L25.3306 96.6969L25.7855 96.6362L26.2404 96.6516L26.6953 96.6892L27.1501 96.7562L27.605 96.7302L28.0599 96.7216L28.5148 96.7288L28.9696 96.7087L29.4245 96.7094L29.8794 96.6404L30.3342 96.6994L30.7891 96.7041L31.244 96.689L31.6989 96.6572L32.1537 96.6631L32.6086 96.7119L33.0635 96.691L33.5184 96.6527L33.9732 96.4858L34.4281 96.71L34.883 96.8588L35.3379 96.8303L35.7927 96.8132L36.2476 96.8266L36.7025 96.8361L37.1574 96.844L37.6122 96.8502L38.0671 96.8599L38.522 96.8359L38.9769 96.838L39.4317 96.8236L39.8866 96.8044L40.3415 96.8154L40.7964 96.8528L41.2512 96.8551L41.7061 96.7217L42.161 96.7446L42.6159 96.7861L43.0707 96.7943L43.5256 96.8186L43.9805 96.8322L44.4354 96.8321L44.8902 96.8084L45.3451 96.8044L45.8 96.7386L46.2549 96.7338L46.7097 96.7374L47.1646 96.8304L47.6195 96.8414L48.0744 96.778L48.5292 96.7413L48.9841 96.8035L49.439 96.7165L49.8938 96.7783L50.3487 96.8124L50.8036 96.7678L51.2585 96.5881L51.7133 96.5178L52.1682 96.6376L52.6231 96.8001L53.078 96.6923L53.5328 96.8492L53.9877 96.8486L54.4426 96.6845L54.8975 96.6523L55.3523 96.6534L55.8072 96.6311L56.2621 96.7027L56.717 96.8293L57.1718 96.8455L57.6267 96.6408L58.0816 96.675L58.5365 96.7114L58.9913 96.653L59.4462 96.7059L59.9011 96.8459L60.356 96.8637L60.8108 96.7182L61.2657 96.6729L61.7206 96.7028L62.1755 96.7201L62.6303 96.7408L63.0852 96.8627L63.5401 96.8593L63.995 96.7402L64.4498 96.7126L64.9047 96.7359L65.3596 96.8508L65.8144 96.8805L66.2693 96.8833L66.7242 96.8374L67.1791 96.7964L67.6339 96.6986L68.0888 96.7104L68.5437 96.7291L68.9986 96.7183L69.4534 96.8514L69.9083 96.8707L70.3632 96.7055L70.8181 96.7225L71.2729 96.7035L71.7278 96.7213L72.1827 96.7459L72.6376 96.8585L73.0924 96.8724L73.5473 96.7122L74.0022 96.7045L74.4571 96.7572L74.9119 96.6797L75.3668 96.739L75.8217 96.8545L76.2766 96.8105L76.7314 96.7383L77.1863 96.6758L77.6412 96.7209L78.0961 96.7983L78.5509 96.7265L79.0058 96.8705L79.4607 96.8735L79.9156 96.6446L80.3704 96.6414L80.8253 96.6812L81.2802 96.6972L81.7351 96.7504L82.1899 96.8756L82.6448 96.8774L83.0997 96.6177L83.5546 96.7207L84.0094 96.7253L84.4643 96.7232L84.9192 96.7172L85.374 96.8803L85.8289 96.8792L86.2838 96.7504L86.7387 96.7194L87.1935 96.7961L87.6484 96.7205L88.1033 96.7032L88.5582 96.8469L89.013 96.8597L89.4679 96.7017L89.9228 96.7166L90.3777 96.7034L90.8325 96.6668L91.2874 96.7106L91.7423 96.8416L92.1972 96.8479L92.652 96.6346L93.1069 96.7131L93.5618 96.6458L94.0167 96.7077L94.4715 96.6859L94.9264 96.8445L95.3813 96.8501L95.8362 96.6692L96.291 96.6614L96.7459 96.6124L97.2008 96.6642L97.6557 96.6425L98.1105 96.8359L98.5654 96.845L99.0203 96.6647L99.4752 96.5316L99.93 96.6193L100.385 96.6592L100.84 96.6619L101.295 96.8365L101.75 96.8306L102.204 96.7143L102.659 96.7185L103.114 96.6997L103.569 96.5699L104.024 96.7542L104.479 96.8099L104.934 96.8612L105.389 96.661L105.843 96.4793L106.298 96.4944L106.753 96.5434L107.208 96.5404L107.663 96.6931L108.118 96.7057L108.573 96.5292L109.028 96.5727L109.482 96.5531L109.937 96.5349L110.392 96.5548L110.847 96.7193L111.302 96.7222L111.757 96.5539L112.212 96.6013L112.667 96.6166L113.121 96.5858L113.576 96.6191L114.031 96.7703L114.486 96.7648L114.941 96.6271L115.396 96.5894L115.851 96.7659L116.306 96.5859L116.76 96.6149L117.215 96.7523L117.67 96.769L118.125 96.6047L118.58 96.5623L119.035 96.5755L119.49 96.5936L119.945 96.5813L120.399 96.7188L120.854 96.7331L121.309 96.2434L121.764 96.5561L122.219 96.3885L122.674 96.4595L123.129 96.3537L123.583 96.6665L124.038 96.4805L124.493 96.2815L124.948 96.1804L125.403 96.3037L125.858 96.4185L126.313 96.4078L126.768 96.5269L127.222 96.5548L127.677 96.4287L128.132 93.6954L128.587 96.4725L129.042 96.5883L129.497 96.5047L129.952 96.7559L130.407 96.7661L130.861 96.5687L131.316 96.617L131.771 96.7669L132.226 96.5567L132.681 96.6206L133.136 96.7958L133.591 96.7658L134.046 96.4953L134.5 96.5607L134.955 96.5779L135.41 96.6261L135.865 96.6113L136.32 96.7454L136.775 96.7677L137.23 96.5215L137.685 96.4983L138.139 96.4023L138.594 96.5611L139.049 96.6168L139.504 96.7476L139.959 96.7718L140.414 96.6076L140.869 96.5704L141.324 96.7366L141.778 96.59L142.233 96.5731L142.688 96.7412L143.143 96.7657L143.598 96.5548L144.053 96.5107L144.508 96.5598L144.963 96.5701L145.417 96.5754L145.872 96.7673L146.327 96.8137L146.782 96.5599L147.237 96.6891L147.692 96.5274L148.147 96.6523L148.602 96.738L149.056 96.8627L149.511 96.8458L149.966 96.7041L150.421 96.6551L150.876 96.6528L151.331 96.7138L151.786 96.7142L152.241 96.8723L152.695 96.8701L153.15 96.7566L153.605 96.8184L154.06 96.8314L154.515 96.8407L154.97 96.8426L155.425 96.8902L155.88 96.909L156.334 96.863L156.789 96.8506L157.244 96.8614L157.699 96.8752L158.154 96.8816L158.609 96.9014L159.064 96.9037L159.519 96.8443L159.973 96.7091L160.428 96.8625L160.883 96.8496L161.338 96.8302L161.793 96.8787L162.248 96.897L162.703 96.8641L163.158 96.8629L163.612 96.8665L164.067 96.8635L164.522 96.8802L164.977 96.9047L165.432 96.9043L165.887 96.8785L166.342 96.8801L166.797 96.8572L167.251 96.851L167.706 96.812L168.161 96.8636L168.616 96.8926L169.071 96.86L169.526 96.8175L169.981 96.8335L170.436 96.844L170.89 96.8411L171.345 96.8622L171.8 96.8685L172.255 96.7065L172.71 96.6357L173.165 96.5847L173.62 96.599L174.075 96.6469L174.529 96.7958L174.984 96.7175L175.439 96.5915L175.894 96.627L176.349 96.6292L176.804 96.6301L177.259 96.7073L177.714 96.8566L178.168 96.8746L178.623 96.7866L179.078 96.8124L179.533 96.8264L179.988 96.82L180.443 96.7869L180.898 96.8263L181.353 96.7861L181.807 96.7661L182.262 96.8075L182.717 96.6229L183.172 96.4834L183.627 96.5662L184.082 96.8594L184.537 96.6009L184.992 96.55L185.446 96.5345L185.901 96.373L186.356 96.8175L186.811 96.5621L187.266 96.5978L187.721 96.8584L188.176 96.5742L188.631 96.5708L189.085 96.5798L189.54 96.7837L189.995 96.8158L190.45 96.8391L190.905 96.5955L191.36 96.8428L191.815 96.8113L192.27 96.7757L192.724 96.7672L193.179 96.8394L193.634 96.8447L194.089 96.834L194.544 96.5991L194.999 96.7587L195.454 96.8175L195.909 96.8019L196.363 96.7941L196.818 96.7435L197.273 96.7941L197.728 96.8091L198.183 96.783L198.638 96.7703L199.093 96.5997L199.548 96.5294L200.002 96.7646L200.457 96.7995L200.912 96.4998L201.367 96.7653L201.822 96.7927L202.277 96.5031L202.732 96.7031L203.186 96.7518L203.641 96.6819L204.096 96.5349L204.551 96.3415L205.006 96.5105L205.461 96.6215L205.916 96.6374L206.371 96.5138L206.826 96.6492L207.28 96.6615L207.735 96.6682L208.19 96.6847L208.645 96.7106L209.1 96.7281L209.555 96.716L210.01 96.7148L210.464 96.657L210.919 96.6484L211.374 96.7036L211.829 96.7107L212.284 96.7383L212.739 96.7117L213.194 96.7215L213.649 96.737L214.103 96.7041L214.558 96.621L215.013 96.6684L215.468 96.6969L215.923 96.7146L216.378 96.7292L216.833 96.6086L217.288 96.7301L217.742 96.738L218.197 96.6786L218.652 96.5267L219.107 94.4908L219.562 96.221L220.017 96.478L220.472 96.6455L220.927 96.6789L221.381 96.8441L221.836 96.8654L222.291 96.882L222.746 96.8914L223.201 96.8559L223.656 96.8437L224.111 96.8484L224.566 96.8605L225.02 96.8613L225.475 96.8949L225.93 96.8572L226.385 96.8732L226.84 96.8564L227.295 96.8447L227.75 96.8531L228.205 96.8554L228.659 96.8851L229.114 96.8676L229.569 96.8639L230.024 96.8572L230.479 96.866L230.934 96.877L231.389 96.8783L231.844 96.7299L232.298 96.8366L232.753 96.8699L233.208 96.8685L233.663 96.7971L234.118 96.8251L234.573 96.8698L235.028 96.8986L235.483 96.8815L235.937 96.6721L236.392 96.588L236.847 96.7798L237.302 96.8339L237.757 96.8403L238.212 96.8366L238.667 96.8386L239.122 96.7957L239.576 96.7439L240.031 96.8154L240.486 96.8477L240.941 96.8478L241.396 96.8738L241.851 96.8819L242.306 96.8088L242.761 96.8323L243.215 96.8112L243.67 96.7571L244.125 96.7361L244.58 96.8623L245.035 96.875L245.49 96.8L245.945 96.8246L246.4 96.8349L246.854 96.7513L247.309 96.8087L247.764 96.8044L248.219 96.8357L248.674 96.6075L249.129 96.5428L249.584 96.8207L250.039 96.8256L250.493 96.7932L250.948 96.8196L251.403 96.804L251.858 96.7777L252.313 96.5202L252.768 96.7818L253.223 96.7863L253.678 96.7627L254.132 96.7175L254.587 96.75L255.042 96.7437L255.497 96.8057L255.952 96.8205L256.407 96.7671L256.862 96.6568L257.317 96.5432L257.771 96.7109L258.226 96.7843L258.681 96.8203L259.136 96.8237L259.591 96.811L260.046 96.8167L260.501 96.847L260.956 96.8549L261.41 96.8306" stroke="#556763" stroke-width="0.532967" stroke-linecap="round" stroke-linejoin="round"/>
</g>
</svg>
