<svg width="264" height="97" viewBox="0 0 264 97" fill="none" xmlns="http://www.w3.org/2000/svg">
<g clip-path="url(#clip0_705_1879)">
<mask id="mask0_705_1879" style="mask-type:luminance" maskUnits="userSpaceOnUse" x="0" y="0" width="264" height="97">
<path d="M264 0H0V97H264V0Z" fill="white"/>
</mask>
<g mask="url(#mask0_705_1879)">
<path d="M2.58789 93.0779L3.04277 93.1214L3.49764 92.7299L3.95251 92.9097L4.40739 92.5761L4.86226 92.5973L5.31714 92.8291L5.77201 93.2244L6.22689 94.0721L6.68176 92.7854L7.13663 92.6394L7.59151 92.7998L8.04638 93.0778L8.50126 93.1123L8.95613 93.4588L9.41101 93.5272L9.86588 93.058L10.3208 93.1129L10.7756 92.9983L11.2305 92.902L11.6854 92.3478L12.1403 92.0675L12.5951 93.0304L13.05 92.6567L13.5049 93.2389L13.9598 93.1107L14.4146 93.4466L14.8695 93.3265L15.3244 93.657L15.7792 93.639L16.2341 93.5033L16.689 93.5452L17.1439 93.5805L17.5987 93.6249L18.0536 93.2278L18.5085 93.2633L18.9634 93.1667L19.4182 92.9391L19.8731 92.8218L20.328 92.5611L20.7829 92.7555L21.2377 92.4527L21.6926 92.6772L22.1475 92.9142L22.6024 93.0143L23.0572 92.8099L23.5121 93.0386L23.967 92.9724L24.4219 93.2303L24.8767 93.4662L25.3316 93.335L25.7865 93.5758L26.2414 93.1285L26.6962 93.3279L27.1511 91.9545L27.606 93.2326L28.0609 93.2791L28.5157 93.1764L28.9706 92.9144L29.4255 92.5987L29.8804 92.7772L30.3352 92.7731L30.7901 92.6549L31.245 92.9245L31.6999 92.9567L32.1547 92.5584L32.6096 92.2656L33.0645 92.1452L33.5193 91.8735L33.9742 92.6993L34.4291 92.86L34.884 92.9042L35.3388 92.5307L35.7937 92.3754L36.2486 91.9974L36.7035 92.2324L37.1583 92.3821L37.6132 92.0694L38.0681 92.6072L38.523 92.4933L38.9778 92.5673L39.4327 92.3952L39.8876 92.4504L40.3425 92.5592L40.7973 92.4361L41.2522 92.5426L41.7071 91.6164L42.162 91.5875L42.6168 91.85L43.0717 92.105L43.5266 92.0916L43.9815 91.9163L44.4363 92.4074L44.8912 92.5286L45.3461 92.6126L45.801 92.5217L46.2558 93.093L46.7107 93.1656L47.1656 92.9345L47.6205 93.3751L48.0753 92.5986L48.5302 92.9284L48.9851 93.0641L49.44 93.0882L49.8948 92.9339L50.3497 93.3318L50.8046 92.9647L51.2595 92.6413L51.7143 93.1213L52.1692 93.2135L52.6241 93.1414L53.0789 92.9474L53.5338 93.2032L53.9887 93.2647L54.4436 92.8545L54.8984 92.8881L55.3533 93.1434L55.8082 92.8669L56.2631 92.4413L56.7179 92.4562L57.1728 93.5722L57.6277 93.4133L58.0826 93.7442L58.5374 93.1233L58.9923 92.9788L59.4472 93.3546L59.9021 93.2431L60.3569 92.3785L60.8118 92.2603L61.2667 92.1827L61.7216 91.3052L62.1764 91.3302L62.6313 91.8535L63.0862 91.9867L63.5411 92.4925L63.9959 92.741L64.4508 93.443L64.9057 93.0394L65.3606 93.1143L65.8154 93.5715L66.2703 94.0915L66.7252 94.0854L67.1801 93.3581L67.6349 93.7007L68.0898 93.693L68.5447 93.7779L68.9996 93.6935L69.4544 93.7124L69.9093 94.0725L70.3642 93.9025L70.8191 94.0336L71.2739 93.8804L71.7288 94.6608L72.1837 94.576L72.6386 94.8526L73.0934 94.9008L73.5483 94.3099L74.0032 94.1072L74.4581 94.5422L74.9129 94.5452L75.3678 94.076L75.8227 93.847L76.2775 93.5068L76.7324 92.2025L77.1873 92.7822L77.6422 92.6239L78.097 93.3594L78.5519 93.7581L79.0068 93.1304L79.4617 93.3314L79.9165 93.271L80.3714 93.643L80.8263 93.7413L81.2812 93.8657L81.736 93.7365L82.1909 94.2265L82.6458 94.4714L83.1007 94.2614L83.5555 93.8898L84.0104 93.8599L84.4653 93.6193L84.9202 93.0932L85.375 93.3927L85.8299 93.9762L86.2848 93.5493L86.7397 93.3668L87.1945 93.4138L87.6494 93.3624L88.1043 93.4594L88.5591 93.5542L89.014 93.9523L89.4689 93.1709L89.9238 93.217L90.3786 92.9189L90.8335 93.1533L91.2884 93.413L91.7433 92.3433L92.1981 93.837L92.653 92.6577L93.1079 92.2033L93.5628 92.5909L94.0176 92.8708L94.4725 92.7289L94.9274 93.2934L95.3823 92.9186L95.8371 92.9373L96.292 92.872L96.7469 92.4337L97.2018 92.53L97.6566 92.4253L98.1115 92.5883L98.5664 92.7739L99.0213 92.4747L99.4761 92.4216L99.931 92.5791L100.386 93.0796L100.841 92.8358L101.296 93.0629L101.751 93.1845L102.205 92.6455L102.66 92.8206L103.115 92.8449L103.57 92.7344L104.025 92.8981L104.48 92.6664L104.935 92.611L105.39 92.644L105.844 92.9293L106.299 92.7824L106.754 93.1506L107.209 92.5421L107.664 93.2607L108.119 92.109L108.574 93.0397L109.028 92.9496L109.483 92.4677L109.938 91.6799L110.393 92.5486L110.848 92.4697L111.303 93.2675L111.758 92.8791L112.213 92.7041L112.667 93.1219L113.122 92.8294L113.577 92.9545L114.032 92.1213L114.487 93.614L114.942 91.8356L115.397 92.2322L115.852 92.8246L116.306 92.0461L116.761 93.0352L117.216 93.3393L117.671 93.1295L118.126 93.0097L118.581 92.0881L119.036 92.875L119.491 92.3018L119.945 92.2048L120.4 92.4873L120.855 91.9675L121.31 91.1757L121.765 90.3968L122.22 91.3997L122.675 91.6894L123.13 91.5501L123.584 90.7393L124.039 91.5384L124.494 89.8462L124.949 91.0716L125.404 90.6331L125.859 90.7721L126.314 92.3107L126.769 92.1682L127.223 92.1272L127.678 92.7562L128.133 91.8714L128.588 91.7763L129.043 91.7959L129.498 92.2654L129.953 92.932L130.408 94.0957L130.862 92.3699L131.317 91.9028L131.772 92.5906L132.227 91.9569L132.682 92.2648L133.137 92.5911L133.592 92.2746L134.047 91.3595L134.501 91.8226L134.956 91.9921L135.411 91.3745L135.866 91.6281L136.321 92.6908L136.776 92.2289L137.231 91.8797L137.686 91.6423L138.14 91.6321L138.595 91.6156L139.05 92.0151L139.505 91.4042L139.96 91.9104L140.415 92.1186L140.87 91.8231L141.325 91.8921L141.779 91.9224L142.234 91.9368L142.689 91.46L143.144 92.5953L143.599 91.0758L144.054 90.7113L144.509 89.98L144.964 90.0615L145.418 90.6544L145.873 91.9076L146.328 90.9165L146.783 90.7121L147.238 91.343L147.693 91.7916L148.148 91.7307L148.603 92.1592L149.057 92.7985L149.512 91.6147L149.967 91.4777L150.422 91.5307L150.877 89.7707L151.332 91.4413L151.787 92.069L152.242 91.8684L152.696 92.3771L153.151 91.6186L153.606 91.6337L154.061 91.3863L154.516 91.8555L154.971 92.1128L155.426 92.6368L155.881 92.4597L156.335 92.0467L156.79 91.8654L157.245 92.1585L157.7 92.1944L158.155 91.8783L158.61 91.8342L159.065 92.2677L159.52 91.1271L159.974 90.6645L160.429 91.441L160.884 91.2498L161.339 91.1438L161.794 91.8183L162.249 92.0536L162.704 91.6163L163.159 91.5177L163.613 91.7535L164.068 91.8457L164.523 92.0646L164.978 92.2283L165.433 92.693L165.888 91.8863L166.343 92.0802L166.798 92.1317L167.252 92.2851L167.707 92.2599L168.162 92.5179L168.617 92.7206L169.072 92.0923L169.527 91.9723L169.982 91.2829L170.437 91.5983L170.891 91.3108L171.346 91.6685L171.801 92.3766L172.256 90.8026L172.711 90.922L173.166 91.2241L173.621 90.8739L174.076 91.3744L174.53 90.5808L174.985 91.1392L175.44 90.6586L175.895 90.9332L176.35 90.0263L176.805 91.0144L177.26 91.1262L177.715 90.5542L178.169 91.5369L178.624 91.57L179.079 91.4326L179.534 90.4035L179.989 91.2787L180.444 91.2198L180.899 91.3608L181.354 91.591L181.808 90.7649L182.263 91.182L182.718 90.3845L183.173 89.8737L183.628 90.5018L184.083 90.5L184.538 90.495L184.993 90.0315L185.447 89.4523L185.902 89.5901L186.357 90.0153L186.812 89.8543L187.267 90.6908L187.722 90.8455L188.177 90.6573L188.632 90.3858L189.086 90.2266L189.541 90.0844L189.996 90.5677L190.451 88.9262L190.906 90.8789L191.361 91.0241L191.816 90.6494L192.271 90.03L192.725 89.5749L193.18 91.155L193.635 91.3605L194.09 92.0507L194.545 91.4552L195 90.9646L195.455 91.0138L195.91 90.6858L196.364 90.6313L196.819 91.431L197.274 91.8099L197.729 91.2318L198.184 90.9707L198.639 91.1757L199.094 91.2284L199.549 90.3329L200.003 89.2374L200.458 90.6025L200.913 90.0446L201.368 90.5651L201.823 90.7604L202.278 90.5346L202.733 90.908L203.187 91.1852L203.642 91.584L204.097 90.7051L204.552 90.9143L205.007 90.5718L205.462 89.5589L205.917 91.0473L206.372 91.975L206.826 91.4309L207.281 90.4885L207.736 90.56L208.191 90.9434L208.646 90.9306L209.101 91.1111L209.556 91.9767L210.011 92.0684L210.465 91.3211L210.92 91.5896L211.375 91.8442L211.83 91.8536L212.285 92.1174L212.74 92.5952L213.195 92.7651L213.65 91.9182L214.104 91.911L214.559 91.8868L215.014 92.0602L215.469 91.3683L215.924 92.2467L216.379 92.3195L216.834 90.7032L217.289 90.1056L217.743 89.6215L218.198 89.8068L218.653 90.3434L219.108 91.5399L219.563 91.0252L220.018 90.765L220.473 90.9198L220.928 90.8984L221.382 91.4876L221.837 90.9005L222.292 91.4301L222.747 90.1666L223.202 89.2014L223.657 88.8935L224.112 89.0291L224.567 89.0138L225.021 88.7003L225.476 88.8123L225.931 88.6416L226.386 88.7951L226.841 89.1584L227.296 89.4513L227.751 89.3675L228.206 89.8922L228.66 90.6767L229.115 90.4578L229.57 90.0693L230.025 89.7734L230.48 90.1135L230.935 89.3775L231.39 90.111L231.845 91.1173L232.299 90.7542L232.754 89.9593L233.209 89.8139L233.664 89.9605L234.119 90.2203L234.574 90.2142L235.029 90.8439L235.484 90.3617L235.938 89.8335L236.393 89.7667L236.848 90.0713L237.303 89.1989L237.758 90.4739L238.213 91.2867L238.668 91.4571L239.123 90.2689L239.577 90.3101L240.032 91.0048L240.487 91.0314L240.942 91.4729L241.397 90.5893L241.852 91.1469L242.307 91.262L242.762 91.431L243.216 91.4L243.671 90.9332L244.126 90.8895L244.581 91.9372L245.036 92.4918L245.491 91.6847L245.946 91.4257L246.401 90.9915L246.855 91.2361L247.31 90.7109L247.765 91.6143L248.22 91.5329L248.675 91.2964L249.13 91.2135L249.585 90.6856L250.04 90.048L250.494 90.2432L250.949 90.5632L251.404 90.9986L251.859 90.3703L252.314 90.99L252.769 92.1903L253.224 90.4352L253.679 89.1332L254.133 90.1395L254.588 90.5555L255.043 90.2075L255.498 89.8506L255.953 90.1163L256.408 89.8813L256.863 90.0492L257.318 90.7858L257.772 89.6495L258.227 89.2774L258.682 97.0001H259.137L259.592 89.1992L260.047 89.6487L260.502 89.7691L260.957 97.0001H261.411" stroke="#BABABA" stroke-width="0.53" stroke-linecap="round" stroke-linejoin="round"/>
</g>
<mask id="mask1_705_1879" style="mask-type:luminance" maskUnits="userSpaceOnUse" x="0" y="0" width="264" height="97">
<path d="M264 0H0V97H264V0Z" fill="white"/>
</mask>
<g mask="url(#mask1_705_1879)">
<path d="M2.58789 50.8619L3.04277 42.4776L3.49764 38.9269L3.95251 38.5644L4.40739 34.1291L4.86226 41.0322L5.31714 40.6733L5.77201 47.2505L6.22689 51.1825L6.68176 43.6012L7.13663 44.5824L7.59151 44.391L8.04638 43.9103L8.50126 43.8015L8.95613 47.6943L9.41101 44.4226L9.86588 44.2455L10.3208 37.7638L10.7756 48.0181L11.2305 42.7126L11.6854 40.8962L12.1403 47.1008L12.5951 52.2247L13.05 50.5908L13.5049 49.6403L13.9598 46.7635L14.4146 52.3134L14.8695 50.6193L15.3244 56.2626L15.7792 56.9359L16.2341 53.8764L16.689 41.524L17.1439 53.8792L17.5987 51.8947L18.0536 42.8825L18.5085 40.1084L18.9634 43.3821L19.4182 37.7879L19.8731 38.7148L20.328 42.3924L20.7829 39.2426L21.2377 35.7504L21.6926 47.3313L22.1475 39.5727L22.6024 38.8482L23.0572 32.1332L23.5121 37.1095L23.967 40.6406L24.4219 39.4712L24.8767 44.9645L25.3316 44.2132L25.7865 42.6569L26.2414 38.0178L26.6962 40.3779L27.1511 41.5665L27.606 41.0773L28.0609 51.2744L28.5157 50.6887L28.9706 47.5906L29.4255 44.9323L29.8804 45.8728L30.3352 45.9012L30.7901 48.9211L31.245 55.0484L31.6999 52.9228L32.1547 46.5121L32.6096 48.7639L33.0645 48.2095L33.5193 47.0715L33.9742 51.3123L34.4291 52.015L34.884 52.431L35.3388 51.5321L35.7937 48.0513L36.2486 45.5918L36.7035 37.6704L37.1583 45.3083L37.6132 43.0607L38.0681 45.3994L38.523 40.7394L38.9778 42.3959L39.4327 43.0561L39.8876 42.5939L40.3425 44.5204L40.7973 46.1763L41.2522 47.1718L41.7071 36.7076L42.162 43.6029L42.6168 41.8179L43.0717 39.687L43.5266 39.1915L43.9815 40.0097L44.4363 40.9045L44.8912 35.8741L45.3461 42.4699L45.801 49.6921L46.2558 42.993L46.7107 45.2223L47.1656 55.4352L47.6205 49.0426L48.0753 47.7291L48.5302 51.9448L48.9851 47.6546L49.44 56.4399L49.8948 56.4685L50.3497 56.7662L50.8046 56.7507L51.2595 54.562L51.7143 52.4942L52.1692 45.4425L52.6241 45.1949L53.0789 42.5L53.5338 28.2603L53.9887 42.7322L54.4436 39.983L54.8984 44.8114L55.3533 53.1286L55.8082 48.1443L56.2631 45.3108L56.7179 53.3486L57.1728 53.8188L57.6277 55.3108L58.0826 56.7511L58.5374 55.801L58.9923 53.9106L59.4472 50.5432L59.9021 53.3556L60.3569 56.5024L60.8118 51.6146L61.2667 54.3359L61.7216 44.3604L62.1764 37.4219L62.6313 44.3481L63.0862 48.5034L63.5411 54.924L63.9959 55.7505L64.4508 58.4111L64.9057 58.7854L65.3606 57.6672L65.8154 57.1893L66.2703 60.8618L66.7252 60.6998L67.1801 55.5848L67.6349 59.4859L68.0898 55.8264L68.5447 56.7896L68.9996 60.2333L69.4544 61.344L69.9093 62.2186L70.3642 57.6329L70.8191 57.0336L71.2739 56.9446L71.7288 61.1354L72.1837 64.4477L72.6386 65.6216L73.0934 63.821L73.5483 58.4211L74.0032 59.1456L74.4581 58.7354L74.9129 59.4898L75.3678 60.0933L75.8227 62.4086L76.2775 62.1784L76.7324 54.8442L77.1873 57.5561L77.6422 58.8652L78.097 63.071L78.5519 66.0246L79.0068 64.7418L79.4617 66.8192L79.9165 61.422L80.3714 61.4273L80.8263 65.1719L81.2812 64.3869L81.736 62.9212L82.1909 65.3542L82.6458 65.1103L83.1007 64.7063L83.5555 61.9753L84.0104 62.4542L84.4653 59.226L84.9202 61.8424L85.375 66.3028L85.8299 67.3978L86.2848 60.3848L86.7397 61.0391L87.1945 61.8015L87.6494 62.3565L88.1043 60.5915L88.5591 66.1201L89.014 64.1704L89.4689 59.5635L89.9238 61.4454L90.3786 62.3308L90.8335 53.9195L91.2884 58.8142L91.7433 66.8514L92.1981 62.8118L92.653 59.4052L93.1079 60.6975L93.5628 63.6025L94.0176 63.8383L94.4725 63.6635L94.9274 67.5457L95.3823 68.3194L95.8371 62.4728L96.292 60.3449L96.7469 57.4404L97.2018 61.872L97.6566 60.7624L98.1115 60.6336L98.5664 60.0666L99.0213 62.7585L99.4761 63.4047L99.931 65.7631L100.386 63.8268L100.841 63.2977L101.296 65.3368L101.751 66.1428L102.205 63.842L102.66 61.2639L103.115 61.6317L103.57 61.6067L104.025 61.5966L104.48 63.938L104.935 64.9804L105.39 61.2792L105.844 62.6378L106.299 62.7386L106.754 63.3297L107.209 62.9259L107.664 67.9165L108.119 70.4983L108.574 67.3876L109.028 68.6012L109.483 69.9457L109.938 69.9852L110.393 68.4155L110.848 72.3291L111.303 72.5728L111.758 69.6673L112.213 66.6344L112.667 68.8312L113.122 66.67L113.577 69.1713L114.032 70.0561L114.487 71.2782L114.942 68.4809L115.397 61.6309L115.852 62.4086L116.306 60.847L116.761 54.739L117.216 70.0281L117.671 72.0676L118.126 68.7888L118.581 67.9694L119.036 68.8191L119.491 67.6381L119.945 68.6231L120.4 71.3306L120.855 69.0974L121.31 68.7259L121.765 68.805L122.22 68.8087L122.675 71.0523L123.13 71.8412L123.584 73.1889L124.039 73.1338L124.494 70.9578L124.949 70.3534L125.404 71.0217L125.859 72.9343L126.314 72.0748L126.769 74.7668L127.223 75.362L127.678 74.3703L128.133 73.1796L128.588 72.7761L129.043 73.4525L129.498 77.3421L129.953 74.824L130.408 74.9908L130.862 71.6165L131.317 71.9776L131.772 66.4095L132.227 61.1342L132.682 68.4826L133.137 73.1441L133.592 70.1525L134.047 67.701L134.501 69.4027L134.956 71.114L135.411 70.3228L135.866 72.0731L136.321 72.6286L136.776 72.2503L137.231 70.9534L137.686 70.4237L138.14 69.636L138.595 70.8443L139.05 71.9838L139.505 69.2923L139.96 70.0741L140.415 65.4792L140.87 66.3379L141.325 67.8628L141.779 66.8929L142.234 63.9017L142.689 67.9492L143.144 69.7469L143.599 68.0358L144.054 61.9291L144.509 62.5097L144.964 65.7899L145.418 69.5516L145.873 66.4542L146.328 66.4448L146.783 67.5358L147.238 68.9643L147.693 69.8956L148.148 70.2182L148.603 70.6697L149.057 71.0515L149.512 64.9422L149.967 68.0761L150.422 68.6276L150.877 70.3309L151.332 71.7135L151.787 73.1282L152.242 51.629L152.696 68.5223L153.151 68.9274L153.606 70.434L154.061 68.9322L154.516 68.0003L154.971 68.17L155.426 69.765L155.881 71.6405L156.335 71.8177L156.79 71.5568L157.245 71.2217L157.7 67.7831L158.155 68.9568L158.61 73.8971L159.065 74.9139L159.52 73.3467L159.974 68.1612L160.429 70.8821L160.884 68.8283L161.339 68.7676L161.794 72.7646L162.249 74.139L162.704 72.8416L163.159 73.7527L163.613 73.9018L164.068 73.3893L164.523 74.6899L164.978 75.7353L165.433 76.2387L165.888 75.8344L166.343 75.4593L166.798 74.9012L167.252 75.6249L167.707 74.6045L168.162 75.8466L168.617 77.5407L169.072 75.4944L169.527 75.4999L169.982 74.2845L170.437 74.6186L170.891 75.1228L171.346 74.5993L171.801 72.5837L172.256 69.4047L172.711 72.3171L173.166 72.8446L173.621 70.5356L174.076 71.892L174.53 69.44L174.985 71.7285L175.44 71.9112L175.895 72.7081L176.35 70.2958L176.805 69.4279L177.26 60.6329L177.715 52.2656L178.169 67.8975L178.624 66.8165L179.079 65.8967L179.534 62.7408L179.989 64.4067L180.444 66.6724L180.899 67.8959L181.354 63.2582L181.808 66.0405L182.263 57.7367L182.718 64.5204L183.173 65.3162L183.628 68.0915L184.083 64.0759L184.538 64.4737L184.993 65.2214L185.447 62.4045L185.902 63.5846L186.357 61.3486L186.812 63.5933L187.267 62.6734L187.722 66.2913L188.177 63.8692L188.632 63.703L189.086 59.9734L189.541 56.8954L189.996 58.4537L190.451 57.4176L190.906 49.0779L191.361 50.7702L191.816 56.4021L192.271 54.081L192.725 63.2564L193.18 62.9648L193.635 68.7794L194.09 68.4742L194.545 63.6867L195 61.3494L195.455 59.7402L195.91 61.583L196.364 63.3937L196.819 67.116L197.274 68.101L197.729 65.7774L198.184 63.8157L198.639 65.3013L199.094 64.1606L199.549 61.5154L200.003 60.2965L200.458 62.3757L200.913 63.5449L201.368 65.2679L201.823 62.9065L202.278 59.5424L202.733 59.5763L203.187 67.9366L203.642 67.8165L204.097 65.8311L204.552 63.4394L205.007 59.3121L205.462 63.8508L205.917 66.3408L206.372 69.7561L206.826 71.113L207.281 67.5779L207.736 62.6901L208.191 65.7205L208.646 64.6116L209.101 64.8586L209.556 65.6514L210.011 66.5638L210.465 64.0688L210.92 68.5105L211.375 69.373L211.83 67.9223L212.285 69.1532L212.74 70.9443L213.195 69.4969L213.65 65.4407L214.104 64.967L214.559 66.733L215.014 63.6798L215.469 63.5678L215.924 65.6959L216.379 66.1812L216.834 63.19L217.289 61.2913L217.743 60.2273L218.198 63.0357L218.653 62.498L219.108 66.8878L219.563 66.7109L220.018 62.8658L220.473 58.105L220.928 58.2742L221.382 60.0152L221.837 60.6872L222.292 62.6389L222.747 55.6152L223.202 50.2776L223.657 50.448L224.112 53.4508L224.567 59.2044L225.021 57.4778L225.476 59.079L225.931 59.3286L226.386 53.3027L226.841 49.3241L227.296 51.9261L227.751 53.1592L228.206 50.3892L228.66 55.241L229.115 62.5445L229.57 54.6707L230.025 53.2919L230.48 50.7323L230.935 50.3295L231.39 49.7649L231.845 54.9299L232.299 49.4136L232.754 49.7261L233.209 60.8347L233.664 55.6637L234.119 56.4613L234.574 58.4531L235.029 66.9414L235.484 65.8443L235.938 64.8275L236.393 61.4934L236.848 61.2855L237.303 62.4604L237.758 61.9722L238.213 65.7226L238.668 59.7338L239.123 60.2996L239.577 59.4252L240.032 60.1582L240.487 62.8314L240.942 61.6237L241.397 60.7289L241.852 66.7983L242.307 62.2225L242.762 63.1032L243.216 59.131L243.671 57.9858L244.126 65.3948L244.581 68.0667L245.036 69.6604L245.491 59.9484L245.946 61.2412L246.401 57.737L246.855 62.3924L247.31 58.1981L247.765 63.1089L248.22 61.7677L248.675 58.9676L249.13 58.7307L249.585 59.682L250.04 55.6479L250.494 53.8482L250.949 58.3131L251.404 63.6583L251.859 62.3863L252.314 61.3832L252.769 61.3869L253.224 62.9149L253.679 63.4883L254.133 60.2392L254.588 62.4875L255.043 56.3926L255.498 61.4326L255.953 63.3625L256.408 59.2836L256.863 61.4956L257.318 67.0676L257.772 65.0185L258.227 58.3075L258.682 97.0001H259.137H259.592H260.047H260.502H260.957H261.411" stroke="#828282" stroke-width="0.53" stroke-linecap="round" stroke-linejoin="round"/>
</g>
<mask id="mask2_705_1879" style="mask-type:luminance" maskUnits="userSpaceOnUse" x="0" y="0" width="264" height="97">
<path d="M264 0H0V97H264V0Z" fill="white"/>
</mask>
<g mask="url(#mask2_705_1879)">
<path d="M2.58789 78.2398L3.04277 77.8974L3.49764 74.8364L3.95251 77.9526L4.40739 80.6243L4.86226 79.2688L5.31714 79.9993L5.77201 83.782L6.22689 84.2103L6.68176 82.7874L7.13663 83.1094L7.59151 74.329L8.04638 75.2971L8.50126 52.432L8.95613 45.2659L9.41101 83.3762L9.86588 82.3329L10.3208 86.4475L10.7756 86.9242L11.2305 85.8648L11.6854 85.1993L12.1403 84.7516L12.5951 85.7225L13.05 84.6737L13.5049 85.3286L13.9598 83.4006L14.4146 82.4186L14.8695 82.8378L15.3244 83.4534L15.7792 83.3028L16.2341 83.8547L16.689 82.8457L17.1439 82.0778L17.5987 82.5693L18.0536 81.8839L18.5085 81.6049L18.9634 83.0918L19.4182 78.2855L19.8731 79.5642L20.328 82.9615L20.7829 82.3568L21.2377 82.3291L21.6926 83.7009L22.1475 84.0803L22.6024 82.4996L23.0572 79.5768L23.5121 80.649L23.967 84.7654L24.4219 86.4766L24.8767 86.1434L25.3316 86.1814L25.7865 85.4927L26.2414 86.0039L26.6962 87.6234L27.1511 85.8115L27.606 87.523L28.0609 89.3314L28.5157 86.8375L28.9706 84.8433L29.4255 85.3357L29.8804 86.42L30.3352 87.2282L30.7901 87.0545L31.245 89.1633L31.6999 87.6395L32.1547 85.8675L32.6096 83.7677L33.0645 86.8203L33.5193 90.0115L33.9742 89.6557L34.4291 89.9553L34.884 89.5603L35.3388 88.1304L35.7937 87.5217L36.2486 86.1956L36.7035 87.2051L37.1583 87.2567L37.6132 86.7809L38.0681 87.0009L38.523 87.1963L38.9778 86.0616L39.4327 82.1983L39.8876 85.609L40.3425 85.9436L40.7973 88.2976L41.2522 87.9326L41.7071 85.8488L42.162 85.3711L42.6168 85.676L43.0717 84.9608L43.5266 83.3615L43.9815 83.2947L44.4363 84.0243L44.8912 82.9235L45.3461 83.0693L45.801 82.5131L46.2558 80.0643L46.7107 84.369L47.1656 85.8957L47.6205 85.4202L48.0753 83.6817L48.5302 83.3849L48.9851 83.9154L49.44 83.45L49.8948 81.6962L50.3497 83.842L50.8046 84.0834L51.2595 81.3798L51.7143 83.8424L52.1692 83.5096L52.6241 81.6286L53.0789 81.5661L53.5338 84.4151L53.9887 84.3163L54.4436 79.7453L54.8984 80.6396L55.3533 80.319L55.8082 81.1291L56.2631 80.8145L56.7179 83.208L57.1728 83.6525L57.6277 83.6335L58.0826 81.9148L58.5374 78.3973L58.9923 77.5849L59.4472 74.3578L59.9021 77.2407L60.3569 82.1346L60.8118 76.8506L61.2667 78.3887L61.7216 76.9884L62.1764 78.2589L62.6313 79.6883L63.0862 82.4834L63.5411 83.9037L63.9959 80.2127L64.4508 85.0272L64.9057 82.8286L65.3606 82.0593L65.8154 82.6637L66.2703 84.7455L66.7252 84.6277L67.1801 81.9971L67.6349 83.495L68.0898 82.7876L68.5447 80.6526L68.9996 81.8858L69.4544 84.6965L69.9093 86.6075L70.3642 84.4641L70.8191 82.7881L71.2739 82.8789L71.7288 83.8218L72.1837 85.0571L72.6386 85.2588L73.0934 85.0099L73.5483 83.3397L74.0032 83.7454L74.4581 83.5979L74.9129 84.1526L75.3678 83.4221L75.8227 83.8056L76.2775 82.9412L76.7324 77.9442L77.1873 79.3322L77.6422 78.5888L78.097 81.64L78.5519 84.4038L79.0068 83.8616L79.4617 83.3297L79.9165 83.2791L80.3714 83.7748L80.8263 82.0806L81.2812 81.5447L81.736 81.8765L82.1909 82.5549L82.6458 83.3833L83.1007 79.4062L83.5555 83.6714L84.0104 81.6186L84.4653 81.0725L84.9202 83.9518L85.375 86.7241L85.8299 87.4266L86.2848 86.9607L86.7397 84.5697L87.1945 85.095L87.6494 85.9059L88.1043 84.3861L88.5591 86.2941L89.014 86.857L89.4689 85.5521L89.9238 85.0535L90.3786 84.5768L90.8335 82.776L91.2884 82.4402L91.7433 85.2531L92.1981 84.6437L92.653 80.3346L93.1079 82.8352L93.5628 80.7971L94.0176 81.5858L94.4725 83.9711L94.9274 85.3238L95.3823 85.3923L95.8371 84.8904L96.292 85.0133L96.7469 83.8025L97.2018 82.6037L97.6566 80.8505L98.1115 83.1289L98.5664 83.5404L99.0213 84.4422L99.4761 86.0025L99.931 85.269L100.386 85.9854L100.841 85.5823L101.296 86.5371L101.751 86.9296L102.205 85.572L102.66 85.6855L103.115 85.0982L103.57 84.3569L104.025 83.1399L104.48 84.0049L104.935 84.7166L105.39 79.9557L105.844 83.0015L106.299 82.0839L106.754 82.2297L107.209 81.7415L107.664 84.1169L108.119 85.0135L108.574 83.1874L109.028 81.9758L109.483 84.6262L109.938 85.5003L110.393 83.0083L110.848 86.1507L111.303 86.2833L111.758 84.9317L112.213 83.4222L112.667 84.4698L113.122 83.9L113.577 84.5555L114.032 86.1726L114.487 87.0817L114.942 85.6204L115.397 83.9098L115.852 85.0101L116.306 83.653L116.761 81.233L117.216 86.7955L117.671 87.6158L118.126 85.0649L118.581 83.9999L119.036 85.3889L119.491 84.5569L119.945 86.1111L120.4 88.0901L120.855 85.4761L121.31 82.5179L121.765 84.2014L122.22 83.1711L122.675 83.2519L123.13 82.1216L123.584 84.5159L124.039 83.7342L124.494 79.4414L124.949 78.159L125.404 78.4379L125.859 78.4849L126.314 81.9014L126.769 83.4431L127.223 79.2925L127.678 79.1924L128.133 79.9116L128.588 79.195L129.043 79.9456L129.498 80.0061L129.953 79.0748L130.408 81.4849L130.862 77.6098L131.317 79.3751L131.772 85.1862L132.227 85.6558L132.682 83.3644L133.137 81.2136L133.592 72.7911L134.047 77.9771L134.501 83.3122L134.956 82.989L135.411 84.3064L135.866 84.5931L136.321 85.6814L136.776 84.5076L137.231 84.8412L137.686 83.2417L138.14 83.1713L138.595 82.6617L139.05 81.458L139.505 83.4281L139.96 78.4326L140.415 79.0632L140.87 82.1641L141.325 82.2758L141.779 82.4592L142.234 80.446L142.689 80.3446L143.144 81.9459L143.599 82.8594L144.054 80.8702L144.509 73.7305L144.964 73.9899L145.418 77.6363L145.873 79.5316L146.328 81.3027L146.783 79.8498L147.238 82.5997L147.693 82.6777L148.148 83.0815L148.603 83.5348L149.057 83.8015L149.512 75.5995L149.967 74.7117L150.422 80.1084L150.877 77.7696L151.332 83.4794L151.787 80.9475L152.242 82.8468L152.696 79.9864L153.151 82.0628L153.606 73.6281L154.061 72.6841L154.516 81.6033L154.971 81.0907L155.426 81.4842L155.881 81.4219L156.335 84.7882L156.79 84.1029L157.245 83.5847L157.7 84.1883L158.155 84.9929L158.61 86.0377L159.065 86.3364L159.52 85.0612L159.974 83.7468L160.429 83.5895L160.884 85.9201L161.339 84.2562L161.794 83.4075L162.249 84.2085L162.704 85.0576L163.159 82.8129L163.613 84.0996L164.068 85.3385L164.523 86.5976L164.978 88.0305L165.433 86.9523L165.888 86.1913L166.343 85.9874L166.798 83.9143L167.252 84.4066L167.707 86.2288L168.162 86.6839L168.617 87.7821L169.072 86.6372L169.527 86.4718L169.982 84.7899L170.437 85.2801L170.891 86.0201L171.346 86.3477L171.801 86.225L172.256 84.9484L172.711 85.5779L173.166 84.4695L173.621 82.1697L174.076 82.9855L174.53 81.3059L174.985 84.7574L175.44 81.9481L175.895 81.0178L176.35 82.8425L176.805 83.1861L177.26 83.9027L177.715 82.8715L178.169 83.1515L178.624 83.8809L179.079 84.4776L179.534 80.691L179.989 81.2851L180.444 81.4002L180.899 82.2008L181.354 77.8806L181.808 77.8664L182.263 80.3244L182.718 81.9373L183.173 83.8568L183.628 83.0007L184.083 83.9511L184.538 85.1188L184.993 85.0574L185.447 83.994L185.902 84.6826L186.357 84.6781L186.812 84.3761L187.267 88.2181L187.722 88.0867L188.177 86.4253L188.632 88.1405L189.086 86.6585L189.541 84.811L189.996 84.125L190.451 84.8216L190.906 83.9523L191.361 83.4525L191.816 84.7163L192.271 85.4764L192.725 87.4388L193.18 86.2849L193.635 85.1366L194.09 85.0737L194.545 85.8132L195 87.7452L195.455 86.3762L195.91 84.889L196.364 84.5312L196.819 85.959L197.274 86.2855L197.729 86.3898L198.184 85.6957L198.639 85.4296L199.094 85.0656L199.549 83.3426L200.003 79.6677L200.458 79.2927L200.913 81.4753L201.368 81.24L201.823 82.8266L202.278 84.4293L202.733 85.149L203.187 84.1387L203.642 84.9759L204.097 82.3791L204.552 84.3325L205.007 83.4591L205.462 85.3384L205.917 85.2886L206.372 86.1408L206.826 86.971L207.281 85.2279L207.736 85.5106L208.191 85.5338L208.646 84.0795L209.101 84.2799L209.556 80.8042L210.011 81.3888L210.465 85.0087L210.92 82.1038L211.375 82.5107L211.83 78.6217L212.285 81.5941L212.74 80.5601L213.195 83.357L213.65 81.9778L214.104 81.728L214.559 85.6265L215.014 85.5993L215.469 84.8726L215.924 85.6302L216.379 85.5795L216.834 85.7569L217.289 86.3559L217.743 86.8225L218.198 86.2471L218.653 86.2547L219.108 85.9919L219.563 87.6654L220.018 85.1825L220.473 85.1119L220.928 84.5944L221.382 86.249L221.837 88.1386L222.292 88.6142L222.747 88.0213L223.202 87.0006L223.657 82.9677L224.112 84.2052L224.567 86.2352L225.021 85.7574L225.476 83.8472L225.931 87.4386L226.386 83.5042L226.841 85.8488L227.296 85.7208L227.751 77.9904L228.206 79.2843L228.66 78.153L229.115 73.4024L229.57 82.6873L230.025 84.7247L230.48 84.6631L230.935 83.0293L231.39 80.7808L231.845 84.6093L232.299 73.4415L232.754 83.137L233.209 83.4664L233.664 81.7405L234.119 81.7917L234.574 82.7222L235.029 82.1522L235.484 80.4722L235.938 81.7449L236.393 81.5997L236.848 81.4025L237.303 81.9874L237.758 82.2973L238.213 84.7011L238.668 84.632L239.123 76.1437L239.577 82.6534L240.032 81.7987L240.487 80.4111L240.942 83.0717L241.397 79.4605L241.852 80.1242L242.307 82.1316L242.762 81.7071L243.216 84.0322L243.671 81.9559L244.126 82.1836L244.581 82.3509L245.036 81.897L245.491 79.5876L245.946 80.4605L246.401 78.0703L246.855 81.2107L247.31 80.7035L247.765 83.2091L248.22 80.8277L248.675 80.4261L249.13 82.0973L249.585 81.3346L250.04 81.2412L250.494 78.5093L250.949 80.7408L251.404 79.9907L251.859 80.449L252.314 80.9455L252.769 83.2584L253.224 80.2938L253.679 80.3427L254.133 81.2288L254.588 80.9755L255.043 78.8991L255.498 81.2081L255.953 81.3362L256.408 80.2569L256.863 76.5096L257.318 81.3962L257.772 80.8606L258.227 77.8153L258.682 97H259.137L259.592 80.8597L260.047 80.7705L260.502 77.5951L260.957 82.2575L261.411 81.2016" stroke="#CCCCCC" stroke-width="0.53" stroke-linecap="round" stroke-linejoin="round"/>
</g>
<mask id="mask3_705_1879" style="mask-type:luminance" maskUnits="userSpaceOnUse" x="0" y="0" width="264" height="97">
<path d="M264 0H0V97H264V0Z" fill="white"/>
</mask>
<g mask="url(#mask3_705_1879)">
<path d="M2.58789 90.0057L3.04277 90.5659L3.49764 89.5783L3.95251 88.4758L4.40739 87.5504L4.86226 88.5381L5.31714 89.0349L5.77201 89.808L6.22689 90.0455L6.68176 89.6195L7.13663 88.9042L7.59151 86.5533L8.04638 86.4265L8.50126 87.417L8.95613 87.451L9.41101 86.3615L9.86588 87.0591L10.3208 87.2394L10.7756 86.8969L11.2305 87.1223L11.6854 88.3385L12.1403 86.1326L12.5951 85.9878L13.05 87.1753L13.5049 85.8677L13.9598 86.2685L14.4146 86.947L14.8695 88.0812L15.3244 88.1009L15.7792 87.8915L16.2341 87.9496L16.689 87.4839L17.1439 87.8662L17.5987 87.6448L18.0536 86.7939L18.5085 86.8239L18.9634 86.4003L19.4182 84.3847L19.8731 85.0979L20.328 85.7474L20.7829 84.8755L21.2377 85.2351L21.6926 85.199L22.1475 84.2953L22.6024 86.0728L23.0572 85.3613L23.5121 86.2518L23.967 85.8275L24.4219 86.4424L24.8767 86.1758L25.3316 85.7337L25.7865 86.2646L26.2414 87.0492L26.6962 85.7621L27.1511 87.8134L27.606 86.4527L28.0609 85.6448L28.5157 85.9787L28.9706 85.7081L29.4255 85.3077L29.8804 85.0946L30.3352 86.3204L30.7901 85.9538L31.245 86.9923L31.6999 87.7179L32.1547 87.6758L32.6096 88.5872L33.0645 87.5309L33.5193 87.1998L33.9742 86.3529L34.4291 87.3729L34.884 87.8485L35.3388 88.6102L35.7937 88.1134L36.2486 87.8767L36.7035 87.8676L37.1583 88.3884L37.6132 88.4029L38.0681 88.5747L38.523 88.538L38.9778 89.1971L39.4327 88.68L39.8876 88.8676L40.3425 88.1362L40.7973 88.8047L41.2522 88.2773L41.7071 87.0831L42.162 87.5452L42.6168 87.6141L43.0717 87.9743L43.5266 88.0529L43.9815 88.0889L44.4363 88.9403L44.8912 88.692L45.3461 88.9947L45.801 89.2108L46.2558 89.1686L46.7107 89.0695L47.1656 89.6967L47.6205 89.994L48.0753 89.731L48.5302 89.5329L48.9851 90.1494L49.44 89.8649L49.8948 89.783L50.3497 88.1418L50.8046 89.3934L51.2595 89.5223L51.7143 89.3337L52.1692 87.0085L52.6241 88.6999L53.0789 88.9653L53.5338 88.9399L53.9887 89.4887L54.4436 88.7798L54.8984 89.8889L55.3533 89.0035L55.8082 90.6114L56.2631 90.666L56.7179 91.7395L57.1728 90.6662L57.6277 90.6986L58.0826 90.5694L58.5374 89.8365L58.9923 90.7621L59.4472 90.4916L59.9021 90.2959L60.3569 90.3961L60.8118 90.4145L61.2667 90.0391L61.7216 91.1505L62.1764 91.1294L62.6313 90.771L63.0862 91.3934L63.5411 91.3764L63.9959 91.9089L64.4508 91.2864L64.9057 91.6098L65.3606 91.3904L65.8154 89.6529L66.2703 87.5253L66.7252 87.5517L67.1801 88.3434L67.6349 91.0388L68.0898 88.6823L68.5447 89.6704L68.9996 90.2394L69.4544 86.6929L69.9093 81.9162L70.3642 86.1146L70.8191 88.4094L71.2739 85.9892L71.7288 86.8866L72.1837 82.901L72.6386 82.4968L73.0934 80.3324L73.5483 85.2583L74.0032 82.7959L74.4581 85.962L74.9129 85.5747L75.3678 86.6271L75.8227 87.3547L76.2775 90.2273L76.7324 92.1437L77.1873 90.4685L77.6422 91.4773L78.097 91.0919L78.5519 91.1519L79.0068 92.5033L79.4617 91.3586L79.9165 89.0792L80.3714 89.1453L80.8263 87.2088L81.2812 84.9811L81.736 86.1707L82.1909 86.2007L82.6458 82.9144L83.1007 83.6874L83.5555 84.7573L84.0104 86.8301L84.4653 86.8026L84.9202 85.8219L85.375 83.6249L85.8299 83.755L86.2848 83.7537L86.7397 84.4155L87.1945 80.9724L87.6494 84.713L88.1043 84.0921L88.5591 80.4509L89.014 70.1814L89.4689 9.08716L89.9238 40.341L90.3786 83.1525L90.8335 85.294L91.2884 86.2765L91.7433 85.2856L92.1981 84.0675L92.653 86.7063L93.1079 88.1397L93.5628 87.58L94.0176 86.7175L94.4725 85.6655L94.9274 84.4793L95.3823 84.6386L95.8371 85.9314L96.292 86.0986L96.7469 87.361L97.2018 87.7208L97.6566 86.1407L98.1115 86.6933L98.5664 85.4141L99.0213 85.1821L99.4761 85.5696L99.931 85.3704L100.386 85.4359L100.841 86.9212L101.296 84.8257L101.751 85.2791L102.205 86.6495L102.66 84.4684L103.115 84.4584L103.57 84.8318L104.025 84.9085L104.48 84.7876L104.935 84.3622L105.39 83.6133L105.844 83.7137L106.299 83.1029L106.754 85.129L107.209 85.3412L107.664 80.7207L108.119 81.6527L108.574 82.7598L109.028 81.6026L109.483 81.8675L109.938 82.7949L110.393 85.9267L110.848 83.3026L111.303 85.646L111.758 87.2007L112.213 84.8766L112.667 83.5943L113.122 84.4984L113.577 82.7644L114.032 84.6305L114.487 83.0095L114.942 85.1819L115.397 85.0444L115.852 85.4843L116.306 84.548L116.761 87.2817L117.216 84.6588L117.671 84.0679L118.126 84.0123L118.581 85.4716L119.036 84.0973L119.491 84.2227L119.945 82.1784L120.4 79.5926L120.855 82.1339L121.31 84.014L121.765 81.7359L122.22 83.3037L122.675 81.2995L123.13 80.1488L123.584 82.1043L124.039 81.1991L124.494 78.0546L124.949 81.7607L125.404 82.128L125.859 81.6078L126.314 81.7455L126.769 84.3458L127.223 83.5469L127.678 82.5868L128.133 82.2293L128.588 81.8834L129.043 83.4151L129.498 82.3622L129.953 82.2522L130.408 81.5066L130.862 83.8733L131.317 82.9727L131.772 80.4596L132.227 82.8885L132.682 80.0228L133.137 80.676L133.592 82.9466L134.047 84.2318L134.501 83.2177L134.956 81.8579L135.411 78.9642L135.866 80.5056L136.321 78.6704L136.776 79.0848L137.231 79.4648L137.686 81.3161L138.14 80.0485L138.595 78.8946L139.05 86.3112L139.505 82.4516L139.96 83.7383L140.415 85.6838L140.87 83.2524L141.325 86.4274L141.779 91.0466L142.234 86.6108L142.689 89.1349L143.144 90.6426L143.599 90.9708L144.054 90.7604L144.509 93.2286L144.964 90.733L145.418 87.2573L145.873 86.0449L146.328 85.9281L146.783 90.9819L147.238 91.7532L147.693 90.0455L148.148 92.5605L148.603 89.064L149.057 90.8524L149.512 90.316L149.967 89.3771L150.422 73.2233L150.877 88.2134L151.332 87.5151L151.787 88.1473L152.242 86.3193L152.696 87.5441L153.151 86.3479L153.606 89.4098L154.061 87.9722L154.516 88.444L154.971 88.6737L155.426 86.4688L155.881 86.9744L156.335 84.9669L156.79 85.0986L157.245 87.8818L157.7 84.6383L158.155 85.8317L158.61 86.4583L159.065 88.3501L159.52 88.1542L159.974 89.0066L160.429 88.0268L160.884 87.383L161.339 87.1981L161.794 86.9674L162.249 87.2444L162.704 87.4423L163.159 86.4274L163.613 89.3694L164.068 89.6614L164.523 87.8385L164.978 88.3025L165.433 88.1029L165.888 88.6659L166.343 89.5836L166.798 89.7949L167.252 87.9591L167.707 90.2102L168.162 90.3423L168.617 90.8123L169.072 87.0165L169.527 89.1573L169.982 88.5815L170.437 88.9445L170.891 88.8278L171.346 87.9409L171.801 90.1702L172.256 91.8976L172.711 90.2323L173.166 90.9424L173.621 90.974L174.076 90.3475L174.53 91.1603L174.985 88.2056L175.44 90.1659L175.895 87.8708L176.35 88.2965L176.805 87.6615L177.26 87.5253L177.715 90.8111L178.169 91.5627L178.624 91.8409L179.079 91.682L179.534 88.2245L179.989 93.039L180.444 89.2483L180.899 88.4991L181.354 89.5284L181.808 88.9814L182.263 91.2293L182.718 91.2278L183.173 93.5094L183.628 93.8749L184.083 93.9714L184.538 93.3497L184.993 87.4131L185.447 89.0024L185.902 92.5102L186.357 91.1576L186.812 92.5263L187.267 90.6683L187.722 89.855L188.177 90.9151L188.632 91.4119L189.086 90.6986L189.541 93.2108L189.996 90.8732L190.451 88.8532L190.906 88.583L191.361 91.4546L191.816 92.1622L192.271 90.5952L192.725 90.8834L193.18 88.6762L193.635 90.2616L194.09 92.6425L194.545 91.7487L195 92.6623L195.455 86.8337L195.91 90.7957L196.364 91.5832L196.819 93.6799L197.274 90.2485L197.729 90.4069L198.184 91.7147L198.639 92.7542L199.094 93.0067L199.549 93.6041L200.003 94.5879L200.458 91.6307L200.913 92.2328L201.368 89.641L201.823 90.6091L202.278 91.1288L202.733 91.5041L203.187 92.6329L203.642 90.2958L204.097 91.1207L204.552 92.2605L205.007 92.5872L205.462 92.3239L205.917 91.4726L206.372 91.9009L206.826 91.917L207.281 92.463L207.736 92.8675L208.191 91.8539L208.646 90.6287L209.101 91.0333L209.556 91.337L210.011 92.897L210.465 93.2214L210.92 91.115L211.375 94.762L211.83 94.4201L212.285 95.3865L212.74 94.2673L213.195 92.3463L213.65 89.8839L214.104 89.3451L214.559 93.5003L215.014 94.6475L215.469 94.1239L215.924 93.1859L216.379 94.0017L216.834 92.8138L217.289 93.1509L217.743 93.5357L218.198 94.1075L218.653 94.4988L219.108 94.7537L219.563 92.5553L220.018 94.3511L220.473 93.7039L220.928 94.5241L221.382 92.8246L221.837 93.5862L222.292 94.6689L222.747 93.8538L223.202 94.2124L223.657 94.5796L224.112 94.5635L224.567 94.7384L225.021 93.9747L225.476 93.2004L225.931 94.6995L226.386 92.1376L226.841 93.7101L227.296 93.9566L227.751 89.8211L228.206 87.4933L228.66 88.147L229.115 87.3214L229.57 93.8199L230.025 92.9669L230.48 90.0135L230.935 92.2903L231.39 92.6601L231.845 92.5332L232.299 90.1677L232.754 91.1891L233.209 88.3153L233.664 91.9407L234.119 80.9093L234.574 89.2539L235.029 89.9174L235.484 90.5643L235.938 90.8868L236.393 90.162L236.848 84.6042L237.303 88.437L237.758 90.8451L238.213 79.9559L238.668 81.6734L239.123 88.4148L239.577 94.2951L240.032 93.874L240.487 93.0564L240.942 92.7129L241.397 94.1592L241.852 92.6581L242.307 91.3666L242.762 92.1055L243.216 91.8707L243.671 92.1195L244.126 91.5347L244.581 92.2684L245.036 92.8557L245.491 92.8498L245.946 92.6288L246.401 91.8893L246.855 92.2859L247.31 91.1678L247.765 90.9354L248.22 60.7536L248.675 93.1908L249.13 92.4253L249.585 92.2796L250.04 94.1191L250.494 92.0641L250.949 92.7913L251.404 93.4514L251.859 85.4695L252.314 88.6224L252.769 91.7508L253.224 91.5402L253.679 94.5259L254.133 94.9816L254.588 94.2903L255.043 93.6529L255.498 92.0605" stroke="#737373" stroke-width="0.53" stroke-linecap="round" stroke-linejoin="round"/>
</g>
<mask id="mask4_705_1879" style="mask-type:luminance" maskUnits="userSpaceOnUse" x="0" y="0" width="264" height="97">
<path d="M264 0H0V97H264V0Z" fill="white"/>
</mask>
<g mask="url(#mask4_705_1879)">
<path d="M2.58789 92.0948L3.04277 90.7777L3.49764 90.4069L3.95251 90.8029L4.40739 90.1352L4.86226 90.5318L5.31714 89.9963L5.77201 90.8821L6.22689 91.5188L6.68176 91.3506L7.13663 91.5503L7.59151 90.9823L8.04638 91.7169L8.50126 91.3009L8.95613 90.8178L9.41101 90.2071L9.86588 89.1516L10.3208 90.677L10.7756 91.0555L11.2305 90.8231L11.6854 90.3688L12.1403 90.2985L12.5951 91.5047L13.05 90.8068L13.5049 91.231L13.9598 89.7323L14.4146 88.6945L14.8695 90.2388L15.3244 90.207L15.7792 90.7953L16.2341 90.339L16.689 89.9972L17.1439 90.4813L17.5987 90.8127L18.0536 90.5684L18.5085 90.8124L18.9634 90.9388L19.4182 89.9692L19.8731 89.3191L20.328 89.8654L20.7829 89.1958L21.2377 89.2409L21.6926 90.2449L22.1475 90.9669L22.6024 90.9865L23.0572 89.9483L23.5121 89.4987L23.967 89.5904L24.4219 90.2983L24.8767 90.3239L25.3316 89.9698L25.7865 89.9256L26.2414 90.1861L26.6962 90.0783L27.1511 89.6499L27.606 90.2602L28.0609 90.8565L28.5157 90.3748L28.9706 89.7594L29.4255 89.9484L29.8804 89.8856L30.3352 90.0499L30.7901 89.9246L31.245 90.2321L31.6999 90.4206L32.1547 89.9742L32.6096 90.1415L33.0645 89.6955L33.5193 90.0371L33.9742 89.8173L34.4291 89.6474L34.884 89.8933L35.3388 89.7362L35.7937 89.6624L36.2486 89.9115L36.7035 89.8416L37.1583 89.9592L37.6132 89.8628L38.0681 89.642L38.523 89.7437L38.9778 89.7307L39.4327 89.9914L39.8876 89.7935L40.3425 89.8101L40.7973 90.2002L41.2522 90.1982L41.7071 89.5853L42.162 89.5187L42.6168 89.5106L43.0717 89.3797L43.5266 89.5483L43.9815 89.6375L44.4363 89.8864L44.8912 89.9395L45.3461 89.7872L45.801 89.7556L46.2558 90.0122L46.7107 89.8203L47.1656 89.9588L47.6205 90.2584L48.0753 90.2749L48.5302 90.3096L48.9851 90.2128L49.44 90.078L49.8948 90.3027L50.3497 90.4805L50.8046 90.1525L51.2595 90.6382L51.7143 90.3943L52.1692 90.2458L52.6241 90.4121L53.0789 90.3213L53.5338 90.3562L53.9887 90.4826L54.4436 90.229L54.8984 90.3342L55.3533 90.5356L55.8082 90.5797L56.2631 90.5023L56.7179 90.4905L57.1728 90.5141L57.6277 90.532L58.0826 90.4879L58.5374 90.1248L58.9923 90.9618L59.4472 90.2713L59.9021 90.5906L60.3569 90.4605L60.8118 90.0741L61.2667 90.2127L61.7216 89.548L62.1764 89.4745L62.6313 90.7824L63.0862 92.4462L63.5411 92.9329L63.9959 93.0641L64.4508 93.6262L64.9057 93.7411L65.3606 94.048L65.8154 94.1963L66.2703 94.9551L66.7252 94.766L67.1801 94.4529L67.6349 94.775L68.0898 94.633L68.5447 94.2185L68.9996 94.0186L69.4544 94.8341L69.9093 94.968L70.3642 94.4673L70.8191 94.5788L71.2739 94.6445L71.7288 94.8158L72.1837 94.9722L72.6386 95.2052L73.0934 95.1485L73.5483 94.7572L74.0032 94.6717L74.4581 94.99L74.9129 95.1739L75.3678 95.034L75.8227 94.7883L76.2775 94.2276L76.7324 92.4059L77.1873 93.8973L77.6422 93.7573L78.097 94.61L78.5519 95.0307L79.0068 93.9229L79.4617 94.5923L79.9165 94.5476L80.3714 94.7422L80.8263 94.8091L81.2812 94.4582L81.736 94.2046L82.1909 94.7872L82.6458 94.8857L83.1007 94.7864L83.5555 94.8245L84.0104 94.6653L84.4653 94.4961L84.9202 94.6922L85.375 95.0508L85.8299 94.9284L86.2848 95.0769L86.7397 95.0717L87.1945 94.9597L87.6494 94.9076L88.1043 94.9876L88.5591 95.4641L89.014 95.4389L89.4689 95.2545L89.9238 95.2845L90.3786 95.075L90.8335 95.2031L91.2884 95.2102L91.7433 95.2803L92.1981 95.2769L92.653 94.698L93.1079 94.6891L93.5628 94.6456L94.0176 95.044L94.4725 95.2341L94.9274 95.4436L95.3823 94.9135L95.8371 94.8618L96.292 95.0984L96.7469 94.9417L97.2018 94.8665L97.6566 94.8607L98.1115 95.0305L98.5664 95.1936L99.0213 95.0278L99.4761 95.0223L99.931 95.1114L100.386 94.8978L100.841 95.1544L101.296 95.279L101.751 95.1903L102.205 94.8518L102.66 95.1793L103.115 94.812L103.57 94.9692L104.025 95.3466L104.48 95.373L104.935 95.418L105.39 95.1675L105.844 95.2463L106.299 95.1739L106.754 95.2475L107.209 94.7183L107.664 95.2474L108.119 95.4058L108.574 95.3103L109.028 95.3167L109.483 95.3912L109.938 95.5115L110.393 95.1752L110.848 95.3989L111.303 95.3905L111.758 95.1434L112.213 95.0889L112.667 95.1921L113.122 95.344L113.577 95.3896L114.032 95.7352L114.487 95.6083L114.942 95.4753L115.397 95.1992L115.852 95.3446L116.306 95.4536L116.761 95.1506L117.216 95.4704L117.671 95.5755L118.126 95.1123L118.581 95.1183L119.036 95.2074L119.491 95.2245L119.945 95.4638L120.4 95.4747L120.855 95.3159L121.31 95.1788L121.765 95.5344L122.22 95.3L122.675 95.4743L123.13 95.4196L123.584 95.7768L124.039 95.7162L124.494 95.4768L124.949 95.151L125.404 95.3871L125.859 94.5867L126.314 95.3566L126.769 95.7309L127.223 95.6241L127.678 95.4803L128.133 95.604L128.588 95.3926L129.043 95.5439L129.498 95.6185L129.953 95.8183L130.408 95.8085L130.862 95.6274L131.317 95.5691L131.772 95.7727L132.227 95.2274L132.682 95.471L133.137 94.4767L133.592 95.2526L134.047 95.4459L134.501 92.3197L134.956 95.4777L135.411 93.9228L135.866 95.4452L136.321 95.7992L136.776 95.7073L137.231 95.569L137.686 95.1515L138.14 95.0936L138.595 95.2294L139.05 95.2687L139.505 94.7529L139.96 95.5774L140.415 95.1276L140.87 95.4581L141.325 95.36L141.779 95.5148L142.234 95.2505L142.689 95.22L143.144 95.518L143.599 95.3714L144.054 94.0601L144.509 93.4274L144.964 94.2658L145.418 95.0831L145.873 95.4832L146.328 95.2206L146.783 94.907L147.238 94.5861L147.693 94.7354L148.148 95.6365L148.603 95.3605L149.057 95.8366L149.512 95.5672L149.967 95.2747L150.422 95.5335L150.877 95.4949L151.332 95.6221L151.787 95.7241L152.242 95.7574L152.696 87.8716L153.151 87.8843L153.606 95.4912L154.061 95.3908L154.516 95.6067L154.971 95.4514L155.426 95.01L155.881 95.6449L156.335 95.5701L156.79 95.7642L157.245 95.5814L157.7 95.6052L158.155 95.4365L158.61 95.6611L159.065 95.8319L159.52 95.43L159.974 95.2141L160.429 95.1272L160.884 95.5441L161.339 95.5508L161.794 95.7028L162.249 95.8367L162.704 95.555L163.159 95.5263L163.613 95.7144L164.068 95.6794L164.523 95.8007L164.978 95.8637L165.433 95.9908L165.888 95.8127L166.343 95.8644L166.798 95.4624L167.252 95.6104L167.707 95.7776L168.162 95.9351L168.617 95.9823L169.072 95.8915L169.527 95.8315L169.982 95.6816L170.437 95.9096L170.891 95.7234L171.346 95.995L171.801 95.8926L172.256 95.4908L172.711 95.6295L173.166 94.9336L173.621 94.9352L174.076 95.3062L174.53 94.681L174.985 95.4234L175.44 95.4205L175.895 95.4228L176.35 95.4222L176.805 95.5873L177.26 95.4252L177.715 95.5522L178.169 95.3391L178.624 95.5575L179.079 95.4584L179.534 95.6094L179.989 95.4284L180.444 95.1748L180.899 95.1917L181.354 95.243L181.808 95.0691L182.263 95.5598L182.718 95.2232L183.173 94.7868L183.628 95.1966L184.083 95.4711L184.538 95.5377L184.993 95.3237L185.447 95.376L185.902 95.5853L186.357 95.2495L186.812 95.6812L187.267 95.9063L187.722 95.7443L188.177 95.4213L188.632 95.5688L189.086 95.2171L189.541 94.9276L189.996 95.3895L190.451 95.5539L190.906 95.4845L191.361 95.2001L191.816 95.1431L192.271 94.9391L192.725 95.3252L193.18 95.5138L193.635 95.7533L194.09 95.861L194.545 95.7867L195 95.7984L195.455 95.8278L195.91 95.9398L196.364 95.7354L196.819 95.9554L197.274 95.9714L197.729 95.7995L198.184 95.83L198.639 95.7543L199.094 95.6122L199.549 95.0188L200.003 93.4113L200.458 95.3832L200.913 95.5423L201.368 95.1922L201.823 95.3575L202.278 95.6977L202.733 95.4669L203.187 94.9612L203.642 95.0603L204.097 95.2453L204.552 95.1526L205.007 95.3019L205.462 95.5057L205.917 95.4864L206.372 95.6826L206.826 95.4342L207.281 95.2878L207.736 95.1936L208.191 95.2679L208.646 95.1281L209.101 95.0907L209.556 95.4053L210.011 95.4587L210.465 95.3628L210.92 95.5072L211.375 95.2501L211.83 94.8638L212.285 95.1909L212.74 94.9687L213.195 94.8186L213.65 94.81L214.104 94.6486L214.559 94.4741L215.014 94.2013L215.469 94.2785L215.924 94.7357L216.379 94.7433L216.834 94.4956L217.289 94.7445L217.743 94.9448L218.198 94.9708L218.653 95.1184L219.108 95.0825L219.563 95.2195L220.018 94.6006L220.473 94.7474L220.928 94.5381L221.382 94.736L221.837 94.886L222.292 94.673L222.747 94.7942L223.202 93.8746L223.657 94.8238L224.112 94.4745L224.567 94.5651L225.021 94.5778L225.476 94.5129L225.931 94.6346L226.386 94.2254L226.841 94.6742L227.296 94.0983L227.751 94.4094L228.206 94.1941L228.66 91.203L229.115 93.797L229.57 94.1345L230.025 93.5967L230.48 93.8855L230.935 93.7813L231.39 93.917L231.845 93.1922L232.299 93.6248L232.754 93.6019L233.209 93.4576L233.664 93.0539L234.119 92.7863L234.574 91.8881L235.029 92.5265L235.484 93.0506L235.938 93.3146L236.393 93.0154L236.848 92.8073L237.303 93.1648L237.758 93.693L238.213 93.7694L238.668 93.6409L239.123 93.3241L239.577 93.5184L240.032 93.9749L240.487 93.7615L240.942 93.9961L241.397 93.0185L241.852 93.7452L242.307 93.3636L242.762 93.9335L243.216 93.4611L243.671 93.9493L244.126 93.8932L244.581 94.0719L245.036 93.9246L245.491 93.738L245.946 93.6876L246.401 93.4427L246.855 93.9748L247.31 93.3308L247.765 94.1235L248.22 88.1377L248.675 92.6477L249.13 93.5906L249.585 93.9533L250.04 93.4363L250.494 93.4175L250.949 94.0675L251.404 93.2186L251.859 93.4626L252.314 93.9787L252.769 94.5104L253.224 94.0711L253.679 94.2177L254.133 94.2011L254.588 93.9532L255.043 93.8661L255.498 94.078L255.953 94.206L256.408 94.0039L256.863 93.2239L257.318 94.1208L257.772 94.2385L258.227 94.1394L258.682 94.1673L259.137 93.9945L259.592 94.3397L260.047 97.0001L260.502 94.1768L260.957 94.3307L261.411 93.7865" stroke="#BABABA" stroke-width="0.53" stroke-linecap="round" stroke-linejoin="round"/>
</g>
<mask id="mask5_705_1879" style="mask-type:luminance" maskUnits="userSpaceOnUse" x="0" y="0" width="264" height="97">
<path d="M264 0H0V97H264V0Z" fill="white"/>
</mask>
<g mask="url(#mask5_705_1879)">
<path d="M2.58789 96.2757L3.04277 96.2443L3.49764 96.3156L3.95251 96.2194L4.40739 96.0332L4.86226 96.2711L5.31714 96.2916L5.77201 96.3381L6.22689 96.3307L6.68176 96.2026L7.13663 96.0845L7.59151 96.1624L8.04638 96.1434L8.50126 96.2652L8.95613 96.3361L9.41101 96.3135L9.86588 96.2076L10.3208 96.2824L10.7756 96.313L11.2305 96.3124L11.6854 96.2577L12.1403 96.2598L12.5951 96.4114L13.05 96.3618L13.5049 96.519L13.9598 96.4402L14.4146 96.4748L14.8695 96.4785L15.3244 96.5085L15.7792 96.5617L16.2341 96.5343L16.689 96.5676L17.1439 96.5114L17.5987 96.6187L18.0536 96.4489L18.5085 96.571L18.9634 96.5378L19.4182 96.4342L19.8731 96.478L20.328 96.5754L20.7829 96.5108L21.2377 96.5952L21.6926 96.6843L22.1475 96.6794L22.6024 96.6418L23.0572 96.4938L23.5121 96.6392L23.967 96.6093L24.4219 96.6319L24.8767 96.7301L25.3316 96.6399L25.7865 96.5827L26.2414 96.6326L26.6962 96.5731L27.1511 96.4848L27.606 96.6443L28.0609 96.7066L28.5157 96.6793L28.9706 96.6233L29.4255 96.6571L29.8804 96.6345L30.3352 96.6916L30.7901 96.7001L31.245 96.7414L31.6999 96.742L32.1547 96.6507L32.6096 96.7352L33.0645 96.6574L33.5193 96.6965L33.9742 96.7128L34.4291 96.7848L34.884 96.7534L35.3388 96.7301L35.7937 96.6584L36.2486 96.7015L36.7035 96.7409L37.1583 96.7497L37.6132 96.7334L38.0681 96.5318L38.523 96.6683L38.9778 96.6644L39.4327 96.744L39.8876 96.7285L40.3425 96.6986L40.7973 96.7713L41.2522 96.7265L41.7071 96.6252L42.162 96.6524L42.6168 96.7111L43.0717 96.6363L43.5266 96.6532L43.9815 96.4678L44.4363 96.6876L44.8912 96.6093L45.3461 96.6169L45.801 96.6142L46.2558 96.6758L46.7107 96.6936L47.1656 96.7694L47.6205 96.7399L48.0753 96.6642L48.5302 96.7073L48.9851 96.7395L49.44 96.7307L49.8948 96.7618L50.3497 96.7383L50.8046 96.7604L51.2595 96.6858L51.7143 96.7511L52.1692 96.7411L52.6241 96.7493L53.0789 96.7666L53.5338 96.8055L53.9887 96.7538L54.4436 96.6777L54.8984 96.7044L55.3533 96.7305L55.8082 96.6614L56.2631 96.6793L56.7179 96.6955L57.1728 96.7015L57.6277 96.7368L58.0826 96.8014L58.5374 96.6982L58.9923 96.6855L59.4472 96.7604L59.9021 96.7713L60.3569 96.722L60.8118 96.59L61.2667 96.4643L61.7216 96.2701L62.1764 96.3596L62.6313 96.5482L63.0862 96.6958L63.5411 96.6641L63.9959 96.5697L64.4508 96.6916L64.9057 96.707L65.3606 96.6945L65.8154 96.6723L66.2703 96.7183L66.7252 96.6472L67.1801 96.6782L67.6349 96.6969L68.0898 96.7248L68.5447 96.6594L68.9996 96.6898L69.4544 96.7653L69.9093 96.7576L70.3642 96.7218L70.8191 96.6834L71.2739 96.6846L71.7288 96.7698L72.1837 96.772L72.6386 96.7918L73.0934 96.7758L73.5483 96.7302L74.0032 96.7195L74.4581 96.7452L74.9129 96.7884L75.3678 96.7309L75.8227 96.7015L76.2775 96.6395L76.7324 96.4277L77.1873 96.5657L77.6422 96.5108L78.097 96.6285L78.5519 96.6003L79.0068 96.5789L79.4617 96.6768L79.9165 96.6927L80.3714 96.6806L80.8263 96.7268L81.2812 96.7401L81.736 96.6734L82.1909 96.7105L82.6458 96.7681L83.1007 96.7649L83.5555 96.7433L84.0104 96.7864L84.4653 96.6586L84.9202 96.3344L85.375 96.6499L85.8299 96.749L86.2848 96.663L86.7397 96.6991L87.1945 96.724L87.6494 96.7725L88.1043 96.742L88.5591 96.7796L89.014 96.7858L89.4689 96.7816L89.9238 96.7636L90.3786 96.6708L90.8335 96.7695L91.2884 96.7417L91.7433 96.7172L92.1981 96.7823L92.653 96.7007L93.1079 96.6431L93.5628 96.7227L94.0176 96.6457L94.4725 96.5846L94.9274 96.728L95.3823 96.7404L95.8371 96.7379L96.292 96.7208L96.7469 96.7279L97.2018 96.7139L97.6566 96.7501L98.1115 96.6857L98.5664 96.7504L99.0213 96.7146L99.4761 96.6018L99.931 96.7541L100.386 96.786L100.841 96.7488L101.296 96.6084L101.751 96.615L102.205 96.7233L102.66 96.7412L103.115 96.7559L103.57 96.7635L104.025 96.8172L104.48 96.842L104.935 96.8193L105.39 96.789L105.844 96.8174L106.299 96.7946L106.754 96.7915L107.209 96.7592L107.664 96.8258L108.119 96.7452L108.574 96.8113L109.028 96.8108L109.483 96.8324L109.938 96.8362L110.393 96.7937L110.848 96.8277L111.303 96.8269L111.758 96.8294L112.213 96.8321L112.667 96.8301L113.122 96.8384L113.577 96.747L114.032 96.8462L114.487 96.8337L114.942 96.8272L115.397 96.7724L115.852 96.8038L116.306 96.8325L116.761 96.8011L117.216 96.8097L117.671 96.8184L118.126 96.7992L118.581 96.8039L119.036 96.8658L119.491 96.8133L119.945 96.8018L120.4 96.822L120.855 96.7989L121.31 96.7559L121.765 96.7862L122.22 96.7732L122.675 96.8237L123.13 96.8109L123.584 96.8764L124.039 96.8679L124.494 96.8625L124.949 96.8245L125.404 96.8469L125.859 96.7691L126.314 96.8249L126.769 96.8882L127.223 96.7892L127.678 96.8278L128.133 96.6047L128.588 96.8031L129.043 96.8486L129.498 96.8403L129.953 96.8541L130.408 96.8531L130.862 96.7691L131.317 96.8503L131.772 96.8634L132.227 96.7312L132.682 96.7792L133.137 96.7597L133.592 96.8093L134.047 96.8097L134.501 96.7923L134.956 96.8255L135.411 96.8277L135.866 96.8296L136.321 96.7994L136.776 96.8514L137.231 96.8585L137.686 96.8099L138.14 96.8067L138.595 96.8186L139.05 96.8342L139.505 96.8232L139.96 96.8219L140.415 96.8161L140.87 96.8242L141.325 96.8047L141.779 96.8L142.234 96.7834L142.689 96.7731L143.144 96.8234L143.599 96.7749L144.054 96.6004L144.509 96.5592L144.964 96.5963L145.418 96.7402L145.873 96.8294L146.328 96.8155L146.783 96.7452L147.238 96.7669L147.693 96.8462L148.148 96.8484L148.603 96.8702L149.057 96.8114L149.512 96.7873L149.967 96.7664L150.422 96.7975L150.877 96.8317L151.332 96.8556L151.787 96.8906L152.242 96.8701L152.696 96.8617L153.151 96.8358L153.606 96.8516L154.061 96.8274L154.516 96.7657L154.971 96.8241L155.426 96.8874L155.881 96.8716L156.335 96.7987L156.79 96.8863L157.245 96.8817L157.7 96.8951L158.155 96.8983L158.61 96.8938L159.065 96.9009L159.52 96.8963L159.974 96.8524L160.429 96.8931L160.884 96.9074L161.339 96.8394L161.794 96.8551L162.249 96.9129L162.704 96.8841L163.159 96.888L163.613 96.908L164.068 96.8978L164.523 96.9229L164.978 96.8892L165.433 96.595L165.888 96.7926L166.343 96.8671L166.798 96.8645L167.252 96.8773L167.707 96.8813L168.162 96.8971L168.617 96.8569L169.072 96.8984L169.527 96.906L169.982 96.8613L170.437 96.9076L170.891 96.9125L171.346 96.9054L171.801 96.9091L172.256 96.8223L172.711 96.8533L173.166 96.8596L173.621 96.8421L174.076 96.8454L174.53 96.7699L174.985 96.8494L175.44 96.8666L175.895 96.8314L176.35 96.7434L176.805 96.8948L177.26 96.8478L177.715 96.8273L178.169 96.8628L178.624 96.8579L179.079 96.8168L179.534 96.8511L179.989 96.8556L180.444 96.7772L180.899 96.8842L181.354 96.8453L181.808 96.8347L182.263 96.9009L182.718 96.8478L183.173 96.8389L183.628 96.8856L184.083 96.8818L184.538 96.8193L184.993 96.878L185.447 96.8054L185.902 96.7957L186.357 96.6445L186.812 96.8669L187.267 96.9234L187.722 96.9051L188.177 96.8496L188.632 96.8896L189.086 96.8433L189.541 96.8163L189.996 96.6655L190.451 96.4592L190.906 96.8278L191.361 96.8153L191.816 96.8181L192.271 96.8317L192.725 96.7921L193.18 96.8637L193.635 96.8402L194.09 96.8834L194.545 96.8677L195 96.8696L195.455 96.8892L195.91 96.882L196.364 96.8656L196.819 96.9173L197.274 96.9131L197.729 96.8931L198.184 96.8737L198.639 96.8745L199.094 96.8609L199.549 96.8188L200.003 96.591L200.458 96.8575L200.913 96.8406L201.368 96.8278L201.823 96.8399L202.278 96.8211L202.733 96.8589L203.187 96.8205L203.642 96.9118L204.097 96.8883L204.552 96.9234L205.007 96.9115L205.462 96.9249L205.917 96.9313L206.372 96.9542L206.826 96.9368L207.281 96.9307L207.736 96.9367L208.191 96.9326L208.646 96.9148L209.101 96.9226L209.556 96.9479L210.011 96.9565L210.465 96.9496L210.92 96.9441L211.375 96.9391L211.83 96.9318L212.285 96.9523L212.74 96.9486L213.195 96.9423L213.65 96.9441L214.104 96.9357L214.559 96.9371L215.014 96.9207L215.469 96.9124L215.924 96.8761L216.379 96.9203L216.834 96.9388L217.289 96.9163L217.743 96.919L218.198 96.9331L218.653 96.9322L219.108 96.9464L219.563 96.9467L220.018 96.9333L220.473 96.9381L220.928 96.8935L221.382 96.9396L221.837 96.9591L222.292 96.9619L222.747 96.9523L223.202 96.94L223.657 96.9636L224.112 96.9427L224.567 95.127L225.021 96.9613L225.476 96.9422L225.931 96.9629L226.386 96.9153L226.841 96.8877L227.296 96.9376L227.751 96.945L228.206 96.9274L228.66 96.972L229.115 96.9597L229.57 96.9561L230.025 96.9575L230.48 96.9599L230.935 96.9636L231.39 96.9647L231.845 96.9636L232.299 96.962L232.754 96.9587L233.209 96.9616L233.664 96.9326L234.119 96.9503L234.574 96.961L235.029 96.9761L235.484 96.9589L235.938 96.9593L236.393 90.8123L236.848 96.949L237.303 96.9547L237.758 96.9583L238.213 96.9654L238.668 96.9467L239.123 96.9184L239.577 96.9449L240.032 96.9145L240.487 96.9415L240.942 96.8911L241.397 96.7967L241.852 96.8266L242.307 96.7332L242.762 96.6869L243.216 96.7198L243.671 96.5826L244.126 96.6679L244.581 96.6646L245.036 96.6047L245.491 96.6591L245.946 96.6755L246.401 96.6644L246.855 96.5796L247.31 96.7282L247.765 96.7407L248.22 96.7957L248.675 96.7924L249.13 96.7647L249.585 96.73L250.04 96.677L250.494 96.6916L250.949 96.721L251.404 96.7734L251.859 96.7267L252.314 96.7366L252.769 96.7032L253.224 96.565L253.679 96.0597L254.133 96.804L254.588 96.7363L255.043 96.7355L255.498 96.5768L255.953 96.7057L256.408 96.7464L256.863 96.6893L257.318 96.8473L257.772 96.8249L258.227 96.7522L258.682 96.7931L259.137 96.785L259.592 96.8103L260.047 96.827L260.502 96.8201L260.957 96.8612L261.411 96.6427" stroke="#808080" stroke-width="0.53" stroke-linecap="round" stroke-linejoin="round"/>
</g>
<mask id="mask6_705_1879" style="mask-type:luminance" maskUnits="userSpaceOnUse" x="0" y="0" width="264" height="97">
<path d="M264 0H0V97H264V0Z" fill="white"/>
</mask>
<g mask="url(#mask6_705_1879)">
<path d="M2.58789 97.0001H3.04277H3.49764H3.95251H4.40739H4.86226H5.31714H5.77201H6.22689H6.68176L7.13663 96.9821L7.59151 96.7455L8.04638 95.6211L8.50126 95.285L8.95613 95.3891L9.41101 95.9768L9.86588 96.2617L10.3208 95.6984L10.7756 95.7217L11.2305 95.5137L11.6854 96.0421L12.1403 96.1967L12.5951 96.2532L13.05 96.2619L13.5049 96.3439L13.9598 96.2735L14.4146 96.3405L14.8695 96.4139L15.3244 96.566L15.7792 96.6148L16.2341 96.5682L16.689 96.6385L17.1439 96.6597L17.5987 96.6561L18.0536 96.5297L18.5085 96.6343L18.9634 96.6194L19.4182 96.5908L19.8731 96.6047L20.328 96.6684L20.7829 96.6114L21.2377 96.5471L21.6926 96.6339L22.1475 96.6649L22.6024 96.6585L23.0572 96.5853L23.5121 96.6043L23.967 96.6255L24.4219 96.5381L24.8767 96.5947L25.3316 96.1901L25.7865 96.2815L26.2414 96.5237L26.6962 96.5075L27.1511 96.4183L27.606 96.5567L28.0609 96.4492L28.5157 96.4864L28.9706 96.5326L29.4255 96.5702L29.8804 96.4962L30.3352 96.3809L30.7901 96.4249L31.245 96.5811L31.6999 96.5925L32.1547 96.536L32.6096 96.6282L33.0645 96.5593L33.5193 96.458L33.9742 96.5924L34.4291 96.6582L34.884 96.6631L35.3388 96.6229L35.7937 96.6126L36.2486 96.5855L36.7035 96.6289L37.1583 96.6235L37.6132 96.4741L38.0681 96.3999L38.523 96.5152L38.9778 96.6016L39.4327 96.6343L39.8876 96.5496L40.3425 96.6001L40.7973 96.673L41.2522 96.6219L41.7071 96.4125L42.162 96.4468L42.6168 96.5261L43.0717 96.5655L43.5266 96.5404L43.9815 95.56L44.4363 95.9915L44.8912 95.9928L45.3461 96.2783L45.801 96.279L46.2558 96.4196L46.7107 96.4283L47.1656 96.59L47.6205 96.3654L48.0753 96.4715L48.5302 96.4975L48.9851 96.4858L49.44 96.5696L49.8948 96.562L50.3497 96.5468L50.8046 96.57L51.2595 96.4991L51.7143 96.5507L52.1692 96.5478L52.6241 96.5525L53.0789 96.6291L53.5338 96.6733L53.9887 96.6519L54.4436 96.5427L54.8984 96.5701L55.3533 96.6296L55.8082 96.5856L56.2631 96.6067L56.7179 96.6086L57.1728 96.6143L57.6277 96.6367L58.0826 96.7322L58.5374 96.614L58.9923 96.5621L59.4472 96.6389L59.9021 96.7181L60.3569 96.6843L60.8118 96.4351L61.2667 96.3458L61.7216 95.9008L62.1764 95.9367L62.6313 96.218L63.0862 96.5091L63.5411 96.4732L63.9959 96.5094L64.4508 96.5992L64.9057 96.6046L65.3606 96.5914L65.8154 96.6204L66.2703 96.7232L66.7252 96.6911L67.1801 96.6412L67.6349 96.4588L68.0898 96.5357L68.5447 96.6199L68.9996 96.6698L69.4544 96.7723L69.9093 96.7956L70.3642 96.6142L70.8191 96.5824L71.2739 96.5907L71.7288 96.621L72.1837 96.5795L72.6386 96.6693L73.0934 96.6349L73.5483 96.6096L74.0032 96.6447L74.4581 96.6754L74.9129 96.7172L75.3678 96.6592L75.8227 96.6809L76.2775 96.6454L76.7324 96.3244L77.1873 96.497L77.6422 96.5069L78.097 96.5774L78.5519 96.5852L79.0068 96.588L79.4617 96.6733L79.9165 96.6891L80.3714 96.6815L80.8263 96.722L81.2812 96.6202L81.736 96.5898L82.1909 96.6751L82.6458 96.6023L83.1007 96.7452L83.5555 96.7494L84.0104 96.7697L84.4653 96.7362L84.9202 96.6732L85.375 96.7228L85.8299 96.7862L86.2848 96.7678L86.7397 96.716L87.1945 96.7595L87.6494 96.7593L88.1043 96.7816L88.5591 96.8359L89.014 96.8207L89.4689 96.8037L89.9238 96.8038L90.3786 96.7627L90.8335 96.7787L91.2884 96.7919L91.7433 96.7624L92.1981 96.7785L92.653 96.6685L93.1079 96.5981L93.5628 96.6844L94.0176 96.7547L94.4725 96.7518L94.9274 96.7806L95.3823 96.783L95.8371 96.7554L96.292 96.8004L96.7469 96.7574L97.2018 96.7139L97.6566 96.4831L98.1115 96.2907L98.5664 96.5127L99.0213 96.4753L99.4761 95.6278L99.931 96.5351L100.386 96.6353L100.841 96.6714L101.296 96.6713L101.751 96.7489L102.205 96.771L102.66 96.7988L103.115 96.742L103.57 96.7555L104.025 96.798L104.48 96.7948L104.935 96.4522L105.39 96.6772L105.844 96.7566L106.299 96.7332L106.754 96.7038L107.209 96.6846L107.664 96.7688L108.119 96.7841L108.574 96.774L109.028 96.7553L109.483 96.7519L109.938 96.81L110.393 96.7634L110.848 96.8218L111.303 96.8278L111.758 96.8307L112.213 96.7965L112.667 96.8188L113.122 96.7587L113.577 96.7779L114.032 96.8674L114.487 96.8224L114.942 96.7816L115.397 96.7646L115.852 96.8319L116.306 96.8266L116.761 96.6254L117.216 96.6779L117.671 96.7139L118.126 96.6893L118.581 96.7405L119.036 96.7703L119.491 96.7608L119.945 96.7961L120.4 96.7569L120.855 96.7216L121.31 96.7317L121.765 96.7427L122.22 96.5785L122.675 96.6982L123.13 96.7432L123.584 96.786L124.039 96.8068L124.494 96.7924L124.949 96.7631L125.404 96.7945L125.859 96.7629L126.314 96.7853L126.769 96.8145L127.223 96.7211L127.678 96.7701L128.133 96.8216L128.588 96.8377L129.043 96.7729L129.498 96.758L129.953 96.8002L130.408 96.847L130.862 96.7806L131.317 96.7843L131.772 96.8127L132.227 96.7327L132.682 96.8085L133.137 96.8031L133.592 96.6964L134.047 96.7899L134.501 96.7774L134.956 96.2289L135.411 96.315L135.866 96.4908L136.321 96.6944L136.776 96.7535L137.231 96.6968L137.686 96.7191L138.14 96.727L138.595 96.7502L139.05 96.7339L139.505 96.7279L139.96 96.6544L140.415 96.7003L140.87 96.6847L141.325 96.7461L141.779 96.5921L142.234 96.7099L142.689 96.7637L143.144 96.7703L143.599 96.737L144.054 96.4656L144.509 96.4854L144.964 96.5733L145.418 96.6756L145.873 96.756L146.328 96.7423L146.783 96.7148L147.238 96.7488L147.693 96.7648L148.148 96.7792L148.603 96.7712L149.057 96.8325L149.512 96.7761L149.967 96.7311L150.422 96.6779L150.877 96.7593L151.332 96.7889L151.787 96.825L152.242 96.7647L152.696 96.8191L153.151 96.7752L153.606 96.7575L154.061 96.7295L154.516 96.8011L154.971 96.7069L155.426 96.6946L155.881 96.7899L156.335 96.7753L156.79 96.7117L157.245 96.7783L157.7 96.7916L158.155 96.7212L158.61 96.7747L159.065 96.834L159.52 96.779L159.974 96.7509L160.429 96.8345L160.884 96.827L161.339 96.739L161.794 96.8191L162.249 96.8335L162.704 96.835L163.159 96.8288L163.613 96.824L164.068 96.847L164.523 96.8103L164.978 96.8682L165.433 96.7816L165.888 96.7175L166.343 96.8114L166.798 96.8326L167.252 96.842L167.707 96.8486L168.162 96.7736L168.617 96.6583L169.072 96.6328L169.527 96.8084L169.982 96.8281L170.437 96.8506L170.891 96.8129L171.346 96.8446L171.801 96.8039L172.256 96.7273L172.711 96.8204L173.166 96.8266L173.621 96.7618L174.076 96.8076L174.53 96.6363L174.985 96.723L175.44 96.7802L175.895 96.7727L176.35 96.7532L176.805 96.8432L177.26 96.8214L177.715 96.7673L178.169 96.6286L178.624 96.7209L179.079 96.7845L179.534 96.7738L179.989 96.7626L180.444 96.7873L180.899 96.7314L181.354 96.8234L181.808 96.8004L182.263 96.8486L182.718 96.7602L183.173 96.7846L183.628 96.7759L184.083 96.7896L184.538 96.7686L184.993 96.8223L185.447 96.804L185.902 96.6706L186.357 96.5873L186.812 96.7897L187.267 96.8666L187.722 96.8114L188.177 96.7017L188.632 96.7817L189.086 96.7804L189.541 96.7296L189.996 96.7256L190.451 96.7206L190.906 96.6945L191.361 96.7086L191.816 96.7161L192.271 96.7154L192.725 96.7821L193.18 96.7912L193.635 96.6846L194.09 96.7292L194.545 96.7998L195 96.8212L195.455 96.8084L195.91 96.7603L196.364 96.7922L196.819 96.8308L197.274 96.7642L197.729 96.8168L198.184 96.819L198.639 96.828L199.094 96.7444L199.549 96.736L200.003 96.4715L200.458 96.7887L200.913 96.724L201.368 96.7001L201.823 96.7797L202.278 96.7844L202.733 96.4093L203.187 96.4966L203.642 96.4095L204.097 96.4629L204.552 96.578L205.007 96.5674L205.462 96.1615L205.917 96.3623L206.372 96.3315L206.826 96.1869L207.281 95.755L207.736 96.4968L208.191 96.6989L208.646 96.5232L209.101 96.4038L209.556 96.6781L210.011 96.6634L210.465 96.6194L210.92 96.6371L211.375 96.7614L211.83 96.1156L212.285 95.8636L212.74 96.144L213.195 96.615L213.65 96.6326L214.104 96.5271L214.559 96.6715L215.014 96.4783L215.469 96.1594L215.924 96.5207L216.379 96.3394L216.834 96.4486L217.289 96.4443L217.743 96.3553L218.198 96.4135L218.653 96.3679L219.108 96.2667L219.563 96.2332L220.018 96.4501L220.473 96.6807L220.928 96.044L221.382 96.5698L221.837 96.6474L222.292 96.3943L222.747 96.4012L223.202 95.7404L223.657 95.9817L224.112 96.2617L224.567 96.2516L225.021 95.9051L225.476 96.3158L225.931 95.4434L226.386 95.4516L226.841 96.3062L227.296 95.1714L227.751 95.9757L228.206 96.1309L228.66 96.1022L229.115 96.0277L229.57 95.9958L230.025 95.8225L230.48 95.2473L230.935 95.9082L231.39 95.9132L231.845 95.8772L232.299 96.2445L232.754 96.3553L233.209 95.8013L233.664 95.8681L234.119 95.6829L234.574 95.7415L235.029 96.0223L235.484 95.4305L235.938 95.4447L236.393 96.0922L236.848 95.8465L237.303 95.7349L237.758 95.8396L238.213 95.9817L238.668 96.2115L239.123 96.2153L239.577 96.3143L240.032 95.2549L240.487 95.9398L240.942 96.4186L241.397 96.0659L241.852 96.1487L242.307 96.1798L242.762 95.8974L243.216 96.4444L243.671 96.4157L244.126 96.1172L244.581 95.6529L245.036 96.1139L245.491 95.8671L245.946 96.5379L246.401 96.3989L246.855 96.0099L247.31 96.5656L247.765 96.4966L248.22 96.1605L248.675 96.5103L249.13 96.5021L249.585 96.1132L250.04 95.5684L250.494 96.0975L250.949 96.2808L251.404 95.8208L251.859 95.7687L252.314 96.5561L252.769 96.4369L253.224 96.6148L253.679 96.5875L254.133 96.564L254.588 96.595L255.043 96.1496L255.498 96.3034L255.953 96.4267L256.408 96.364L256.863 95.6339L257.318 96L257.772 96.4152L258.227 95.4917L258.682 95.8196L259.137 96.5734L259.592 96.6196L260.047 96.6109L260.502 96.5547L260.957 96.5397L261.411 96.5315" stroke="#A3A3A3" stroke-width="0.53" stroke-linecap="round" stroke-linejoin="round"/>
</g>
<mask id="mask7_705_1879" style="mask-type:luminance" maskUnits="userSpaceOnUse" x="0" y="0" width="264" height="97">
<path d="M264 0H0V97H264V0Z" fill="white"/>
</mask>
<g mask="url(#mask7_705_1879)">
<path d="M2.58789 95.433L3.04277 95.1649L3.49764 95.1985L3.95251 94.9677L4.40739 95.1668L4.86226 95.4878L5.31714 95.5262L5.77201 95.5765L6.22689 95.4605L6.68176 95.2791L7.13663 95.4477L7.59151 95.4324L8.04638 95.1552L8.50126 95.2896L8.95613 95.222L9.41101 95.2635L9.86588 95.2503L10.3208 94.7122L10.7756 94.0343L11.2305 94.7985L11.6854 95.2107L12.1403 94.8604L12.5951 94.9303L13.05 94.9134L13.5049 95.1965L13.9598 94.7383L14.4146 95.0157L14.8695 94.9738L15.3244 94.7541L15.7792 94.748L16.2341 94.7352L16.689 94.9055L17.1439 94.9183L17.5987 95.2221L18.0536 94.9645L18.5085 94.7686L18.9634 94.8206L19.4182 94.5532L19.8731 94.6525L20.328 94.8016L20.7829 94.6741L21.2377 94.4608L21.6926 93.4279L22.1475 93.837L22.6024 93.6306L23.0572 93.5277L23.5121 93.2873L23.967 93.8243L24.4219 93.9041L24.8767 93.5471L25.3316 93.9664L25.7865 93.4804L26.2414 94.2232L26.6962 94.4237L27.1511 94.521L27.606 94.609L28.0609 94.582L28.5157 94.2042L28.9706 94.162L29.4255 94.1374L29.8804 93.9863L30.3352 93.8238L30.7901 94.0545L31.245 94.2431L31.6999 94.1359L32.1547 94.2601L32.6096 94.622L33.0645 93.897L33.5193 93.3137L33.9742 93.6027L34.4291 93.955L34.884 93.8087L35.3388 93.3567L35.7937 93.9394L36.2486 93.8808L36.7035 93.8132L37.1583 93.5265L37.6132 93.979L38.0681 92.9309L38.523 93.6167L38.9778 93.9255L39.4327 94.0297L39.8876 93.9729L40.3425 93.0403L40.7973 92.6377L41.2522 92.9906L41.7071 91.848L42.162 92.4264L42.6168 92.3396L43.0717 92.8254L43.5266 92.568L43.9815 91.049L44.4363 90.4922L44.8912 90.6639L45.3461 92.1265L45.801 91.5833L46.2558 91.6455L46.7107 90.7698L47.1656 91.4473L47.6205 91.6052L48.0753 91.7034L48.5302 91.9335L48.9851 92.0806L49.44 92.2068L49.8948 91.9807L50.3497 92.7446L50.8046 92.7833L51.2595 92.9581L51.7143 92.8164L52.1692 92.6058L52.6241 92.7205L53.0789 92.2072L53.5338 92.5821L53.9887 93.2152L54.4436 93.429L54.8984 93.4788L55.3533 93.4835L55.8082 93.0134L56.2631 92.4732L56.7179 93.8582L57.1728 93.2195L57.6277 92.9905L58.0826 93.4986L58.5374 93.7964L58.9923 93.8024L59.4472 94.1578L59.9021 94.3505L60.3569 92.7271L60.8118 93.437L61.2667 93.6533L61.7216 93.7918L62.1764 93.901L62.6313 94.2946L63.0862 94.8322L63.5411 94.848L63.9959 94.9528L64.4508 95.0021L64.9057 95.0413L65.3606 95.0467L65.8154 94.8655L66.2703 94.9631L66.7252 94.8871L67.1801 94.7372L67.6349 94.7392L68.0898 94.2507L68.5447 93.9315L68.9996 94.4786L69.4544 95.058L69.9093 95.1294L70.3642 94.999L70.8191 95.1112L71.2739 94.8944L71.7288 95.2927L72.1837 95.2825L72.6386 95.227L73.0934 95.192L73.5483 95.1802L74.0032 95.2115L74.4581 94.8929L74.9129 95.1692L75.3678 95.2226L75.8227 95.111L76.2775 95.2345L76.7324 94.5465L77.1873 95.0801L77.6422 94.9921L78.097 95.163L78.5519 95.3407L79.0068 95.2957L79.4617 95.4506L79.9165 95.4753L80.3714 95.5553L80.8263 95.5032L81.2812 95.1944L81.736 94.9717L82.1909 95.2851L82.6458 95.4886L83.1007 95.4826L83.5555 95.4326L84.0104 95.5469L84.4653 95.4921L84.9202 95.459L85.375 95.5768L85.8299 95.5352L86.2848 95.4908L86.7397 95.7225L87.1945 95.7237L87.6494 95.5939L88.1043 95.7061L88.5591 95.8195L89.014 95.7946L89.4689 95.8448L89.9238 95.8027L90.3786 95.7719L90.8335 95.7654L91.2884 95.7671L91.7433 95.8329L92.1981 95.8831L92.653 95.523L93.1079 95.5441L93.5628 95.6982L94.0176 95.8361L94.4725 95.8343L94.9274 95.837L95.3823 95.9187L95.8371 95.8474L96.292 95.8365L96.7469 95.8735L97.2018 95.7392L97.6566 95.7931L98.1115 95.8582L98.5664 95.7791L99.0213 95.5946L99.4761 95.2447L99.931 95.0446L100.386 95.7196L100.841 95.7157L101.296 95.6074L101.751 95.6185L102.205 95.5456L102.66 95.6077L103.115 95.5189L103.57 95.6102L104.025 95.779L104.48 95.748L104.935 95.803L105.39 95.6111L105.844 95.8189L106.299 95.8745L106.754 96.0309L107.209 95.7886L107.664 96.0863L108.119 96.0821L108.574 95.9024L109.028 95.7956L109.483 95.8777L109.938 95.9629L110.393 95.8958L110.848 96.1379L111.303 96.1695L111.758 96.0666L112.213 96.006L112.667 95.7179L113.122 95.5212L113.577 95.9321L114.032 96.0226L114.487 95.9703L114.942 96.0018L115.397 95.8794L115.852 96.0149L116.306 95.9202L116.761 95.9411L117.216 96.0437L117.671 96.0744L118.126 96.0592L118.581 95.9766L119.036 96.1509L119.491 95.9492L119.945 96.1398L120.4 96.1234L120.855 96.1121L121.31 96.0434L121.765 96.1669L122.22 94.2882L122.675 95.9801L123.13 95.645L123.584 96.0216L124.039 96.117L124.494 95.9688L124.949 96.0295L125.404 96.1907L125.859 96.1982L126.314 96.0268L126.769 96.0344L127.223 96.1224L127.678 96.1112L128.133 96.1919L128.588 93.4841L129.043 96.2074L129.498 96.1949L129.953 96.2133L130.408 96.1361L130.862 96.2036L131.317 96.1661L131.772 96.267L132.227 96.1464L132.682 96.2397L133.137 96.2912L133.592 96.2467L134.047 96.0842L134.501 96.224L134.956 96.2873L135.411 96.2476L135.866 96.2131L136.321 96.2195L136.776 96.2242L137.231 96.2346L137.686 96.1934L138.14 96.1187L138.595 96.1938L139.05 96.1583L139.505 96.0164L139.96 96.1057L140.415 96.1097L140.87 96.1797L141.325 96.1271L141.779 96.1665L142.234 96.007L142.689 96.024L143.144 96.0304L143.599 96.0754L144.054 95.6356L144.509 95.566L144.964 95.89L145.418 96.0333L145.873 96.1016L146.328 94.9941L146.783 95.5732L147.238 96.0657L147.693 96.261L148.148 96.1842L148.603 96.3325L149.057 96.3501L149.512 96.3073L149.967 96.3589L150.422 96.343L150.877 96.3201L151.332 96.3459L151.787 96.3756L152.242 96.4157L152.696 96.4038L153.151 96.3959L153.606 96.463L154.061 96.3398L154.516 96.3055L154.971 96.3742L155.426 96.3659L155.881 96.4171L156.335 96.1639L156.79 96.3749L157.245 96.4009L157.7 96.2559L158.155 96.3791L158.61 96.427L159.065 96.3765L159.52 96.421L159.974 96.4189L160.429 96.3993L160.884 96.4178L161.339 96.3117L161.794 96.4135L162.249 96.4822L162.704 96.4696L163.159 96.4019L163.613 96.4408L164.068 96.407L164.523 96.4194L164.978 96.4524L165.433 96.4948L165.888 96.3974L166.343 96.4683L166.798 96.3886L167.252 96.3723L167.707 96.3896L168.162 96.4193L168.617 96.426L169.072 96.4053L169.527 96.4075L169.982 96.3124L170.437 96.2757L170.891 96.3743L171.346 96.399L171.801 96.4055L172.256 96.3174L172.711 96.4119L173.166 96.3583L173.621 96.3184L174.076 96.2437L174.53 95.9817L174.985 96.2442L175.44 95.9313L175.895 95.9624L176.35 95.9551L176.805 96.2636L177.26 96.1979L177.715 96.2003L178.169 96.2122L178.624 96.3255L179.079 96.2893L179.534 96.3517L179.989 96.3413L180.444 96.3341L180.899 96.3434L181.354 96.312L181.808 96.3073L182.263 96.4005L182.718 96.2797L183.173 96.2287L183.628 96.3359L184.083 96.2393L184.538 96.3077L184.993 96.2937L185.447 96.3058L185.902 96.2031L186.357 96.2806L186.812 96.3728L187.267 96.4054L187.722 96.3348L188.177 96.3789L188.632 96.3933L189.086 96.2319L189.541 96.205L189.996 96.2454L190.451 96.3203L190.906 96.32L191.361 96.3229L191.816 96.2265L192.271 96.3914L192.725 96.4247L193.18 96.4035L193.635 96.4404L194.09 96.402L194.545 96.4243L195 96.3577L195.455 96.4125L195.91 96.4073L196.364 96.3396L196.819 96.4091L197.274 96.383L197.729 96.4184L198.184 96.4419L198.639 96.4236L199.094 96.3632L199.549 96.2139L200.003 95.6505L200.458 96.2498L200.913 96.1714L201.368 96.0071L201.823 96.1727L202.278 96.3826L202.733 95.9695L203.187 96.2217L203.642 96.2383L204.097 96.2382L204.552 96.2981L205.007 96.3154L205.462 96.3358L205.917 96.3681L206.372 96.3768L206.826 96.4102L207.281 96.3716L207.736 96.4132L208.191 96.3075L208.646 96.3912L209.101 96.3556L209.556 96.3476L210.011 96.3508L210.465 96.3128L210.92 96.388L211.375 96.3922L211.83 96.4713L212.285 96.4382L212.74 96.4875L213.195 96.4192L213.65 96.4204L214.104 96.382L214.559 96.4286L215.014 96.3982L215.469 96.3571L215.924 96.4261L216.379 96.3361L216.834 96.4202L217.289 96.3759L217.743 96.3948L218.198 96.4484L218.653 96.4588L219.108 96.5128L219.563 96.487L220.018 96.4922L220.473 96.4492L220.928 96.2459L221.382 96.3525L221.837 96.2732L222.292 96.4278L222.747 96.3826L223.202 96.4268L223.657 96.4087L224.112 96.4998L224.567 96.4764L225.021 96.4382L225.476 96.4761L225.931 96.4909L226.386 96.4354L226.841 96.5425L227.296 96.5163L227.751 96.5031L228.206 96.4819L228.66 96.5384L229.115 96.4718L229.57 96.5192L230.025 96.5075L230.48 96.517L230.935 96.489L231.39 96.5284L231.845 96.5709L232.299 96.5663L232.754 96.5534L233.209 96.5714L233.664 96.5634L234.119 96.6007L234.574 96.5868L235.029 96.6081L235.484 96.5526L235.938 96.5634L236.393 96.5425L236.848 96.5328L237.303 96.525L237.758 96.5751L238.213 96.5802L238.668 96.5134L239.123 96.485L239.577 96.5537L240.032 96.5467L240.487 96.4614L240.942 96.5206L241.397 96.2367L241.852 96.5373L242.307 96.5511L242.762 96.5724L243.216 96.577L243.671 96.5115L244.126 96.5211L244.581 96.4917L245.036 96.5363L245.491 96.5556L245.946 96.542L246.401 96.4659L246.855 96.4768L247.31 96.439L247.765 96.4931L248.22 96.4997L248.675 96.5302L249.13 96.5694L249.585 96.5489L250.04 96.5573L250.494 96.4378L250.949 96.5076L251.404 96.5246L251.859 96.5265L252.314 96.5828L252.769 96.597L253.224 96.5689L253.679 96.5632L254.133 96.6092L254.588 96.6026L255.043 96.5982L255.498 96.5722L255.953 96.5544L256.408 96.4104L256.863 96.3884L257.318 96.4721L257.772 96.5129L258.227 96.5551L258.682 96.569L259.137 96.5672L259.592 96.5488L260.047 96.5348L260.502 96.5748L260.957 96.5434L261.411 96.5864" stroke="#8C8C8C" stroke-width="0.53" stroke-linecap="round" stroke-linejoin="round"/>
</g>
<mask id="mask8_705_1879" style="mask-type:luminance" maskUnits="userSpaceOnUse" x="0" y="0" width="264" height="97">
<path d="M264 0H0V97H264V0Z" fill="white"/>
</mask>
<g mask="url(#mask8_705_1879)">
<path d="M2.58789 96.9999L3.04277 96.9952L3.49764 96.9921L3.95251 96.9997L4.40739 96.9998L4.86226 96.9988L5.31714 96.9999L5.77201 97L6.22689 97L6.68176 96.9993L7.13663 96.9989L7.59151 96.9997L8.04638 96.9995L8.50126 96.9998L8.95613 96.9997L9.41101 96.9998L9.86588 96.9995L10.3208 96.9995L10.7756 96.9995L11.2305 96.9998L11.6854 96.9998L12.1403 96.9999L12.5951 97L13.05 96.9999L13.5049 96.9998L13.9598 96.9999H14.4146H14.8695L15.3244 96.9994L15.7792 96.9997L16.2341 96.9993L16.689 96.9996L17.1439 96.9997L17.5987 96.9343L18.0536 96.9333L18.5085 96.7727L18.9634 96.9867L19.4182 96.9995L19.8731 96.9993L20.328 96.9993L20.7829 96.9995L21.2377 96.9994L21.6926 96.9997L22.1475 96.9995L22.6024 96.9993L23.0572 96.9991L23.5121 96.9995L23.967 96.9991L24.4219 96.9992L24.8767 96.9992L25.3316 96.9996L25.7865 96.9941L26.2414 96.9881L26.6962 96.9987L27.1511 96.4473L27.606 96.6331L28.0609 96.9762L28.5157 96.9835L28.9706 96.9465L29.4255 96.9993L29.8804 96.9708L30.3352 96.9901L30.7901 96.9994L31.245 96.9843L31.6999 96.9972L32.1547 96.9665L32.6096 96.9996L33.0645 96.9993L33.5193 96.9727L33.9742 96.9732L34.4291 96.9628L34.884 96.9993L35.3388 96.9947L35.7937 96.9899L36.2486 96.9427L36.7035 96.9964L37.1583 96.9897L37.6132 96.991L38.0681 96.9826L38.523 96.9993L38.9778 96.9491L39.4327 96.9611L39.8876 96.9765L40.3425 96.9803L40.7973 96.9943L41.2522 96.9931L41.7071 96.9992L42.162 96.9749L42.6168 96.9958L43.0717 96.9812L43.5266 96.985L43.9815 96.9911L44.4363 96.9918L44.8912 96.973L45.3461 96.9787L45.801 94.344L46.2558 95.0234L46.7107 95.4419L47.1656 96.8777L47.6205 96.472L48.0753 96.9854L48.5302 96.7796L48.9851 96.9931L49.44 96.9778L49.8948 96.9875L50.3497 96.9963L50.8046 96.9738L51.2595 96.9719L51.7143 96.9964L52.1692 96.9582L52.6241 96.9351L53.0789 96.9333L53.5338 96.9344L53.9887 96.9393L54.4436 96.9148L54.8984 96.9372L55.3533 96.9463L55.8082 96.9539L56.2631 96.9065L56.7179 96.9177L57.1728 96.9757L57.6277 96.9594L58.0826 96.9479L58.5374 96.9603L58.9923 96.9652L59.4472 96.9448L59.9021 94.0958L60.3569 96.871L60.8118 96.9595L61.2667 96.897L61.7216 96.9054L62.1764 96.9297L62.6313 96.8649L63.0862 96.9025L63.5411 96.9026L63.9959 96.9078L64.4508 96.8575L64.9057 96.7891L65.3606 96.8198L65.8154 96.767L66.2703 96.8815L66.7252 96.9144L67.1801 96.8257L67.6349 96.8552L68.0898 96.8202L68.5447 96.9056L68.9996 96.9693L69.4544 96.9585L69.9093 96.9522L70.3642 96.9502L70.8191 96.8823L71.2739 96.8343L71.7288 96.978L72.1837 96.9878L72.6386 96.9881L73.0934 96.9939L73.5483 96.9765L74.0032 96.9751L74.4581 96.9793L74.9129 96.9885L75.3678 96.9925L75.8227 96.9581L76.2775 96.9783L76.7324 96.9644L77.1873 96.968L77.6422 96.9607L78.097 96.9709L78.5519 96.9767L79.0068 96.987L79.4617 96.975L79.9165 96.9767L80.3714 96.9751L80.8263 96.9743L81.2812 96.9928L81.736 96.9628L82.1909 96.9811L82.6458 96.9743L83.1007 96.9773L83.5555 96.9543L84.0104 96.963L84.4653 96.9652L84.9202 96.9277L85.375 96.9647L85.8299 96.9818L86.2848 96.8997L86.7397 96.946L87.1945 96.8883L87.6494 96.8765L88.1043 96.9235L88.5591 96.9174L89.014 96.9388L89.4689 96.9484L89.9238 92.4633L90.3786 96.6598L90.8335 96.7096L91.2884 96.4886L91.7433 96.7921L92.1981 96.8189L92.653 96.8089L93.1079 96.7838L93.5628 96.8193L94.0176 96.8249L94.4725 96.8167L94.9274 96.8401L95.3823 96.7922L95.8371 96.784L96.292 96.8166L96.7469 96.8121L97.2018 96.8339L97.6566 96.8091L98.1115 96.8145L98.5664 96.8572L99.0213 96.8357L99.4761 96.8186L99.931 96.8619L100.386 96.9177L100.841 96.9475L101.296 96.9397L101.751 95.8596L102.205 96.9718L102.66 96.933L103.115 96.9585L103.57 96.9042L104.025 96.969L104.48 96.8484L104.935 96.8131L105.39 96.7792L105.844 96.8386L106.299 96.8098L106.754 96.6993L107.209 96.791L107.664 96.8437L108.119 96.7899L108.574 96.8491L109.028 96.8219L109.483 96.8614L109.938 96.8311L110.393 96.8253L110.848 96.8777L111.303 96.9115L111.758 96.8598L112.213 96.8728L112.667 96.9022L113.122 96.9101L113.577 96.9041L114.032 96.9204L114.487 96.612L114.942 96.6823L115.397 96.7769L115.852 96.8007L116.306 96.8348L116.761 96.8404L117.216 96.8508L117.671 96.8635L118.126 96.7084L118.581 96.8452L119.036 96.84L119.491 96.8362L119.945 96.8468L120.4 96.8512L120.855 96.8792L121.31 96.8545L121.765 96.8727L122.22 96.8687L122.675 96.8512L123.13 96.8511L123.584 96.8895L124.039 96.883L124.494 96.8935L124.949 96.8685L125.404 96.8892L125.859 96.9043L126.314 96.91L126.769 96.9085L127.223 96.9115L127.678 96.906L128.133 96.9263L128.588 96.9414L129.043 96.916L129.498 96.9175L129.953 96.9341L130.408 96.9473L130.862 96.9287L131.317 96.919L131.772 96.9343L132.227 96.9387L132.682 96.9537L133.137 96.9386L133.592 96.942L134.047 96.9329L134.501 96.9495L134.956 96.948L135.411 96.6526L135.866 96.9407L136.321 96.9828L136.776 96.9788L137.231 96.9749L137.686 96.9864L138.14 96.9831L138.595 96.9801L139.05 96.9864L139.505 96.9916L139.96 96.9861L140.415 96.9775L140.87 96.9917L141.325 96.9647L141.779 96.9761L142.234 96.9906L142.689 96.995L143.144 96.9895L143.599 96.9837L144.054 96.9659L144.509 96.9645L144.964 96.9564L145.418 96.9706L145.873 96.9809L146.328 96.988L146.783 96.9748L147.238 96.951L147.693 96.958L148.148 96.9698L148.603 96.9878L149.057 96.9803L149.512 96.9808L149.967 96.9697L150.422 96.9733L150.877 96.9581L151.332 96.9688L151.787 96.9267L152.242 96.9579L152.696 96.9494L153.151 96.9322L153.606 96.9522L154.061 96.9505L154.516 96.9428L154.971 96.9956L155.426 96.9969L155.881 96.9795L156.335 96.987L156.79 96.9555L157.245 96.9323L157.7 96.9374L158.155 96.9479L158.61 96.9203L159.065 96.9656L159.52 96.9696L159.974 96.9486L160.429 96.8917L160.884 96.8922L161.339 96.9306L161.794 96.9426L162.249 96.961L162.704 96.937L163.159 96.9701L163.613 96.9357L164.068 96.9617L164.523 96.9664L164.978 96.9851L165.433 96.9942L165.888 96.9942L166.343 96.9712L166.798 96.9776L167.252 96.9788L167.707 96.9111L168.162 96.9846L168.617 96.9835L169.072 96.9792L169.527 91.0705L169.982 96.7811L170.437 96.7629L170.891 96.7563L171.346 96.7835L171.801 96.7771L172.256 96.7648L172.711 96.7854L173.166 96.76L173.621 96.7803L174.076 96.7793L174.53 96.7677L174.985 96.8127L175.44 96.8063L175.895 96.8125L176.35 96.8016L176.805 96.8186L177.26 96.7941L177.715 96.8201L178.169 96.8037L178.624 96.8147L179.079 96.8168L179.534 96.815L179.989 96.8148L180.444 96.8068L180.899 96.8203L181.354 96.7958L181.808 96.8086L182.263 96.9424L182.718 96.9705L183.173 96.9531L183.628 96.9871L184.083 96.9496L184.538 96.9612L184.993 96.9734L185.447 96.9533L185.902 96.9549L186.357 96.9475L186.812 96.9392L187.267 96.9735L187.722 96.9678L188.177 96.9777L188.632 96.9584L189.086 96.9732L189.541 96.9679L189.996 96.9849L190.451 96.9863L190.906 96.9855L191.361 96.9708L191.816 96.9602L192.271 96.9745L192.725 96.8134L193.18 96.9553L193.635 96.9412L194.09 96.8924L194.545 96.2889L195 96.0949L195.455 96.9073L195.91 96.8506L196.364 96.7861L196.819 96.9567L197.274 96.9858L197.729 96.9598L198.184 96.9881L198.639 96.9484L199.094 96.8929L199.549 96.8964L200.003 96.9312L200.458 96.9195L200.913 96.8833L201.368 96.8807L201.823 96.9497L202.278 96.9283L202.733 96.8894L203.187 96.9169L203.642 96.9645L204.097 96.8961L204.552 96.9319L205.007 96.9233L205.462 96.9446L205.917 96.956L206.372 96.9853L206.826 96.9545L207.281 96.9708L207.736 96.9699L208.191 96.9812L208.646 96.9775L209.101 96.9792L209.556 96.9855L210.011 96.967L210.465 96.9132L210.92 96.9737L211.375 96.9833L211.83 96.9894L212.285 96.984L212.74 96.9684L213.195 96.9813L213.65 96.9867L214.104 96.9886L214.559 96.9806L215.014 96.9843L215.469 96.964L215.924 96.9799L216.379 96.9361L216.834 96.9474L217.289 96.9808L217.743 96.9207L218.198 96.7594L218.653 96.9374L219.108 96.9411L219.563 96.9553L220.018 96.8667L220.473 96.9494L220.928 96.9437L221.382 96.9684L221.837 96.03L222.292 96.4985L222.747 96.8428L223.202 96.9304L223.657 96.9614L224.112 96.9567L224.567 96.9046L225.021 96.9392L225.476 96.7812L225.931 94.7316L226.386 94.0404L226.841 96.0467L227.296 95.7427L227.751 86.0818L228.206 91.6556L228.66 92.6785L229.115 80.2593L229.57 93.2839L230.025 93.4473L230.48 96.1967L230.935 66.1113L231.39 61.7204L231.845 78.0288L232.299 70.9275L232.754 91.9278L233.209 93.769L233.664 86.0835L234.119 93.9498L234.574 93.8192L235.029 96.4807L235.484 73.6584L235.938 72.0467L236.393 81.0517L236.848 96.3585L237.303 80.4307L237.758 93.9854L238.213 94.4222L238.668 94.1253L239.123 96.2052L239.577 96.5206L240.032 96.5181L240.487 96.3366L240.942 73.0228L241.397 96.5453L241.852 96.6748L242.307 96.7279L242.762 96.6489L243.216 96.5627L243.671 96.6916L244.126 96.851L244.581 96.8429L245.036 96.895L245.491 96.7822L245.946 96.8281L246.401 96.8072L246.855 96.8685L247.31 96.8673L247.765 96.9081L248.22 96.7533L248.675 96.917L249.13 96.8747L249.585 96.9071L250.04 96.9419L250.494 96.8882L250.949 96.9356L251.404 42.572L251.859 56.391L252.314 85.172L252.769 96.8856L253.224 61.6247L253.679 97.0001" stroke="#303030" stroke-width="0.53" stroke-linecap="round" stroke-linejoin="round"/>
</g>
<mask id="mask9_705_1879" style="mask-type:luminance" maskUnits="userSpaceOnUse" x="0" y="0" width="264" height="97">
<path d="M264 0H0V97H264V0Z" fill="white"/>
</mask>
<g mask="url(#mask9_705_1879)">
<path d="M2.58789 96.2305L3.04277 96.1155L3.49764 95.8714L3.95251 95.7798L4.40739 95.5583L4.86226 95.7473L5.31714 95.6403L5.77201 95.4486L6.22689 95.9096L6.68176 95.9081L7.13663 96.2121L7.59151 96.2056L8.04638 96.0574L8.50126 96.1573L8.95613 96.24L9.41101 96.1692L9.86588 96.0831L10.3208 96.1654L10.7756 96.1656L11.2305 96.0411L11.6854 95.5616L12.1403 95.3177L12.5951 96.0095L13.05 95.5107L13.5049 96.2002L13.9598 96.0281L14.4146 96.1369L14.8695 96.2818L15.3244 96.475L15.7792 96.4823L16.2341 96.3568L16.689 96.3701L17.1439 96.3837L17.5987 96.4197L18.0536 96.2622L18.5085 96.4565L18.9634 96.5787L19.4182 96.3373L19.8731 96.2948L20.328 96.3353L20.7829 95.7606L21.2377 95.6088L21.6926 95.712L22.1475 96.0018L22.6024 95.9528L23.0572 96.004L23.5121 96.1337L23.967 96.0121L24.4219 96.1932L24.8767 96.244L25.3316 96.1825L25.7865 95.9068L26.2414 96.05L26.6962 96.2159L27.1511 95.4257L27.606 95.9637L28.0609 96.1521L28.5157 96.1449L28.9706 95.9836L29.4255 96.1085L29.8804 96.1805L30.3352 96.3236L30.7901 96.2508L31.245 96.4658L31.6999 96.3946L32.1547 96.1397L32.6096 96.3251L33.0645 96.2796L33.5193 96.3156L33.9742 96.4129L34.4291 96.7054L34.884 96.6465L35.3388 96.5076L35.7937 96.4831L36.2486 96.1768L36.7035 96.4872L37.1583 96.3776L37.6132 96.5626L38.0681 96.5883L38.523 96.5159L38.9778 96.4901L39.4327 96.4268L39.8876 96.4408L40.3425 96.4733L40.7973 96.6181L41.2522 96.3384L41.7071 94.6996L42.162 95.1936L42.6168 96.0471L43.0717 95.9256L43.5266 96.0321L43.9815 96.154L44.4363 96.3755L44.8912 96.2396L45.3461 96.446L45.801 96.0692L46.2558 96.3988L46.7107 96.3655L47.1656 96.5832L47.6205 96.5338L48.0753 96.0608L48.5302 96.4403L48.9851 96.501L49.44 96.4489L49.8948 96.5608L50.3497 96.6564L50.8046 96.5716L51.2595 95.4612L51.7143 96.2625L52.1692 96.4983L52.6241 96.331L53.0789 96.4386L53.5338 96.5025L53.9887 96.5804L54.4436 96.3202L54.8984 96.2712L55.3533 96.3573L55.8082 96.3873L56.2631 96.3485L56.7179 96.3958L57.1728 96.1551L57.6277 96.1303L58.0826 96.3717L58.5374 96.366L58.9923 96.1854L59.4472 96.2955L59.9021 96.2993L60.3569 96.3393L60.8118 95.8051L61.2667 95.7878L61.7216 95.2712L62.1764 95.1109L62.6313 96.106L63.0862 96.5058L63.5411 96.6023L63.9959 96.5739L64.4508 96.5132L64.9057 96.6083L65.3606 96.6474L65.8154 96.7093L66.2703 96.7828L66.7252 96.7833L67.1801 96.5876L67.6349 96.7348L68.0898 96.7546L68.5447 96.5439L68.9996 96.6158L69.4544 96.7699L69.9093 96.8252L70.3642 96.5519L70.8191 96.6584L71.2739 96.617L71.7288 96.7669L72.1837 96.7438L72.6386 96.8222L73.0934 96.8566L73.5483 96.6021L74.0032 96.6084L74.4581 96.744L74.9129 96.6896L75.3678 96.6886L75.8227 96.4981L76.2775 96.5777L76.7324 96.017L77.1873 96.3312L77.6422 96.0846L78.097 96.4939L78.5519 96.6388L79.0068 96.4259L79.4617 96.3953L79.9165 96.5158L80.3714 96.6189L80.8263 96.6167L81.2812 96.6337L81.736 96.5093L82.1909 96.7013L82.6458 96.7101L83.1007 96.6012L83.5555 96.658L84.0104 96.7304L84.4653 96.6023L84.9202 96.7085L85.375 96.8076L85.8299 96.7679L86.2848 96.6608L86.7397 96.7007L87.1945 96.7957L87.6494 96.6636L88.1043 96.74L88.5591 96.8683L89.014 96.8495L89.4689 96.7836L89.9238 96.7111L90.3786 96.6935L90.8335 96.5803L91.2884 96.5609L91.7433 96.5751L92.1981 96.6767L92.653 96.3666L93.1079 96.517L93.5628 96.5868L94.0176 96.6149L94.4725 96.6812L94.9274 96.4936L95.3823 96.0251L95.8371 96.5449L96.292 96.5907L96.7469 96.5879L97.2018 96.5403L97.6566 96.6547L98.1115 96.774L98.5664 96.7896L99.0213 96.6592L99.4761 96.6737L99.931 96.703L100.386 96.7358L100.841 96.7125L101.296 96.8236L101.751 96.8557L102.205 96.6933L102.66 96.6792L103.115 96.5792L103.57 96.7197L104.025 96.8538L104.48 96.8292L104.935 96.8259L105.39 96.7168L105.844 96.4066L106.299 95.8889L106.754 95.7746L107.209 95.6658L107.664 95.8303L108.119 96.0068L108.574 95.8822L109.028 95.8715L109.483 95.9711L109.938 96.0884L110.393 95.9545L110.848 95.9165L111.303 96.049L111.758 96.0207L112.213 96.2208L112.667 96.282L113.122 96.3585L113.577 96.3409L114.032 96.466L114.487 96.4345L114.942 96.2519L115.397 96.2526L115.852 96.2494L116.306 96.3332L116.761 96.2798L117.216 96.3663L117.671 96.3896L118.126 96.3086L118.581 96.1884L119.036 96.3829L119.491 96.2248L119.945 96.372L120.4 96.323L120.855 96.2213L121.31 96.1645L121.765 96.4127L122.22 96.3218L122.675 96.3654L123.13 96.4213L123.584 96.4843L124.039 96.434L124.494 96.3267L124.949 96.2886L125.404 96.3888L125.859 96.4749L126.314 96.5019L126.769 96.5286L127.223 96.5414L127.678 96.4747L128.133 96.3089L128.588 96.5802L129.043 96.5742L129.498 96.6182L129.953 96.6253L130.408 96.6058L130.862 96.5426L131.317 96.5819L131.772 96.5215L132.227 96.4763L132.682 96.5626L133.137 96.6757L133.592 96.64L134.047 96.5387L134.501 96.621L134.956 96.57L135.411 96.6244L135.866 96.5825L136.321 96.6774L136.776 96.6785L137.231 96.4402L137.686 96.3951L138.14 96.4853L138.595 96.5375L139.05 96.5092L139.505 96.4495L139.96 96.5871L140.415 96.4338L140.87 96.5395L141.325 96.4902L141.779 96.5734L142.234 96.4579L142.689 96.6055L143.144 96.5777L143.599 96.4817L144.054 96.2225L144.509 96.2008L144.964 96.2357L145.418 96.4027L145.873 96.6521L146.328 96.6633L146.783 96.4539L147.238 96.6247L147.693 96.6969L148.148 96.8368L148.603 96.8798L149.057 96.878L149.512 96.7904L149.967 96.6791L150.422 96.7312L150.877 96.8013L151.332 96.7997L151.787 96.8621L152.242 96.8857L152.696 96.889L153.151 96.7692L153.606 96.8065L154.061 96.7158L154.516 96.8811L154.971 96.835L155.426 96.8871L155.881 96.8973L156.335 96.7711L156.79 96.836L157.245 96.8746L157.7 96.8436L158.155 96.8473L158.61 96.9061L159.065 96.922L159.52 96.8253L159.974 96.8252L160.429 96.8728L160.884 96.8782L161.339 96.8225L161.794 96.9061L162.249 96.9242L162.704 96.8378L163.159 96.8602L163.613 96.8593L164.068 96.8289L164.523 96.8581L164.978 96.8948L165.433 96.9151L165.888 96.8326L166.343 96.8661L166.798 96.8657L167.252 96.8787L167.707 96.7858L168.162 96.919L168.617 96.9157L169.072 96.8448L169.527 96.866L169.982 96.8812L170.437 96.9009L170.891 96.8988L171.346 96.9178L171.801 96.8858L172.256 96.7962L172.711 96.8697L173.166 96.8393L173.621 96.7152L174.076 96.6773L174.53 96.5557L174.985 96.6176L175.44 96.4979L175.895 96.5639L176.35 96.5625L176.805 96.648L177.26 96.5793L177.715 96.6397L178.169 96.6735L178.624 96.6055L179.079 96.6327L179.534 96.6585L179.989 96.6543L180.444 96.6947L180.899 96.6971L181.354 96.7042L181.808 96.5933L182.263 96.5937L182.718 96.6743L183.173 96.654L183.628 96.7069L184.083 96.7147L184.538 96.6787L184.993 96.5264L185.447 96.6296L185.902 96.6882L186.357 96.6541L186.812 96.6652L187.267 96.7124L187.722 96.7456L188.177 96.594L188.632 96.7199L189.086 96.6388L189.541 96.6441L189.996 96.6999L190.451 96.7523L190.906 96.7197L191.361 96.6496L191.816 96.6988L192.271 96.7798L192.725 96.817L193.18 96.8004L193.635 96.8426L194.09 96.8421L194.545 96.6263L195 96.7476L195.455 96.8471L195.91 96.8437L196.364 96.7589L196.819 96.6602L197.274 96.5968L197.729 96.5205L198.184 96.5426L198.639 96.5304L199.094 96.4133L199.549 96.3836L200.003 95.8838L200.458 96.3315L200.913 96.3411L201.368 96.3834L201.823 96.4621L202.278 96.5427L202.733 96.4439L203.187 96.5642L203.642 96.5897L204.097 96.5017L204.552 96.5557L205.007 96.7188L205.462 96.8406L205.917 96.8631L206.372 96.9141L206.826 96.8715L207.281 96.7816L207.736 96.8541L208.191 96.865L208.646 96.8388L209.101 96.7834L209.556 96.9086L210.011 96.9017L210.465 96.7769L210.92 96.8563L211.375 96.8348L211.83 96.8636L212.285 96.813L212.74 96.8963L213.195 96.8196L213.65 96.7687L214.104 96.8589L214.559 96.8147L215.014 96.7595L215.469 96.7257L215.924 96.8978L216.379 96.8725L216.834 96.805L217.289 96.8834L217.743 96.7976L218.198 96.7919L218.653 96.7793L219.108 96.8832L219.563 96.8912L220.018 96.7671L220.473 96.851L220.928 96.696L221.382 96.7724L221.837 96.2381L222.292 96.8891L222.747 96.6956L223.202 96.6091L223.657 96.7838L224.112 96.7916L224.567 96.8748L225.021 96.7697L225.476 96.8066L225.931 96.8118L226.386 96.6946L226.841 96.6357L227.296 96.6921L227.751 96.677L228.206 96.5989L228.66 96.7152L229.115 96.7851L229.57 74.7341L230.025 94.1162L230.48 96.2824L230.935 66.6321L231.39 91.232L231.845 56.9911L232.299 65.8541L232.754 92.4267L233.209 93.9996L233.664 93.9339L234.119 93.8376L234.574 93.8914L235.029 80.4034L235.484 47.928L235.938 69.9913L236.393 82.7628L236.848 78.7112L237.303 79.8693L237.758 78.9738L238.213 91.5363L238.668 92.5539L239.123 92.5197L239.577 92.432L240.032 92.3107L240.487 82.8525L240.942 47.1596L241.397 94.1966L241.852 94.3953L242.307 94.2121L242.762 94.2932L243.216 94.4304L243.671 94.837L244.126 94.2675L244.581 94.0676L245.036 94.189L245.491 93.8692L245.946 94.1667L246.401 94.313L246.855 94.6571L247.31 94.5238L247.765 94.0185L248.22 94.6598L248.675 94.4547L249.13 93.8389L249.585 94.2713L250.04 92.6614L250.494 92.7826L250.949 93.1847L251.404 73.9472L251.859 20.186L252.314 82.5922L252.769 94.4881L253.224 60.6891L253.679 67.111L254.133 92.6828L254.588 85.6611L255.043 92.019L255.498 92.6385L255.953 93.1015L256.408 72.4489L256.863 84.6918L257.318 90.2221L257.772 85.412L258.227 86.3334L258.682 96.9999L259.137 85.281L259.592 35.5048L260.047 96.9999H260.502H260.957H261.411" stroke="#5E5E5E" stroke-width="0.53" stroke-linecap="round" stroke-linejoin="round"/>
</g>
</g>
<defs>
<clipPath id="clip0_705_1879">
<rect width="264" height="97" fill="white"/>
</clipPath>
</defs>
</svg>
