<svg xmlns="http://www.w3.org/2000/svg" width="1225.3" height="834.784" viewBox="0 0 1225.3 834.784">
  <g id="lost-1" transform="translate(-365.4 -259.461)">
    <g id="Flag">
      <path id="Path_4508" data-name="Path 4508" d="M522.3,701.6c-24.5,45.5-79,34.3-109.2,31s-47.7,38-47.7,38,38.3,61.3,37.6,99.3c0,0,22.8-47,41-29.1S548.2,807.7,559.3,795c0,0-35.1-1.9-48.6-38.9C500.6,728.6,522.3,701.6,522.3,701.6Z" fill="#3ca184"/>
      <path id="Path_4509" data-name="Path 4509" d="M516.5,710.5a64.685,64.685,0,0,0,5.7-8.9C522.3,701.6,519.6,705,516.5,710.5Z" fill="#3ca184"/>
      <path id="Path_4510" data-name="Path 4510" d="M443.9,840.8c13.8,13.7,67.1-12.7,96.6-31.7h-.6a85.788,85.788,0,0,1-40.2-14.8c-12.4-8.4-23.1-19-34.2-29a153.679,153.679,0,0,0-24.6-18.5c-4.6-2.8-9.6-5.4-14.9-6.5-3.5-.8-7.7-.6-9.6,2.9s-1.4,8.4-.8,12.2a110.753,110.753,0,0,0,4.1,17c3.2,10.3,7.5,20.3,10.7,30.6,2,6.3,2.3,13.2,2.9,19.8.5,4.7.9,9.3,1.6,14A12.355,12.355,0,0,1,443.9,840.8Z" fill="#2c8469"/>
      <path id="Path_4511" data-name="Path 4511" d="M417,847.3c-3-18-8.1-36.8-17.2-52.7-3.5-6.1-8.4-12.6-15.1-15.4-5.1-2.1-9.4-.4-12.7,2.9,10.9,19.5,31.5,60,31,87.9a117.249,117.249,0,0,1,14.1-21.8A2.769,2.769,0,0,1,417,847.3Z" fill="#2c8469"/>
      <path id="Path_4512" data-name="Path 4512" d="M589.3,858.8c-44.9-102.5-58.8-160.9-67.6-161.7s-14.5,2.4-8.8,12.9,76.4,169.2,76.4,169.2V858.8Z" fill="#25acba"/>
      <path id="Path_4513" data-name="Path 4513" d="M450.8,823.1a35.381,35.381,0,0,1-23.7-8.8c-10.3-9.4-18.5-28.4-13.5-45,3-9.9,11.7-22.5,36.8-26.5,14.2-2.3,30,6.6,36.9,20.7,6.3,13.1,4.6,30.2-4.3,42.5-7,9.7-17.9,16.1-29.1,17h0C452.8,823.1,451.8,823.1,450.8,823.1Zm4.1-77.7a28.278,28.278,0,0,0-4.1.3c-18.6,3-30.5,11.5-34.4,24.5-4.6,15.4,3.1,33.1,12.7,42,6.2,5.7,15.4,8.7,24.5,7.9h0a37.738,37.738,0,0,0,26.9-15.8c8.3-11.5,9.9-27.3,4-39.5C478.9,753.2,466.7,745.4,454.9,745.4Z" fill="#d2f1fc"/>
      <rect id="Rectangle_484" data-name="Rectangle 484" width="3" height="76" transform="translate(437.14 748.129) rotate(-20.934)" fill="#d2f1fc"/>
      <path id="Path_4514" data-name="Path 4514" d="M456.7,823.1A49.644,49.644,0,0,1,430.5,749l2.5,1.6a46.678,46.678,0,0,0,24.7,69.7Z" fill="#d2f1fc"/>
      <path id="Path_4515" data-name="Path 4515" d="M473.5,815.5l-2.6-1.5a46.3,46.3,0,0,0-26-66.9l.9-2.8a49.365,49.365,0,0,1,27.7,71.2Z" fill="#d2f1fc"/>
      <rect id="Rectangle_485" data-name="Rectangle 485" width="76" height="3" transform="translate(416.911 796.384) rotate(-21.783)" fill="#d2f1fc"/>
      <rect id="Rectangle_486" data-name="Rectangle 486" width="55.7" height="3" transform="translate(415.637 765.834) rotate(-20.223)" fill="#d2f1fc"/>
      <rect id="Rectangle_487" data-name="Rectangle 487" width="55.7" height="3" transform="translate(432.839 816.641) rotate(-20.223)" fill="#d2f1fc"/>
    </g>
    <g id="Character_2">
      <g id="Tablet">
        <path id="Path_4516" data-name="Path 4516" d="M955.5,612.6c-6.1,27.5-10.5,27.5,5.4,40.8,19.9,16.6,48.7,40.2,53.7,38.1,7-3.1,7.5-34.8,8.1-41.6s-3.9-14-30.3-37S961.7,584.9,955.5,612.6Z" fill="#03036d"/>
        <path id="Path_4517" data-name="Path 4517" d="M966.4,616.7c-4.4,19.9-7.6,19.9,3.9,29.5,14.5,12.1,35.3,29.2,38.9,27.6,5.1-2.3,5.4-25.2,5.9-30.1s-2.8-10.2-21.9-26.8C974,600.3,970.8,596.7,966.4,616.7Z" fill="#d2f1fc"/>
        <path id="Path_4518" data-name="Path 4518" d="M976.8,628.8c-2.8-5.8-6.4-12.1-8.7-18.6-.6,1.8-1.1,4-1.7,6.5-4.4,19.9-7.6,19.9,3.9,29.5,3.8,3.2,8.1,6.8,12.4,10.2C983.3,647.2,981.3,638.1,976.8,628.8Z" fill="#53caf1"/>
      </g>
      <g id="Hand_2">
        <path id="Path_4519" data-name="Path 4519" d="M1095.8,565.8c-20,8.3-5.4,82.9-45,55.9-15.6-10.7-41.2-17.2-50-1,.7-1.4-9.5,16.3,0,14.2,0,0,1,8.1,7.1,6,0,0,.8,8.4,6.1,5.1s9.7-9.6,22.3.8h0a83.39,83.39,0,0,0,17,13.2c8.7,4.8,19.4,6.9,28.6,3.3,11.9-4.6,25.5-14.6,29.8-26.6C1115.5,625.8,1122.1,554.9,1095.8,565.8Z" fill="#e04136"/>
        <path id="Path_4520" data-name="Path 4520" d="M1016.1,615.3c-2.2-.5-5,.7-5.5,3.1-1.8,9-3.5,18.1-5.3,27.1-.4,2.3.3,10.8,2.7,11.4,2.2.5,5.4-6.6,5.8-9,1.8-9,3.5-18.1,5.3-27.1C1019.7,618.4,1018.6,615.8,1016.1,615.3Z" fill="#53caf1"/>
        <path id="Path_4521" data-name="Path 4521" d="M1017.6,629.1c-9.7,11.8-8.1,18.3-3.7,18.7s14.3-14.7,14.3-14.7Z" fill="#e04136"/>
        <path id="Path_4522" data-name="Path 4522" d="M1002.6,636.7h-3a28.082,28.082,0,0,1,3.2-13l2.6,1.4A26.092,26.092,0,0,0,1002.6,636.7Z" fill="#ffd939"/>
      </g>
      <g id="Head_1_">
        <path id="Path_4523" data-name="Path 4523" d="M1061.7,580.3c11,7.7,22.3,15.6,30,26.7a56.764,56.764,0,0,1,6.9,49.5,57.587,57.587,0,0,1-4.8,10.4c35.5-4.6,69.1-17.7,103.6-26.6a236,236,0,0,0-7.9-28.5c-9.5-28.5-23-56.1-43.7-77.8-20.8-21.6-49.5-36.7-79.5-36.5-14.6.1-30.7,5-38,17.7-6.7,11.7-3.7,26.9,3.7,38.1S1050.7,572.5,1061.7,580.3Z" fill="#fe673c"/>
        <path id="Path_4524" data-name="Path 4524" d="M1094.9,612.4a56.481,56.481,0,0,1,5.6,16.5,43.684,43.684,0,0,0,15.7-14.2c3.4-5.5,5.8-12.4,5.5-19a19.457,19.457,0,0,0-2-7.6A84.455,84.455,0,0,1,1094.9,612.4Z" fill="#e04136"/>
        <path id="Path_4525" data-name="Path 4525" d="M1074.3,541.3c2.6,6.3,10.7,7.4,16.6,8.5,5.5,1.1,12.1,2.1,16.1,6.5,5,5.6,4.1,15.3.9,21.5-4.7,9.1-14.8,10-23.9,9.8-3.6-.1-7.4-.3-11,.7,7.1,5.4-10.3,28.3-5.3,35.5,3,4.4,13.3,9.2,31-2.7a51.085,51.085,0,0,0,12.2-8.2c10.3-9.3,14.8-22.8,14.1-36.5-.3-6.4-2.4-12.4-3-18.8-.3-2.9.3-5.8,3.3-6.9,3.2-1.2,6.9-1,10.2-2.1,4.8-1.5,9.5-4.4,10.2-9.8a14.53,14.53,0,0,0-.5-5.5c-12.9-13.3-28.8-24.1-46.2-30.2-.3.4-.6.9-.9,1.4a71.958,71.958,0,0,0-2.4,7.9c-1.8,5.8-6.4,10.9-10.5,15.2-4.1,4.2-8.4,8.1-12.4,12.4A2.391,2.391,0,0,1,1074.3,541.3Z" fill="#ffd939"/>
        <path id="Path_4526" data-name="Path 4526" d="M1144.8,651c10.4-27.5.7-51.5,21.5-48.8s17.4,46.9,17.4,46.9Z" fill="#e04136"/>
        <path id="Path_4527" data-name="Path 4527" d="M1037,559.8c8-5.8,15.9-11.7,23.6-17.8,8.8-6.9,17.7-13.8,25.9-21.5,5.5-5.2,11-10.6,16.6-15.8a97.618,97.618,0,0,0-37-7.3c-14.6.1-30.7,5-38,17.7-6.7,11.7-3.7,26.9,3.7,38.1A72.2,72.2,0,0,0,1037,559.8Z" fill="#03036d"/>
        <path id="Path_4528" data-name="Path 4528" d="M1025.8,564.3c3.3,3.7,8.7,4.8,13.6,4.1,4.9-.8,9.3-3.2,13.5-5.7a174.117,174.117,0,0,0,53.1-49.8c2.9-4.1,5.4-10.2,1.8-13.7-3.8-3.8-10.2-.5-14.3,2.9-10.8,9.1-18.5,19.8-27.9,29.8C1054.3,544,1038.7,553.9,1025.8,564.3Z" fill="#0000ef"/>
        <path id="Path_4529" data-name="Path 4529" d="M1089.4,571.5c3.7-10.8-13.4-16.3-16.9-5.9C1068.9,576,1085.7,582.3,1089.4,571.5Z" fill="#fff"/>
        <path id="Path_4530" data-name="Path 4530" d="M1072.6,565.3c0,.1-.1.2-.1.4-3,8.8,8.4,14.6,14.3,9.8C1082.1,572,1077.2,568.8,1072.6,565.3Z" fill="#03036d"/>
        <path id="Path_4531" data-name="Path 4531" d="M1068.3,562.2l-2.9-.5a11.494,11.494,0,0,1,6.1-8.1,11.629,11.629,0,0,1,10.1-.5l-1.3,2.7a8.659,8.659,0,0,0-7.5.4A8.922,8.922,0,0,0,1068.3,562.2Z" fill="#ffd939"/>
        <path id="Path_4532" data-name="Path 4532" d="M1094.6,593.9c-1.5.8-3.2,1.8-3.6,3.5a3.8,3.8,0,0,0,1.8,3.7,8.77,8.77,0,0,0,4.2,1.1c5.3.1,19.9-5.3,17.6-13C1112.5,581.9,1097.9,592.2,1094.6,593.9Z" fill="#fff"/>
      </g>
      <g id="Legs_1_">
        <path id="Path_4533" data-name="Path 4533" d="M1096.3,662a56.6,56.6,0,0,1-33.3,29.6c-18.4,6-40.3,2.7-55.6,14.5a34.156,34.156,0,0,0-13.2,27.1c.1,17.6,10.8,29.7,26.6,34.2,23.6,6.6,48.4,11.6,73,11.4,30.4-.2,62.1-9.9,82.6-32.4,15.9-17.5,23.7-41.4,24.8-65,.7-15.1-1.2-30.1-4.6-44.9C1163.3,645.5,1129.7,653.6,1096.3,662Z" fill="#0000ef"/>
        <path id="Path_4534" data-name="Path 4534" d="M1008.8,730.2a22.276,22.276,0,0,1,8.9-21.5l1.7,2.4a19.286,19.286,0,0,0-7.7,18.5Z" fill="#3db5c9"/>
        <rect id="Rectangle_488" data-name="Rectangle 488" width="3" height="12.4" transform="translate(1160.424 643.352) rotate(-15.771)" fill="#3db5c9"/>
        <rect id="Rectangle_489" data-name="Rectangle 489" width="3" height="9" transform="matrix(0.949, -0.315, 0.315, 0.949, 1186.634, 638.721)" fill="#3db5c9"/>
      </g>
      <g id="Hand_1">
        <path id="Path_4535" data-name="Path 4535" d="M1107.6,633.6c-37.3,62.9-80.3,56.7-96,39.2-10.7-12-17.3-12.5-16-7.7s7.9,14.6,7.9,14.6c-.2,3.6-19.7-8.3-21.6-7.5-7.9,3.2,1.5,8.2,1.5,8.2s-4.7,5.5,12.8,13.7c10.8,5.1,30,27.7,69.5,18.8,59.8-13.4,80-64.1,80-64.1Z" fill="#fe673c"/>
        <rect id="Rectangle_490" data-name="Rectangle 490" width="3" height="12" transform="translate(982.573 682.423) rotate(-66.565)" fill="#ffd939"/>
      </g>
    </g>
    <g id="Character_1">
      <g id="Head">
        <path id="Path_4536" data-name="Path 4536" d="M893.4,595.1C883.2,568,873,557.2,845,551.2c-37.7-8.1-77.6,6.6-107,31.5-14.8,12.5-27.2,27.3-38,43.3a191.583,191.583,0,0,0,23,16.9c28,17.6,59.1,29.7,88.1,45.6,1.3-3.7,2.5-7.3,3.8-10.8,6.6-18.1,14.4-37.7,31.3-46.9,17.9-9.7,50.6.1,50.6.1S899.5,611.3,893.4,595.1Z" fill="#fe7eb2"/>
        <path id="Path_4537" data-name="Path 4537" d="M822.3,573.4c8,5.1,17.6,7.4,27,8.1,9.9.8,20.3.2,29.1-5a35.37,35.37,0,0,0,4.4-3.2c-8.1-11.8-18.9-18.1-37.7-22.1a104.985,104.985,0,0,0-37.9-.9A32.65,32.65,0,0,0,822.3,573.4Z" fill="#dd689d"/>
        <path id="Path_4538" data-name="Path 4538" d="M860.4,624.8q-6.9-2.4-14.1-4.2c-2.1-.5-4.2-1-6.4-1.5-4.1,3.5-5.4,9.9-5.7,15a44.183,44.183,0,0,0,.1,6.3,45.286,45.286,0,0,1,12-9.7c5.3-2.9,11.9-4,18.5-4.2C863.4,625.9,861.9,625.4,860.4,624.8Z" fill="#dd689d"/>
        <path id="Path_4539" data-name="Path 4539" d="M855.4,583.6c.8-11.4-17.1-12.3-17.9-1.3C836.7,593.2,854.5,594.9,855.4,583.6Z" fill="#fff"/>
        <path id="Path_4540" data-name="Path 4540" d="M847.2,574.5c-.7,5.5-1.5,11.1-2.1,16.6,4.7.8,9.9-1.6,10.3-7.6C855.8,577.9,851.6,574.9,847.2,574.5Z" fill="#0000ef"/>
        <path id="Path_4541" data-name="Path 4541" d="M855.1,580.7c2.6-.1,5.4-.3,7.5-1.5a4.609,4.609,0,0,0,1.1-7.5c-2.2-2.1-6.2-2.9-10-2.7a52.141,52.141,0,0,0-11.1,2.3c-4.2,1.2-8.5,2.5-12.7,3.7-7.4,2.2-8.8,6.6-.5,6.8C837.7,582.1,846.7,581.1,855.1,580.7Z" fill="#03036d"/>
        <path id="Path_4542" data-name="Path 4542" d="M808.8,559.1a74.743,74.743,0,0,0,51.7-.1c8.1-3.1,16.8-9.7,15.6-18.3-.8-5.2-5.3-9.3-10.3-11.1s-10.4-1.7-15.7-1.7c-24,.3-49.1,9.3-70.7,21-21.3,11.5-19.2,23.7,4.2,28.6C795.6,580.2,808.4,572.5,808.8,559.1Z" fill="#03036d"/>
      </g>
      <g id="Body">
        <path id="Path_4543" data-name="Path 4543" d="M804.9,768.2c-9.9-25.8-2.6-54.3,6.6-80.9-39.6-14.9-78.5-35.1-110.1-63.4-11.3,16.5-20.9,34.4-29.4,52.6-18.9,40.4-42,131.5-23.3,172,11.2,24.2,42.7-.5,68.7,5.6a89.373,89.373,0,0,0,75.4-17.5c13.7-11.1,24.3-28.5,20.9-45.8C812.2,782.8,807.8,775.7,804.9,768.2Z" fill="#aee6f4"/>
        <path id="Path_4544" data-name="Path 4544" d="M813.7,790.8c-1.6-8-5.9-15.1-8.8-22.6-5.5-14.4-5.7-29.6-3.2-44.8a54.011,54.011,0,0,0-14.9-17,50.322,50.322,0,0,0-22.3-8.8c-15.4-2.1-31.2,2.1-44.9,8.7a111.393,111.393,0,0,0-36.9,28.4c-7.1,8.4-12.8,18.3-17.7,28.1a211.8,211.8,0,0,0-12.7,31.7,318.547,318.547,0,0,0-8.9,34.9,75.434,75.434,0,0,0,5.4,19.3c11.2,24.2,42.7-.5,68.7,5.6a89.373,89.373,0,0,0,75.4-17.5C806.5,825.4,817.1,808.1,813.7,790.8Z" fill="#95d9e5"/>
        <path id="Path_4545" data-name="Path 4545" d="M701.7,631.5c25.3,25.5,97.1,65.4,110.9,60.7,4.5-1.5,7.8-6.6,6.9-11.3s-5.5-7.6-9.6-9.9c-21.9-12.3-84.1-40-92.9-46.3C708.2,618.6,688.8,618.5,701.7,631.5Z" fill="#d2f1fc"/>
      </g>
      <g id="Legs">
        <path id="Path_4546" data-name="Path 4546" d="M821.8,732.6c19-21.6,43-25.6,59.6-23.2s27.1,19.6,30.2,36.1,1.3,33.6,5.3,49.9c-1.2-4.3-95.3,38.1-104.9,34.6C788.1,821.2,812.5,743.1,821.8,732.6Z" fill="#0000ef"/>
        <path id="Path_4547" data-name="Path 4547" d="M892.2,762.9c-2.4-23.9-8.3-31.4-10.5-34.1a10.987,10.987,0,0,1-1.2-1.7l2.8-1.1-1.4.5,1.4-.5a9.818,9.818,0,0,0,.7,1c2.4,3,8.6,10.9,11.2,35.7Z" fill="#3db5c9"/>
      </g>
    </g>
    <g id="Boat">
      <path id="Path_4548" data-name="Path 4548" d="M535.4,849.3c122.4-1,508.7-127,702-187,64.6-20,121.1-55.1,121.1-45.8,0,8.2-72,248.7-72,248.7L681,1009.2C681,1009.1,466.3,849.8,535.4,849.3Z" fill="#53caf1"/>
      <path id="Path_4549" data-name="Path 4549" d="M1252.8,657.1c3.3,17.2-2,35.1-10.5,50.1a117.416,117.416,0,0,1-41.4,42.6c-.9.6-2.1-.1-2.7-1.1-16.4-26.4-55.8-43-56.1-33.7-.7,22.2-18.3,58.7-24.7,67.5-24.7,33.9-95,110.9-230.6,101-64.4-4.7-101.8-21.1-116.2-27.4-.8-.3-1.6-.7-2.4-1a179.39,179.39,0,0,0,29.2-35.8,192.667,192.667,0,0,0,13.7-27.7c-66.7,18.6-129.5,34.5-181.1,44.9,24,69.7-29.5,100.3-40.6,99,43.4,37.7,91.7,73.6,91.7,73.6l605.5-144s72-240.6,72-248.7C1358.5,607.9,1310.7,636.8,1252.8,657.1Z" fill="#25acba"/>
      <rect id="Rectangle_491" data-name="Rectangle 491" width="264" height="3" transform="translate(846.813 859.216) rotate(-16.451)" fill="#3db5c9"/>
      <path id="Path_4550" data-name="Path 4550" d="M1202.5,748.1l-1.1-2.8c13.6-5.3,29.1-10.7,44-15.9s30.3-10.5,43.9-15.8l1.1,2.8c-13.6,5.3-29.1,10.7-44,15.9S1216.1,742.8,1202.5,748.1Z" fill="#53caf1"/>
      <rect id="Rectangle_492" data-name="Rectangle 492" width="91.3" height="3" transform="translate(611.678 910.932) rotate(-16.099)" fill="#53caf1"/>
    </g>
    <g id="Waves">
      <path id="Path_4554" data-name="Path 4554" d="M407.5,996.8c64.4,101.4,81.6-34.6,66-57.4s73.9-18.1,129,14.2c70.6,41.5,192.8-24.1,170.6-44.2,3.9-9.9,65.7-.4,144.1-5.8,85.6-5.8,226.9-130.3,238.6-152.7,38.5,43.9,48.2,86.4,84.6,89.3,15.1,1.2,215.7-252.3,20.5-287.2,38.4-46.2,128-103,203.6-12.2,52.8,63.4,98.1,244.7,126.2,247.9-69.7,24.1-152.4,5.5-183.6,13-31.2,7.6-142.9,129.9-252.4,129.9s-83.2-15.1-153.6,15.9c-70.5,31-221.4,74.9-281.3,69.8-59.9-5-122.4-42.7-181,8.7s-86.1,43.7-117.3,23.1S407.5,996.8,407.5,996.8Z" fill="#03036d"/>
      <path id="Path_4555" data-name="Path 4555" d="M1014,905.2h0v-3h0c45.1,0,90.4-22.1,118.1-57.8l1.9-2.5.7,3.1a46.148,46.148,0,0,0,63.1,32.7l1.2,2.7a48.986,48.986,0,0,1-66.3-31.8C1104.2,883.6,1059.1,905.2,1014,905.2Z" fill="#3db5c9"/>
      <path id="Path_4556" data-name="Path 4556" d="M1349.9,784.3l-1.2-2.7a130.024,130.024,0,0,0,66.9-166.1l2.8-1.1a132.935,132.935,0,0,1-68.5,169.9Z" fill="#3db5c9"/>
      <path id="Path_4557" data-name="Path 4557" d="M780.6,975.5l-1.3-2.7a26.464,26.464,0,0,0,14.8-22.5l.1-2.5,2.1,1.2a72.506,72.506,0,0,0,47.6,8.7l.5,2.9a76.044,76.044,0,0,1-47.5-8A29.511,29.511,0,0,1,780.6,975.5Z" fill="#3db5c9"/>
      <path id="Path_4558" data-name="Path 4558" d="M562.3,979.1a62.305,62.305,0,0,0-48.1-21.8v-3a65.925,65.925,0,0,1,50.4,22.9Z" fill="#3db5c9"/>
    </g>
    <g id="Splash">
      <path id="Path_4559" data-name="Path 4559" d="M704.1,1079.1l-2.4-1.7a42.465,42.465,0,0,1,37.1-17.8l-.2,3A39.308,39.308,0,0,0,704.1,1079.1Z" fill="#3db5c9"/>
      <rect id="Rectangle_493" data-name="Rectangle 493" width="3" height="16.1" transform="translate(732.6 1088.599) rotate(-69.47)" fill="#3db5c9"/>
      <rect id="Rectangle_494" data-name="Rectangle 494" width="3" height="16.2" transform="matrix(0.582, -0.813, 0.813, 0.582, 536.122, 1046.985)" fill="#3db5c9"/>
    </g>
    <g id="Rain">
      <rect id="Rectangle_495" data-name="Rectangle 495" width="141.8" height="3" transform="translate(463.017 499.329) rotate(-61.282)" fill="#3db5c9"/>
      <rect id="Rectangle_496" data-name="Rectangle 496" width="83.5" height="3" transform="translate(482.326 553.317) rotate(-61.433)" fill="#3db5c9"/>
      <rect id="Rectangle_497" data-name="Rectangle 497" width="23" height="3" transform="translate(556.764 615.646) rotate(-55.347)" fill="#3db5c9"/>
      <rect id="Rectangle_498" data-name="Rectangle 498" width="130.4" height="3" transform="translate(604.267 679.565) rotate(-59.124)" fill="#3db5c9"/>
      <rect id="Rectangle_499" data-name="Rectangle 499" width="27.8" height="3" transform="translate(826.026 473.887) rotate(-61.733)" fill="#3db5c9"/>
      <rect id="Rectangle_500" data-name="Rectangle 500" width="32.9" height="3" transform="matrix(0.525, -0.851, 0.851, 0.525, 407.165, 633.089)" fill="#3db5c9"/>
      <rect id="Rectangle_501" data-name="Rectangle 501" width="98.8" height="3" transform="translate(947.406 527.187) rotate(-61.485)" fill="#3db5c9"/>
      <rect id="Rectangle_502" data-name="Rectangle 502" width="17.8" height="3" transform="matrix(0.53, -0.848, 0.848, 0.53, 954.391, 470.087)" fill="#3db5c9"/>
      <rect id="Rectangle_503" data-name="Rectangle 503" width="39.8" height="3" transform="translate(1156.176 437.308) rotate(-60.33)" fill="#3db5c9"/>
      <rect id="Rectangle_504" data-name="Rectangle 504" width="105.4" height="3" transform="translate(1266.542 412.268) rotate(-63.737)" fill="#3db5c9"/>
      <rect id="Rectangle_505" data-name="Rectangle 505" width="84.4" height="3" transform="translate(1222.518 457.283) rotate(-63.435)" fill="#3db5c9"/>
      <rect id="Rectangle_506" data-name="Rectangle 506" width="35.4" height="3" transform="translate(1220.152 577.835) rotate(-64.785)" fill="#3db5c9"/>
      <rect id="Rectangle_507" data-name="Rectangle 507" width="114" height="3" transform="translate(1371.235 447.828) rotate(-65.537)" fill="#3db5c9"/>
      <rect id="Rectangle_508" data-name="Rectangle 508" width="30.4" height="3" transform="matrix(0.496, -0.868, 0.868, 0.496, 1406.983, 449.368)" fill="#3db5c9"/>
      <rect id="Rectangle_509" data-name="Rectangle 509" width="107" height="3" transform="translate(793.209 473.311) rotate(-60.982)" fill="#3db5c9"/>
      <rect id="Rectangle_510" data-name="Rectangle 510" width="143.2" height="3" transform="translate(1020.208 450.759) rotate(-64.437)" fill="#3db5c9"/>
      <rect id="Rectangle_511" data-name="Rectangle 511" width="50.2" height="3" transform="translate(1258.703 305.153) rotate(-65.537)" fill="#3db5c9"/>
      <rect id="Rectangle_512" data-name="Rectangle 512" width="44.8" height="3" transform="translate(1385.114 344.437) rotate(-68.199)" fill="#3db5c9"/>
    </g>
    <g id="Cross">
      <path id="Path_4560" data-name="Path 4560" d="M1413.5,559.9c12.4-1.7,24.7-7.8,32.5-18.6,8.9-12.4,10.6-30.3,5.1-44.9-12.7-33.6-62.9-43.9-83.6-13.8C1341.7,520,1376,565.2,1413.5,559.9Z" fill="#53caf1"/>
      <path id="Path_4561" data-name="Path 4561" d="M1447.2,488.5c-1.2,1-2.4,2-3.6,3.1a188.089,188.089,0,0,0-47.5,67.2,42.792,42.792,0,0,0,17.5,1.1c12.4-1.7,24.7-7.8,32.5-18.6,8.9-12.4,10.6-30.3,5.1-44.9A58.526,58.526,0,0,0,1447.2,488.5Z" fill="#25acba"/>
      <path id="Path_4562" data-name="Path 4562" d="M1407.5,561.8c-16.8,0-33.1-9.4-42.8-25-10.8-17.4-10.2-38,1.5-54.9,9.3-13.5,25.5-20.3,43.3-18.1,19.6,2.4,36.5,15,42.9,32.2,5.8,15.4,3.7,33.6-5.3,46.2-7.3,10.3-19.5,17.3-33.5,19.2h0A39.909,39.909,0,0,1,1407.5,561.8Zm-4.4-95.5c-14.2,0-26.8,6.2-34.4,17.2-11,16-11.6,35.3-1.5,51.7,10.2,16.6,28.3,25.7,46.1,23.2,13.1-1.8,24.6-8.4,31.5-18,8.4-11.7,10.4-29.2,5-43.5-6.1-16.1-22-28-40.5-30.3C1407.1,466.5,1405.1,466.3,1403.1,466.3Z" fill="#e04136"/>
      <path id="Path_4563" data-name="Path 4563" d="M1410.6,488.3c-16.3,18.1-24.7,49.3-24.7,49.3h15s22.1-46.8,25.6-49C1430,486.5,1410.6,488.3,1410.6,488.3Z" fill="#e04136"/>
      <path id="Path_4564" data-name="Path 4564" d="M1392.3,492.2c22.4,9.7,43,34.4,43,34.4l-11.5,2.5s-41.7-29.5-45.9-30C1373.9,498.6,1392.3,492.2,1392.3,492.2Z" fill="#e04136"/>
    </g>
    <g id="Paddle">
      <path id="Path_4565" data-name="Path 4565" d="M872.4,703.5c-66.1,89.1-169.3,242.6-169.3,242.6s-32.3-2.8-61.8,29.5-93.2,101.8-65.1,101.8,79.8,17.5,105.8-16.7c19.4-25.5,62.2-86,58.4-99.8-3.6-13.2-16.9-13.5-16.9-13.5S885.7,714.2,896.3,702.2c3.6-4.1-2.3-8.7-7.1-8.7C881.6,693.6,878.4,695.4,872.4,703.5Z" fill="#e04136"/>
      <path id="Path_4566" data-name="Path 4566" d="M571.4,1063.6c-3.6,8.4-2.9,13.8,4.9,13.8,27.9,0,79.1,17.3,105.3-16C644.7,1062.2,607.7,1057.6,571.4,1063.6Z" fill="#fe673c"/>
      <path id="Path_4567" data-name="Path 4567" d="M689.4,961.5c-43,60.2-57.1,76.7-47.6,80S710.2,961,710.2,961,699.7,947.1,689.4,961.5Z" fill="#fe673c"/>
      <path id="Path_4568" data-name="Path 4568" d="M877.2,689c-4.2.2-8.4.7-12.1,2.7-3.6,2-6.5,5.9-6.1,10.1l45.9,3.6c4.5.4,9.9.2,11.5-4.9,1.3-4.1-1-7.1-4.5-8.6C902.3,687.7,887.5,688.4,877.2,689Z" fill="#e04136"/>
    </g>
    <g id="Hand">
      <path id="Path_4569" data-name="Path 4569" d="M867.7,760.1c.8,8.4-10.9,13.4-10.9,13.4-.8,5.9-8.9,11.3-20.1-4.1-4.8-6.5-24.4,21.8-47.5,42.1-10.1,8.8-20.8,16.1-31.3,18.4a80.865,80.865,0,0,1-16.8,1.8h-3a7.57,7.57,0,0,1-1.5-.1c-.5,0-1-.1-1.5-.1s-1-.1-1.5-.1c-1-.1-2-.2-3-.4l-3.3-.6a33.92,33.92,0,0,1-4.3-1.1c-.5-.1-1-.3-1.5-.4-.5-.2-1-.3-1.5-.5a24.89,24.89,0,0,1-2.9-1.1c-26.3-10.8-46-43.8-22.8-125h61.2s-23.5,62-5,64.7,36.1-43.8,75.5-49.6,46.1,23.4,48.6,31.6C876.9,757.2,867.7,760.1,867.7,760.1Z" fill="#ffb0d8"/>
      <path id="Path_4570" data-name="Path 4570" d="M789.2,811.5c-10.1,8.8-20.8,16.1-31.3,18.4a80.865,80.865,0,0,1-16.8,1.8h-3a7.57,7.57,0,0,1-1.5-.1c-.5,0-1-.1-1.5-.1s-1-.1-1.5-.1c-1-.1-2-.2-3-.4l-3.3-.6c-1.4-.3-2.9-.7-4.3-1.1-.5-.1-1-.3-1.5-.4-.5-.2-1-.3-1.5-.5a24.89,24.89,0,0,1-2.9-1.1,60.225,60.225,0,0,1,8.9-10.7c12.8-6.5,27.6-9.6,41.8-9.8C774.3,806.8,782.5,809.4,789.2,811.5Z" fill="#dd689d"/>
      <path id="Path_4571" data-name="Path 4571" d="M658.1,795.8c.7,16.3,5.9,34.9,16.5,47.4,17.1,20.1,51.1,20.2,71.4,3.2s29.8-64.4,23.7-90.1c-2.8-11.9-12.1,3.4-21.5-4.5,16.2-5.9,10.4-44.1,4.7-60.3s-8.1-18.3-25.3-17.5-33,11.8-41.7,26.7C675.3,718.8,656.8,765.3,658.1,795.8Z" fill="#d2f1fc"/>
      <path id="Path_4572" data-name="Path 4572" d="M726.4,778.9l-2.6-1.4a68.51,68.51,0,0,1,24.8-26.7l1.6,2.5A66.553,66.553,0,0,0,726.4,778.9Z" fill="#3db5c9"/>
      <path id="Path_4573" data-name="Path 4573" d="M843.2,774.6c-.5,2.9-5.1,9.4-5.1,9.4s16.3,5.2,18.6-10.5C859.2,757.9,843.2,774.6,843.2,774.6Z" fill="#fe7eb2"/>
      <path id="Path_4574" data-name="Path 4574" d="M858.1,776.9l-2.9-.7a21.356,21.356,0,0,0-9.6-23.6l1.5-2.5a24.909,24.909,0,0,1,9.9,11.6A23.988,23.988,0,0,1,858.1,776.9Z" fill="#e04136"/>
      <path id="Path_4575" data-name="Path 4575" d="M868.5,763.2l-2.9-.6a20.419,20.419,0,0,0-8.8-21.2l1.6-2.5A23.248,23.248,0,0,1,868.5,763.2Z" fill="#e04136"/>
    </g>
  </g>
</svg>
