<svg width="100%" height="auto"  viewBox="0 0 480 398" fill="none" xmlns="http://www.w3.org/2000/svg">
<g filter="url(#filter0_d_147_9001)">
<path opacity="0.5" d="M4 79H248V188H476" stroke="url(#paint0_linear_147_9001)" style="" stroke-dasharray="8 8"/>
<g clip-path="url(#clip0_147_9001)">
<g clip-path="url(#clip1_147_9001)">
<g filter="url(#filter1_f_147_9001)">
<rect width="1.74828" height="46.3295" rx="0.218535" transform="matrix(-1 0 0 1 337 120.075)" fill="#565553" style="fill:#565553;fill:color(display-p3 0.3373 0.3333 0.3255);fill-opacity:1;"/>
<rect x="0.109268" y="-0.109268" width="1.96682" height="46.5481" rx="0.327803" transform="matrix(-1 0 0 1 337.219 120.075)" stroke="black" style="stroke:black;stroke-opacity:1;" stroke-width="0.218535"/>
</g>
<g filter="url(#filter2_f_147_9001)">
<rect x="0.109268" y="-0.109268" width="1.09268" height="45.6739" rx="0.152975" transform="matrix(-1 0 0 1 336.782 120.513)" stroke="#31302E" style="stroke:#31302E;stroke:color(display-p3 0.1922 0.1882 0.1804);stroke-opacity:1;" stroke-width="0.218535"/>
</g>
<g filter="url(#filter3_f_147_9001)">
<rect width="0.874142" height="3.0595" rx="0.0437071" transform="matrix(-1 0 0 1 336.563 120.513)" fill="url(#paint1_linear_147_9001)" style=""/>
</g>
<g filter="url(#filter4_f_147_9001)">
<rect x="336.563" y="165.968" width="0.874142" height="3.0595" rx="0.0437071" transform="rotate(180 336.563 165.968)" fill="url(#paint2_linear_147_9001)" style=""/>
</g>
</g>
<g clip-path="url(#clip2_147_9001)">
<g filter="url(#filter5_f_147_9001)">
<rect x="146" y="82.0503" width="1.74828" height="13.5492" rx="0.218535" fill="#565553" style="fill:#565553;fill:color(display-p3 0.3373 0.3333 0.3255);fill-opacity:1;"/>
<rect x="145.891" y="81.941" width="1.96682" height="13.7677" rx="0.327803" stroke="black" style="stroke:black;stroke-opacity:1;" stroke-width="0.218535"/>
</g>
<g filter="url(#filter6_f_147_9001)">
<rect x="146.328" y="82.4434" width="1.09268" height="12.8936" rx="0.152975" stroke="#31302E" style="stroke:#31302E;stroke:color(display-p3 0.1922 0.1882 0.1804);stroke-opacity:1;" stroke-width="0.218535"/>
</g>
<g filter="url(#filter7_f_147_9001)">
<rect x="146.437" y="82.5527" width="0.874142" height="1.74828" rx="0.0437071" fill="url(#paint3_linear_147_9001)" style=""/>
</g>
<g filter="url(#filter8_f_147_9001)">
<rect width="0.874142" height="1.74828" rx="0.0437071" transform="matrix(1 0 0 -1 146.437 95.2277)" fill="url(#paint4_linear_147_9001)" style=""/>
</g>
</g>
<g clip-path="url(#clip3_147_9001)">
<g filter="url(#filter9_f_147_9001)">
<rect x="146" y="109.586" width="1.74828" height="29.7208" rx="0.218535" fill="#565553" style="fill:#565553;fill:color(display-p3 0.3373 0.3333 0.3255);fill-opacity:1;"/>
<rect x="145.891" y="109.477" width="1.96682" height="29.9394" rx="0.327803" stroke="black" style="stroke:black;stroke-opacity:1;" stroke-width="0.218535"/>
</g>
<g filter="url(#filter10_f_147_9001)">
<rect x="146.328" y="109.914" width="1.09268" height="29.0652" rx="0.152975" stroke="#31302E" style="stroke:#31302E;stroke:color(display-p3 0.1922 0.1882 0.1804);stroke-opacity:1;" stroke-width="0.218535"/>
</g>
<g filter="url(#filter11_f_147_9001)">
<rect x="146.437" y="110.023" width="1.31121" height="3.0595" rx="0.0437071" fill="url(#paint5_linear_147_9001)" style=""/>
</g>
<g filter="url(#filter12_f_147_9001)">
<rect width="1.31121" height="3.0595" rx="0.0437071" transform="matrix(1 0 0 -1 146.437 138.87)" fill="url(#paint6_linear_147_9001)" style=""/>
</g>
</g>
<g clip-path="url(#clip4_147_9001)">
<g filter="url(#filter13_f_147_9001)">
<rect x="146" y="147.174" width="1.74828" height="29.7208" rx="0.218535" fill="#565553" style="fill:#565553;fill:color(display-p3 0.3373 0.3333 0.3255);fill-opacity:1;"/>
<rect x="145.891" y="147.065" width="1.96682" height="29.9394" rx="0.327803" stroke="black" style="stroke:black;stroke-opacity:1;" stroke-width="0.218535"/>
</g>
<g filter="url(#filter14_f_147_9001)">
<rect x="146.364" y="147.538" width="1.02106" height="28.9936" rx="0.117169" stroke="#31302E" style="stroke:#31302E;stroke:color(display-p3 0.1922 0.1882 0.1804);stroke-opacity:1;" stroke-width="0.146923"/>
</g>
<g filter="url(#filter15_f_147_9001)">
<rect x="146.437" y="147.611" width="1.31121" height="3.0595" rx="0.0437071" fill="url(#paint7_linear_147_9001)" style=""/>
</g>
<g filter="url(#filter16_f_147_9001)">
<rect width="1.31121" height="3.0595" rx="0.0437071" transform="matrix(1 0 0 -1 146.437 176.458)" fill="url(#paint8_linear_147_9001)" style=""/>
</g>
</g>
<g clip-path="url(#clip5_147_9001)">
<rect x="147.311" y="2.94049" width="188.378" height="388.119" rx="30.595" fill="black" style="fill:black;fill-opacity:1;"/>
<rect x="149.059" y="4.68841" width="184.881" height="384.622" rx="29.7208" stroke="#565553" style="stroke:#565553;stroke:color(display-p3 0.3373 0.3333 0.3255);stroke-opacity:1;" stroke-width="1.74828"/>
<rect x="147.748" y="3.37726" width="187.503" height="387.245" rx="30.1579" stroke="#3F3E3B" style="stroke:#3F3E3B;stroke:color(display-p3 0.2471 0.2431 0.2314);stroke-opacity:1;" stroke-width="0.874142"/>
<g opacity="0.9" filter="url(#filter17_f_147_9001)">
<rect x="148.185" y="3.81427" width="186.629" height="386.371" rx="30.1579" stroke="#31302E" style="stroke:#31302E;stroke:color(display-p3 0.1919 0.1891 0.1809);stroke-opacity:1;" stroke-width="0.874142"/>
</g>
<g opacity="0.8" filter="url(#filter18_f_147_9001)">
<rect x="150.589" y="6.21811" width="181.822" height="381.563" rx="28.1911" stroke="#646464" style="stroke:#646464;stroke:color(display-p3 0.3922 0.3922 0.3922);stroke-opacity:1;" stroke-width="0.437071"/>
</g>
<g clip-path="url(#clip6_147_9001)">
<g clip-path="url(#clip7_147_9001)">
<rect width="170.458" height="368.888" transform="translate(156.387 10.8078)" fill="#111111" style="fill:#111111;fill:color(display-p3 0.0667 0.0667 0.0667);fill-opacity:1;"/>
<rect x="156.387" y="10.3707" width="170.458" height="27.5355" fill="black" style="fill:black;fill-opacity:1;"/>
<path opacity="0.4" d="M169.789 48.8101C168.973 48.8101 168.268 48.6268 167.674 48.2603C167.084 47.8938 166.628 47.374 166.306 46.7007C165.987 46.0235 165.828 45.2208 165.828 44.2926V44.2806C165.828 43.3484 165.987 42.5457 166.306 41.8724C166.628 41.1952 167.084 40.6733 167.674 40.3068C168.264 39.9403 168.967 39.7571 169.783 39.7571C170.437 39.7571 171.026 39.8866 171.552 40.1455C172.078 40.4005 172.506 40.755 172.837 41.2092C173.168 41.6593 173.367 42.1772 173.434 42.7628L173.428 42.8106H171.923L171.917 42.7807C171.845 42.4421 171.71 42.1473 171.51 41.8963C171.311 41.6414 171.064 41.4442 170.769 41.3048C170.475 41.1613 170.146 41.0896 169.783 41.0896C169.297 41.0896 168.875 41.2191 168.517 41.4781C168.158 41.737 167.881 42.1055 167.686 42.5835C167.495 43.0576 167.399 43.6213 167.399 44.2746V44.2866C167.399 44.9399 167.495 45.5056 167.686 45.9836C167.881 46.4617 168.158 46.8302 168.517 47.0891C168.875 47.3481 169.299 47.4775 169.789 47.4775C170.156 47.4775 170.485 47.4138 170.775 47.2863C171.07 47.1588 171.315 46.9796 171.51 46.7485C171.71 46.5135 171.845 46.2386 171.917 45.9239L171.929 45.888H173.434V45.9358C173.359 46.5095 173.158 47.0114 172.831 47.4417C172.504 47.8719 172.082 48.2085 171.564 48.4516C171.046 48.6906 170.455 48.8101 169.789 48.8101ZM174.955 48.595V39.536H176.443V43.0676H176.544C176.7 42.713 176.935 42.4361 177.25 42.237C177.564 42.0378 177.957 41.9382 178.427 41.9382C178.913 41.9382 179.323 42.0338 179.658 42.225C179.992 42.4122 180.245 42.6871 180.417 43.0496C180.592 43.4122 180.68 43.8524 180.68 44.3702V48.595H179.192V44.7168C179.192 44.2069 179.084 43.8245 178.869 43.5695C178.658 43.3146 178.327 43.1871 177.877 43.1871C177.582 43.1871 177.327 43.2528 177.112 43.3843C176.897 43.5157 176.732 43.701 176.616 43.94C176.501 44.179 176.443 44.4619 176.443 44.7885V48.595H174.955ZM184.112 48.7025C183.702 48.7025 183.333 48.6229 183.007 48.4635C182.684 48.3042 182.429 48.0791 182.242 47.7883C182.059 47.4935 181.967 47.1469 181.967 46.7485V46.7366C181.967 46.3501 182.063 46.0175 182.254 45.7386C182.445 45.4558 182.726 45.2347 183.096 45.0754C183.467 44.916 183.917 44.8224 184.447 44.7945L186.861 44.6451V45.6251L184.656 45.7685C184.238 45.7924 183.929 45.8801 183.73 46.0314C183.531 46.1828 183.431 46.394 183.431 46.6649V46.6768C183.431 46.9557 183.537 47.1728 183.748 47.3281C183.963 47.4835 184.236 47.5612 184.566 47.5612C184.865 47.5612 185.132 47.5014 185.367 47.3819C185.602 47.2624 185.787 47.1011 185.923 46.8979C186.058 46.6908 186.126 46.4577 186.126 46.1988V44.1312C186.126 43.8045 186.022 43.5556 185.815 43.3843C185.608 43.209 185.301 43.1213 184.895 43.1213C184.556 43.1213 184.28 43.1811 184.064 43.3006C183.849 43.4161 183.704 43.5815 183.628 43.7966L183.622 43.8205H182.218L182.224 43.7667C182.272 43.4002 182.415 43.0795 182.654 42.8046C182.893 42.5298 183.21 42.3166 183.604 42.1652C183.999 42.0139 184.453 41.9382 184.967 41.9382C185.532 41.9382 186.01 42.0258 186.401 42.2011C186.791 42.3724 187.088 42.6234 187.291 42.954C187.494 43.2807 187.596 43.6731 187.596 44.1312V48.595H186.126V47.6986H186.024C185.905 47.9058 185.749 48.0851 185.558 48.2364C185.371 48.3878 185.156 48.5033 184.913 48.583C184.67 48.6627 184.403 48.7025 184.112 48.7025ZM191.847 48.6248C191.098 48.6248 190.559 48.4874 190.228 48.2125C189.897 47.9377 189.732 47.4875 189.732 46.8621V43.2169H188.716V42.0637H189.732V40.4622H191.244V42.0637H192.618V43.2169H191.244V46.5095C191.244 46.8322 191.311 47.0692 191.447 47.2206C191.586 47.368 191.809 47.4417 192.116 47.4417C192.224 47.4417 192.311 47.4397 192.379 47.4357C192.451 47.4277 192.53 47.4198 192.618 47.4118V48.5591C192.515 48.579 192.395 48.595 192.26 48.6069C192.128 48.6189 191.991 48.6248 191.847 48.6248ZM196.385 48.7264C195.832 48.7264 195.354 48.6488 194.951 48.4934C194.553 48.334 194.238 48.1149 194.007 47.8361C193.776 47.5532 193.639 47.2266 193.595 46.8561V46.8441H195.071L195.077 46.8561C195.156 47.0831 195.306 47.2684 195.525 47.4118C195.744 47.5552 196.039 47.6269 196.409 47.6269C196.656 47.6269 196.873 47.5931 197.061 47.5253C197.248 47.4536 197.395 47.356 197.503 47.2325C197.61 47.109 197.664 46.9656 197.664 46.8023V46.7903C197.664 46.5991 197.586 46.4398 197.431 46.3123C197.276 46.1808 197.019 46.0753 196.66 45.9956L195.603 45.7566C195.188 45.6649 194.846 45.5375 194.575 45.3741C194.304 45.2108 194.101 45.0096 193.965 44.7706C193.834 44.5316 193.768 44.2527 193.768 43.934V43.928C193.768 43.5337 193.878 43.1871 194.097 42.8883C194.32 42.5895 194.629 42.3565 195.023 42.1891C195.417 42.0218 195.871 41.9382 196.385 41.9382C196.915 41.9382 197.371 42.0178 197.754 42.1772C198.136 42.3365 198.435 42.5557 198.65 42.8345C198.865 43.1134 198.989 43.4301 199.021 43.7846V43.7966H197.622L197.616 43.7787C197.561 43.5715 197.427 43.3962 197.216 43.2528C197.009 43.1054 196.73 43.0317 196.379 43.0317C196.16 43.0317 195.963 43.0656 195.788 43.1333C195.617 43.201 195.481 43.2966 195.381 43.4201C195.286 43.5396 195.238 43.6811 195.238 43.8444V43.8504C195.238 43.9778 195.27 44.0894 195.334 44.185C195.401 44.2806 195.507 44.3643 195.65 44.436C195.794 44.5077 195.983 44.5714 196.218 44.6272L197.276 44.8602C197.917 45.0036 198.391 45.2168 198.698 45.4996C199.005 45.7825 199.158 46.1629 199.158 46.641V46.6529C199.158 47.0672 199.039 47.4297 198.8 47.7405C198.56 48.0512 198.232 48.2942 197.814 48.4695C197.395 48.6408 196.919 48.7264 196.385 48.7264Z" fill="#212529" style="fill:#212529;fill:color(display-p3 0.1294 0.1451 0.1608);fill-opacity:1;"/>
<path d="M161.632 37.4691C161.632 35.538 163.197 33.9725 165.128 33.9725H318.103C320.034 33.9725 321.6 35.538 321.6 37.4691V46.2105H161.632V37.4691Z" fill="#ADB5BD" style="fill:#ADB5BD;fill:color(display-p3 0.6784 0.7098 0.7412);fill-opacity:1;"/>
<g filter="url(#filter19_b_147_9001)">
<mask id="path-37-inside-1_147_9001" fill="white">
<path d="M156.387 338.611H326.845V379.696H156.387V338.611Z"/>
</mask>
<path d="M156.387 338.611H326.845V379.696H156.387V338.611Z" fill="white" style="fill:white;fill-opacity:1;"/>
<path d="M156.387 338.83H326.845V338.393H156.387V338.83Z" fill="#E9ECEF" style="fill:#E9ECEF;fill:color(display-p3 0.9137 0.9255 0.9373);fill-opacity:1;" mask="url(#path-37-inside-1_147_9001)"/>
<g clip-path="url(#clip8_147_9001)">
<path d="M167.179 348.638C167.179 348.904 167.378 349.13 167.706 349.13C167.865 349.13 168.003 349.048 168.126 348.94L168.715 348.449V353.217C168.715 353.975 169.171 354.421 169.95 354.421H176.88C177.658 354.421 178.114 353.975 178.114 353.217V348.418L178.739 348.94C178.862 349.048 179 349.13 179.159 349.13C179.456 349.13 179.681 348.945 179.681 348.653C179.681 348.479 179.615 348.341 179.482 348.233L178.114 347.081V344.904C178.114 344.674 177.965 344.525 177.735 344.525H177.044C176.818 344.525 176.665 344.674 176.665 344.904V345.862L174.155 343.752C173.714 343.383 173.161 343.383 172.716 343.752L167.378 348.233C167.245 348.346 167.179 348.495 167.179 348.638ZM174.903 350.057C174.903 349.816 174.749 349.663 174.508 349.663H172.352C172.116 349.663 171.952 349.816 171.952 350.057V353.417H170.216C169.893 353.417 169.719 353.238 169.719 352.915V347.603L173.217 344.674C173.356 344.551 173.515 344.551 173.653 344.674L177.11 347.573V352.915C177.11 353.238 176.936 353.417 176.613 353.417H174.903V350.057Z" fill="#6C757D" style="fill:#6C757D;fill:color(display-p3 0.4235 0.4588 0.4902);fill-opacity:1;"/>
<path d="M168.166 359.657V356.577H168.644V357.879H170.226V356.577H170.702V359.657H170.226V358.293H168.644V359.657H168.166ZM172.298 359.702C171.617 359.702 171.201 359.247 171.201 358.5V358.496C171.201 357.751 171.619 357.294 172.298 357.294C172.974 357.294 173.392 357.749 173.392 358.496V358.5C173.392 359.247 172.976 359.702 172.298 359.702ZM172.298 359.315C172.695 359.315 172.921 359.012 172.921 358.5V358.496C172.921 357.982 172.695 357.681 172.298 357.681C171.898 357.681 171.674 357.982 171.674 358.496V358.5C171.674 359.014 171.898 359.315 172.298 359.315ZM173.84 359.657V357.339H174.303V357.696H174.337C174.44 357.442 174.666 357.294 174.969 357.294C175.285 357.294 175.509 357.459 175.612 357.708H175.648C175.765 357.459 176.032 357.294 176.354 357.294C176.822 357.294 177.095 357.576 177.095 358.058V359.657H176.634V358.169C176.634 357.849 176.489 357.691 176.186 357.691C175.891 357.691 175.697 357.911 175.697 358.191V359.657H175.236V358.122C175.236 357.858 175.063 357.691 174.79 357.691C174.51 357.691 174.303 357.93 174.303 358.233V359.657H173.84ZM178.61 359.702C177.931 359.702 177.521 359.239 177.521 358.504V358.502C177.521 357.779 177.94 357.294 178.586 357.294C179.233 357.294 179.63 357.762 179.63 358.457V358.62H177.987C177.995 359.064 178.238 359.322 178.62 359.322C178.917 359.322 179.094 359.175 179.15 359.055L179.158 359.038L179.604 359.036L179.6 359.055C179.523 359.36 179.203 359.702 178.61 359.702ZM178.588 357.674C178.273 357.674 178.033 357.89 177.993 358.289H179.171C179.135 357.875 178.902 357.674 178.588 357.674Z" fill="#495057" style="fill:#495057;fill:color(display-p3 0.2863 0.3137 0.3412);fill-opacity:1;"/>
<path d="M202.064 344.617C201.952 345.14 201.911 345.831 201.911 346.292C201.911 350.17 204.226 352.73 207.76 352.73C209.496 352.73 210.526 351.957 211.038 351.389C211.458 351.983 211.694 352.618 211.96 353.458C212.037 353.709 212.216 353.811 212.416 353.811C212.81 353.811 213.133 353.468 213.133 352.997C213.133 352.285 212.098 351.035 211.56 350.533C209.281 348.423 205.819 349.688 204.953 347.393C204.892 347.23 205.061 347.096 205.214 347.25C206.992 349.079 209.312 347.552 211.519 349.575C211.714 349.755 211.955 349.662 211.991 349.452C212.016 349.309 212.032 349.073 212.032 348.838C212.032 346.328 210.29 345.068 207.775 345.068C206.945 345.068 205.972 345.278 205.214 345.278C204.4 345.278 203.478 345.217 202.735 344.433C202.5 344.187 202.151 344.238 202.064 344.617Z" fill="#6C757D" style="fill:#6C757D;fill:color(display-p3 0.4235 0.4588 0.4902);fill-opacity:1;"/>
<path d="M199.702 359.657V356.577H201.657V356.989H200.18V357.89H201.578V358.287H200.18V359.245H201.657V359.657H199.702ZM202.011 359.657L202.781 358.502L202.004 357.339H202.54L203.039 358.167H203.076L203.571 357.339H204.083L203.317 358.483L204.091 359.657H203.564L203.056 358.82H203.022L202.514 359.657H202.011ZM204.467 360.429V357.339H204.93V357.704H204.964C205.098 357.45 205.352 357.299 205.677 357.299C206.262 357.299 206.637 357.766 206.637 358.496V358.5C206.637 359.234 206.266 359.695 205.677 359.695C205.359 359.695 205.088 359.539 204.964 359.29H204.93V360.429H204.467ZM205.547 359.3C205.933 359.3 206.165 358.997 206.165 358.5V358.496C206.165 357.997 205.933 357.696 205.547 357.696C205.16 357.696 204.921 358.001 204.921 358.496V358.5C204.921 358.995 205.16 359.3 205.547 359.3ZM207.111 359.657V356.43H207.574V359.657H207.111ZM209.14 359.702C208.459 359.702 208.043 359.247 208.043 358.5V358.496C208.043 357.751 208.461 357.294 209.14 357.294C209.816 357.294 210.235 357.749 210.235 358.496V358.5C210.235 359.247 209.818 359.702 209.14 359.702ZM209.14 359.315C209.537 359.315 209.763 359.012 209.763 358.5V358.496C209.763 357.982 209.537 357.681 209.14 357.681C208.741 357.681 208.517 357.982 208.517 358.496V358.5C208.517 359.014 208.741 359.315 209.14 359.315ZM210.682 359.657V357.339H211.146V357.689H211.18C211.263 357.444 211.479 357.299 211.788 357.299C211.863 357.299 211.944 357.309 211.991 357.32V357.747C211.907 357.73 211.829 357.719 211.741 357.719C211.387 357.719 211.146 357.937 211.146 358.272V359.657H210.682ZM213.241 359.702C212.562 359.702 212.153 359.239 212.153 358.504V358.502C212.153 357.779 212.571 357.294 213.218 357.294C213.864 357.294 214.261 357.762 214.261 358.457V358.62H212.618C212.626 359.064 212.87 359.322 213.252 359.322C213.548 359.322 213.725 359.175 213.781 359.055L213.789 359.038L214.235 359.036L214.231 359.055C214.154 359.36 213.834 359.702 213.241 359.702ZM213.22 357.674C212.904 357.674 212.665 357.89 212.624 358.289H213.802C213.766 357.875 213.533 357.674 213.22 357.674ZM214.707 359.657V357.339H215.17V357.689H215.204C215.287 357.444 215.503 357.299 215.812 357.299C215.887 357.299 215.968 357.309 216.015 357.32V357.747C215.932 357.73 215.853 357.719 215.765 357.719C215.411 357.719 215.17 357.937 215.17 358.272V359.657H214.707Z" fill="#495057" style="fill:#495057;fill:color(display-p3 0.2863 0.3137 0.3412);fill-opacity:1;"/>
<path d="M241.616 354.19C244.51 354.19 246.907 351.798 246.907 348.899C246.907 346.005 244.51 343.608 241.611 343.608C238.717 343.608 236.325 346.005 236.325 348.899C236.325 351.798 238.722 354.19 241.616 354.19ZM241.616 349.739C240.612 349.734 239.833 348.894 239.833 347.788C239.828 346.743 240.617 345.872 241.616 345.872C242.609 345.872 243.393 346.743 243.393 347.788C243.393 348.894 242.614 349.75 241.616 349.739ZM241.616 353.325C240.468 353.325 239.249 352.848 238.476 352.013C239.06 351.133 240.233 350.625 241.616 350.625C242.983 350.625 244.161 351.122 244.75 352.013C243.977 352.848 242.763 353.325 241.616 353.325Z" fill="#6C757D" style="fill:#6C757D;fill:color(display-p3 0.4235 0.4588 0.4902);fill-opacity:1;"/>
<path d="M238.64 359.732C237.784 359.732 237.251 359.113 237.251 358.12V358.116C237.251 357.122 237.782 356.503 238.638 356.503C239.317 356.503 239.837 356.932 239.919 357.544L239.916 357.555H239.443V357.548C239.353 357.171 239.044 356.925 238.638 356.925C238.085 356.925 237.74 357.384 237.74 358.116V358.12C237.74 358.85 238.085 359.309 238.64 359.309C239.048 359.309 239.353 359.091 239.441 358.743L239.445 358.735H239.919V358.748C239.829 359.339 239.327 359.732 238.64 359.732ZM240.411 359.657V356.43H240.874V357.691H240.908C241.022 357.444 241.244 357.294 241.581 357.294C242.099 357.294 242.385 357.604 242.385 358.157V359.657H241.924V358.265C241.924 357.881 241.764 357.691 241.425 357.691C241.086 357.691 240.874 357.924 240.874 358.297V359.657H240.411ZM243.563 359.695C243.121 359.695 242.795 359.426 242.795 359.006V359.002C242.795 358.588 243.106 358.347 243.659 358.312L244.286 358.276V358.071C244.286 357.817 244.126 357.676 243.813 357.676C243.557 357.676 243.388 357.77 243.333 357.935L243.33 357.943H242.884L242.887 357.928C242.942 357.548 243.307 357.294 243.834 357.294C244.417 357.294 244.745 357.585 244.745 358.071V359.657H244.286V359.328H244.25C244.114 359.563 243.87 359.695 243.563 359.695ZM243.256 358.987C243.256 359.2 243.437 359.326 243.687 359.326C244.033 359.326 244.286 359.1 244.286 358.801V358.603L243.721 358.639C243.401 358.658 243.256 358.773 243.256 358.982V358.987ZM246.168 359.672C245.658 359.672 245.449 359.493 245.449 359.046V357.704H245.086V357.339H245.449V356.754H245.921V357.339H246.418V357.704H245.921V358.936C245.921 359.185 246.015 359.288 246.243 359.288C246.314 359.288 246.354 359.286 246.418 359.279V359.648C246.343 359.661 246.258 359.672 246.168 359.672Z" fill="#495057" style="fill:#495057;fill:color(display-p3 0.2863 0.3137 0.3412);fill-opacity:1;"/>
<path d="M270.3 350.196C270.617 350.506 271.224 350.578 271.694 350.144C271.862 349.995 272.194 349.638 272.714 349.106C275.266 346.493 276.838 344.846 277.119 345.104C277.344 345.311 276.476 346.555 275.608 347.774C274.021 350 272.684 351.626 273.689 352.644C274.475 353.439 275.67 352.716 277.584 351.017C278.61 350.103 279.324 349.426 279.503 349.602C279.615 349.716 279.345 350.165 278.997 350.769C278.507 351.626 277.854 352.597 278.492 353.243C278.936 353.692 279.783 353.496 280.769 352.509C280.973 352.308 281.019 352.065 280.845 351.895C280.687 351.735 280.462 351.761 280.294 351.916C279.656 352.535 279.181 352.804 279.105 352.716C279.008 352.623 279.278 352.132 279.748 351.286C280.396 350.113 280.794 349.328 280.197 348.74C279.396 347.955 278.456 348.786 276.828 350.237C275.445 351.466 274.878 351.786 274.751 351.647C274.567 351.451 275.078 350.754 276.588 348.616C278.222 346.313 279.191 344.815 278.273 343.906C277.073 342.724 275.46 343.596 271.464 347.598C270.882 348.177 270.52 348.528 270.341 348.745C269.877 349.287 269.979 349.886 270.3 350.196Z" fill="#6C757D" style="fill:#6C757D;fill:color(display-p3 0.4235 0.4588 0.4902);fill-opacity:1;"/>
<path d="M269.014 359.657V356.577H270.214C270.818 356.577 271.236 356.983 271.236 357.587V357.591C271.236 358.193 270.818 358.605 270.214 358.605H269.492V359.657H269.014ZM270.094 356.981H269.492V358.204H270.094C270.508 358.204 270.749 357.979 270.749 357.593V357.589C270.749 357.205 270.508 356.981 270.094 356.981ZM271.694 359.657V357.339H272.158V357.689H272.192C272.275 357.444 272.491 357.299 272.8 357.299C272.875 357.299 272.956 357.309 273.003 357.32V357.747C272.919 357.73 272.841 357.719 272.753 357.719C272.399 357.719 272.158 357.937 272.158 358.272V359.657H271.694ZM274.262 359.702C273.581 359.702 273.165 359.247 273.165 358.5V358.496C273.165 357.751 273.583 357.294 274.262 357.294C274.938 357.294 275.356 357.749 275.356 358.496V358.5C275.356 359.247 274.94 359.702 274.262 359.702ZM274.262 359.315C274.658 359.315 274.885 359.012 274.885 358.5V358.496C274.885 357.982 274.658 357.681 274.262 357.681C273.862 357.681 273.638 357.982 273.638 358.496V358.5C273.638 359.014 273.862 359.315 274.262 359.315ZM275.968 359.657V357.704H275.586V357.339H275.968V357.096C275.968 356.635 276.201 356.409 276.686 356.409C276.788 356.409 276.878 356.415 276.959 356.43V356.769C276.916 356.763 276.854 356.759 276.782 356.759C276.526 356.759 276.425 356.882 276.425 357.117V357.339H276.94V357.704H276.429V359.657H275.968ZM277.597 356.925C277.436 356.925 277.306 356.795 277.306 356.637C277.306 356.477 277.436 356.347 277.597 356.347C277.754 356.347 277.887 356.477 277.887 356.637C277.887 356.795 277.754 356.925 277.597 356.925ZM277.364 359.657V357.339H277.825V359.657H277.364ZM278.416 359.657V356.43H278.879V359.657H278.416ZM280.436 359.702C279.758 359.702 279.348 359.239 279.348 358.504V358.502C279.348 357.779 279.766 357.294 280.413 357.294C281.06 357.294 281.457 357.762 281.457 358.457V358.62H279.813C279.822 359.064 280.065 359.322 280.447 359.322C280.744 359.322 280.921 359.175 280.976 359.055L280.985 359.038L281.431 359.036L281.427 359.055C281.35 359.36 281.03 359.702 280.436 359.702ZM280.415 357.674C280.099 357.674 279.86 357.89 279.82 358.289H280.998C280.961 357.875 280.729 357.674 280.415 357.674Z" fill="#495057" style="fill:#495057;fill:color(display-p3 0.2863 0.3137 0.3412);fill-opacity:1;"/>
<path d="M309.328 354.339H310.265C310.567 354.339 310.798 354.16 310.859 353.862L311.12 352.771C311.294 352.71 311.463 352.643 311.617 352.572L312.57 353.156C312.821 353.314 313.113 353.289 313.323 353.079L313.978 352.423C314.188 352.213 314.219 351.906 314.05 351.655L313.471 350.712C313.543 350.554 313.615 350.39 313.666 350.231L314.762 349.97C315.059 349.903 315.238 349.678 315.238 349.376V348.454C315.238 348.152 315.059 347.926 314.762 347.86L313.676 347.598C313.615 347.414 313.543 347.25 313.482 347.112L314.06 346.149C314.224 345.893 314.204 345.606 313.989 345.391L313.323 344.735C313.108 344.541 312.841 344.505 312.585 344.648L311.617 345.242C311.469 345.171 311.305 345.104 311.12 345.043L310.859 343.936C310.798 343.639 310.567 343.46 310.265 343.46H309.328C309.02 343.46 308.795 343.639 308.728 343.941L308.472 345.032C308.293 345.094 308.119 345.16 307.965 345.237L307.002 344.648C306.746 344.505 306.48 344.535 306.265 344.735L305.599 345.391C305.384 345.606 305.363 345.893 305.527 346.149L306.106 347.112C306.044 347.25 305.973 347.414 305.916 347.598L304.831 347.86C304.534 347.926 304.354 348.152 304.354 348.454V349.376C304.354 349.678 304.534 349.903 304.831 349.97L305.927 350.231C305.978 350.39 306.044 350.554 306.116 350.712L305.537 351.655C305.368 351.906 305.399 352.213 305.609 352.423L306.265 353.079C306.475 353.289 306.772 353.314 307.023 353.156L307.97 352.572C308.124 352.643 308.293 352.71 308.472 352.771L308.728 353.862C308.795 354.16 309.02 354.339 309.328 354.339ZM309.799 350.692C308.81 350.692 308.001 349.883 308.001 348.894C308.001 347.916 308.81 347.107 309.799 347.107C310.782 347.107 311.586 347.916 311.586 348.894C311.586 349.883 310.782 350.692 309.799 350.692Z" fill="#007AFF" style="fill:#007AFF;fill:color(display-p3 0.0000 0.4784 1.0000);fill-opacity:1;"/>
<path d="M303.005 359.732C302.309 359.732 301.863 359.379 301.821 358.861L301.819 358.833H302.288L302.29 358.857C302.316 359.136 302.612 359.315 303.024 359.315C303.417 359.315 303.697 359.119 303.697 358.833V358.831C303.697 358.594 303.53 358.44 303.123 358.353L302.785 358.28C302.16 358.148 301.891 357.858 301.891 357.403V357.401C301.893 356.87 302.354 356.503 303.007 356.503C303.66 356.503 304.087 356.872 304.121 357.35L304.123 357.38H303.66L303.656 357.352C303.616 357.1 303.374 356.917 303.001 356.919C302.64 356.919 302.373 357.087 302.373 357.378V357.38C302.373 357.608 302.536 357.757 302.935 357.843L303.27 357.918C303.916 358.056 304.181 358.317 304.181 358.773V358.775C304.181 359.364 303.722 359.732 303.005 359.732ZM305.626 359.702C304.947 359.702 304.537 359.239 304.537 358.504V358.502C304.537 357.779 304.955 357.294 305.602 357.294C306.249 357.294 306.646 357.762 306.646 358.457V358.62H305.002C305.011 359.064 305.254 359.322 305.636 359.322C305.933 359.322 306.11 359.175 306.165 359.055L306.174 359.038L306.62 359.036L306.616 359.055C306.539 359.36 306.219 359.702 305.626 359.702ZM305.604 357.674C305.288 357.674 305.049 357.89 305.009 358.289H306.187C306.151 357.875 305.918 357.674 305.604 357.674ZM307.966 359.672C307.456 359.672 307.247 359.493 307.247 359.046V357.704H306.884V357.339H307.247V356.754H307.719V357.339H308.216V357.704H307.719V358.936C307.719 359.185 307.813 359.288 308.041 359.288C308.111 359.288 308.152 359.286 308.216 359.279V359.648C308.141 359.661 308.056 359.672 307.966 359.672ZM309.535 359.672C309.025 359.672 308.815 359.493 308.815 359.046V357.704H308.453V357.339H308.815V356.754H309.287V357.339H309.784V357.704H309.287V358.936C309.287 359.185 309.381 359.288 309.609 359.288C309.68 359.288 309.72 359.286 309.784 359.279V359.648C309.71 359.661 309.624 359.672 309.535 359.672ZM310.461 356.925C310.3 356.925 310.17 356.795 310.17 356.637C310.17 356.477 310.3 356.347 310.461 356.347C310.618 356.347 310.751 356.477 310.751 356.637C310.751 356.795 310.618 356.925 310.461 356.925ZM310.228 359.657V357.339H310.689V359.657H310.228ZM311.258 359.657V357.339H311.721V357.691H311.756C311.869 357.444 312.091 357.294 312.428 357.294C312.946 357.294 313.232 357.604 313.232 358.157V359.657H312.771V358.265C312.771 357.881 312.611 357.691 312.272 357.691C311.933 357.691 311.721 357.924 311.721 358.297V359.657H311.258ZM314.754 360.474C314.165 360.474 313.802 360.216 313.746 359.83L313.751 359.825H314.218L314.22 359.83C314.259 359.99 314.446 360.103 314.76 360.103C315.142 360.103 315.368 359.924 315.368 359.608V359.151H315.334C315.193 359.403 314.937 359.544 314.619 359.544C314.024 359.544 313.657 359.085 313.657 358.432V358.428C313.657 357.766 314.026 357.299 314.628 357.299C314.952 357.299 315.204 357.459 315.339 357.719H315.366V357.339H315.827V359.61C315.827 360.137 315.411 360.474 314.754 360.474ZM314.747 359.162C315.14 359.162 315.377 358.863 315.377 358.43V358.425C315.377 357.994 315.138 357.691 314.747 357.691C314.353 357.691 314.131 357.994 314.131 358.425V358.43C314.131 358.861 314.353 359.162 314.747 359.162ZM317.231 359.702C316.672 359.702 316.318 359.439 316.273 359.051V359.049H316.736L316.738 359.051C316.796 359.226 316.964 359.343 317.24 359.343C317.526 359.343 317.724 359.213 317.724 359.023V359.019C317.724 358.874 317.615 358.775 317.346 358.714L316.977 358.628C316.54 358.528 316.337 358.329 316.337 357.99V357.988C316.337 357.585 316.713 357.294 317.238 357.294C317.767 357.294 318.106 357.559 318.147 357.937V357.939H317.705V357.935C317.66 357.772 317.496 357.651 317.235 357.651C316.981 357.651 316.798 357.777 316.798 357.962V357.967C316.798 358.112 316.905 358.201 317.165 358.263L317.532 358.347C317.978 358.451 318.192 358.641 318.192 358.976V358.98C318.192 359.409 317.782 359.702 317.231 359.702Z" fill="#495057" style="fill:#495057;fill:color(display-p3 0.2863 0.3137 0.3412);fill-opacity:1;"/>
</g>
<rect x="212.332" y="372.266" width="58.5675" height="2.18535" rx="1.09268" fill="black" style="fill:black;fill-opacity:1;"/>
</g>
<g filter="url(#filter20_b_147_9001)">
<g clip-path="url(#clip9_147_9001)">
<path d="M156.387 42.2769C156.387 39.3802 158.735 37.032 161.632 37.032H321.6C324.496 37.032 326.845 39.3802 326.845 42.2769V385.378H156.387V42.2769Z" fill="#FAFAFA" style="fill:#FAFAFA;fill:color(display-p3 0.9804 0.9804 0.9804);fill-opacity:1;"/>
<rect x="233.749" y="44.0252" width="15.7346" height="2.18535" rx="1.09268" fill="#ADB5BD" style="fill:#ADB5BD;fill:color(display-p3 0.6784 0.7098 0.7412);fill-opacity:1;"/>
<path d="M206.799 80.6505C204.821 80.6505 203.518 79.7184 203.417 78.1707L203.411 78.0811H204.887L204.899 78.1528C205.012 78.8937 205.771 79.3538 206.853 79.3538C207.94 79.3538 208.621 78.8698 208.621 78.1289V78.1229C208.621 77.4775 208.173 77.1309 207.062 76.8979L206.136 76.7067C204.438 76.3541 203.602 75.5653 203.602 74.2806V74.2746C203.608 72.7568 204.94 71.729 206.799 71.729C208.681 71.729 209.912 72.721 210.002 74.1969L210.008 74.2985H208.532L208.52 74.2268C208.418 73.4739 207.755 73.0257 206.787 73.0257C205.777 73.0317 205.15 73.5038 205.15 74.1909V74.1969C205.15 74.8064 205.622 75.165 206.661 75.3801L207.594 75.5713C209.386 75.9418 210.169 76.6708 210.169 78.0153V78.0213C210.169 79.6287 208.902 80.6505 206.799 80.6505ZM213.882 80.6266C212 80.6266 210.823 79.3598 210.823 77.3281V77.3222C210.823 75.3024 212.018 74.0356 213.864 74.0356C215.531 74.0356 216.571 75.0933 216.661 76.3601L216.667 76.4079H215.262L215.25 76.3541C215.125 75.7386 214.671 75.2426 213.882 75.2426C212.944 75.2426 212.34 76.0374 212.34 77.3341V77.3401C212.34 78.6607 212.95 79.4256 213.888 79.4256C214.641 79.4256 215.119 78.9774 215.256 78.3141L215.268 78.2603H216.673L216.667 78.3021C216.553 79.6227 215.484 80.6266 213.882 80.6266ZM219.346 80.6087C218.079 80.6087 217.225 79.8259 217.225 78.6965V78.6846C217.225 77.5612 218.097 76.8859 219.633 76.7903L221.288 76.6887V76.2525C221.288 75.6131 220.87 75.2247 220.117 75.2247C219.412 75.2247 218.981 75.5534 218.886 76.0195L218.874 76.0733H217.494L217.5 76.0015C217.589 74.8781 218.563 74.0356 220.171 74.0356C221.754 74.0356 222.776 74.8722 222.776 76.145V80.5012H221.288V79.5271H221.252C220.888 80.1904 220.183 80.6087 219.346 80.6087ZM218.707 78.6368C218.707 79.1567 219.137 79.4734 219.788 79.4734C220.643 79.4734 221.288 78.9057 221.288 78.1528V77.6747L219.842 77.7643C219.107 77.8121 218.707 78.1289 218.707 78.6308V78.6368ZM223.89 80.5012V74.167H225.378V75.159H225.407C225.736 74.4778 226.381 74.0356 227.344 74.0356C228.736 74.0356 229.531 74.9319 229.531 76.4019V80.5012H228.043V76.7007C228.043 75.7984 227.624 75.2905 226.776 75.2905C225.921 75.2905 225.378 75.9119 225.378 76.8262V80.5012H223.89ZM236.951 80.6505C234.429 80.6505 232.857 78.9356 232.857 76.1928V76.1808C232.857 73.444 234.441 71.729 236.951 71.729C239.466 71.729 241.038 73.444 241.038 76.1808V76.1928C241.038 77.7823 240.512 79.0312 239.574 79.796L240.703 81.3736H239.174L238.48 80.4056C238.02 80.5669 237.506 80.6505 236.951 80.6505ZM236.951 79.312C237.196 79.312 237.423 79.2821 237.638 79.2284L236.562 77.7225H238.092L238.702 78.571C239.192 78.0273 239.466 77.2086 239.466 76.1928V76.1808C239.466 74.2686 238.492 73.0675 236.951 73.0675C235.415 73.0675 234.435 74.2627 234.435 76.1808V76.1928C234.435 78.1109 235.409 79.312 236.951 79.312ZM242.182 80.5012V71.8784H245.624C247.464 71.8784 248.587 72.9002 248.587 74.5674V74.5794C248.587 75.7386 247.966 76.6768 246.962 77.0413L248.844 80.5012H247.088L245.39 77.2743H243.723V80.5012H242.182ZM243.723 76.0553H245.462C246.436 76.0553 247.01 75.5175 247.01 74.5913V74.5794C247.01 73.677 246.4 73.1273 245.432 73.1273H243.723V76.0553ZM255.858 80.6505C253.378 80.6505 251.813 78.9415 251.813 76.1868V76.1808C251.813 73.4261 253.384 71.729 255.858 71.729C257.842 71.729 259.3 72.966 259.527 74.7228L259.533 74.7825H258.021L257.991 74.669C257.74 73.683 256.982 73.0675 255.858 73.0675C254.352 73.0675 253.39 74.2686 253.39 76.1808V76.1868C253.39 78.105 254.358 79.312 255.858 79.312C256.958 79.312 257.728 78.7204 258.009 77.6568L258.027 77.597H259.539L259.527 77.6568C259.306 79.4256 257.842 80.6505 255.858 80.6505ZM263.276 80.6266C261.412 80.6266 260.211 79.3837 260.211 77.3341V77.3222C260.211 75.2905 261.43 74.0356 263.27 74.0356C265.117 74.0356 266.342 75.2785 266.342 77.3222V77.3341C266.342 79.3897 265.134 80.6266 263.276 80.6266ZM263.282 79.4256C264.22 79.4256 264.824 78.6607 264.824 77.3341V77.3222C264.824 76.0015 264.214 75.2426 263.27 75.2426C262.344 75.2426 261.728 76.0075 261.728 77.3222V77.3341C261.728 78.6667 262.332 79.4256 263.282 79.4256ZM269.565 80.6266C267.963 80.6266 266.947 79.3718 266.947 77.3341V77.3281C266.947 75.2845 267.969 74.0356 269.559 74.0356C270.455 74.0356 271.178 74.4957 271.537 75.2546H271.572V71.8784H273.06V80.5012H271.572V79.4256H271.537C271.178 80.1725 270.479 80.6266 269.565 80.6266ZM270.013 79.3718C270.933 79.3718 271.572 78.577 271.572 77.3341V77.3281C271.572 76.0912 270.927 75.2905 270.013 75.2905C269.063 75.2905 268.465 76.0673 268.465 77.3281V77.3341C268.465 78.5949 269.057 79.3718 270.013 79.3718ZM277.006 80.6266C275.106 80.6266 273.959 79.3658 273.959 77.352V77.3461C273.959 75.3502 275.124 74.0356 276.935 74.0356C278.745 74.0356 279.869 75.3084 279.869 77.2206V77.6986H275.435C275.459 78.8101 276.068 79.4674 277.036 79.4674C277.777 79.4674 278.261 79.073 278.405 78.6487L278.417 78.6069H279.809L279.791 78.6726C279.594 79.6467 278.662 80.6266 277.006 80.6266ZM276.953 75.2008C276.164 75.2008 275.572 75.7326 275.453 76.7067H278.423C278.315 75.7028 277.741 75.2008 276.953 75.2008Z" fill="#111214" style="fill:#111214;fill:color(display-p3 0.0667 0.0706 0.0784);fill-opacity:1;"/>
<g filter="url(#filter21_b_147_9001)">
<rect x="307.614" y="44.4623" width="13.1121" height="13.1121" rx="6.55606" fill="#E9ECEF" style="fill:#E9ECEF;fill:color(display-p3 0.9137 0.9255 0.9373);fill-opacity:1;"/>
<path d="M311.666 52.9173C311.509 53.0746 311.505 53.3539 311.669 53.5176C311.836 53.6813 312.115 53.6781 312.269 53.524L314.17 51.6235L316.067 53.5208C316.228 53.6813 316.504 53.6813 316.668 53.5176C316.831 53.3507 316.831 53.0778 316.671 52.9173L314.773 51.02L316.671 49.1195C316.831 48.9589 316.835 48.6829 316.668 48.5191C316.504 48.3554 316.228 48.3554 316.067 48.5159L314.17 50.4132L312.269 48.5159C312.115 48.3586 311.833 48.3522 311.669 48.5191C311.505 48.6829 311.509 48.9654 311.666 49.1195L313.563 51.02L311.666 52.9173Z" fill="#111214" style="fill:#111214;fill:color(display-p3 0.0667 0.0706 0.0784);fill-opacity:1;"/>
</g>
<rect x="190.167" y="115.394" width="102.897" height="102.897" rx="7.74142" stroke="#DEE2E6" style="stroke:#DEE2E6;stroke:color(display-p3 0.8706 0.8863 0.9020);stroke-opacity:1;" stroke-width="2" stroke-dasharray="80 80"/>
<path d="M191.163 239.396C189.766 239.396 188.885 238.399 188.885 236.815V236.808C188.885 235.244 189.776 234.23 191.156 234.23C192.276 234.23 193.071 234.865 193.249 235.818L193.256 235.852H192.491L192.481 235.818C192.303 235.234 191.832 234.906 191.156 234.906C190.244 234.906 189.667 235.644 189.667 236.805V236.812C189.667 237.99 190.248 238.72 191.173 238.72C191.979 238.72 192.529 238.211 192.535 237.453V237.344H191.269V236.726H193.29V237.337C193.29 238.587 192.453 239.396 191.163 239.396ZM195.778 239.349C194.689 239.349 194.023 238.621 194.023 237.426V237.419C194.023 236.228 194.692 235.497 195.778 235.497C196.86 235.497 197.53 236.224 197.53 237.419V237.426C197.53 238.621 196.864 239.349 195.778 239.349ZM195.778 238.731C196.413 238.731 196.775 238.246 196.775 237.426V237.419C196.775 236.596 196.413 236.115 195.778 236.115C195.14 236.115 194.781 236.596 194.781 237.419V237.426C194.781 238.249 195.14 238.731 195.778 238.731ZM201.621 239.301C200.805 239.301 200.471 239.014 200.471 238.3V236.152H199.89V235.569H200.471V234.633H201.225V235.569H202.021V236.152H201.225V238.123C201.225 238.522 201.376 238.686 201.741 238.686C201.854 238.686 201.918 238.683 202.021 238.672V239.263C201.901 239.284 201.765 239.301 201.621 239.301ZM204.362 239.349C203.273 239.349 202.607 238.621 202.607 237.426V237.419C202.607 236.228 203.276 235.497 204.362 235.497C205.445 235.497 206.114 236.224 206.114 237.419V237.426C206.114 238.621 205.448 239.349 204.362 239.349ZM204.362 238.731C204.997 238.731 205.359 238.246 205.359 237.426V237.419C205.359 236.596 204.997 236.115 204.362 236.115C203.724 236.115 203.365 236.596 203.365 237.419V237.426C203.365 238.249 203.724 238.731 204.362 238.731ZM288.059 239.301C287.243 239.301 286.908 239.014 286.908 238.3V236.152H286.328V235.569H286.908V234.633H287.663V235.569H288.459V236.152H287.663V238.123C287.663 238.522 287.813 238.686 288.179 238.686C288.291 238.686 288.356 238.683 288.459 238.672V239.263C288.339 239.284 288.202 239.301 288.059 239.301ZM290.8 239.349C289.71 239.349 289.045 238.621 289.045 237.426V237.419C289.045 236.228 289.714 235.497 290.8 235.497C291.882 235.497 292.551 236.224 292.551 237.419V237.426C292.551 238.621 291.886 239.349 290.8 239.349ZM290.8 238.731C291.435 238.731 291.797 238.246 291.797 237.426V237.419C291.797 236.596 291.435 236.115 290.8 236.115C290.161 236.115 289.803 236.596 289.803 237.419V237.426C289.803 238.249 290.161 238.731 290.8 238.731ZM220.558 248.277V243.114H221.299V248.277H220.558ZM223.92 248.349C222.831 248.349 222.165 247.621 222.165 246.426V246.419C222.165 245.228 222.835 244.497 223.92 244.497C225.003 244.497 225.672 245.224 225.672 246.419V246.426C225.672 247.621 225.006 248.349 223.92 248.349ZM223.92 247.731C224.556 247.731 224.918 247.246 224.918 246.426V246.419C224.918 245.596 224.556 245.115 223.92 245.115C223.282 245.115 222.923 245.596 222.923 246.419V246.426C222.923 247.249 223.282 247.731 223.92 247.731ZM228.071 249.585C227.129 249.585 226.549 249.171 226.46 248.553L226.467 248.547H227.214L227.218 248.553C227.279 248.81 227.58 248.991 228.082 248.991C228.693 248.991 229.055 248.704 229.055 248.198V247.468H229C228.775 247.871 228.365 248.096 227.856 248.096C226.904 248.096 226.316 247.362 226.316 246.317V246.31C226.316 245.252 226.907 244.504 227.87 244.504C228.389 244.504 228.792 244.76 229.007 245.176H229.051V244.569H229.789V248.202C229.789 249.045 229.123 249.585 228.071 249.585ZM228.061 247.485C228.689 247.485 229.069 247.007 229.069 246.313V246.307C229.069 245.617 228.686 245.132 228.061 245.132C227.429 245.132 227.074 245.617 227.074 246.307V246.313C227.074 247.003 227.429 247.485 228.061 247.485ZM231.188 243.906C230.932 243.906 230.723 243.698 230.723 243.445C230.723 243.189 230.932 242.981 231.188 242.981C231.44 242.981 231.652 243.189 231.652 243.445C231.652 243.698 231.44 243.906 231.188 243.906ZM230.816 248.277V244.569H231.553V248.277H230.816ZM232.58 248.277V244.569H233.321V245.132H233.375C233.556 244.736 233.911 244.497 234.451 244.497C235.281 244.497 235.738 244.992 235.738 245.876V248.277H235.001V246.051C235.001 245.436 234.745 245.132 234.202 245.132C233.659 245.132 233.321 245.504 233.321 246.102V248.277H232.58ZM239.601 248.277L238.259 244.569H239.045L239.97 247.526H240.028L240.95 244.569H241.728L240.39 248.277H239.601ZM242.806 243.906C242.55 243.906 242.342 243.698 242.342 243.445C242.342 243.189 242.55 242.981 242.806 242.981C243.059 242.981 243.271 243.189 243.271 243.445C243.271 243.698 243.059 243.906 242.806 243.906ZM242.434 248.277V244.569H243.172V248.277H242.434ZM245.216 248.338C244.509 248.338 243.986 247.908 243.986 247.235V247.229C243.986 246.566 244.485 246.18 245.369 246.126L246.373 246.068V245.74C246.373 245.333 246.117 245.108 245.615 245.108C245.205 245.108 244.936 245.258 244.847 245.521L244.843 245.535H244.13L244.133 245.511C244.222 244.903 244.806 244.497 245.649 244.497C246.582 244.497 247.107 244.961 247.107 245.74V248.277H246.373V247.751H246.315C246.097 248.127 245.707 248.338 245.216 248.338ZM244.724 247.205C244.724 247.546 245.014 247.748 245.414 247.748C245.967 247.748 246.373 247.386 246.373 246.908V246.59L245.468 246.648C244.956 246.679 244.724 246.863 244.724 247.198V247.205ZM250.673 248.277L249.649 244.569H250.393L251.059 247.43H251.114L251.879 244.569H252.582L253.347 247.43H253.405L254.067 244.569H254.801L253.78 248.277H253.019L252.251 245.511H252.193L251.428 248.277H250.673ZM256.921 248.349C255.835 248.349 255.179 247.608 255.179 246.433V246.43C255.179 245.272 255.849 244.497 256.883 244.497C257.918 244.497 258.553 245.245 258.553 246.358V246.617H255.924C255.937 247.328 256.327 247.741 256.938 247.741C257.412 247.741 257.696 247.505 257.785 247.314L257.798 247.287L258.512 247.283L258.505 247.314C258.382 247.802 257.87 248.349 256.921 248.349ZM256.887 245.105C256.381 245.105 255.999 245.45 255.934 246.088H257.819C257.761 245.426 257.389 245.105 256.887 245.105ZM261.352 248.338C260.833 248.338 260.426 248.099 260.211 247.693H260.157V248.277H259.416V243.114H260.157V245.156H260.211C260.409 244.756 260.843 244.504 261.352 244.504C262.294 244.504 262.888 245.245 262.888 246.419V246.426C262.888 247.591 262.287 248.338 261.352 248.338ZM261.143 247.707C261.761 247.707 262.134 247.222 262.134 246.426V246.419C262.134 245.624 261.761 245.139 261.143 245.139C260.525 245.139 260.143 245.627 260.143 246.419V246.426C260.143 247.218 260.525 247.707 261.143 247.707Z" fill="#111214" style="fill:#111214;fill:color(display-p3 0.0667 0.0706 0.0784);fill-opacity:1;"/>
<path d="M210.366 239.349C209.284 239.349 208.621 238.611 208.621 237.412V237.406C208.621 236.231 209.28 235.497 210.363 235.497C211.295 235.497 211.851 236.023 211.954 236.743V236.76L211.244 236.764L211.24 236.753C211.158 236.388 210.858 236.115 210.366 236.115C209.748 236.115 209.376 236.607 209.376 237.406V237.412C209.376 238.232 209.755 238.731 210.366 238.731C210.83 238.731 211.117 238.519 211.237 238.119L211.244 238.102H211.954L211.947 238.133C211.814 238.853 211.284 239.349 210.366 239.349ZM212.775 239.277V234.114H213.516V236.132H213.571C213.752 235.736 214.107 235.497 214.647 235.497C215.476 235.497 215.934 235.992 215.934 236.876V239.277H215.196V237.051C215.196 236.436 214.94 236.132 214.397 236.132C213.854 236.132 213.516 236.504 213.516 237.102V239.277H212.775ZM217.934 239.338C217.227 239.338 216.704 238.908 216.704 238.235V238.229C216.704 237.566 217.203 237.18 218.087 237.126L219.091 237.068V236.74C219.091 236.333 218.835 236.108 218.333 236.108C217.923 236.108 217.654 236.258 217.565 236.521L217.562 236.535H216.848L216.851 236.511C216.94 235.903 217.524 235.497 218.367 235.497C219.3 235.497 219.825 235.961 219.825 236.74V239.277H219.091V238.751H219.033C218.815 239.127 218.425 239.338 217.934 239.338ZM217.442 238.205C217.442 238.546 217.732 238.748 218.132 238.748C218.685 238.748 219.091 238.386 219.091 237.908V237.59L218.186 237.648C217.674 237.679 217.442 237.863 217.442 238.198V238.205ZM222.218 239.301C221.402 239.301 221.067 239.014 221.067 238.3V236.152H220.487V235.569H221.067V234.633H221.822V235.569H222.617V236.152H221.822V238.123C221.822 238.522 221.972 238.686 222.337 238.686C222.45 238.686 222.515 238.683 222.617 238.672V239.263C222.498 239.284 222.361 239.301 222.218 239.301ZM223.999 239.328C223.716 239.328 223.497 239.11 223.497 238.833C223.497 238.553 223.716 238.334 223.999 238.334C224.282 238.334 224.498 238.553 224.498 238.833C224.498 239.11 224.282 239.328 223.999 239.328ZM227.552 239.338C227.033 239.338 226.627 239.099 226.412 238.693H226.357V239.277H225.616V234.114H226.357V236.156H226.412C226.61 235.756 227.044 235.504 227.552 235.504C228.495 235.504 229.089 236.245 229.089 237.419V237.426C229.089 238.591 228.488 239.338 227.552 239.338ZM227.344 238.707C227.962 238.707 228.334 238.222 228.334 237.426V237.419C228.334 236.624 227.962 236.139 227.344 236.139C226.726 236.139 226.344 236.627 226.344 237.419V237.426C226.344 238.218 226.726 238.707 227.344 238.707ZM229.955 239.277V234.114H230.696V239.277H229.955ZM233.317 239.349C232.228 239.349 231.562 238.621 231.562 237.426V237.419C231.562 236.228 232.231 235.497 233.317 235.497C234.4 235.497 235.069 236.224 235.069 237.419V237.426C235.069 238.621 234.403 239.349 233.317 239.349ZM233.317 238.731C233.952 238.731 234.314 238.246 234.314 237.426V237.419C234.314 236.596 233.952 236.115 233.317 236.115C232.679 236.115 232.32 236.596 232.32 237.419V237.426C232.32 238.249 232.679 238.731 233.317 238.731ZM237.461 239.349C236.379 239.349 235.716 238.611 235.716 237.412V237.406C235.716 236.231 236.376 235.497 237.458 235.497C238.39 235.497 238.947 236.023 239.049 236.743V236.76L238.339 236.764L238.335 236.753C238.254 236.388 237.953 236.115 237.461 236.115C236.843 236.115 236.471 236.607 236.471 237.406V237.412C236.471 238.232 236.85 238.731 237.461 238.731C237.926 238.731 238.213 238.519 238.332 238.119L238.339 238.102H239.049L239.042 238.133C238.909 238.853 238.38 239.349 237.461 239.349ZM239.871 239.277V234.114H240.612V237.132H240.666L242.138 235.569H243.005L241.459 237.132L243.108 239.277H242.206L240.929 237.611L240.612 237.928V239.277H239.871ZM244.937 239.349C244.042 239.349 243.475 238.929 243.404 238.307V238.304H244.145L244.148 238.307C244.24 238.587 244.51 238.775 244.951 238.775C245.408 238.775 245.726 238.567 245.726 238.263V238.256C245.726 238.024 245.552 237.867 245.121 237.768L244.531 237.631C243.831 237.471 243.506 237.153 243.506 236.61V236.607C243.506 235.961 244.107 235.497 244.947 235.497C245.794 235.497 246.337 235.92 246.402 236.525V236.528H245.695V236.521C245.623 236.262 245.36 236.067 244.944 236.067C244.537 236.067 244.244 236.269 244.244 236.566V236.572C244.244 236.805 244.414 236.948 244.831 237.047L245.418 237.18C246.132 237.348 246.473 237.651 246.473 238.188V238.194C246.473 238.881 245.818 239.349 244.937 239.349ZM248.866 239.349C247.783 239.349 247.121 238.611 247.121 237.412V237.406C247.121 236.231 247.78 235.497 248.862 235.497C249.795 235.497 250.351 236.023 250.454 236.743V236.76L249.743 236.764L249.74 236.753C249.658 236.388 249.358 236.115 248.866 236.115C248.248 236.115 247.876 236.607 247.876 237.406V237.412C247.876 238.232 248.255 238.731 248.866 238.731C249.33 238.731 249.617 238.519 249.737 238.119L249.743 238.102H250.454L250.447 238.133C250.314 238.853 249.784 239.349 248.866 239.349ZM252.259 239.338C251.552 239.338 251.03 238.908 251.03 238.235V238.229C251.03 237.566 251.528 237.18 252.412 237.126L253.416 237.068V236.74C253.416 236.333 253.16 236.108 252.658 236.108C252.249 236.108 251.979 236.258 251.89 236.521L251.887 236.535H251.173L251.176 236.511C251.265 235.903 251.849 235.497 252.692 235.497C253.625 235.497 254.15 235.961 254.15 236.74V239.277H253.416V238.751H253.358C253.14 239.127 252.751 239.338 252.259 239.338ZM251.767 238.205C251.767 238.546 252.057 238.748 252.457 238.748C253.01 238.748 253.416 238.386 253.416 237.908V237.59L252.511 237.648C251.999 237.679 251.767 237.863 251.767 238.198V238.205ZM255.143 239.277V235.569H255.884V236.132H255.939C256.12 235.736 256.475 235.497 257.014 235.497C257.844 235.497 258.301 235.992 258.301 236.876V239.277H257.564V237.051C257.564 236.436 257.308 236.132 256.765 236.132C256.222 236.132 255.884 236.504 255.884 237.102V239.277H255.143ZM259.854 239.328C259.57 239.328 259.352 239.11 259.352 238.833C259.352 238.553 259.57 238.334 259.854 238.334C260.137 238.334 260.352 238.553 260.352 238.833C260.352 239.11 260.137 239.328 259.854 239.328ZM262.861 239.349C261.778 239.349 261.116 238.611 261.116 237.412V237.406C261.116 236.231 261.775 235.497 262.857 235.497C263.79 235.497 264.346 236.023 264.449 236.743V236.76L263.738 236.764L263.735 236.753C263.653 236.388 263.353 236.115 262.861 236.115C262.243 236.115 261.871 236.607 261.871 237.406V237.412C261.871 238.232 262.25 238.731 262.861 238.731C263.325 238.731 263.612 238.519 263.732 238.119L263.738 238.102H264.449L264.442 238.133C264.309 238.853 263.779 239.349 262.861 239.349ZM266.807 239.349C265.718 239.349 265.052 238.621 265.052 237.426V237.419C265.052 236.228 265.721 235.497 266.807 235.497C267.889 235.497 268.559 236.224 268.559 237.419V237.426C268.559 238.621 267.893 239.349 266.807 239.349ZM266.807 238.731C267.442 238.731 267.804 238.246 267.804 237.426V237.419C267.804 236.596 267.442 236.115 266.807 236.115C266.168 236.115 265.81 236.596 265.81 237.419V237.426C265.81 238.249 266.168 238.731 266.807 238.731ZM269.391 239.277V235.569H270.132V236.139H270.186C270.35 235.732 270.712 235.497 271.197 235.497C271.702 235.497 272.061 235.76 272.225 236.159H272.283C272.471 235.76 272.897 235.497 273.413 235.497C274.161 235.497 274.598 235.948 274.598 236.719V239.277H273.86V236.897C273.86 236.385 273.628 236.132 273.143 236.132C272.672 236.132 272.361 236.484 272.361 236.931V239.277H271.624V236.822C271.624 236.398 271.347 236.132 270.91 236.132C270.463 236.132 270.132 236.514 270.132 236.999V239.277H269.391ZM277.263 234.114L275.758 240.513H275.061L276.567 234.114H277.263ZM280.305 240.513V238.717H280.247C280.052 239.11 279.632 239.338 279.103 239.338C278.167 239.338 277.566 238.591 277.566 237.426V237.419C277.566 236.245 278.16 235.504 279.11 235.504C279.608 235.504 280.038 235.763 280.26 236.183H280.305V235.569H281.042V240.513H280.305ZM279.318 238.707C279.929 238.707 280.318 238.211 280.318 237.426V237.419C280.318 236.631 279.929 236.139 279.314 236.139C278.696 236.139 278.321 236.624 278.321 237.419V237.426C278.321 238.222 278.696 238.707 279.318 238.707ZM282.052 239.277V235.569H282.793V236.129H282.847C282.981 235.736 283.325 235.504 283.821 235.504C283.94 235.504 284.07 235.521 284.145 235.538V236.221C284.012 236.193 283.885 236.176 283.745 236.176C283.179 236.176 282.793 236.525 282.793 237.061V239.277H282.052Z" fill="#0F57FF" style="fill:#0F57FF;fill:color(display-p3 0.0588 0.3412 1.0000);fill-opacity:1;"/>
<path d="M234.34 149.045H225.872V157.513H234.34V149.045ZM225.872 144.811H234.34C236.634 144.811 238.574 146.751 238.574 149.045V157.513C238.574 159.895 236.634 161.747 234.34 161.747H225.872C223.49 161.747 221.638 159.895 221.638 157.513V149.045C221.638 146.751 223.49 144.811 225.872 144.811ZM234.34 171.627H225.872V180.095H234.34V171.627ZM225.872 167.393H234.34C236.634 167.393 238.574 169.333 238.574 171.627V180.095C238.574 182.477 236.634 184.329 234.34 184.329H225.872C223.49 184.329 221.638 182.477 221.638 180.095V171.627C221.638 169.333 223.49 167.393 225.872 167.393ZM248.454 149.045V157.513H256.922V149.045H248.454ZM244.22 149.045C244.22 146.751 246.072 144.811 248.454 144.811H256.922C259.216 144.811 261.156 146.751 261.156 149.045V157.513C261.156 159.895 259.216 161.747 256.922 161.747H248.454C246.072 161.747 244.22 159.895 244.22 157.513V149.045ZM227.989 152.573C227.989 151.867 228.607 151.162 229.401 151.162H230.812C231.518 151.162 232.223 151.867 232.223 152.573V153.985C232.223 154.778 231.518 155.396 230.812 155.396H229.401C228.607 155.396 227.989 154.778 227.989 153.985V152.573ZM229.401 173.744H230.812C231.518 173.744 232.223 174.449 232.223 175.155V176.567C232.223 177.36 231.518 177.978 230.812 177.978H229.401C228.607 177.978 227.989 177.36 227.989 176.567V175.155C227.989 174.449 228.607 173.744 229.401 173.744ZM250.571 152.573C250.571 151.867 251.189 151.162 251.983 151.162H253.394C254.1 151.162 254.805 151.867 254.805 152.573V153.985C254.805 154.778 254.1 155.396 253.394 155.396H251.983C251.189 155.396 250.571 154.778 250.571 153.985V152.573ZM244.22 168.804C244.22 168.098 244.837 167.393 245.631 167.393H251.277C251.983 167.393 252.688 168.098 252.688 168.804C252.688 169.598 253.306 170.215 254.1 170.215H256.922C257.628 170.215 258.334 169.598 258.334 168.804C258.334 168.098 258.951 167.393 259.745 167.393C260.451 167.393 261.156 168.098 261.156 168.804V177.272C261.156 178.066 260.451 178.684 259.745 178.684H254.1C253.306 178.684 252.688 178.066 252.688 177.272C252.688 176.567 251.983 175.861 251.277 175.861C250.483 175.861 249.865 176.567 249.865 177.272V182.918C249.865 183.712 249.16 184.329 248.454 184.329H245.631C244.837 184.329 244.22 183.712 244.22 182.918V168.804ZM254.1 181.506C254.805 181.506 255.511 182.212 255.511 182.918C255.511 183.712 254.805 184.329 254.1 184.329C253.306 184.329 252.688 183.712 252.688 182.918C252.688 182.212 253.306 181.506 254.1 181.506ZM259.745 181.506C260.451 181.506 261.156 182.212 261.156 182.918C261.156 183.712 260.451 184.329 259.745 184.329C258.951 184.329 258.334 183.712 258.334 182.918C258.334 182.212 258.951 181.506 259.745 181.506Z" fill="#ADB5BD" style="fill:#ADB5BD;fill:color(display-p3 0.6784 0.7098 0.7412);fill-opacity:1;"/>
</g>
</g>
<path d="M167.698 18.998C168.815 18.998 169.787 19.7926 169.787 21.6791V21.6864C169.787 23.4496 168.993 24.4945 167.676 24.4945C166.714 24.4945 165.996 23.9249 165.829 23.1231L165.822 23.0832H166.743L166.754 23.1195C166.892 23.4859 167.215 23.7254 167.676 23.7254C168.507 23.7254 168.859 22.9127 168.898 21.9113C168.898 21.8714 168.902 21.8315 168.902 21.7916H168.83C168.637 22.2052 168.18 22.5716 167.462 22.5716C166.457 22.5716 165.753 21.8388 165.753 20.8447V20.8374C165.753 19.7744 166.562 18.998 167.698 18.998ZM167.694 21.8533C168.285 21.8533 168.739 21.4252 168.739 20.8338V20.8266C168.739 20.2279 168.285 19.7599 167.705 19.7599C167.128 19.7599 166.667 20.2207 166.667 20.8048V20.8121C166.667 21.4179 167.099 21.8533 167.694 21.8533ZM171.256 20.9717C170.926 20.9717 170.679 20.7177 170.679 20.3985C170.679 20.0756 170.926 19.8252 171.256 19.8252C171.59 19.8252 171.833 20.0756 171.833 20.3985C171.833 20.7177 171.59 20.9717 171.256 20.9717ZM171.256 23.6637C170.926 23.6637 170.679 23.4133 170.679 23.0905C170.679 22.7676 170.926 22.5172 171.256 22.5172C171.59 22.5172 171.833 22.7676 171.833 23.0905C171.833 23.4133 171.59 23.6637 171.256 23.6637ZM175.265 24.3639V23.3589H172.703V22.5934C173.382 21.4143 174.125 20.2098 174.836 19.1286H176.161V22.5862H176.865V23.3589H176.161V24.3639H175.265ZM173.574 22.6079H175.279V19.876H175.225C174.688 20.696 174.082 21.6646 173.574 22.5535V22.6079ZM178.856 24.3639V20.0502H178.794L177.492 20.9717V20.0901L178.859 19.1286H179.792V24.3639H178.856Z" fill="white" style="fill:white;fill-opacity:1;"/>
<path opacity="0.35" d="M307.614 19.3307H315.044C315.889 19.3307 316.573 20.0155 316.573 20.8604V23.0458C316.573 23.8906 315.889 24.5755 315.044 24.5755H307.614C306.769 24.5755 306.084 23.8906 306.084 23.0458V20.8604C306.084 20.0156 306.769 19.3307 307.614 19.3307Z" stroke="white" style="stroke:white;stroke-opacity:1;" stroke-width="0.437071"/>
<path opacity="0.4" d="M317.229 21.2975V23.1421C317.6 22.9858 317.841 22.6224 317.841 22.2198C317.841 21.8171 317.6 21.4537 317.229 21.2975" fill="white" style="fill:white;fill-opacity:1;"/>
<path d="M306.739 20.8604C306.739 20.3776 307.131 19.9863 307.613 19.9863H315.044C315.526 19.9863 315.918 20.3776 315.918 20.8604V23.0458C315.918 23.5285 315.526 23.9199 315.044 23.9199H307.613C307.131 23.9199 306.739 23.5285 306.739 23.0458V20.8604Z" fill="white" style="fill:white;fill-opacity:1;"/>
<path fill-rule="evenodd" clip-rule="evenodd" d="M299.091 20.6801C300.169 20.6802 301.206 21.103 301.987 21.8612C302.046 21.9198 302.14 21.919 302.198 21.8596L302.76 21.2802C302.79 21.25 302.806 21.2092 302.806 21.1667C302.805 21.1242 302.789 21.0835 302.759 21.0537C300.708 19.0477 297.473 19.0477 295.422 21.0537C295.393 21.0835 295.376 21.1242 295.375 21.1667C295.375 21.2092 295.392 21.25 295.421 21.2802L295.983 21.8596C296.041 21.9191 296.135 21.9198 296.194 21.8612C296.976 21.103 298.013 20.6801 299.091 20.6801ZM299.106 22.4292C299.699 22.4292 300.27 22.6539 300.709 23.0597C300.768 23.1173 300.862 23.1161 300.92 23.0569L301.481 22.4775C301.511 22.4472 301.527 22.4059 301.527 22.3631C301.527 22.3203 301.509 22.2794 301.479 22.2496C300.142 20.9801 298.072 20.9801 296.734 22.2496C296.704 22.2794 296.687 22.3203 296.687 22.3631C296.686 22.406 296.703 22.4472 296.732 22.4775L297.294 23.0569C297.352 23.1161 297.445 23.1173 297.505 23.0597C297.944 22.6542 298.514 22.4295 299.106 22.4292ZM300.249 23.5601C300.249 23.603 300.233 23.6444 300.203 23.6745L299.231 24.6755C299.203 24.7049 299.164 24.7215 299.123 24.7215C299.083 24.7215 299.044 24.7049 299.015 24.6755L298.044 23.6745C298.014 23.6444 297.997 23.603 297.998 23.56C297.999 23.5171 298.017 23.4764 298.048 23.4476C298.669 22.9118 299.578 22.9118 300.198 23.4476C300.23 23.4764 300.248 23.5171 300.249 23.5601Z" fill="white" style="fill:white;fill-opacity:1;"/>
<path d="M288.382 20.8604C288.382 20.619 288.578 20.4233 288.819 20.4233H289.257C289.498 20.4233 289.694 20.619 289.694 20.8604V24.357C289.694 24.5984 289.498 24.794 289.257 24.794H288.819C288.578 24.794 288.382 24.5984 288.382 24.357V20.8604Z" fill="white" style="fill:white;fill-opacity:1;"/>
<path d="M290.568 19.9863C290.568 19.7449 290.763 19.5492 291.005 19.5492H291.442C291.683 19.5492 291.879 19.7449 291.879 19.9863V24.357C291.879 24.5984 291.683 24.794 291.442 24.794H291.005C290.763 24.794 290.568 24.5984 290.568 24.357V19.9863Z" fill="white" style="fill:white;fill-opacity:1;"/>
<path d="M286.197 22.3902C286.197 22.1488 286.393 21.9531 286.634 21.9531H287.071C287.313 21.9531 287.508 22.1488 287.508 22.3902V24.357C287.508 24.5984 287.313 24.794 287.071 24.794H286.634C286.393 24.794 286.197 24.5984 286.197 24.357V22.3902Z" fill="white" style="fill:white;fill-opacity:1;"/>
<path d="M284.012 23.4828C284.012 23.2414 284.207 23.0458 284.449 23.0458H284.886C285.127 23.0458 285.323 23.2414 285.323 23.4828V24.357C285.323 24.5984 285.127 24.794 284.886 24.794H284.449C284.207 24.794 284.012 24.5984 284.012 24.357V23.4828Z" fill="white" style="fill:white;fill-opacity:1;"/>
</g>
</g>
<rect x="214.62" y="16.9269" width="54.1968" height="15.7346" rx="7.86728" fill="black" style="fill:black;fill-opacity:1;"/>
<g opacity="0.75">
<rect x="254.103" y="21.0074" width="7.57343" height="7.57343" rx="3.78672" fill="#121212" style="fill:#121212;fill:color(display-p3 0.0712 0.0712 0.0712);fill-opacity:1;"/>
<rect x="254.103" y="21.0074" width="7.57343" height="7.57343" rx="3.78672" stroke="#0E0E0E" style="stroke:#0E0E0E;stroke:color(display-p3 0.0549 0.0549 0.0549);stroke-opacity:1;" stroke-width="0.293846"/>
<g filter="url(#filter22_f_147_9001)">
<path d="M257.016 23.0458C255.525 23.4343 255.028 25.6682 257.016 26.5423C256.519 25.3768 256.519 24.3084 257.016 23.0458Z" fill="#50A99A" style="fill:#50A99A;fill:color(display-p3 0.3123 0.6629 0.6032);fill-opacity:1;"/>
</g>
<g filter="url(#filter23_f_147_9001)">
<path d="M256.688 23.8527C255.943 24.0619 255.694 25.2647 256.688 25.7354C256.44 25.1078 256.44 24.5325 256.688 23.8527Z" fill="#50A99A" style="fill:#50A99A;fill:color(display-p3 0.3123 0.6629 0.6032);fill-opacity:1;"/>
</g>
<g opacity="0.4" filter="url(#filter24_f_147_9001)">
<path d="M256.996 23.549C256.357 23.6346 255.89 25.206 256.662 25.6232C256.389 25.0629 256.525 23.9422 256.996 23.549Z" fill="#D0FFF7" style="fill:#D0FFF7;fill:color(display-p3 0.8170 1.0000 0.9688);fill-opacity:1;"/>
</g>
<g filter="url(#filter25_f_147_9001)">
<path d="M258.327 23.0458C259.818 23.4343 260.315 25.6682 258.327 26.5423C258.824 25.3768 258.824 24.3084 258.327 23.0458Z" fill="#3E518C" style="fill:#3E518C;fill:color(display-p3 0.2431 0.3176 0.5490);fill-opacity:1;"/>
</g>
<g filter="url(#filter26_f_147_9001)">
<path d="M258.655 23.8525C259.4 24.0617 259.649 25.2646 258.655 25.7353C258.903 25.1077 258.903 24.5324 258.655 23.8525Z" fill="#26408D" style="fill:#26408D;fill:color(display-p3 0.1490 0.2510 0.5529);fill-opacity:1;"/>
</g>
<g opacity="0.5" filter="url(#filter27_f_147_9001)">
<path d="M258.347 23.549C258.986 23.6346 259.453 25.206 258.681 25.6232C258.954 25.0629 258.818 23.9422 258.347 23.549Z" fill="#0D308C" style="fill:#0D308C;fill:color(display-p3 0.0510 0.1882 0.5490);fill-opacity:1;"/>
</g>
</g>
<g style="mix-blend-mode:screen" opacity="0.75">
<rect x="147.311" y="349.538" width="3.0595" height="2.18535" fill="#7C7C7C" style="fill:#7C7C7C;fill:color(display-p3 0.4879 0.4879 0.4879);fill-opacity:1;"/>
</g>
<g style="mix-blend-mode:screen" opacity="0.75">
<rect x="185.773" y="388" width="2.62243" height="3.0595" fill="#7C7C7C" style="fill:#7C7C7C;fill:color(display-p3 0.4879 0.4879 0.4879);fill-opacity:1;"/>
</g>
<g style="mix-blend-mode:screen" opacity="0.75">
<rect x="332.629" y="42.277" width="3.0595" height="2.62243" fill="#7C7C7C" style="fill:#7C7C7C;fill:color(display-p3 0.4879 0.4879 0.4879);fill-opacity:1;"/>
</g>
<g style="mix-blend-mode:screen" opacity="0.75">
<rect x="147.311" y="42.277" width="3.0595" height="2.18535" fill="#7C7C7C" style="fill:#7C7C7C;fill:color(display-p3 0.4879 0.4879 0.4879);fill-opacity:1;"/>
</g>
<g style="mix-blend-mode:screen" opacity="0.75">
<rect x="296.79" y="2.94055" width="2.62243" height="3.0595" fill="#7C7C7C" style="fill:#7C7C7C;fill:color(display-p3 0.4879 0.4879 0.4879);fill-opacity:1;"/>
</g>
<g style="mix-blend-mode:screen" opacity="0.75">
<rect x="332.629" y="349.101" width="3.0595" height="2.62243" fill="#7C7C7C" style="fill:#7C7C7C;fill:color(display-p3 0.4879 0.4879 0.4879);fill-opacity:1;"/>
</g>
</g>
</g>
<g filter="url(#filter28_d_147_9001)">
<rect x="43" y="59" width="36" height="36" rx="4.5" fill="#F8F9FA" style="fill:#F8F9FA;fill:color(display-p3 0.9725 0.9765 0.9804);fill-opacity:1;"/>
<rect x="43.5" y="59.5" width="35" height="35" rx="4" stroke="#DEE2E6" style="stroke:#DEE2E6;stroke:color(display-p3 0.8706 0.8863 0.9020);stroke-opacity:1;"/>
<path d="M57.0625 69.9375C56.7461 69.9375 56.5 70.2188 56.5 70.5V84C56.5 84.3164 56.7461 84.5625 57.0625 84.5625H64.9375C65.2187 84.5625 65.5 84.3164 65.5 84V70.5C65.5 70.2188 65.2187 69.9375 64.9375 69.9375H57.0625ZM54.8125 70.5C54.8125 69.2695 55.7969 68.25 57.0625 68.25H64.9375C66.168 68.25 67.1875 69.2695 67.1875 70.5V84C67.1875 85.2656 66.168 86.25 64.9375 86.25H57.0625C55.7969 86.25 54.8125 85.2656 54.8125 84V70.5ZM59.875 82.3125H62.125C62.4063 82.3125 62.6875 82.5938 62.6875 82.875C62.6875 83.1914 62.4063 83.4375 62.125 83.4375H59.875C59.5586 83.4375 59.3125 83.1914 59.3125 82.875C59.3125 82.5938 59.5586 82.3125 59.875 82.3125Z" fill="#0F57FF" style="fill:#0F57FF;fill:color(display-p3 0.0588 0.3412 1.0000);fill-opacity:1;"/>
</g>
<g filter="url(#filter29_d_147_9001)">
<rect x="391" y="170" width="36" height="36" rx="4.5" fill="#F8F9FA" style="fill:#F8F9FA;fill:color(display-p3 0.9725 0.9765 0.9804);fill-opacity:1;"/>
<rect x="391.5" y="170.5" width="35" height="35" rx="4" stroke="#DEE2E6" style="stroke:#DEE2E6;stroke:color(display-p3 0.8706 0.8863 0.9020);stroke-opacity:1;"/>
<path d="M415.75 182.063H402.25C401.934 182.063 401.688 182.344 401.688 182.625V190.5H400V182.625C400 181.395 400.984 180.375 402.25 180.375H415.75C416.98 180.375 418 181.395 418 182.625V190.5H416.312V182.625C416.312 182.344 416.031 182.063 415.75 182.063ZM401.125 194.438H416.875C417.578 194.438 418.211 193.98 418.457 193.313H399.508C399.754 193.98 400.387 194.438 401.125 194.438ZM397.75 192.75C397.75 192.152 398.242 191.625 398.875 191.625H419.125C419.723 191.625 420.25 192.152 420.25 192.75C420.25 194.613 418.738 196.125 416.875 196.125H401.125C399.262 196.125 397.75 194.613 397.75 192.75Z" fill="#0F57FF" style="fill:#0F57FF;fill:color(display-p3 0.0588 0.3412 1.0000);fill-opacity:1;"/>
</g>
</g>
<defs>
<filter id="filter0_d_147_9001" x="0" y="0.94043" width="480" height="396.119" filterUnits="userSpaceOnUse" color-interpolation-filters="sRGB">
<feFlood flood-opacity="0" result="BackgroundImageFix"/>
<feColorMatrix in="SourceAlpha" type="matrix" values="0 0 0 0 0 0 0 0 0 0 0 0 0 0 0 0 0 0 127 0" result="hardAlpha"/>
<feOffset dy="2"/>
<feGaussianBlur stdDeviation="2"/>
<feComposite in2="hardAlpha" operator="out"/>
<feColorMatrix type="matrix" values="0 0 0 0 0 0 0 0 0 0 0 0 0 0 0 0 0 0 0.075 0"/>
<feBlend mode="normal" in2="BackgroundImageFix" result="effect1_dropShadow_147_9001"/>
<feBlend mode="normal" in="SourceGraphic" in2="effect1_dropShadow_147_9001" result="shape"/>
</filter>
<filter id="filter1_f_147_9001" x="334.886" y="119.71" width="2.47915" height="47.0604" filterUnits="userSpaceOnUse" color-interpolation-filters="sRGB">
<feFlood flood-opacity="0" result="BackgroundImageFix"/>
<feBlend mode="normal" in="SourceGraphic" in2="BackgroundImageFix" result="shape"/>
<feGaussianBlur stdDeviation="0.0734615" result="effect1_foregroundBlur_147_9001"/>
</filter>
<filter id="filter2_f_147_9001" x="335.323" y="120.147" width="1.60513" height="46.1862" filterUnits="userSpaceOnUse" color-interpolation-filters="sRGB">
<feFlood flood-opacity="0" result="BackgroundImageFix"/>
<feBlend mode="normal" in="SourceGraphic" in2="BackgroundImageFix" result="shape"/>
<feGaussianBlur stdDeviation="0.0734615" result="effect1_foregroundBlur_147_9001"/>
</filter>
<filter id="filter3_f_147_9001" x="335.542" y="120.366" width="1.16787" height="3.35336" filterUnits="userSpaceOnUse" color-interpolation-filters="sRGB">
<feFlood flood-opacity="0" result="BackgroundImageFix"/>
<feBlend mode="normal" in="SourceGraphic" in2="BackgroundImageFix" result="shape"/>
<feGaussianBlur stdDeviation="0.0734615" result="effect1_foregroundBlur_147_9001"/>
</filter>
<filter id="filter4_f_147_9001" x="335.542" y="162.762" width="1.16787" height="3.35329" filterUnits="userSpaceOnUse" color-interpolation-filters="sRGB">
<feFlood flood-opacity="0" result="BackgroundImageFix"/>
<feBlend mode="normal" in="SourceGraphic" in2="BackgroundImageFix" result="shape"/>
<feGaussianBlur stdDeviation="0.0734615" result="effect1_foregroundBlur_147_9001"/>
</filter>
<filter id="filter5_f_147_9001" x="145.635" y="81.6849" width="2.47915" height="14.2801" filterUnits="userSpaceOnUse" color-interpolation-filters="sRGB">
<feFlood flood-opacity="0" result="BackgroundImageFix"/>
<feBlend mode="normal" in="SourceGraphic" in2="BackgroundImageFix" result="shape"/>
<feGaussianBlur stdDeviation="0.0734615" result="effect1_foregroundBlur_147_9001"/>
</filter>
<filter id="filter6_f_147_9001" x="146.072" y="82.1872" width="1.60513" height="13.406" filterUnits="userSpaceOnUse" color-interpolation-filters="sRGB">
<feFlood flood-opacity="0" result="BackgroundImageFix"/>
<feBlend mode="normal" in="SourceGraphic" in2="BackgroundImageFix" result="shape"/>
<feGaussianBlur stdDeviation="0.0734615" result="effect1_foregroundBlur_147_9001"/>
</filter>
<filter id="filter7_f_147_9001" x="146.29" y="82.4058" width="1.16787" height="2.04214" filterUnits="userSpaceOnUse" color-interpolation-filters="sRGB">
<feFlood flood-opacity="0" result="BackgroundImageFix"/>
<feBlend mode="normal" in="SourceGraphic" in2="BackgroundImageFix" result="shape"/>
<feGaussianBlur stdDeviation="0.0734615" result="effect1_foregroundBlur_147_9001"/>
</filter>
<filter id="filter8_f_147_9001" x="146.29" y="93.3325" width="1.16787" height="2.04214" filterUnits="userSpaceOnUse" color-interpolation-filters="sRGB">
<feFlood flood-opacity="0" result="BackgroundImageFix"/>
<feBlend mode="normal" in="SourceGraphic" in2="BackgroundImageFix" result="shape"/>
<feGaussianBlur stdDeviation="0.0734615" result="effect1_foregroundBlur_147_9001"/>
</filter>
<filter id="filter9_f_147_9001" x="145.635" y="109.22" width="2.47915" height="30.4517" filterUnits="userSpaceOnUse" color-interpolation-filters="sRGB">
<feFlood flood-opacity="0" result="BackgroundImageFix"/>
<feBlend mode="normal" in="SourceGraphic" in2="BackgroundImageFix" result="shape"/>
<feGaussianBlur stdDeviation="0.0734615" result="effect1_foregroundBlur_147_9001"/>
</filter>
<filter id="filter10_f_147_9001" x="146.072" y="109.657" width="1.60513" height="29.5776" filterUnits="userSpaceOnUse" color-interpolation-filters="sRGB">
<feFlood flood-opacity="0" result="BackgroundImageFix"/>
<feBlend mode="normal" in="SourceGraphic" in2="BackgroundImageFix" result="shape"/>
<feGaussianBlur stdDeviation="0.0734615" result="effect1_foregroundBlur_147_9001"/>
</filter>
<filter id="filter11_f_147_9001" x="146.29" y="109.876" width="1.60513" height="3.35336" filterUnits="userSpaceOnUse" color-interpolation-filters="sRGB">
<feFlood flood-opacity="0" result="BackgroundImageFix"/>
<feBlend mode="normal" in="SourceGraphic" in2="BackgroundImageFix" result="shape"/>
<feGaussianBlur stdDeviation="0.0734615" result="effect1_foregroundBlur_147_9001"/>
</filter>
<filter id="filter12_f_147_9001" x="146.29" y="135.663" width="1.60513" height="3.35336" filterUnits="userSpaceOnUse" color-interpolation-filters="sRGB">
<feFlood flood-opacity="0" result="BackgroundImageFix"/>
<feBlend mode="normal" in="SourceGraphic" in2="BackgroundImageFix" result="shape"/>
<feGaussianBlur stdDeviation="0.0734615" result="effect1_foregroundBlur_147_9001"/>
</filter>
<filter id="filter13_f_147_9001" x="145.635" y="146.809" width="2.47915" height="30.4517" filterUnits="userSpaceOnUse" color-interpolation-filters="sRGB">
<feFlood flood-opacity="0" result="BackgroundImageFix"/>
<feBlend mode="normal" in="SourceGraphic" in2="BackgroundImageFix" result="shape"/>
<feGaussianBlur stdDeviation="0.0734615" result="effect1_foregroundBlur_147_9001"/>
</filter>
<filter id="filter14_f_147_9001" x="146.143" y="147.317" width="1.46181" height="29.4345" filterUnits="userSpaceOnUse" color-interpolation-filters="sRGB">
<feFlood flood-opacity="0" result="BackgroundImageFix"/>
<feBlend mode="normal" in="SourceGraphic" in2="BackgroundImageFix" result="shape"/>
<feGaussianBlur stdDeviation="0.0734615" result="effect1_foregroundBlur_147_9001"/>
</filter>
<filter id="filter15_f_147_9001" x="146.29" y="147.464" width="1.60513" height="3.35329" filterUnits="userSpaceOnUse" color-interpolation-filters="sRGB">
<feFlood flood-opacity="0" result="BackgroundImageFix"/>
<feBlend mode="normal" in="SourceGraphic" in2="BackgroundImageFix" result="shape"/>
<feGaussianBlur stdDeviation="0.0734615" result="effect1_foregroundBlur_147_9001"/>
</filter>
<filter id="filter16_f_147_9001" x="146.29" y="173.251" width="1.60513" height="3.35329" filterUnits="userSpaceOnUse" color-interpolation-filters="sRGB">
<feFlood flood-opacity="0" result="BackgroundImageFix"/>
<feBlend mode="normal" in="SourceGraphic" in2="BackgroundImageFix" result="shape"/>
<feGaussianBlur stdDeviation="0.0734615" result="effect1_foregroundBlur_147_9001"/>
</filter>
<filter id="filter17_f_147_9001" x="147.308" y="2.93643" width="188.385" height="388.126" filterUnits="userSpaceOnUse" color-interpolation-filters="sRGB">
<feFlood flood-opacity="0" result="BackgroundImageFix"/>
<feBlend mode="normal" in="SourceGraphic" in2="BackgroundImageFix" result="shape"/>
<feGaussianBlur stdDeviation="0.220385" result="effect1_foregroundBlur_147_9001"/>
</filter>
<filter id="filter18_f_147_9001" x="150.077" y="5.70573" width="182.846" height="382.588" filterUnits="userSpaceOnUse" color-interpolation-filters="sRGB">
<feFlood flood-opacity="0" result="BackgroundImageFix"/>
<feBlend mode="normal" in="SourceGraphic" in2="BackgroundImageFix" result="shape"/>
<feGaussianBlur stdDeviation="0.146923" result="effect1_foregroundBlur_147_9001"/>
</filter>
<filter id="filter19_b_147_9001" x="147.646" y="329.87" width="187.941" height="58.5676" filterUnits="userSpaceOnUse" color-interpolation-filters="sRGB">
<feFlood flood-opacity="0" result="BackgroundImageFix"/>
<feGaussianBlur in="BackgroundImageFix" stdDeviation="4.37071"/>
<feComposite in2="SourceAlpha" operator="in" result="effect1_backgroundBlur_147_9001"/>
<feBlend mode="normal" in="SourceGraphic" in2="effect1_backgroundBlur_147_9001" result="shape"/>
</filter>
<filter id="filter20_b_147_9001" x="121.421" y="2.06637" width="240.389" height="418.277" filterUnits="userSpaceOnUse" color-interpolation-filters="sRGB">
<feFlood flood-opacity="0" result="BackgroundImageFix"/>
<feGaussianBlur in="BackgroundImageFix" stdDeviation="17.4828"/>
<feComposite in2="SourceAlpha" operator="in" result="effect1_backgroundBlur_147_9001"/>
<feBlend mode="normal" in="SourceGraphic" in2="effect1_backgroundBlur_147_9001" result="shape"/>
</filter>
<filter id="filter21_b_147_9001" x="283.852" y="20.7006" width="60.6353" height="60.6354" filterUnits="userSpaceOnUse" color-interpolation-filters="sRGB">
<feFlood flood-opacity="0" result="BackgroundImageFix"/>
<feGaussianBlur in="BackgroundImageFix" stdDeviation="11.8808"/>
<feComposite in2="SourceAlpha" operator="in" result="effect1_backgroundBlur_147_9001"/>
<feBlend mode="normal" in="SourceGraphic" in2="effect1_backgroundBlur_147_9001" result="shape"/>
</filter>
<filter id="filter22_f_147_9001" x="254.886" y="22.2272" width="2.94842" height="5.13373" filterUnits="userSpaceOnUse" color-interpolation-filters="sRGB">
<feFlood flood-opacity="0" result="BackgroundImageFix"/>
<feBlend mode="normal" in="SourceGraphic" in2="BackgroundImageFix" result="shape"/>
<feGaussianBlur stdDeviation="0.409286" result="effect1_foregroundBlur_147_9001"/>
</filter>
<filter id="filter23_f_147_9001" x="255.214" y="23.0341" width="2.29266" height="3.51989" filterUnits="userSpaceOnUse" color-interpolation-filters="sRGB">
<feFlood flood-opacity="0" result="BackgroundImageFix"/>
<feBlend mode="normal" in="SourceGraphic" in2="BackgroundImageFix" result="shape"/>
<feGaussianBlur stdDeviation="0.409286" result="effect1_foregroundBlur_147_9001"/>
</filter>
<filter id="filter24_f_147_9001" x="255.714" y="23.0032" width="1.82751" height="3.16565" filterUnits="userSpaceOnUse" color-interpolation-filters="sRGB">
<feFlood flood-opacity="0" result="BackgroundImageFix"/>
<feBlend mode="normal" in="SourceGraphic" in2="BackgroundImageFix" result="shape"/>
<feGaussianBlur stdDeviation="0.272857" result="effect1_foregroundBlur_147_9001"/>
</filter>
<filter id="filter25_f_147_9001" x="257.509" y="22.2272" width="2.94842" height="5.13373" filterUnits="userSpaceOnUse" color-interpolation-filters="sRGB">
<feFlood flood-opacity="0" result="BackgroundImageFix"/>
<feBlend mode="normal" in="SourceGraphic" in2="BackgroundImageFix" result="shape"/>
<feGaussianBlur stdDeviation="0.409286" result="effect1_foregroundBlur_147_9001"/>
</filter>
<filter id="filter26_f_147_9001" x="257.836" y="23.034" width="2.29266" height="3.51989" filterUnits="userSpaceOnUse" color-interpolation-filters="sRGB">
<feFlood flood-opacity="0" result="BackgroundImageFix"/>
<feBlend mode="normal" in="SourceGraphic" in2="BackgroundImageFix" result="shape"/>
<feGaussianBlur stdDeviation="0.409286" result="effect1_foregroundBlur_147_9001"/>
</filter>
<filter id="filter27_f_147_9001" x="257.801" y="23.0032" width="1.82751" height="3.16565" filterUnits="userSpaceOnUse" color-interpolation-filters="sRGB">
<feFlood flood-opacity="0" result="BackgroundImageFix"/>
<feBlend mode="normal" in="SourceGraphic" in2="BackgroundImageFix" result="shape"/>
<feGaussianBlur stdDeviation="0.272857" result="effect1_foregroundBlur_147_9001"/>
</filter>
<filter id="filter28_d_147_9001" x="31" y="48" width="60" height="60" filterUnits="userSpaceOnUse" color-interpolation-filters="sRGB">
<feFlood flood-opacity="0" result="BackgroundImageFix"/>
<feColorMatrix in="SourceAlpha" type="matrix" values="0 0 0 0 0 0 0 0 0 0 0 0 0 0 0 0 0 0 127 0" result="hardAlpha"/>
<feOffset dy="1"/>
<feGaussianBlur stdDeviation="6"/>
<feComposite in2="hardAlpha" operator="out"/>
<feColorMatrix type="matrix" values="0 0 0 0 0.0588235 0 0 0 0 0.341176 0 0 0 0 1 0 0 0 0.1 0"/>
<feBlend mode="normal" in2="BackgroundImageFix" result="effect1_dropShadow_147_9001"/>
<feBlend mode="normal" in="SourceGraphic" in2="effect1_dropShadow_147_9001" result="shape"/>
</filter>
<filter id="filter29_d_147_9001" x="379" y="159" width="60" height="60" filterUnits="userSpaceOnUse" color-interpolation-filters="sRGB">
<feFlood flood-opacity="0" result="BackgroundImageFix"/>
<feColorMatrix in="SourceAlpha" type="matrix" values="0 0 0 0 0 0 0 0 0 0 0 0 0 0 0 0 0 0 127 0" result="hardAlpha"/>
<feOffset dy="1"/>
<feGaussianBlur stdDeviation="6"/>
<feComposite in2="hardAlpha" operator="out"/>
<feColorMatrix type="matrix" values="0 0 0 0 0.0588235 0 0 0 0 0.341176 0 0 0 0 1 0 0 0 0.1 0"/>
<feBlend mode="normal" in2="BackgroundImageFix" result="effect1_dropShadow_147_9001"/>
<feBlend mode="normal" in="SourceGraphic" in2="effect1_dropShadow_147_9001" result="shape"/>
</filter>
<linearGradient id="paint0_linear_147_9001" x1="4" y1="133.5" x2="476" y2="133.5" gradientUnits="userSpaceOnUse">
<stop stop-color="#6F9AFF" stop-opacity="0.5" style="stop-color:#6F9AFF;stop-color:color(display-p3 0.4353 0.6039 1.0000);stop-opacity:0.5;"/>
<stop offset="0.535" stop-color="#6F9AFF" style="stop-color:#6F9AFF;stop-color:color(display-p3 0.4353 0.6039 1.0000);stop-opacity:1;"/>
<stop offset="1" stop-color="#6F9AFF" stop-opacity="0.5" style="stop-color:#6F9AFF;stop-color:color(display-p3 0.4353 0.6039 1.0000);stop-opacity:0.5;"/>
</linearGradient>
<linearGradient id="paint1_linear_147_9001" x1="0.437071" y1="0" x2="0.437071" y2="3.0595" gradientUnits="userSpaceOnUse">
<stop stop-color="#2D2E2A" style="stop-color:#2D2E2A;stop-color:color(display-p3 0.1756 0.1795 0.1661);stop-opacity:1;"/>
<stop offset="0.760033" stop-color="#565553" style="stop-color:#565553;stop-color:color(display-p3 0.3373 0.3333 0.3255);stop-opacity:1;"/>
</linearGradient>
<linearGradient id="paint2_linear_147_9001" x1="337" y1="165.968" x2="337" y2="169.028" gradientUnits="userSpaceOnUse">
<stop stop-color="#2D2E2A" style="stop-color:#2D2E2A;stop-color:color(display-p3 0.1756 0.1795 0.1661);stop-opacity:1;"/>
<stop offset="0.760033" stop-color="#565553" style="stop-color:#565553;stop-color:color(display-p3 0.3373 0.3333 0.3255);stop-opacity:1;"/>
</linearGradient>
<linearGradient id="paint3_linear_147_9001" x1="146.874" y1="82.5527" x2="146.874" y2="84.301" gradientUnits="userSpaceOnUse">
<stop stop-color="#2D2E2A" style="stop-color:#2D2E2A;stop-color:color(display-p3 0.1756 0.1795 0.1661);stop-opacity:1;"/>
<stop offset="0.760033" stop-color="#565553" style="stop-color:#565553;stop-color:color(display-p3 0.3373 0.3333 0.3255);stop-opacity:1;"/>
</linearGradient>
<linearGradient id="paint4_linear_147_9001" x1="0.437071" y1="0" x2="0.437071" y2="1.74828" gradientUnits="userSpaceOnUse">
<stop stop-color="#2D2E2A" style="stop-color:#2D2E2A;stop-color:color(display-p3 0.1756 0.1795 0.1661);stop-opacity:1;"/>
<stop offset="0.760033" stop-color="#565553" style="stop-color:#565553;stop-color:color(display-p3 0.3373 0.3333 0.3255);stop-opacity:1;"/>
</linearGradient>
<linearGradient id="paint5_linear_147_9001" x1="147.093" y1="110.023" x2="147.093" y2="113.082" gradientUnits="userSpaceOnUse">
<stop stop-color="#2D2E2A" style="stop-color:#2D2E2A;stop-color:color(display-p3 0.1756 0.1795 0.1661);stop-opacity:1;"/>
<stop offset="0.760033" stop-color="#565553" style="stop-color:#565553;stop-color:color(display-p3 0.3373 0.3333 0.3255);stop-opacity:1;"/>
</linearGradient>
<linearGradient id="paint6_linear_147_9001" x1="0.655606" y1="0" x2="0.655606" y2="3.0595" gradientUnits="userSpaceOnUse">
<stop stop-color="#2D2E2A" style="stop-color:#2D2E2A;stop-color:color(display-p3 0.1756 0.1795 0.1661);stop-opacity:1;"/>
<stop offset="0.760033" stop-color="#565553" style="stop-color:#565553;stop-color:color(display-p3 0.3373 0.3333 0.3255);stop-opacity:1;"/>
</linearGradient>
<linearGradient id="paint7_linear_147_9001" x1="147.093" y1="147.611" x2="147.093" y2="150.67" gradientUnits="userSpaceOnUse">
<stop stop-color="#2D2E2A" style="stop-color:#2D2E2A;stop-color:color(display-p3 0.1756 0.1795 0.1661);stop-opacity:1;"/>
<stop offset="0.760033" stop-color="#565553" style="stop-color:#565553;stop-color:color(display-p3 0.3373 0.3333 0.3255);stop-opacity:1;"/>
</linearGradient>
<linearGradient id="paint8_linear_147_9001" x1="0.655606" y1="0" x2="0.655606" y2="3.0595" gradientUnits="userSpaceOnUse">
<stop stop-color="#2D2E2A" style="stop-color:#2D2E2A;stop-color:color(display-p3 0.1756 0.1795 0.1661);stop-opacity:1;"/>
<stop offset="0.760033" stop-color="#565553" style="stop-color:#565553;stop-color:color(display-p3 0.3373 0.3333 0.3255);stop-opacity:1;"/>
</linearGradient>
<clipPath id="clip0_147_9001">
<rect width="191" height="388.119" fill="white" style="fill:white;fill-opacity:1;" transform="translate(146 2.94043)"/>
</clipPath>
<clipPath id="clip1_147_9001">
<path d="M337 120.294C337 120.173 336.902 120.075 336.781 120.075H335.689V166.405H336.781C336.902 166.405 337 166.307 337 166.186V120.294Z" fill="white" style="fill:white;fill-opacity:1;"/>
</clipPath>
<clipPath id="clip2_147_9001">
<path d="M146 82.2688C146 82.1481 146.098 82.0503 146.219 82.0503H147.748V95.5995H146.219C146.098 95.5995 146 95.5017 146 95.381V82.2688Z" fill="white" style="fill:white;fill-opacity:1;"/>
</clipPath>
<clipPath id="clip3_147_9001">
<path d="M146 109.804C146 109.684 146.098 109.586 146.219 109.586H147.311V139.307H146.219C146.098 139.307 146 139.209 146 139.088V109.804Z" fill="white" style="fill:white;fill-opacity:1;"/>
</clipPath>
<clipPath id="clip4_147_9001">
<path d="M146 147.392C146 147.272 146.098 147.174 146.219 147.174H147.311V176.895H146.219C146.098 176.895 146 176.797 146 176.676V147.392Z" fill="white" style="fill:white;fill-opacity:1;"/>
</clipPath>
<clipPath id="clip5_147_9001">
<rect x="147.311" y="2.94049" width="188.378" height="388.119" rx="30.595" fill="white" style="fill:white;fill-opacity:1;"/>
</clipPath>
<clipPath id="clip6_147_9001">
<rect x="155.616" y="10.8078" width="171.769" height="372.384" rx="24.2443" fill="white" style="fill:white;fill-opacity:1;"/>
</clipPath>
<clipPath id="clip7_147_9001">
<rect width="170.458" height="368.888" fill="white" style="fill:white;fill-opacity:1;" transform="translate(156.387 10.8078)"/>
</clipPath>
<clipPath id="clip8_147_9001">
<rect width="170.458" height="21.8535" fill="white" style="fill:white;fill-opacity:1;" transform="translate(156.387 340.359)"/>
</clipPath>
<clipPath id="clip9_147_9001">
<path d="M156.387 42.2769C156.387 39.3802 158.735 37.032 161.632 37.032H321.6C324.496 37.032 326.845 39.3802 326.845 42.2769V385.378H156.387V42.2769Z" fill="white" style="fill:white;fill-opacity:1;"/>
</clipPath>
</defs>
</svg>
