<svg width="100%" height="auto" viewBox="0 0 470 262" fill="none" xmlns="http://www.w3.org/2000/svg">
<g filter="url(#filter0_d_57_10102)">
<path opacity="0.5" d="M-2 78H242V187H470" stroke="url(#paint0_linear_57_10102)" style="" stroke-dasharray="8 8"/>
<g clip-path="url(#clip0_57_10102)">
<g clip-path="url(#clip1_57_10102)">
<g filter="url(#filter1_f_57_10102)">
<rect width="1.8018" height="47.7477" rx="0.225225" transform="matrix(-1 0 0 1 333.923 122.721)" fill="#565553" style="fill:#565553;fill:color(display-p3 0.3373 0.3333 0.3255);fill-opacity:1;"/>
<rect x="0.112613" y="-0.112613" width="2.02703" height="47.973" rx="0.337838" transform="matrix(-1 0 0 1 334.149 122.721)" stroke="black" style="stroke:black;stroke-opacity:1;" stroke-width="0.225225"/>
</g>
<g filter="url(#filter2_f_57_10102)">
<rect x="0.112613" y="-0.112613" width="1.12613" height="47.0721" rx="0.157658" transform="matrix(-1 0 0 1 333.698 123.171)" stroke="#31302E" style="stroke:#31302E;stroke:color(display-p3 0.1922 0.1882 0.1804);stroke-opacity:1;" stroke-width="0.225225"/>
</g>
<g filter="url(#filter3_f_57_10102)">
<rect width="0.900901" height="3.15315" rx="0.045045" transform="matrix(-1 0 0 1 333.473 123.171)" fill="url(#paint1_linear_57_10102)" style=""/>
</g>
<g filter="url(#filter4_f_57_10102)">
<rect x="333.473" y="170.018" width="0.900901" height="3.15315" rx="0.045045" transform="rotate(180 333.473 170.018)" fill="url(#paint2_linear_57_10102)" style=""/>
</g>
</g>
<g clip-path="url(#clip2_57_10102)">
<g filter="url(#filter5_f_57_10102)">
<rect x="137.077" y="83.5316" width="1.8018" height="13.964" rx="0.225225" fill="#565553" style="fill:#565553;fill:color(display-p3 0.3373 0.3333 0.3255);fill-opacity:1;"/>
<rect x="136.964" y="83.419" width="2.02703" height="14.1892" rx="0.337838" stroke="black" style="stroke:black;stroke-opacity:1;" stroke-width="0.225225"/>
</g>
<g filter="url(#filter6_f_57_10102)">
<rect x="137.414" y="83.9367" width="1.12613" height="13.2883" rx="0.157658" stroke="#31302E" style="stroke:#31302E;stroke:color(display-p3 0.1922 0.1882 0.1804);stroke-opacity:1;" stroke-width="0.225225"/>
</g>
<g filter="url(#filter7_f_57_10102)">
<rect x="137.527" y="84.0493" width="0.900901" height="1.8018" rx="0.045045" fill="url(#paint3_linear_57_10102)" style=""/>
</g>
<g filter="url(#filter8_f_57_10102)">
<rect width="0.900901" height="1.8018" rx="0.045045" transform="matrix(1 0 0 -1 137.527 97.1124)" fill="url(#paint4_linear_57_10102)" style=""/>
</g>
</g>
<g clip-path="url(#clip3_57_10102)">
<g filter="url(#filter9_f_57_10102)">
<rect x="137.077" y="111.91" width="1.8018" height="30.6306" rx="0.225225" fill="#565553" style="fill:#565553;fill:color(display-p3 0.3373 0.3333 0.3255);fill-opacity:1;"/>
<rect x="136.964" y="111.797" width="2.02703" height="30.8559" rx="0.337838" stroke="black" style="stroke:black;stroke-opacity:1;" stroke-width="0.225225"/>
</g>
<g filter="url(#filter10_f_57_10102)">
<rect x="137.414" y="112.248" width="1.12613" height="29.955" rx="0.157658" stroke="#31302E" style="stroke:#31302E;stroke:color(display-p3 0.1922 0.1882 0.1804);stroke-opacity:1;" stroke-width="0.225225"/>
</g>
<g filter="url(#filter11_f_57_10102)">
<rect x="137.527" y="112.36" width="1.35135" height="3.15315" rx="0.045045" fill="url(#paint5_linear_57_10102)" style=""/>
</g>
<g filter="url(#filter12_f_57_10102)">
<rect width="1.35135" height="3.15315" rx="0.045045" transform="matrix(1 0 0 -1 137.527 142.09)" fill="url(#paint6_linear_57_10102)" style=""/>
</g>
</g>
<g clip-path="url(#clip4_57_10102)">
<g filter="url(#filter13_f_57_10102)">
<rect x="137.077" y="150.649" width="1.8018" height="30.6306" rx="0.225225" fill="#565553" style="fill:#565553;fill:color(display-p3 0.3373 0.3333 0.3255);fill-opacity:1;"/>
<rect x="136.964" y="150.536" width="2.02703" height="30.8559" rx="0.337838" stroke="black" style="stroke:black;stroke-opacity:1;" stroke-width="0.225225"/>
</g>
<g filter="url(#filter14_f_57_10102)">
<rect x="137.451" y="151.023" width="1.05232" height="29.8812" rx="0.120755" stroke="#31302E" style="stroke:#31302E;stroke:color(display-p3 0.1922 0.1882 0.1804);stroke-opacity:1;" stroke-width="0.151421"/>
</g>
<g filter="url(#filter15_f_57_10102)">
<rect x="137.527" y="151.099" width="1.35135" height="3.15315" rx="0.045045" fill="url(#paint7_linear_57_10102)" style=""/>
</g>
<g filter="url(#filter16_f_57_10102)">
<rect width="1.35135" height="3.15315" rx="0.045045" transform="matrix(1 0 0 -1 137.527 180.829)" fill="url(#paint8_linear_57_10102)" style=""/>
</g>
</g>
<g clip-path="url(#clip5_57_10102)">
<rect x="138.428" y="2.00006" width="194.144" height="400" rx="31.5315" fill="black" style="fill:black;fill-opacity:1;"/>
<rect x="140.23" y="3.80151" width="190.541" height="396.396" rx="30.6306" stroke="#565553" style="stroke:#565553;stroke:color(display-p3 0.3373 0.3333 0.3255);stroke-opacity:1;" stroke-width="1.8018"/>
<rect x="138.878" y="2.45021" width="193.243" height="399.099" rx="31.0811" stroke="#3F3E3B" style="stroke:#3F3E3B;stroke:color(display-p3 0.2471 0.2431 0.2314);stroke-opacity:1;" stroke-width="0.900901"/>
<g opacity="0.9" filter="url(#filter17_f_57_10102)">
<rect x="139.329" y="2.9006" width="192.342" height="398.198" rx="31.0811" stroke="#31302E" style="stroke:#31302E;stroke:color(display-p3 0.1919 0.1891 0.1809);stroke-opacity:1;" stroke-width="0.900901"/>
</g>
<g opacity="0.8" filter="url(#filter18_f_57_10102)">
<rect x="141.806" y="5.37799" width="187.387" height="393.243" rx="29.0541" stroke="#646464" style="stroke:#646464;stroke:color(display-p3 0.3922 0.3922 0.3922);stroke-opacity:1;" stroke-width="0.45045"/>
</g>
<g clip-path="url(#clip6_57_10102)">
<g clip-path="url(#clip7_57_10102)">
<rect width="175.676" height="380.18" transform="translate(148.149 10.1082)" fill="#111111" style="fill:#111111;fill:color(display-p3 0.0667 0.0667 0.0667);fill-opacity:1;"/>
<rect x="148.149" y="9.65778" width="175.676" height="28.3784" fill="black" style="fill:black;fill-opacity:1;"/>
<path opacity="0.4" d="M161.961 47.9065C161.12 47.9065 160.393 47.7176 159.781 47.3399C159.174 46.9622 158.703 46.4264 158.371 45.7325C158.042 45.0346 157.878 44.2073 157.878 43.2507V43.2383C157.878 42.2776 158.042 41.4503 158.371 40.7565C158.703 40.0585 159.174 39.5207 159.781 39.1429C160.389 38.7652 161.113 38.5764 161.955 38.5764C162.628 38.5764 163.236 38.7098 163.778 38.9767C164.32 39.2394 164.761 39.6048 165.102 40.0729C165.443 40.5368 165.648 41.0706 165.718 41.6741L165.712 41.7234H164.16L164.154 41.6926C164.08 41.3436 163.94 41.0398 163.735 40.7811C163.53 40.5183 163.275 40.3151 162.971 40.1714C162.667 40.0236 162.329 39.9497 161.955 39.9497C161.454 39.9497 161.019 40.0831 160.65 40.35C160.28 40.6169 159.995 40.9967 159.793 41.4893C159.596 41.9779 159.498 42.5589 159.498 43.2322V43.2445C159.498 43.9178 159.596 44.5008 159.793 44.9935C159.995 45.4862 160.28 45.866 160.65 46.1328C161.019 46.3997 161.456 46.5331 161.961 46.5331C162.339 46.5331 162.678 46.4675 162.977 46.3361C163.281 46.2047 163.534 46.0199 163.735 45.7818C163.94 45.5396 164.08 45.2563 164.154 44.9319L164.166 44.895H165.718V44.9443C165.64 45.5355 165.433 46.0528 165.096 46.4962C164.759 46.9396 164.324 47.2865 163.79 47.537C163.257 47.7833 162.647 47.9065 161.961 47.9065ZM167.285 47.6848V38.3485H168.818V41.9882H168.923C169.083 41.6228 169.325 41.3374 169.65 41.1321C169.974 40.9269 170.379 40.8242 170.863 40.8242C171.364 40.8242 171.787 40.9227 172.132 41.1198C172.477 41.3128 172.737 41.5961 172.914 41.9697C173.094 42.3433 173.185 42.797 173.185 43.3307V47.6848H171.651V43.6879C171.651 43.1624 171.541 42.7682 171.319 42.5055C171.101 42.2427 170.76 42.1113 170.296 42.1113C169.993 42.1113 169.73 42.1791 169.508 42.3146C169.286 42.4501 169.116 42.641 168.997 42.8873C168.878 43.1337 168.818 43.4252 168.818 43.7618V47.6848H167.285ZM176.723 47.7956C176.3 47.7956 175.92 47.7135 175.583 47.5493C175.251 47.3851 174.988 47.1531 174.795 46.8534C174.606 46.5496 174.512 46.1924 174.512 45.7818V45.7695C174.512 45.3712 174.61 45.0284 174.807 44.741C175.004 44.4495 175.294 44.2217 175.676 44.0574C176.057 43.8932 176.521 43.7967 177.067 43.768L179.555 43.614V44.624L177.283 44.7718C176.852 44.7964 176.534 44.8868 176.328 45.0428C176.123 45.1988 176.02 45.4164 176.02 45.6956V45.7079C176.02 45.9953 176.129 46.2191 176.347 46.3792C176.569 46.5393 176.85 46.6194 177.191 46.6194C177.499 46.6194 177.774 46.5578 178.016 46.4346C178.258 46.3114 178.449 46.1452 178.589 45.9358C178.728 45.7223 178.798 45.4821 178.798 45.2152V43.0844C178.798 42.7477 178.691 42.4911 178.478 42.3146C178.264 42.1339 177.948 42.0436 177.529 42.0436C177.18 42.0436 176.895 42.1052 176.673 42.2284C176.452 42.3474 176.302 42.5178 176.224 42.7395L176.218 42.7641H174.77L174.776 42.7087C174.826 42.331 174.974 42.0005 175.22 41.7172C175.466 41.4339 175.793 41.2143 176.199 41.0582C176.606 40.9022 177.074 40.8242 177.603 40.8242C178.186 40.8242 178.679 40.9145 179.081 41.0952C179.484 41.2717 179.789 41.5304 179.999 41.8712C180.208 42.2078 180.313 42.6122 180.313 43.0844V47.6848H178.798V46.761H178.693C178.57 46.9745 178.41 47.1593 178.213 47.3153C178.02 47.4713 177.798 47.5904 177.548 47.6725C177.297 47.7546 177.022 47.7956 176.723 47.7956ZM184.694 47.7156C183.923 47.7156 183.366 47.5739 183.025 47.2906C182.685 47.0073 182.514 46.5434 182.514 45.8988V42.1421H181.467V40.9535H182.514V39.3031H184.072V40.9535H185.489V42.1421H184.072V45.5355C184.072 45.868 184.142 46.1123 184.282 46.2683C184.425 46.4202 184.655 46.4962 184.972 46.4962C185.082 46.4962 185.173 46.4941 185.243 46.49C185.316 46.4818 185.399 46.4736 185.489 46.4654V47.6478C185.382 47.6684 185.259 47.6848 185.119 47.6971C184.984 47.7094 184.842 47.7156 184.694 47.7156ZM189.371 47.8203C188.801 47.8203 188.308 47.7402 187.893 47.5801C187.483 47.4159 187.158 47.1901 186.92 46.9027C186.682 46.6112 186.541 46.2745 186.495 45.8927V45.8803H188.017L188.023 45.8927C188.105 46.1267 188.259 46.3176 188.485 46.4654C188.71 46.6132 189.014 46.6871 189.396 46.6871C189.651 46.6871 189.874 46.6522 190.067 46.5824C190.26 46.5085 190.412 46.4079 190.523 46.2806C190.634 46.1534 190.689 46.0056 190.689 45.8372V45.8249C190.689 45.6278 190.609 45.4636 190.449 45.3322C190.289 45.1967 190.024 45.0879 189.655 45.0058L188.565 44.7595C188.138 44.6651 187.785 44.5337 187.505 44.3654C187.226 44.197 187.017 43.9897 186.877 43.7433C186.742 43.497 186.674 43.2096 186.674 42.8812V42.875C186.674 42.4685 186.787 42.1113 187.013 41.8034C187.243 41.4955 187.561 41.2553 187.967 41.0829C188.374 40.9104 188.842 40.8242 189.371 40.8242C189.917 40.8242 190.388 40.9063 190.782 41.0706C191.176 41.2348 191.484 41.4606 191.706 41.748C191.927 42.0354 192.054 42.3618 192.087 42.7272V42.7395H190.646L190.64 42.721C190.583 42.5075 190.445 42.3269 190.227 42.1791C190.014 42.0272 189.727 41.9512 189.365 41.9512C189.139 41.9512 188.936 41.9861 188.756 42.0559C188.579 42.1257 188.439 42.2242 188.337 42.3515C188.238 42.4747 188.189 42.6204 188.189 42.7888V42.7949C188.189 42.9263 188.222 43.0413 188.288 43.1398C188.357 43.2383 188.466 43.3246 188.614 43.3985C188.762 43.4724 188.957 43.5381 189.199 43.5955L190.289 43.8357C190.95 43.9835 191.439 44.2032 191.755 44.4947C192.071 44.7862 192.229 45.1783 192.229 45.671V45.6833C192.229 46.1103 192.106 46.4839 191.859 46.8041C191.613 47.1244 191.274 47.3748 190.843 47.5555C190.412 47.732 189.922 47.8203 189.371 47.8203Z" fill="#212529" style="fill:#212529;fill:color(display-p3 0.1294 0.1451 0.1608);fill-opacity:1;"/>
<path d="M153.554 37.5857C153.554 35.5955 155.167 33.9821 157.158 33.9821H314.815C316.806 33.9821 318.419 35.5955 318.419 37.5857V46.5947H153.554V37.5857Z" fill="#333333" style="fill:#333333;fill:color(display-p3 0.2000 0.2000 0.2000);fill-opacity:1;"/>
<g filter="url(#filter19_b_57_10102)">
<g clip-path="url(#clip8_57_10102)">
<path d="M148.149 42.5406C148.149 39.5553 150.569 37.1353 153.554 37.1353H318.419C321.404 37.1353 323.824 39.5553 323.824 42.5407V396.144H148.149V42.5406Z" fill="#111111" style="fill:#111111;fill:color(display-p3 0.0667 0.0667 0.0667);fill-opacity:1;"/>
<rect x="227.878" y="44.3424" width="16.2162" height="2.25225" rx="1.12613" fill="#333333" style="fill:#333333;fill:color(display-p3 0.2000 0.2000 0.2000);fill-opacity:1;"/>
<path d="M200.104 81.7217C198.065 81.7217 196.723 80.7609 196.618 79.1659L196.612 79.0735H198.133L198.145 79.1474C198.262 79.9111 199.044 80.3853 200.159 80.3853C201.28 80.3853 201.982 79.8864 201.982 79.1228V79.1166C201.982 78.4515 201.52 78.0943 200.375 77.8541L199.42 77.657C197.671 77.2937 196.809 76.4808 196.809 75.1567V75.1505C196.815 73.5863 198.188 72.527 200.104 72.527C202.044 72.527 203.312 73.5493 203.405 75.0705L203.411 75.1752H201.89L201.877 75.1013C201.773 74.3253 201.089 73.8634 200.091 73.8634C199.051 73.8696 198.404 74.3561 198.404 75.0643V75.0705C198.404 75.6986 198.89 76.0681 199.962 76.2899L200.923 76.4869C202.77 76.8688 203.577 77.6201 203.577 79.0058V79.0119C203.577 80.6685 202.271 81.7217 200.104 81.7217ZM207.404 81.697C205.464 81.697 204.251 80.3914 204.251 78.2975V78.2914C204.251 76.2098 205.482 74.9042 207.385 74.9042C209.104 74.9042 210.175 75.9942 210.268 77.2998L210.274 77.3491H208.826L208.814 77.2937C208.685 76.6594 208.217 76.1482 207.404 76.1482C206.437 76.1482 205.815 76.9673 205.815 78.3037V78.3098C205.815 79.6709 206.443 80.4592 207.41 80.4592C208.186 80.4592 208.679 79.9973 208.82 79.3137L208.833 79.2582H210.28L210.274 79.3014C210.157 80.6624 209.054 81.697 207.404 81.697ZM213.035 81.6785C211.729 81.6785 210.849 80.8718 210.849 79.7078V79.6955C210.849 78.5377 211.748 77.8418 213.331 77.7433L215.036 77.6386V77.189C215.036 76.53 214.605 76.1297 213.829 76.1297C213.103 76.1297 212.659 76.4684 212.561 76.9488L212.548 77.0042H211.126L211.132 76.9303C211.224 75.7725 212.228 74.9042 213.885 74.9042C215.517 74.9042 216.57 75.7664 216.57 77.0781V81.5677H215.036V80.5639H215C214.624 81.2474 213.897 81.6785 213.035 81.6785ZM212.376 79.6462C212.376 80.182 212.819 80.5084 213.491 80.5084C214.371 80.5084 215.036 79.9234 215.036 79.1474V78.6547L213.546 78.7471C212.789 78.7964 212.376 79.1228 212.376 79.6401V79.6462ZM217.718 81.5677V75.0397H219.251V76.062H219.282C219.621 75.3599 220.286 74.9042 221.277 74.9042C222.712 74.9042 223.531 75.828 223.531 77.343V81.5677H221.998V77.6509C221.998 76.7209 221.567 76.1975 220.692 76.1975C219.812 76.1975 219.251 76.838 219.251 77.7802V81.5677H217.718ZM231.179 81.7217C228.58 81.7217 226.96 79.9542 226.96 77.1274V77.1151C226.96 74.2945 228.592 72.527 231.179 72.527C233.771 72.527 235.391 74.2945 235.391 77.1151V77.1274C235.391 78.7656 234.849 80.0527 233.882 80.841L235.046 82.4668H233.47L232.755 81.4692C232.281 81.6354 231.751 81.7217 231.179 81.7217ZM231.179 80.3421C231.431 80.3421 231.665 80.3114 231.887 80.2559L230.778 78.704H232.355L232.983 79.5785C233.488 79.0181 233.771 78.1744 233.771 77.1274V77.1151C233.771 75.1444 232.768 73.9065 231.179 73.9065C229.596 73.9065 228.586 75.1382 228.586 77.1151V77.1274C228.586 79.1043 229.59 80.3421 231.179 80.3421ZM236.57 81.5677V72.681H240.117C242.014 72.681 243.172 73.7341 243.172 75.4523V75.4646C243.172 76.6594 242.531 77.6262 241.496 78.0019L243.436 81.5677H241.626L239.877 78.2421H238.158V81.5677H236.57ZM238.158 76.9858H239.951C240.954 76.9858 241.546 76.4315 241.546 75.4769V75.4646C241.546 74.5347 240.917 73.9681 239.92 73.9681H238.158V76.9858ZM250.665 81.7217C248.109 81.7217 246.496 79.9603 246.496 77.1212V77.1151C246.496 74.276 248.115 72.527 250.665 72.527C252.709 72.527 254.212 73.8018 254.446 75.6124L254.452 75.674H252.894L252.863 75.557C252.605 74.5408 251.823 73.9065 250.665 73.9065C249.113 73.9065 248.121 75.1444 248.121 77.1151V77.1212C248.121 79.0981 249.119 80.3421 250.665 80.3421C251.798 80.3421 252.592 79.7325 252.882 78.6362L252.9 78.5747H254.458L254.446 78.6362C254.218 80.4592 252.709 81.7217 250.665 81.7217ZM258.31 81.697C256.388 81.697 255.15 80.416 255.15 78.3037V78.2914C255.15 76.1975 256.407 74.9042 258.304 74.9042C260.207 74.9042 261.469 76.1852 261.469 78.2914V78.3037C261.469 80.4222 260.225 81.697 258.31 81.697ZM258.316 80.4592C259.283 80.4592 259.905 79.6709 259.905 78.3037V78.2914C259.905 76.9303 259.277 76.1482 258.304 76.1482C257.349 76.1482 256.715 76.9365 256.715 78.2914V78.3037C256.715 79.677 257.337 80.4592 258.316 80.4592ZM264.791 81.697C263.14 81.697 262.093 80.4037 262.093 78.3037V78.2975C262.093 76.1913 263.147 74.9042 264.785 74.9042C265.708 74.9042 266.454 75.3784 266.823 76.1605H266.86V72.681H268.394V81.5677H266.86V80.4592H266.823C266.454 81.229 265.733 81.697 264.791 81.697ZM265.253 80.4037C266.201 80.4037 266.86 79.5847 266.86 78.3037V78.2975C266.86 77.0227 266.195 76.1975 265.253 76.1975C264.274 76.1975 263.658 76.9981 263.658 78.2975V78.3037C263.658 79.6031 264.267 80.4037 265.253 80.4037ZM272.46 81.697C270.502 81.697 269.32 80.3976 269.32 78.3222V78.316C269.32 76.2591 270.521 74.9042 272.387 74.9042C274.253 74.9042 275.41 76.2159 275.41 78.1867V78.6794H270.841C270.865 79.8248 271.494 80.5023 272.491 80.5023C273.255 80.5023 273.754 80.0958 273.902 79.6586L273.914 79.6154H275.349L275.33 79.6832C275.127 80.687 274.166 81.697 272.46 81.697ZM272.405 76.1051C271.592 76.1051 270.982 76.6532 270.859 77.657H273.92C273.809 76.6224 273.218 76.1051 272.405 76.1051Z" fill="white" style="fill:white;fill-opacity:1;"/>
<g filter="url(#filter20_b_57_10102)">
<rect x="304.004" y="44.7929" width="13.5135" height="13.5135" rx="6.75676" fill="#222222" style="fill:#222222;fill:color(display-p3 0.1333 0.1333 0.1333);fill-opacity:1;"/>
<path d="M308.181 53.5067C308.019 53.6688 308.016 53.9567 308.184 54.1254C308.356 54.2941 308.644 54.2908 308.803 54.132L310.762 52.1733L312.717 54.1287C312.882 54.2941 313.167 54.2941 313.336 54.1254C313.504 53.9533 313.504 53.6721 313.339 53.5067L311.384 51.5513L313.339 49.5926C313.504 49.4272 313.508 49.1427 313.336 48.9739C313.167 48.8052 312.882 48.8052 312.717 48.9706L310.762 50.926L308.803 48.9706C308.644 48.8085 308.353 48.8019 308.184 48.9739C308.016 49.1427 308.019 49.4338 308.181 49.5926L310.136 51.5513L308.181 53.5067Z" fill="#FAFAFA" style="fill:#FAFAFA;fill:color(display-p3 0.9804 0.9804 0.9804);fill-opacity:1;"/>
</g>
<rect x="182.885" y="117.817" width="106.203" height="106.203" rx="8.05663" stroke="#333333" style="stroke:#333333;stroke:color(display-p3 0.2000 0.2000 0.2000);stroke-opacity:1;" stroke-width="1.90476" stroke-dasharray="82.45 82.45"/>
<path d="M183.989 246.511C182.55 246.511 181.642 245.483 181.642 243.85V243.843C181.642 242.231 182.56 241.186 183.982 241.186C185.136 241.186 185.956 241.841 186.139 242.823L186.146 242.858H185.358L185.347 242.823C185.164 242.221 184.679 241.883 183.982 241.883C183.042 241.883 182.448 242.643 182.448 243.84V243.847C182.448 245.061 183.046 245.814 184 245.814C184.83 245.814 185.397 245.29 185.404 244.508V244.396H184.098V243.759H186.181V244.389C186.181 245.677 185.319 246.511 183.989 246.511ZM188.746 246.461C187.623 246.461 186.937 245.712 186.937 244.48V244.473C186.937 243.245 187.627 242.492 188.746 242.492C189.861 242.492 190.551 243.241 190.551 244.473V244.48C190.551 245.712 189.865 246.461 188.746 246.461ZM188.746 245.824C189.4 245.824 189.773 245.325 189.773 244.48V244.473C189.773 243.625 189.4 243.129 188.746 243.129C188.088 243.129 187.718 243.625 187.718 244.473V244.48C187.718 245.328 188.088 245.824 188.746 245.824ZM194.768 246.412C193.927 246.412 193.582 246.117 193.582 245.381V243.167H192.984V242.566H193.582V241.601H194.36V242.566H195.18V243.167H194.36V245.198C194.36 245.61 194.514 245.779 194.891 245.779C195.007 245.779 195.074 245.775 195.18 245.765V246.373C195.056 246.395 194.916 246.412 194.768 246.412ZM197.592 246.461C196.47 246.461 195.784 245.712 195.784 244.48V244.473C195.784 243.245 196.473 242.492 197.592 242.492C198.708 242.492 199.398 243.241 199.398 244.473V244.48C199.398 245.712 198.712 246.461 197.592 246.461ZM197.592 245.824C198.247 245.824 198.62 245.325 198.62 244.48V244.473C198.62 243.625 198.247 243.129 197.592 243.129C196.934 243.129 196.565 243.625 196.565 244.473V244.48C196.565 245.328 196.934 245.824 197.592 245.824ZM283.851 246.412C283.01 246.412 282.666 246.117 282.666 245.381V243.167H282.067V242.566H282.666V241.601H283.443V242.566H284.263V243.167H283.443V245.198C283.443 245.61 283.598 245.779 283.975 245.779C284.091 245.779 284.158 245.775 284.263 245.765V246.373C284.14 246.395 283.999 246.412 283.851 246.412ZM286.676 246.461C285.553 246.461 284.867 245.712 284.867 244.48V244.473C284.867 243.245 285.557 242.492 286.676 242.492C287.792 242.492 288.481 243.241 288.481 244.473V244.48C288.481 245.712 287.795 246.461 286.676 246.461ZM286.676 245.824C287.331 245.824 287.704 245.325 287.704 244.48V244.473C287.704 243.625 287.331 243.129 286.676 243.129C286.018 243.129 285.649 243.625 285.649 244.473V244.48C285.649 245.328 286.018 245.824 286.676 245.824ZM214.284 255.388V250.067H215.048V255.388H214.284ZM217.75 255.461C216.627 255.461 215.941 254.712 215.941 253.48V253.473C215.941 252.245 216.63 251.492 217.75 251.492C218.865 251.492 219.555 252.241 219.555 253.473V253.48C219.555 254.712 218.869 255.461 217.75 255.461ZM217.75 254.824C218.404 254.824 218.777 254.325 218.777 253.48V253.473C218.777 252.625 218.404 252.129 217.75 252.129C217.091 252.129 216.722 252.625 216.722 253.473V253.48C216.722 254.328 217.091 254.824 217.75 254.824ZM222.028 256.735C221.056 256.735 220.458 256.31 220.367 255.673L220.374 255.666H221.144L221.148 255.673C221.211 255.936 221.521 256.123 222.038 256.123C222.668 256.123 223.041 255.827 223.041 255.307V254.553H222.985C222.753 254.969 222.33 255.201 221.806 255.201C220.824 255.201 220.219 254.444 220.219 253.368V253.36C220.219 252.27 220.828 251.499 221.82 251.499C222.355 251.499 222.77 251.763 222.992 252.192H223.038V251.566H223.798V255.31C223.798 256.179 223.111 256.735 222.028 256.735ZM222.017 254.571C222.665 254.571 223.055 254.078 223.055 253.364V253.357C223.055 252.646 222.661 252.146 222.017 252.146C221.366 252.146 221 252.646 221 253.357V253.364C221 254.075 221.366 254.571 222.017 254.571ZM225.239 250.883C224.975 250.883 224.761 250.668 224.761 250.408C224.761 250.144 224.975 249.929 225.239 249.929C225.5 249.929 225.718 250.144 225.718 250.408C225.718 250.668 225.5 250.883 225.239 250.883ZM224.856 255.388V251.566H225.616V255.388H224.856ZM226.674 255.388V251.566H227.437V252.146H227.494C227.68 251.738 228.046 251.492 228.602 251.492C229.457 251.492 229.929 252.002 229.929 252.914V255.388H229.169V253.093C229.169 252.46 228.905 252.146 228.345 252.146C227.786 252.146 227.437 252.53 227.437 253.146V255.388H226.674ZM233.91 255.388L232.527 251.566H233.337L234.29 254.613H234.35L235.3 251.566H236.103L234.723 255.388H233.91ZM237.213 250.883C236.949 250.883 236.735 250.668 236.735 250.408C236.735 250.144 236.949 249.929 237.213 249.929C237.474 249.929 237.692 250.144 237.692 250.408C237.692 250.668 237.474 250.883 237.213 250.883ZM236.83 255.388V251.566H237.59V255.388H236.83ZM239.697 255.451C238.968 255.451 238.43 255.007 238.43 254.314V254.307C238.43 253.624 238.944 253.227 239.855 253.17L240.89 253.111V252.773C240.89 252.354 240.626 252.122 240.108 252.122C239.686 252.122 239.408 252.277 239.317 252.548L239.313 252.562H238.578L238.581 252.537C238.673 251.911 239.274 251.492 240.144 251.492C241.104 251.492 241.646 251.97 241.646 252.773V255.388H240.89V254.846H240.83C240.605 255.233 240.203 255.451 239.697 255.451ZM239.19 254.283C239.19 254.634 239.489 254.842 239.901 254.842C240.471 254.842 240.89 254.469 240.89 253.976V253.649L239.957 253.709C239.429 253.741 239.19 253.931 239.19 254.275V254.283ZM245.321 255.388L244.265 251.566H245.033L245.719 254.515H245.775L246.563 251.566H247.288L248.077 254.515H248.137L248.819 251.566H249.576L248.524 255.388H247.739L246.947 252.537H246.887L246.099 255.388H245.321ZM251.76 255.461C250.641 255.461 249.965 254.698 249.965 253.487V253.484C249.965 252.291 250.655 251.492 251.721 251.492C252.788 251.492 253.442 252.263 253.442 253.41V253.677H250.732C250.746 254.409 251.148 254.835 251.778 254.835C252.267 254.835 252.559 254.592 252.65 254.395L252.664 254.367L253.4 254.363L253.393 254.395C253.266 254.898 252.738 255.461 251.76 255.461ZM251.725 252.118C251.204 252.118 250.81 252.474 250.743 253.132H252.686C252.626 252.449 252.242 252.118 251.725 252.118ZM256.327 255.451C255.792 255.451 255.373 255.205 255.151 254.786H255.095V255.388H254.331V250.067H255.095V252.171H255.151C255.355 251.759 255.802 251.499 256.327 251.499C257.298 251.499 257.91 252.263 257.91 253.473V253.48C257.91 254.68 257.291 255.451 256.327 255.451ZM256.112 254.8C256.749 254.8 257.132 254.3 257.132 253.48V253.473C257.132 252.653 256.749 252.153 256.112 252.153C255.475 252.153 255.081 252.657 255.081 253.473V253.48C255.081 254.297 255.475 254.8 256.112 254.8Z" fill="white" style="fill:white;fill-opacity:1;"/>
<path d="M203.78 246.461C202.665 246.461 201.982 245.701 201.982 244.466V244.459C201.982 243.248 202.661 242.492 203.777 242.492C204.737 242.492 205.311 243.034 205.417 243.776V243.794L204.685 243.797L204.681 243.787C204.597 243.41 204.287 243.129 203.78 243.129C203.143 243.129 202.76 243.636 202.76 244.459V244.466C202.76 245.311 203.15 245.824 203.78 245.824C204.259 245.824 204.554 245.606 204.677 245.195L204.685 245.177H205.417L205.409 245.209C205.272 245.951 204.727 246.461 203.78 246.461ZM206.263 246.388V241.067H207.027V243.146H207.083C207.27 242.738 207.636 242.492 208.192 242.492C209.047 242.492 209.519 243.002 209.519 243.914V246.388H208.758V244.093C208.758 243.46 208.495 243.146 207.935 243.146C207.375 243.146 207.027 243.53 207.027 244.146V246.388H206.263ZM211.58 246.451C210.851 246.451 210.313 246.007 210.313 245.314V245.307C210.313 244.624 210.826 244.227 211.738 244.17L212.773 244.111V243.773C212.773 243.354 212.509 243.122 211.991 243.122C211.569 243.122 211.291 243.277 211.199 243.548L211.196 243.562H210.46L210.464 243.537C210.555 242.911 211.157 242.492 212.026 242.492C212.987 242.492 213.529 242.97 213.529 243.773V246.388H212.773V245.846H212.713C212.487 246.233 212.086 246.451 211.58 246.451ZM211.073 245.283C211.073 245.634 211.372 245.842 211.784 245.842C212.354 245.842 212.773 245.469 212.773 244.976V244.649L211.84 244.709C211.312 244.741 211.073 244.931 211.073 245.275V245.283ZM215.995 246.412C215.154 246.412 214.809 246.117 214.809 245.381V243.167H214.211V242.566H214.809V241.601H215.587V242.566H216.407V243.167H215.587V245.198C215.587 245.61 215.741 245.779 216.118 245.779C216.234 245.779 216.301 245.775 216.407 245.765V246.373C216.283 246.395 216.143 246.412 215.995 246.412ZM217.831 246.44C217.538 246.44 217.313 246.215 217.313 245.93C217.313 245.641 217.538 245.416 217.831 245.416C218.123 245.416 218.344 245.641 218.344 245.93C218.344 246.215 218.123 246.44 217.831 246.44ZM221.493 246.451C220.958 246.451 220.539 246.205 220.317 245.786H220.261V246.388H219.497V241.067H220.261V243.171H220.317C220.521 242.759 220.968 242.499 221.493 242.499C222.464 242.499 223.076 243.263 223.076 244.473V244.48C223.076 245.68 222.457 246.451 221.493 246.451ZM221.278 245.8C221.915 245.8 222.299 245.3 222.299 244.48V244.473C222.299 243.653 221.915 243.153 221.278 243.153C220.641 243.153 220.247 243.657 220.247 244.473V244.48C220.247 245.297 220.641 245.8 221.278 245.8ZM223.969 246.388V241.067H224.733V246.388H223.969ZM227.434 246.461C226.311 246.461 225.625 245.712 225.625 244.48V244.473C225.625 243.245 226.315 242.492 227.434 242.492C228.55 242.492 229.239 243.241 229.239 244.473V244.48C229.239 245.712 228.553 246.461 227.434 246.461ZM227.434 245.824C228.089 245.824 228.462 245.325 228.462 244.48V244.473C228.462 243.625 228.089 243.129 227.434 243.129C226.776 243.129 226.406 243.625 226.406 244.473V244.48C226.406 245.328 226.776 245.824 227.434 245.824ZM231.705 246.461C230.589 246.461 229.907 245.701 229.907 244.466V244.459C229.907 243.248 230.586 242.492 231.701 242.492C232.662 242.492 233.236 243.034 233.341 243.776V243.794L232.609 243.797L232.606 243.787C232.521 243.41 232.212 243.129 231.705 243.129C231.068 243.129 230.684 243.636 230.684 244.459V244.466C230.684 245.311 231.075 245.824 231.705 245.824C232.184 245.824 232.479 245.606 232.602 245.195L232.609 245.177H233.341L233.334 245.209C233.197 245.951 232.652 246.461 231.705 246.461ZM234.188 246.388V241.067H234.952V244.177H235.008L236.525 242.566H237.419L235.825 244.177L237.524 246.388H236.595L235.279 244.67L234.952 244.997V246.388H234.188ZM239.409 246.461C238.487 246.461 237.903 246.029 237.829 245.388V245.385H238.593L238.596 245.388C238.691 245.677 238.969 245.87 239.423 245.87C239.895 245.87 240.222 245.656 240.222 245.342V245.335C240.222 245.096 240.043 244.934 239.599 244.832L238.991 244.691C238.269 244.526 237.935 244.199 237.935 243.639V243.636C237.935 242.97 238.554 242.492 239.42 242.492C240.293 242.492 240.852 242.928 240.919 243.551V243.555H240.191V243.548C240.117 243.28 239.846 243.08 239.416 243.08C238.998 243.08 238.695 243.287 238.695 243.593V243.6C238.695 243.84 238.871 243.987 239.3 244.09L239.906 244.227C240.641 244.399 240.993 244.712 240.993 245.265V245.272C240.993 245.979 240.317 246.461 239.409 246.461ZM243.459 246.461C242.343 246.461 241.66 245.701 241.66 244.466V244.459C241.66 243.248 242.34 242.492 243.455 242.492C244.416 242.492 244.989 243.034 245.095 243.776V243.794L244.363 243.797L244.36 243.787C244.275 243.41 243.965 243.129 243.459 243.129C242.822 243.129 242.438 243.636 242.438 244.459V244.466C242.438 245.311 242.829 245.824 243.459 245.824C243.937 245.824 244.233 245.606 244.356 245.195L244.363 245.177H245.095L245.088 245.209C244.951 245.951 244.405 246.461 243.459 246.461ZM246.955 246.451C246.227 246.451 245.688 246.007 245.688 245.314V245.307C245.688 244.624 246.202 244.227 247.114 244.17L248.148 244.111V243.773C248.148 243.354 247.884 243.122 247.367 243.122C246.945 243.122 246.667 243.277 246.575 243.548L246.572 243.562H245.836L245.84 243.537C245.931 242.911 246.533 242.492 247.402 242.492C248.363 242.492 248.905 242.97 248.905 243.773V246.388H248.148V245.846H248.089C247.863 246.233 247.462 246.451 246.955 246.451ZM246.449 245.283C246.449 245.634 246.748 245.842 247.159 245.842C247.73 245.842 248.148 245.469 248.148 244.976V244.649L247.216 244.709C246.688 244.741 246.449 244.931 246.449 245.275V245.283ZM249.928 246.388V242.566H250.691V243.146H250.748C250.934 242.738 251.3 242.492 251.856 242.492C252.711 242.492 253.183 243.002 253.183 243.914V246.388H252.423V244.093C252.423 243.46 252.159 243.146 251.599 243.146C251.04 243.146 250.691 243.53 250.691 244.146V246.388H249.928ZM254.783 246.44C254.491 246.44 254.266 246.215 254.266 245.93C254.266 245.641 254.491 245.416 254.783 245.416C255.075 245.416 255.297 245.641 255.297 245.93C255.297 246.215 255.075 246.44 254.783 246.44ZM257.882 246.461C256.766 246.461 256.084 245.701 256.084 244.466V244.459C256.084 243.248 256.763 242.492 257.879 242.492C258.839 242.492 259.413 243.034 259.518 243.776V243.794L258.786 243.797L258.783 243.787C258.698 243.41 258.389 243.129 257.882 243.129C257.245 243.129 256.861 243.636 256.861 244.459V244.466C256.861 245.311 257.252 245.824 257.882 245.824C258.361 245.824 258.656 245.606 258.779 245.195L258.786 245.177H259.518L259.511 245.209C259.374 245.951 258.829 246.461 257.882 246.461ZM261.949 246.461C260.826 246.461 260.14 245.712 260.14 244.48V244.473C260.14 243.245 260.83 242.492 261.949 242.492C263.064 242.492 263.754 243.241 263.754 244.473V244.48C263.754 245.712 263.068 246.461 261.949 246.461ZM261.949 245.824C262.603 245.824 262.976 245.325 262.976 244.48V244.473C262.976 243.625 262.603 243.129 261.949 243.129C261.291 243.129 260.921 243.625 260.921 244.473V244.48C260.921 245.328 261.291 245.824 261.949 245.824ZM264.612 246.388V242.566H265.375V243.153H265.432C265.601 242.735 265.974 242.492 266.473 242.492C266.994 242.492 267.364 242.763 267.533 243.175H267.592C267.786 242.763 268.226 242.492 268.757 242.492C269.528 242.492 269.978 242.956 269.978 243.752V246.388H269.218V243.935C269.218 243.407 268.979 243.146 268.479 243.146C267.994 243.146 267.673 243.509 267.673 243.97V246.388H266.913V243.857C266.913 243.421 266.628 243.146 266.178 243.146C265.717 243.146 265.375 243.541 265.375 244.04V246.388H264.612ZM272.725 241.067L271.174 247.661H270.456L272.008 241.067H272.725ZM275.86 247.661V245.81H275.8C275.599 246.215 275.167 246.451 274.621 246.451C273.657 246.451 273.037 245.68 273.037 244.48V244.473C273.037 243.263 273.65 242.499 274.628 242.499C275.142 242.499 275.585 242.766 275.814 243.199H275.86V242.566H276.62V247.661H275.86ZM274.843 245.8C275.473 245.8 275.874 245.29 275.874 244.48V244.473C275.874 243.66 275.473 243.153 274.839 243.153C274.202 243.153 273.815 243.653 273.815 244.473V244.48C273.815 245.3 274.202 245.8 274.843 245.8ZM277.66 246.388V242.566H278.424V243.143H278.48C278.618 242.738 278.973 242.499 279.483 242.499C279.606 242.499 279.74 242.516 279.818 242.534V243.238C279.68 243.21 279.55 243.192 279.406 243.192C278.822 243.192 278.424 243.551 278.424 244.104V246.388H277.66Z" fill="#5082F7" style="fill:#5082F7;fill:color(display-p3 0.3137 0.5098 0.9686);fill-opacity:1;"/>
<path d="M224.852 155.254C225.579 155.254 226.306 155.981 226.306 156.708V158.163C226.306 158.981 225.579 159.617 224.852 159.617H223.397C222.579 159.617 221.943 158.981 221.943 158.163V156.708C221.943 155.981 222.579 155.254 223.397 155.254H224.852ZM215.397 153.072C215.397 150.708 217.306 148.708 219.761 148.708H228.488C230.852 148.708 232.852 150.708 232.852 153.072V161.799C232.852 164.254 230.852 166.163 228.488 166.163H219.761C217.306 166.163 215.397 164.254 215.397 161.799V153.072ZM219.761 161.799H228.488V153.072H219.761V161.799ZM221.943 179.981C221.943 179.254 222.579 178.527 223.397 178.527H224.852C225.579 178.527 226.306 179.254 226.306 179.981V181.436C226.306 182.254 225.579 182.891 224.852 182.891H223.397C222.579 182.891 221.943 182.254 221.943 181.436V179.981ZM215.397 176.345C215.397 173.981 217.306 171.981 219.761 171.981H228.488C230.852 171.981 232.852 173.981 232.852 176.345V185.072C232.852 187.527 230.852 189.436 228.488 189.436H219.761C217.306 189.436 215.397 187.527 215.397 185.072V176.345ZM219.761 185.072H228.488V176.345H219.761V185.072ZM248.125 155.254C248.852 155.254 249.58 155.981 249.58 156.708V158.163C249.58 158.981 248.852 159.617 248.125 159.617H246.671C245.852 159.617 245.216 158.981 245.216 158.163V156.708C245.216 155.981 245.852 155.254 246.671 155.254H248.125ZM251.762 148.708C254.125 148.708 256.125 150.708 256.125 153.072V161.799C256.125 164.254 254.125 166.163 251.762 166.163H243.034C240.58 166.163 238.67 164.254 238.67 161.799V153.072C238.67 150.708 240.58 148.708 243.034 148.708H251.762ZM251.762 153.072H243.034V161.799H251.762V153.072ZM250.307 189.436H247.398V186.527H250.307V189.436ZM253.216 186.527H256.125V189.436H253.216V186.527ZM256.125 183.618H247.398V180.709H244.489V189.436H238.67V171.981H247.398V174.89H253.216V171.981H256.125V183.618Z" fill="#888888" style="fill:#888888;fill:color(display-p3 0.5333 0.5333 0.5333);fill-opacity:1;"/>
</g>
</g>
<path d="M159.806 19.3348C160.957 19.3348 161.959 20.1537 161.959 22.098V22.1055C161.959 23.9227 161.141 24.9996 159.783 24.9996C158.792 24.9996 158.052 24.4125 157.88 23.5862L157.873 23.5451H158.822L158.834 23.5825C158.976 23.9601 159.308 24.2069 159.783 24.2069C160.639 24.2069 161.002 23.3693 161.043 22.3373C161.043 22.2962 161.047 22.2551 161.047 22.2139H160.972C160.774 22.6402 160.303 23.0178 159.563 23.0178C158.527 23.0178 157.802 22.2626 157.802 21.238V21.2306C157.802 20.135 158.635 19.3348 159.806 19.3348ZM159.802 22.2775C160.411 22.2775 160.879 21.8363 160.879 21.2268V21.2193C160.879 20.6024 160.411 20.1201 159.813 20.1201C159.219 20.1201 158.744 20.5949 158.744 21.1969V21.2044C158.744 21.8288 159.189 22.2775 159.802 22.2775ZM163.473 21.3689C163.133 21.3689 162.879 21.1072 162.879 20.7781C162.879 20.4454 163.133 20.1874 163.473 20.1874C163.817 20.1874 164.068 20.4454 164.068 20.7781C164.068 21.1072 163.817 21.3689 163.473 21.3689ZM163.473 24.1433C163.133 24.1433 162.879 23.8853 162.879 23.5525C162.879 23.2198 163.133 22.9618 163.473 22.9618C163.817 22.9618 164.068 23.2198 164.068 23.5525C164.068 23.8853 163.817 24.1433 163.473 24.1433ZM167.604 24.865V23.8292H164.964V23.0403C165.664 21.8251 166.43 20.5837 167.163 19.4695H168.528V23.0328H169.253V23.8292H168.528V24.865H167.604ZM165.862 23.0552H167.619V20.2397H167.563C167.01 21.0847 166.385 22.0831 165.862 22.9992V23.0552ZM171.305 24.865V20.4192H171.242L169.9 21.3689V20.4603L171.309 19.4695H172.27V24.865H171.305Z" fill="white" style="fill:white;fill-opacity:1;"/>
<path opacity="0.35" d="M304.004 18.892H311.662C312.533 18.892 313.239 19.5979 313.239 20.4686V22.7208C313.239 23.5916 312.533 24.2974 311.662 24.2974H304.004C303.134 24.2974 302.428 23.5916 302.428 22.7208V20.4686C302.428 19.5979 303.134 18.892 304.004 18.892Z" stroke="white" style="stroke:white;stroke-opacity:1;" stroke-width="0.45045"/>
<path opacity="0.4" d="M313.914 20.919V22.8201C314.297 22.6591 314.546 22.2845 314.546 21.8696C314.546 21.4546 314.297 21.08 313.914 20.919" fill="white" style="fill:white;fill-opacity:1;"/>
<path d="M303.104 20.4686C303.104 19.971 303.507 19.5677 304.004 19.5677H311.662C312.16 19.5677 312.563 19.971 312.563 20.4686V22.7208C312.563 23.2184 312.16 23.6217 311.662 23.6217H304.004C303.507 23.6217 303.104 23.2184 303.104 22.7208V20.4686Z" fill="white" style="fill:white;fill-opacity:1;"/>
<path fill-rule="evenodd" clip-rule="evenodd" d="M295.221 20.2828C296.332 20.2828 297.401 20.7186 298.206 21.5C298.266 21.5603 298.363 21.5596 298.423 21.4983L299.003 20.9012C299.033 20.8701 299.05 20.828 299.05 20.7842C299.049 20.7404 299.032 20.6985 299.001 20.6678C296.888 18.6004 293.554 18.6004 291.44 20.6678C291.41 20.6985 291.392 20.7404 291.392 20.7842C291.392 20.828 291.408 20.8701 291.439 20.9012L292.018 21.4983C292.078 21.5597 292.175 21.5604 292.236 21.5C293.041 20.7185 294.11 20.2828 295.221 20.2828ZM295.237 22.0854C295.847 22.0854 296.436 22.317 296.889 22.7352C296.95 22.7946 297.046 22.7933 297.106 22.7323L297.685 22.1352C297.715 22.1039 297.732 22.0614 297.732 22.0173C297.731 21.9731 297.714 21.931 297.682 21.9003C296.304 20.5919 294.17 20.5919 292.793 21.9003C292.761 21.931 292.744 21.9731 292.743 22.0173C292.743 22.0615 292.76 22.104 292.79 22.1352L293.369 22.7323C293.429 22.7933 293.525 22.7946 293.586 22.7352C294.039 22.3173 294.627 22.0857 295.237 22.0854ZM296.414 23.2509C296.415 23.2952 296.398 23.3378 296.367 23.3689L295.366 24.4005C295.336 24.4308 295.296 24.4479 295.254 24.4479C295.213 24.4479 295.173 24.4308 295.143 24.4005L294.142 23.3689C294.111 23.3378 294.094 23.2951 294.095 23.2508C294.096 23.2066 294.114 23.1646 294.147 23.135C294.786 22.5828 295.723 22.5828 296.362 23.135C296.395 23.1647 296.413 23.2066 296.414 23.2509Z" fill="white" style="fill:white;fill-opacity:1;"/>
<path d="M284.185 20.4686C284.185 20.2198 284.386 20.0181 284.635 20.0181H285.086C285.334 20.0181 285.536 20.2198 285.536 20.4686V24.0722C285.536 24.3209 285.334 24.5226 285.086 24.5226H284.635C284.386 24.5226 284.185 24.3209 284.185 24.0722V20.4686Z" fill="white" style="fill:white;fill-opacity:1;"/>
<path d="M286.437 19.5677C286.437 19.3189 286.639 19.1172 286.887 19.1172H287.338C287.587 19.1172 287.788 19.3189 287.788 19.5677V24.0722C287.788 24.3209 287.587 24.5226 287.338 24.5226H286.887C286.639 24.5226 286.437 24.3209 286.437 24.0722V19.5677Z" fill="white" style="fill:white;fill-opacity:1;"/>
<path d="M281.932 22.0451C281.932 21.7964 282.134 21.5947 282.383 21.5947H282.833C283.082 21.5947 283.284 21.7964 283.284 22.0451V24.0722C283.284 24.3209 283.082 24.5226 282.833 24.5226H282.383C282.134 24.5226 281.932 24.3209 281.932 24.0722V22.0451Z" fill="white" style="fill:white;fill-opacity:1;"/>
<path d="M279.68 23.1713C279.68 22.9225 279.882 22.7208 280.131 22.7208H280.581C280.83 22.7208 281.032 22.9225 281.032 23.1713V24.0722C281.032 24.3209 280.83 24.5226 280.581 24.5226H280.131C279.882 24.5226 279.68 24.3209 279.68 24.0722V23.1713Z" fill="white" style="fill:white;fill-opacity:1;"/>
</g>
</g>
<rect x="207.797" y="16.4146" width="55.8559" height="16.2162" rx="8.10811" fill="black" style="fill:black;fill-opacity:1;"/>
<g opacity="0.75">
<rect x="248.489" y="20.62" width="7.80527" height="7.80527" rx="3.90263" fill="#121212" style="fill:#121212;fill:color(display-p3 0.0712 0.0712 0.0712);fill-opacity:1;"/>
<rect x="248.489" y="20.62" width="7.80527" height="7.80527" rx="3.90263" stroke="#0E0E0E" style="stroke:#0E0E0E;stroke:color(display-p3 0.0549 0.0549 0.0549);stroke-opacity:1;" stroke-width="0.302841"/>
<g filter="url(#filter21_f_57_10102)">
<path d="M251.491 22.7208C249.954 23.1212 249.442 25.4235 251.491 26.3244C250.979 25.1232 250.979 24.0221 251.491 22.7208Z" fill="#50A99A" style="fill:#50A99A;fill:color(display-p3 0.3123 0.6629 0.6032);fill-opacity:1;"/>
</g>
<g filter="url(#filter22_f_57_10102)">
<path d="M251.153 23.5524C250.385 23.768 250.129 25.0077 251.153 25.4928C250.897 24.846 250.897 24.2531 251.153 23.5524Z" fill="#50A99A" style="fill:#50A99A;fill:color(display-p3 0.3123 0.6629 0.6032);fill-opacity:1;"/>
</g>
<g opacity="0.4" filter="url(#filter23_f_57_10102)">
<path d="M251.47 23.2394C250.812 23.3276 250.331 24.9471 251.126 25.3771C250.844 24.7996 250.985 23.6446 251.47 23.2394Z" fill="#D0FFF7" style="fill:#D0FFF7;fill:color(display-p3 0.8170 1.0000 0.9688);fill-opacity:1;"/>
</g>
<g filter="url(#filter24_f_57_10102)">
<path d="M252.842 22.7208C254.379 23.1212 254.891 25.4235 252.842 26.3244C253.355 25.1232 253.355 24.0221 252.842 22.7208Z" fill="#3E518C" style="fill:#3E518C;fill:color(display-p3 0.2431 0.3176 0.5490);fill-opacity:1;"/>
</g>
<g filter="url(#filter25_f_57_10102)">
<path d="M253.18 23.5523C253.949 23.7679 254.205 25.0076 253.18 25.4927C253.436 24.8459 253.436 24.253 253.18 23.5523Z" fill="#26408D" style="fill:#26408D;fill:color(display-p3 0.1490 0.2510 0.5529);fill-opacity:1;"/>
</g>
<g opacity="0.5" filter="url(#filter26_f_57_10102)">
<path d="M252.863 23.2394C253.521 23.3276 254.003 24.9471 253.207 25.3771C253.489 24.7996 253.348 23.6446 252.863 23.2394Z" fill="#0D308C" style="fill:#0D308C;fill:color(display-p3 0.0510 0.1882 0.5490);fill-opacity:1;"/>
</g>
</g>
<g style="mix-blend-mode:screen" opacity="0.75">
<rect x="329.419" y="42.5407" width="3.15315" height="2.7027" fill="#7C7C7C" style="fill:#7C7C7C;fill:color(display-p3 0.4879 0.4879 0.4879);fill-opacity:1;"/>
</g>
<g style="mix-blend-mode:screen" opacity="0.75">
<rect x="138.428" y="42.5407" width="3.15315" height="2.25225" fill="#7C7C7C" style="fill:#7C7C7C;fill:color(display-p3 0.4879 0.4879 0.4879);fill-opacity:1;"/>
</g>
<g style="mix-blend-mode:screen" opacity="0.75">
<rect x="292.482" y="2.00009" width="2.7027" height="3.15315" fill="#7C7C7C" style="fill:#7C7C7C;fill:color(display-p3 0.4879 0.4879 0.4879);fill-opacity:1;"/>
</g>
</g>
</g>
<g filter="url(#filter27_d_57_10102)">
<rect x="37" y="58" width="36" height="36" rx="4.5" fill="#252525" style="fill:#252525;fill:color(display-p3 0.1451 0.1451 0.1451);fill-opacity:1;"/>
<rect x="37.5" y="58.5" width="35" height="35" rx="4" stroke="#333333" style="stroke:#333333;stroke:color(display-p3 0.2000 0.2000 0.2000);stroke-opacity:1;"/>
<g opacity="0.8">
<path d="M58.9375 67.25C60.168 67.25 61.1875 68.2695 61.1875 69.5V83C61.1875 84.2656 60.168 85.25 58.9375 85.25H51.0625C49.7969 85.25 48.8125 84.2656 48.8125 83V69.5C48.8125 68.2695 49.7969 67.25 51.0625 67.25H58.9375ZM59.5 83V69.5C59.5 69.2188 59.2187 68.9375 58.9375 68.9375H51.0625C50.7461 68.9375 50.5 69.2188 50.5 69.5V83C50.5 83.3164 50.7461 83.5625 51.0625 83.5625H58.9375C59.2187 83.5625 59.5 83.3164 59.5 83ZM56.125 81.3125C56.4063 81.3125 56.6875 81.5938 56.6875 81.875C56.6875 82.1914 56.4063 82.4375 56.125 82.4375H53.875C53.5586 82.4375 53.3125 82.1914 53.3125 81.875C53.3125 81.5938 53.5586 81.3125 53.875 81.3125H56.125Z" fill="#6F9AFF" fill-opacity="0.8" style="fill:#6F9AFF;fill:color(display-p3 0.4353 0.6039 1.0000);fill-opacity:0.8;"/>
</g>
</g>
<g filter="url(#filter28_d_57_10102)">
<rect x="385" y="169" width="36" height="36" rx="4.5" fill="#252525" style="fill:#252525;fill:color(display-p3 0.1451 0.1451 0.1451);fill-opacity:1;"/>
<rect x="385.5" y="169.5" width="35" height="35" rx="4" stroke="#333333" style="stroke:#333333;stroke:color(display-p3 0.2000 0.2000 0.2000);stroke-opacity:1;"/>
<g opacity="0.8">
<path d="M413.406 190.625C413.863 190.625 414.25 191.012 414.25 191.469V192.031C414.25 193.754 412.844 195.125 411.156 195.125H394.844C393.121 195.125 391.75 193.754 391.75 192.031V191.469C391.75 191.012 392.102 190.625 392.594 190.625H413.406ZM411.156 193.438C411.824 193.438 412.387 192.98 412.527 192.313H393.438C393.578 192.98 394.141 193.438 394.844 193.438H411.156ZM395.688 181.344V189.5H394V181.344C394 180.289 394.879 179.375 395.969 179.375H410.031C411.086 179.375 412 180.289 412 181.344V189.5H410.312V181.344C410.312 181.203 410.172 181.063 410.031 181.063H395.969C395.793 181.063 395.688 181.203 395.688 181.344Z" fill="#5082F7" style="fill:#5082F7;fill:color(display-p3 0.3137 0.5098 0.9686);fill-opacity:1;"/>
</g>
</g>
</g>
<defs>
<filter id="filter0_d_57_10102" x="-6" y="0" width="480" height="408" filterUnits="userSpaceOnUse" color-interpolation-filters="sRGB">
<feFlood flood-opacity="0" result="BackgroundImageFix"/>
<feColorMatrix in="SourceAlpha" type="matrix" values="0 0 0 0 0 0 0 0 0 0 0 0 0 0 0 0 0 0 127 0" result="hardAlpha"/>
<feOffset dy="2"/>
<feGaussianBlur stdDeviation="2"/>
<feComposite in2="hardAlpha" operator="out"/>
<feColorMatrix type="matrix" values="0 0 0 0 0 0 0 0 0 0 0 0 0 0 0 0 0 0 0.075 0"/>
<feBlend mode="normal" in2="BackgroundImageFix" result="effect1_dropShadow_57_10102"/>
<feBlend mode="normal" in="SourceGraphic" in2="effect1_dropShadow_57_10102" result="shape"/>
</filter>
<filter id="filter1_f_57_10102" x="331.745" y="122.344" width="2.5551" height="48.501" filterUnits="userSpaceOnUse" color-interpolation-filters="sRGB">
<feFlood flood-opacity="0" result="BackgroundImageFix"/>
<feBlend mode="normal" in="SourceGraphic" in2="BackgroundImageFix" result="shape"/>
<feGaussianBlur stdDeviation="0.0757103" result="effect1_foregroundBlur_57_10102"/>
</filter>
<filter id="filter2_f_57_10102" x="332.195" y="122.795" width="1.65419" height="47.6001" filterUnits="userSpaceOnUse" color-interpolation-filters="sRGB">
<feFlood flood-opacity="0" result="BackgroundImageFix"/>
<feBlend mode="normal" in="SourceGraphic" in2="BackgroundImageFix" result="shape"/>
<feGaussianBlur stdDeviation="0.0757103" result="effect1_foregroundBlur_57_10102"/>
</filter>
<filter id="filter3_f_57_10102" x="332.421" y="123.02" width="1.20375" height="3.45601" filterUnits="userSpaceOnUse" color-interpolation-filters="sRGB">
<feFlood flood-opacity="0" result="BackgroundImageFix"/>
<feBlend mode="normal" in="SourceGraphic" in2="BackgroundImageFix" result="shape"/>
<feGaussianBlur stdDeviation="0.0757103" result="effect1_foregroundBlur_57_10102"/>
</filter>
<filter id="filter4_f_57_10102" x="332.421" y="166.714" width="1.20375" height="3.45601" filterUnits="userSpaceOnUse" color-interpolation-filters="sRGB">
<feFlood flood-opacity="0" result="BackgroundImageFix"/>
<feBlend mode="normal" in="SourceGraphic" in2="BackgroundImageFix" result="shape"/>
<feGaussianBlur stdDeviation="0.0757103" result="effect1_foregroundBlur_57_10102"/>
</filter>
<filter id="filter5_f_57_10102" x="136.7" y="83.1549" width="2.55508" height="14.7172" filterUnits="userSpaceOnUse" color-interpolation-filters="sRGB">
<feFlood flood-opacity="0" result="BackgroundImageFix"/>
<feBlend mode="normal" in="SourceGraphic" in2="BackgroundImageFix" result="shape"/>
<feGaussianBlur stdDeviation="0.0757103" result="effect1_foregroundBlur_57_10102"/>
</filter>
<filter id="filter6_f_57_10102" x="137.15" y="83.6727" width="1.65419" height="13.8164" filterUnits="userSpaceOnUse" color-interpolation-filters="sRGB">
<feFlood flood-opacity="0" result="BackgroundImageFix"/>
<feBlend mode="normal" in="SourceGraphic" in2="BackgroundImageFix" result="shape"/>
<feGaussianBlur stdDeviation="0.0757103" result="effect1_foregroundBlur_57_10102"/>
</filter>
<filter id="filter7_f_57_10102" x="137.376" y="83.8979" width="1.20374" height="2.10463" filterUnits="userSpaceOnUse" color-interpolation-filters="sRGB">
<feFlood flood-opacity="0" result="BackgroundImageFix"/>
<feBlend mode="normal" in="SourceGraphic" in2="BackgroundImageFix" result="shape"/>
<feGaussianBlur stdDeviation="0.0757103" result="effect1_foregroundBlur_57_10102"/>
</filter>
<filter id="filter8_f_57_10102" x="137.376" y="95.1592" width="1.20374" height="2.10463" filterUnits="userSpaceOnUse" color-interpolation-filters="sRGB">
<feFlood flood-opacity="0" result="BackgroundImageFix"/>
<feBlend mode="normal" in="SourceGraphic" in2="BackgroundImageFix" result="shape"/>
<feGaussianBlur stdDeviation="0.0757103" result="effect1_foregroundBlur_57_10102"/>
</filter>
<filter id="filter9_f_57_10102" x="136.7" y="111.533" width="2.55508" height="31.3839" filterUnits="userSpaceOnUse" color-interpolation-filters="sRGB">
<feFlood flood-opacity="0" result="BackgroundImageFix"/>
<feBlend mode="normal" in="SourceGraphic" in2="BackgroundImageFix" result="shape"/>
<feGaussianBlur stdDeviation="0.0757103" result="effect1_foregroundBlur_57_10102"/>
</filter>
<filter id="filter10_f_57_10102" x="137.15" y="111.984" width="1.65419" height="30.483" filterUnits="userSpaceOnUse" color-interpolation-filters="sRGB">
<feFlood flood-opacity="0" result="BackgroundImageFix"/>
<feBlend mode="normal" in="SourceGraphic" in2="BackgroundImageFix" result="shape"/>
<feGaussianBlur stdDeviation="0.0757103" result="effect1_foregroundBlur_57_10102"/>
</filter>
<filter id="filter11_f_57_10102" x="137.376" y="112.209" width="1.65419" height="3.45601" filterUnits="userSpaceOnUse" color-interpolation-filters="sRGB">
<feFlood flood-opacity="0" result="BackgroundImageFix"/>
<feBlend mode="normal" in="SourceGraphic" in2="BackgroundImageFix" result="shape"/>
<feGaussianBlur stdDeviation="0.0757103" result="effect1_foregroundBlur_57_10102"/>
</filter>
<filter id="filter12_f_57_10102" x="137.376" y="138.786" width="1.65419" height="3.45601" filterUnits="userSpaceOnUse" color-interpolation-filters="sRGB">
<feFlood flood-opacity="0" result="BackgroundImageFix"/>
<feBlend mode="normal" in="SourceGraphic" in2="BackgroundImageFix" result="shape"/>
<feGaussianBlur stdDeviation="0.0757103" result="effect1_foregroundBlur_57_10102"/>
</filter>
<filter id="filter13_f_57_10102" x="136.7" y="150.272" width="2.55508" height="31.3839" filterUnits="userSpaceOnUse" color-interpolation-filters="sRGB">
<feFlood flood-opacity="0" result="BackgroundImageFix"/>
<feBlend mode="normal" in="SourceGraphic" in2="BackgroundImageFix" result="shape"/>
<feGaussianBlur stdDeviation="0.0757103" result="effect1_foregroundBlur_57_10102"/>
</filter>
<filter id="filter14_f_57_10102" x="137.224" y="150.796" width="1.50659" height="30.3354" filterUnits="userSpaceOnUse" color-interpolation-filters="sRGB">
<feFlood flood-opacity="0" result="BackgroundImageFix"/>
<feBlend mode="normal" in="SourceGraphic" in2="BackgroundImageFix" result="shape"/>
<feGaussianBlur stdDeviation="0.0757103" result="effect1_foregroundBlur_57_10102"/>
</filter>
<filter id="filter15_f_57_10102" x="137.376" y="150.948" width="1.65419" height="3.45601" filterUnits="userSpaceOnUse" color-interpolation-filters="sRGB">
<feFlood flood-opacity="0" result="BackgroundImageFix"/>
<feBlend mode="normal" in="SourceGraphic" in2="BackgroundImageFix" result="shape"/>
<feGaussianBlur stdDeviation="0.0757103" result="effect1_foregroundBlur_57_10102"/>
</filter>
<filter id="filter16_f_57_10102" x="137.376" y="177.524" width="1.65419" height="3.45601" filterUnits="userSpaceOnUse" color-interpolation-filters="sRGB">
<feFlood flood-opacity="0" result="BackgroundImageFix"/>
<feBlend mode="normal" in="SourceGraphic" in2="BackgroundImageFix" result="shape"/>
<feGaussianBlur stdDeviation="0.0757103" result="effect1_foregroundBlur_57_10102"/>
</filter>
<filter id="filter17_f_57_10102" x="138.424" y="1.9959" width="194.152" height="400.008" filterUnits="userSpaceOnUse" color-interpolation-filters="sRGB">
<feFlood flood-opacity="0" result="BackgroundImageFix"/>
<feBlend mode="normal" in="SourceGraphic" in2="BackgroundImageFix" result="shape"/>
<feGaussianBlur stdDeviation="0.227131" result="effect1_foregroundBlur_57_10102"/>
</filter>
<filter id="filter18_f_57_10102" x="141.278" y="4.84993" width="188.444" height="394.299" filterUnits="userSpaceOnUse" color-interpolation-filters="sRGB">
<feFlood flood-opacity="0" result="BackgroundImageFix"/>
<feBlend mode="normal" in="SourceGraphic" in2="BackgroundImageFix" result="shape"/>
<feGaussianBlur stdDeviation="0.151421" result="effect1_foregroundBlur_57_10102"/>
</filter>
<filter id="filter19_b_57_10102" x="112.113" y="1.09922" width="247.748" height="431.081" filterUnits="userSpaceOnUse" color-interpolation-filters="sRGB">
<feFlood flood-opacity="0" result="BackgroundImageFix"/>
<feGaussianBlur in="BackgroundImageFix" stdDeviation="18.018"/>
<feComposite in2="SourceAlpha" operator="in" result="effect1_backgroundBlur_57_10102"/>
<feBlend mode="normal" in="SourceGraphic" in2="effect1_backgroundBlur_57_10102" result="shape"/>
</filter>
<filter id="filter20_b_57_10102" x="279.515" y="20.3039" width="62.4916" height="62.4916" filterUnits="userSpaceOnUse" color-interpolation-filters="sRGB">
<feFlood flood-opacity="0" result="BackgroundImageFix"/>
<feGaussianBlur in="BackgroundImageFix" stdDeviation="12.2445"/>
<feComposite in2="SourceAlpha" operator="in" result="effect1_backgroundBlur_57_10102"/>
<feBlend mode="normal" in="SourceGraphic" in2="effect1_backgroundBlur_57_10102" result="shape"/>
</filter>
<filter id="filter21_f_57_10102" x="249.296" y="21.8772" width="3.03861" height="5.29087" filterUnits="userSpaceOnUse" color-interpolation-filters="sRGB">
<feFlood flood-opacity="0" result="BackgroundImageFix"/>
<feBlend mode="normal" in="SourceGraphic" in2="BackgroundImageFix" result="shape"/>
<feGaussianBlur stdDeviation="0.421815" result="effect1_foregroundBlur_57_10102"/>
</filter>
<filter id="filter22_f_57_10102" x="249.634" y="22.7088" width="2.36295" height="3.62766" filterUnits="userSpaceOnUse" color-interpolation-filters="sRGB">
<feFlood flood-opacity="0" result="BackgroundImageFix"/>
<feBlend mode="normal" in="SourceGraphic" in2="BackgroundImageFix" result="shape"/>
<feGaussianBlur stdDeviation="0.421815" result="effect1_foregroundBlur_57_10102"/>
</filter>
<filter id="filter23_f_57_10102" x="250.149" y="22.677" width="1.88338" height="3.26256" filterUnits="userSpaceOnUse" color-interpolation-filters="sRGB">
<feFlood flood-opacity="0" result="BackgroundImageFix"/>
<feBlend mode="normal" in="SourceGraphic" in2="BackgroundImageFix" result="shape"/>
<feGaussianBlur stdDeviation="0.28121" result="effect1_foregroundBlur_57_10102"/>
</filter>
<filter id="filter24_f_57_10102" x="251.999" y="21.8772" width="3.03861" height="5.29087" filterUnits="userSpaceOnUse" color-interpolation-filters="sRGB">
<feFlood flood-opacity="0" result="BackgroundImageFix"/>
<feBlend mode="normal" in="SourceGraphic" in2="BackgroundImageFix" result="shape"/>
<feGaussianBlur stdDeviation="0.421815" result="effect1_foregroundBlur_57_10102"/>
</filter>
<filter id="filter25_f_57_10102" x="252.337" y="22.7086" width="2.36295" height="3.62766" filterUnits="userSpaceOnUse" color-interpolation-filters="sRGB">
<feFlood flood-opacity="0" result="BackgroundImageFix"/>
<feBlend mode="normal" in="SourceGraphic" in2="BackgroundImageFix" result="shape"/>
<feGaussianBlur stdDeviation="0.421815" result="effect1_foregroundBlur_57_10102"/>
</filter>
<filter id="filter26_f_57_10102" x="252.301" y="22.677" width="1.88338" height="3.26256" filterUnits="userSpaceOnUse" color-interpolation-filters="sRGB">
<feFlood flood-opacity="0" result="BackgroundImageFix"/>
<feBlend mode="normal" in="SourceGraphic" in2="BackgroundImageFix" result="shape"/>
<feGaussianBlur stdDeviation="0.28121" result="effect1_foregroundBlur_57_10102"/>
</filter>
<filter id="filter27_d_57_10102" x="25" y="47" width="60" height="60" filterUnits="userSpaceOnUse" color-interpolation-filters="sRGB">
<feFlood flood-opacity="0" result="BackgroundImageFix"/>
<feColorMatrix in="SourceAlpha" type="matrix" values="0 0 0 0 0 0 0 0 0 0 0 0 0 0 0 0 0 0 127 0" result="hardAlpha"/>
<feOffset dy="1"/>
<feGaussianBlur stdDeviation="6"/>
<feComposite in2="hardAlpha" operator="out"/>
<feColorMatrix type="matrix" values="0 0 0 0 0.0588235 0 0 0 0 0.341176 0 0 0 0 1 0 0 0 0.1 0"/>
<feBlend mode="normal" in2="BackgroundImageFix" result="effect1_dropShadow_57_10102"/>
<feBlend mode="normal" in="SourceGraphic" in2="effect1_dropShadow_57_10102" result="shape"/>
</filter>
<filter id="filter28_d_57_10102" x="373" y="158" width="60" height="60" filterUnits="userSpaceOnUse" color-interpolation-filters="sRGB">
<feFlood flood-opacity="0" result="BackgroundImageFix"/>
<feColorMatrix in="SourceAlpha" type="matrix" values="0 0 0 0 0 0 0 0 0 0 0 0 0 0 0 0 0 0 127 0" result="hardAlpha"/>
<feOffset dy="1"/>
<feGaussianBlur stdDeviation="6"/>
<feComposite in2="hardAlpha" operator="out"/>
<feColorMatrix type="matrix" values="0 0 0 0 0.0588235 0 0 0 0 0.341176 0 0 0 0 1 0 0 0 0.1 0"/>
<feBlend mode="normal" in2="BackgroundImageFix" result="effect1_dropShadow_57_10102"/>
<feBlend mode="normal" in="SourceGraphic" in2="effect1_dropShadow_57_10102" result="shape"/>
</filter>
<linearGradient id="paint0_linear_57_10102" x1="-2" y1="132.5" x2="470" y2="132.5" gradientUnits="userSpaceOnUse">
<stop stop-color="#6F9AFF" stop-opacity="0.5" style="stop-color:#6F9AFF;stop-color:color(display-p3 0.4353 0.6039 1.0000);stop-opacity:0.5;"/>
<stop offset="0.535" stop-color="#6F9AFF" style="stop-color:#6F9AFF;stop-color:color(display-p3 0.4353 0.6039 1.0000);stop-opacity:1;"/>
<stop offset="1" stop-color="#6F9AFF" stop-opacity="0.5" style="stop-color:#6F9AFF;stop-color:color(display-p3 0.4353 0.6039 1.0000);stop-opacity:0.5;"/>
</linearGradient>
<linearGradient id="paint1_linear_57_10102" x1="0.45045" y1="0" x2="0.45045" y2="3.15315" gradientUnits="userSpaceOnUse">
<stop stop-color="#2D2E2A" style="stop-color:#2D2E2A;stop-color:color(display-p3 0.1756 0.1795 0.1661);stop-opacity:1;"/>
<stop offset="0.760033" stop-color="#565553" style="stop-color:#565553;stop-color:color(display-p3 0.3373 0.3333 0.3255);stop-opacity:1;"/>
</linearGradient>
<linearGradient id="paint2_linear_57_10102" x1="333.923" y1="170.018" x2="333.923" y2="173.171" gradientUnits="userSpaceOnUse">
<stop stop-color="#2D2E2A" style="stop-color:#2D2E2A;stop-color:color(display-p3 0.1756 0.1795 0.1661);stop-opacity:1;"/>
<stop offset="0.760033" stop-color="#565553" style="stop-color:#565553;stop-color:color(display-p3 0.3373 0.3333 0.3255);stop-opacity:1;"/>
</linearGradient>
<linearGradient id="paint3_linear_57_10102" x1="137.977" y1="84.0493" x2="137.977" y2="85.8511" gradientUnits="userSpaceOnUse">
<stop stop-color="#2D2E2A" style="stop-color:#2D2E2A;stop-color:color(display-p3 0.1756 0.1795 0.1661);stop-opacity:1;"/>
<stop offset="0.760033" stop-color="#565553" style="stop-color:#565553;stop-color:color(display-p3 0.3373 0.3333 0.3255);stop-opacity:1;"/>
</linearGradient>
<linearGradient id="paint4_linear_57_10102" x1="0.45045" y1="0" x2="0.45045" y2="1.8018" gradientUnits="userSpaceOnUse">
<stop stop-color="#2D2E2A" style="stop-color:#2D2E2A;stop-color:color(display-p3 0.1756 0.1795 0.1661);stop-opacity:1;"/>
<stop offset="0.760033" stop-color="#565553" style="stop-color:#565553;stop-color:color(display-p3 0.3373 0.3333 0.3255);stop-opacity:1;"/>
</linearGradient>
<linearGradient id="paint5_linear_57_10102" x1="138.203" y1="112.36" x2="138.203" y2="115.514" gradientUnits="userSpaceOnUse">
<stop stop-color="#2D2E2A" style="stop-color:#2D2E2A;stop-color:color(display-p3 0.1756 0.1795 0.1661);stop-opacity:1;"/>
<stop offset="0.760033" stop-color="#565553" style="stop-color:#565553;stop-color:color(display-p3 0.3373 0.3333 0.3255);stop-opacity:1;"/>
</linearGradient>
<linearGradient id="paint6_linear_57_10102" x1="0.675676" y1="0" x2="0.675676" y2="3.15315" gradientUnits="userSpaceOnUse">
<stop stop-color="#2D2E2A" style="stop-color:#2D2E2A;stop-color:color(display-p3 0.1756 0.1795 0.1661);stop-opacity:1;"/>
<stop offset="0.760033" stop-color="#565553" style="stop-color:#565553;stop-color:color(display-p3 0.3373 0.3333 0.3255);stop-opacity:1;"/>
</linearGradient>
<linearGradient id="paint7_linear_57_10102" x1="138.203" y1="151.099" x2="138.203" y2="154.252" gradientUnits="userSpaceOnUse">
<stop stop-color="#2D2E2A" style="stop-color:#2D2E2A;stop-color:color(display-p3 0.1756 0.1795 0.1661);stop-opacity:1;"/>
<stop offset="0.760033" stop-color="#565553" style="stop-color:#565553;stop-color:color(display-p3 0.3373 0.3333 0.3255);stop-opacity:1;"/>
</linearGradient>
<linearGradient id="paint8_linear_57_10102" x1="0.675676" y1="0" x2="0.675676" y2="3.15315" gradientUnits="userSpaceOnUse">
<stop stop-color="#2D2E2A" style="stop-color:#2D2E2A;stop-color:color(display-p3 0.1756 0.1795 0.1661);stop-opacity:1;"/>
<stop offset="0.760033" stop-color="#565553" style="stop-color:#565553;stop-color:color(display-p3 0.3373 0.3333 0.3255);stop-opacity:1;"/>
</linearGradient>
<clipPath id="clip0_57_10102">
<rect width="196.847" height="400" fill="white" style="fill:white;fill-opacity:1;" transform="translate(137.077 2)"/>
</clipPath>
<clipPath id="clip1_57_10102">
<path d="M333.923 122.946C333.923 122.822 333.823 122.721 333.698 122.721H332.572V170.468H333.698C333.823 170.468 333.923 170.368 333.923 170.243V122.946Z" fill="white" style="fill:white;fill-opacity:1;"/>
</clipPath>
<clipPath id="clip2_57_10102">
<path d="M137.077 83.7568C137.077 83.6324 137.177 83.5316 137.302 83.5316H138.878V97.4956H137.302C137.177 97.4956 137.077 97.3947 137.077 97.2703V83.7568Z" fill="white" style="fill:white;fill-opacity:1;"/>
</clipPath>
<clipPath id="clip3_57_10102">
<path d="M137.077 112.135C137.077 112.011 137.177 111.91 137.302 111.91H138.428V142.541H137.302C137.177 142.541 137.077 142.44 137.077 142.315V112.135Z" fill="white" style="fill:white;fill-opacity:1;"/>
</clipPath>
<clipPath id="clip4_57_10102">
<path d="M137.077 150.874C137.077 150.75 137.177 150.649 137.302 150.649H138.428V181.279H137.302C137.177 181.279 137.077 181.179 137.077 181.054V150.874Z" fill="white" style="fill:white;fill-opacity:1;"/>
</clipPath>
<clipPath id="clip5_57_10102">
<rect x="138.428" y="2.00006" width="194.144" height="400" rx="31.5315" fill="white" style="fill:white;fill-opacity:1;"/>
</clipPath>
<clipPath id="clip6_57_10102">
<rect x="146.986" y="10.1082" width="177.027" height="383.784" rx="24.9865" fill="white" style="fill:white;fill-opacity:1;"/>
</clipPath>
<clipPath id="clip7_57_10102">
<rect width="175.676" height="380.18" fill="white" style="fill:white;fill-opacity:1;" transform="translate(148.149 10.1082)"/>
</clipPath>
<clipPath id="clip8_57_10102">
<path d="M148.149 42.5406C148.149 39.5553 150.569 37.1353 153.554 37.1353H318.419C321.404 37.1353 323.824 39.5553 323.824 42.5407V396.144H148.149V42.5406Z" fill="white" style="fill:white;fill-opacity:1;"/>
</clipPath>
</defs>
</svg>
