<svg width="450" height="123" viewBox="0 0 450 123" fill="none" xmlns="http://www.w3.org/2000/svg">
<path d="M171.111 33.9645C162.712 33.9645 156.274 38.7466 156.274 45.8583C156.274 52.7248 161.731 55.1158 168.536 56.4032L177.119 57.8133C188.461 59.7139 196.37 64.925 196.37 77.3705C196.37 90.3678 185.702 97.9087 172.153 97.9087C159.891 97.9087 148.366 90.6743 146.71 76.5735C146.588 75.4087 147.507 74.3664 148.672 74.3664H153.822C154.803 74.3664 155.661 75.1021 155.784 76.0831C157.01 86.0763 164.735 90.0613 172.276 90.0613C180.552 90.0613 187.112 85.9536 187.112 77.6771C187.112 70.3201 181.84 67.6839 174.851 66.3964L166.39 64.925C154.496 62.9019 147.017 57.2615 147.017 46.3487C147.017 33.7806 157.991 26.1171 171.172 26.1171C181.717 26.1171 193.304 32.064 195.511 46.0422C195.695 47.2684 194.776 48.3106 193.549 48.3106H188.216C187.235 48.3106 186.438 47.6362 186.254 46.6553C184.721 37.3365 177.916 33.9645 171.111 33.9645Z" fill="white"/>
<path d="M230.456 41.6894C243.146 41.6894 252.159 48.4946 255.347 59.53C255.714 60.7562 254.734 62.0436 253.446 62.0436H247.438C246.58 62.0436 245.844 61.4918 245.599 60.6948C243.392 54.3801 238.242 50.8243 230.456 50.8243C219.849 50.8243 213.902 59.4687 213.902 69.8297C213.902 80.1908 219.849 88.8352 230.456 88.8352C238.242 88.8352 243.392 85.218 245.599 78.9646C245.905 78.1676 246.641 77.6158 247.438 77.6158H253.385C254.672 77.6158 255.653 78.9033 255.285 80.1294C251.852 91.6553 243.146 97.9087 230.394 97.9087C214.086 97.9087 203.664 85.2793 203.664 69.8297C203.787 54.3188 214.148 41.6894 230.456 41.6894Z" fill="white"/>
<path d="M264.974 88.8964H277.787V53.3992H266.384C265.28 53.3992 264.422 52.5409 264.422 51.4373V46.4101C264.422 45.3065 265.28 44.4482 266.384 44.4482H281.895C285.144 44.4482 287.841 47.0844 287.841 50.3951V51.8052C290.662 45 296.731 43.3447 306.172 43.3447C309.79 43.3447 312.181 43.9577 313.529 44.4482C314.326 44.7547 314.817 45.4904 314.817 46.2874V51.4986C314.817 52.8474 313.529 53.767 312.242 53.3992C310.525 52.8474 308.196 52.3569 305.069 52.3569C295.014 52.3569 287.841 59.2234 287.841 71.0558V88.8964H304.272C305.375 88.8964 306.234 89.7547 306.234 90.8583V95.8855C306.234 96.9891 305.375 97.8474 304.272 97.8474H264.974C263.87 97.8474 263.012 96.9891 263.012 95.8855V90.8583C263.012 89.7547 263.87 88.8964 264.974 88.8964Z" fill="white"/>
<path d="M322.295 69.7684C322.295 54.3188 332.595 41.6894 349.209 41.6894C365.824 41.6894 376.123 54.3188 376.123 69.7684C376.123 85.218 365.824 97.8474 349.209 97.8474C332.595 97.8474 322.295 85.218 322.295 69.7684ZM349.209 88.7739C359.938 88.7739 366.069 80.1294 366.069 69.7684C366.069 59.4074 359.877 50.763 349.209 50.763C338.48 50.763 332.349 59.4074 332.349 69.7684C332.349 80.1294 338.48 88.7739 349.209 88.7739Z" fill="white"/>
<path d="M398.44 89.3256H413.89C414.993 89.3256 415.852 90.1839 415.852 91.2875V95.8856C415.852 96.9891 414.993 97.8474 413.89 97.8474H390.777C389.673 97.8474 388.815 96.9891 388.815 95.8856V35.0681H381.151C380.048 35.0681 379.189 34.2098 379.189 33.1063V28.5082C379.189 27.4046 380.048 26.5463 381.151 26.5463H392.555C395.804 26.5463 398.501 29.1826 398.501 32.4932V89.3256H398.44Z" fill="white"/>
<path d="M432.589 89.3256H448.038C449.142 89.3256 450 90.1839 450 91.2875V95.8856C450 96.9891 449.142 97.8474 448.038 97.8474H424.925C423.822 97.8474 422.963 96.9891 422.963 95.8856V35.0681H415.3C414.196 35.0681 413.338 34.2098 413.338 33.1063V28.5082C413.338 27.4046 414.196 26.5463 415.3 26.5463H426.703C429.952 26.5463 432.65 29.1826 432.65 32.4932V89.3256H432.589Z" fill="white"/>
<path d="M15.6335 47.391C10.8515 42.8542 7.47956 37.03 7.47956 30.0409V29.3052C7.84741 17.4114 17.6567 7.84741 29.4891 7.47956H105.143C107.105 7.54087 108.699 8.95095 108.699 10.9741V74.9796C110.477 75.2861 111.274 75.5313 112.929 76.1444C114.217 76.6349 116.117 77.6771 116.117 77.6771V10.9741C115.995 4.90463 111.213 0 105.143 0H29.4891C13.1812 0.245232 0 13.6104 0 29.9796C0 39.4823 4.35286 47.6362 11.4646 53.3379C11.955 53.7057 12.3842 54.1962 13.6717 54.1962C15.8787 54.1962 17.4728 52.4183 17.3501 50.5177C17.2888 48.9237 16.6144 48.3719 15.6335 47.391Z" fill="white"/>
<path d="M103.18 79.2098H43.8344C39.8494 79.2711 36.6614 82.4591 36.6614 86.4441V94.9659C36.784 98.8896 40.1559 102.262 44.0796 102.262H48.4938V94.9659H44.0796V86.6281C44.0796 86.6281 45.1832 86.6281 46.4706 86.6281C53.9502 86.6281 59.4679 93.6172 59.4679 101.035C59.4679 107.595 53.4597 116.056 43.4052 115.381C34.4543 114.768 29.6723 106.86 29.6723 101.035V28.6921C29.6723 25.4428 27.036 22.7452 23.7254 22.7452H17.8398V30.1022H22.254V100.974C22.0088 115.381 32.4924 122.677 43.4665 122.677L103.242 122.861C115.319 122.861 125.067 113.052 125.067 101.035C125.067 89.0191 115.258 79.2098 103.18 79.2098ZM117.588 101.526C117.343 109.251 110.967 115.443 103.18 115.443L61.6137 115.259C64.9243 111.396 66.9475 106.431 66.9475 101.035C66.9475 92.5136 61.8589 86.6281 61.8589 86.6281H103.242C111.212 86.6281 117.649 93.0654 117.649 101.035L117.588 101.526Z" fill="white"/>
<path d="M87.2411 31.5123H42.4863V24.1553H87.2411C89.2643 24.1553 90.9196 25.8106 90.9196 27.8338C90.9196 29.857 89.2643 31.5123 87.2411 31.5123Z" fill="white"/>
<path d="M87.2411 66.3351H42.4863V58.9781H87.2411C89.2643 58.9781 90.9196 60.6335 90.9196 62.6566C90.9196 64.6798 89.2643 66.3351 87.2411 66.3351Z" fill="white"/>
<path d="M95.0885 48.9237H42.4863V41.5668H95.0885C97.1117 41.5668 98.767 43.2221 98.767 45.2452C98.767 47.2684 97.173 48.9237 95.0885 48.9237Z" fill="white"/>
</svg>
