<svg width="539" height="122" viewBox="0 0 539 122" fill="none" xmlns="http://www.w3.org/2000/svg">
<path d="M25.1752 57.4745C25.1754 56.7983 25.309 56.1288 25.5686 55.5044C25.8282 54.8801 26.2086 54.3131 26.6878 53.8361C27.1671 53.3592 27.7359 52.9816 28.3616 52.725C28.9872 52.4685 29.6573 52.338 30.3335 52.3412L38.8853 52.3691C40.2489 52.3691 41.5566 52.9108 42.5208 53.875C43.4849 54.8392 44.0266 56.1469 44.0266 57.5104V89.8494C44.9898 89.5639 46.2225 89.2595 47.5789 88.9401C48.5187 88.719 49.3562 88.1869 49.9557 87.4302C50.5552 86.6734 50.8815 85.7364 50.8817 84.771V44.6597C50.8817 43.296 51.4233 41.9882 52.3875 41.0239C53.3516 40.0596 54.6593 39.5177 56.023 39.5174H64.6008C65.9644 39.5177 67.2721 40.0596 68.2363 41.0239C69.2004 41.9882 69.7421 43.296 69.7421 44.6597V81.8894C69.7421 81.8894 71.888 81.021 73.9771 80.1387C74.7533 79.8104 75.4158 79.2607 75.8817 78.5584C76.3477 77.856 76.5964 77.032 76.5971 76.1892V31.806C76.5971 30.4426 77.1387 29.135 78.1026 28.1709C79.0666 27.2067 80.374 26.6649 81.7374 26.6647H90.3062C91.6689 26.666 92.9753 27.2083 93.9384 28.1723C94.9015 29.1363 95.4425 30.4433 95.4425 31.806V68.354C102.871 62.9701 110.4 56.4943 116.375 48.708C117.242 47.5778 117.815 46.2506 118.045 44.8448C118.274 43.439 118.151 41.9983 117.689 40.6513C114.923 32.6944 110.527 25.4025 104.781 19.2423C99.0355 13.082 92.0672 8.18891 84.3221 4.87622C76.577 1.56354 68.2256 -0.0958463 59.8024 0.0042754C51.3792 0.104397 43.0696 1.96181 35.4054 5.45766C27.7413 8.95351 20.8913 14.0108 15.2938 20.3059C9.69626 26.6011 5.47454 33.9954 2.89876 42.0157C0.322968 50.0361 -0.55016 58.5058 0.335237 66.8829C1.22063 75.2601 3.84506 83.3601 8.04058 90.6648C8.77153 91.9249 9.84694 92.9503 11.1404 93.6204C12.4339 94.2904 13.8918 94.5775 15.3428 94.4477C16.9637 94.3049 18.9819 94.1033 21.3814 93.8218C22.4257 93.703 23.3898 93.2043 24.0902 92.4206C24.7905 91.6368 25.1781 90.6229 25.1792 89.5719V57.4745" fill="white"/>
<path d="M24.9922 109.338C34.0243 115.908 44.6982 119.852 55.8327 120.733C66.9673 121.614 78.1285 119.398 88.0816 114.329C98.0347 109.261 106.392 101.537 112.228 92.014C118.064 82.4907 121.152 71.5384 121.15 60.369C121.15 58.9717 121.085 57.5963 120.992 56.2249C98.8707 89.2175 58.0258 104.641 24.9922 109.338Z" fill="#D64F49"/>
<path d="M163.559 68.532C159.86 68.532 156.516 67.8987 153.527 66.632C150.588 65.3653 148.258 63.5413 146.535 61.16C144.812 58.7787 143.926 55.9667 143.875 52.724H155.275C155.427 54.9027 156.187 56.6254 157.555 57.892C158.974 59.1587 160.899 59.792 163.331 59.792C165.814 59.792 167.764 59.2094 169.183 58.044C170.602 56.828 171.311 55.2573 171.311 53.332C171.311 51.7613 170.83 50.4694 169.867 49.456C168.904 48.4427 167.688 47.6574 166.219 47.1C164.8 46.492 162.824 45.8333 160.291 45.124C156.846 44.1107 154.034 43.1227 151.855 42.16C149.727 41.1467 147.878 39.652 146.307 37.676C144.787 35.6493 144.027 32.964 144.027 29.62C144.027 26.4787 144.812 23.7427 146.383 21.412C147.954 19.0813 150.158 17.308 152.995 16.092C155.832 14.8253 159.075 14.192 162.723 14.192C168.195 14.192 172.628 15.5347 176.023 18.22C179.468 20.8547 181.368 24.5533 181.723 29.316H170.019C169.918 27.492 169.132 25.9973 167.663 24.832C166.244 23.616 164.344 23.008 161.963 23.008C159.886 23.008 158.214 23.54 156.947 24.604C155.731 25.668 155.123 27.2133 155.123 29.24C155.123 30.6587 155.579 31.8493 156.491 32.812C157.454 33.724 158.619 34.484 159.987 35.092C161.406 35.6493 163.382 36.308 165.915 37.068C169.36 38.0813 172.172 39.0947 174.351 40.108C176.53 41.1213 178.404 42.6414 179.975 44.668C181.546 46.6947 182.331 49.3547 182.331 52.648C182.331 55.4854 181.596 58.12 180.127 60.552C178.658 62.984 176.504 64.9347 173.667 66.404C170.83 67.8227 167.46 68.532 163.559 68.532Z" fill="white"/>
<path d="M214.888 25.288C219.904 25.288 223.957 26.884 227.048 30.076C230.138 33.2173 231.684 37.6254 231.684 43.3V68H221.044V44.744C221.044 41.4 220.207 38.8413 218.535 37.068C216.863 35.244 214.584 34.332 211.696 34.332C208.757 34.332 206.426 35.244 204.704 37.068C203.032 38.8413 202.195 41.4 202.195 44.744V68H191.556V25.896H202.195V31.14C203.614 29.316 205.413 27.8973 207.591 26.884C209.821 25.82 212.253 25.288 214.888 25.288Z" fill="white"/>
<path d="M260.498 68.684C256.444 68.684 252.796 67.7974 249.554 66.024C246.311 64.2 243.752 61.6413 241.878 58.348C240.054 55.0547 239.142 51.2547 239.142 46.948C239.142 42.6413 240.079 38.8413 241.954 35.548C243.879 32.2547 246.488 29.7213 249.782 27.948C253.075 26.124 256.748 25.212 260.802 25.212C264.855 25.212 268.528 26.124 271.822 27.948C275.115 29.7213 277.699 32.2547 279.574 35.548C281.499 38.8413 282.462 42.6413 282.462 46.948C282.462 51.2547 281.474 55.0547 279.498 58.348C277.572 61.6413 274.938 64.2 271.594 66.024C268.3 67.7974 264.602 68.684 260.498 68.684ZM260.498 59.412C262.423 59.412 264.222 58.956 265.894 58.044C267.616 57.0814 268.984 55.6627 269.998 53.788C271.011 51.9134 271.518 49.6334 271.518 46.948C271.518 42.9454 270.454 39.88 268.326 37.752C266.248 35.5733 263.69 34.484 260.65 34.484C257.61 34.484 255.051 35.5733 252.974 37.752C250.947 39.88 249.934 42.9454 249.934 46.948C249.934 50.9507 250.922 54.0413 252.898 56.22C254.924 58.348 257.458 59.412 260.498 59.412Z" fill="white"/>
<path d="M348.634 25.896L336.322 68H324.846L317.17 38.588L309.494 68H297.942L285.554 25.896H296.346L303.794 57.968L311.85 25.896H323.098L331.002 57.892L338.45 25.896H348.634Z" fill="white"/>
<path d="M372.707 68.532C369.009 68.532 365.665 67.8987 362.675 66.632C359.737 65.3653 357.406 63.5413 355.683 61.16C353.961 58.7787 353.074 55.9667 353.023 52.724H364.423C364.575 54.9027 365.335 56.6254 366.703 57.892C368.122 59.1587 370.047 59.792 372.479 59.792C374.962 59.792 376.913 59.2094 378.331 58.044C379.75 56.828 380.459 55.2573 380.459 53.332C380.459 51.7613 379.978 50.4694 379.015 49.456C378.053 48.4427 376.837 47.6574 375.367 47.1C373.949 46.492 371.973 45.8333 369.439 45.124C365.994 44.1107 363.182 43.1227 361.003 42.16C358.875 41.1467 357.026 39.652 355.455 37.676C353.935 35.6493 353.175 32.964 353.175 29.62C353.175 26.4787 353.961 23.7427 355.531 21.412C357.102 19.0813 359.306 17.308 362.143 16.092C364.981 14.8253 368.223 14.192 371.871 14.192C377.343 14.192 381.777 15.5347 385.171 18.22C388.617 20.8547 390.517 24.5533 390.871 29.316H379.167C379.066 27.492 378.281 25.9973 376.811 24.832C375.393 23.616 373.493 23.008 371.111 23.008C369.034 23.008 367.362 23.54 366.095 24.604C364.879 25.668 364.271 27.2133 364.271 29.24C364.271 30.6587 364.727 31.8493 365.639 32.812C366.602 33.724 367.767 34.484 369.135 35.092C370.554 35.6493 372.53 36.308 375.063 37.068C378.509 38.0813 381.321 39.0947 383.499 40.108C385.678 41.1213 387.553 42.6414 389.123 44.668C390.694 46.6947 391.479 49.3547 391.479 52.648C391.479 55.4854 390.745 58.12 389.275 60.552C387.806 62.984 385.653 64.9347 382.815 66.404C379.978 67.8227 376.609 68.532 372.707 68.532Z" fill="white"/>
<path d="M397.968 46.948C397.968 42.5907 398.855 38.7907 400.628 35.548C402.401 32.2547 404.859 29.7213 408 27.948C411.141 26.124 414.739 25.212 418.792 25.212C424.011 25.212 428.317 26.5293 431.712 29.164C435.157 31.748 437.463 35.396 438.628 40.108H427.152C426.544 38.284 425.505 36.8653 424.036 35.852C422.617 34.788 420.844 34.256 418.716 34.256C415.676 34.256 413.269 35.3707 411.496 37.6C409.723 39.7787 408.836 42.8947 408.836 46.948C408.836 50.9507 409.723 54.0667 411.496 56.296C413.269 58.4747 415.676 59.564 418.716 59.564C423.023 59.564 425.835 57.6387 427.152 53.788H438.628C437.463 58.348 435.157 61.9707 431.712 64.656C428.267 67.3414 423.96 68.684 418.792 68.684C414.739 68.684 411.141 67.7974 408 66.024C404.859 64.2 402.401 61.6667 400.628 58.424C398.855 55.1307 397.968 51.3054 397.968 46.948Z" fill="white"/>
<path d="M443.687 46.796C443.687 42.54 444.523 38.7654 446.195 35.472C447.917 32.1787 450.223 29.6453 453.111 27.872C456.049 26.0987 459.317 25.212 462.915 25.212C466.056 25.212 468.792 25.8453 471.123 27.112C473.504 28.3787 475.404 29.9747 476.823 31.9V25.896H487.539V68H476.823V61.844C475.455 63.82 473.555 65.4667 471.123 66.784C468.741 68.0507 465.98 68.684 462.839 68.684C459.292 68.684 456.049 67.772 453.111 65.948C450.223 64.124 447.917 61.5653 446.195 58.272C444.523 54.928 443.687 51.1027 443.687 46.796ZM476.823 46.948C476.823 44.364 476.316 42.16 475.303 40.336C474.289 38.4613 472.921 37.0427 471.199 36.08C469.476 35.0667 467.627 34.56 465.651 34.56C463.675 34.56 461.851 35.0413 460.179 36.004C458.507 36.9667 457.139 38.3853 456.075 40.26C455.061 42.084 454.555 44.2627 454.555 46.796C454.555 49.3293 455.061 51.5587 456.075 53.484C457.139 55.3587 458.507 56.8027 460.179 57.816C461.901 58.8294 463.725 59.336 465.651 59.336C467.627 59.336 469.476 58.8547 471.199 57.892C472.921 56.8787 474.289 55.46 475.303 53.636C476.316 51.7614 476.823 49.532 476.823 46.948Z" fill="white"/>
<path d="M521.263 25.288C526.279 25.288 530.332 26.884 533.423 30.076C536.513 33.2173 538.059 37.6254 538.059 43.3V68H527.418V44.744C527.418 41.4 526.582 38.8413 524.91 37.068C523.238 35.244 520.958 34.332 518.07 34.332C515.132 34.332 512.801 35.244 511.078 37.068C509.406 38.8413 508.57 41.4 508.57 44.744V68H497.931V25.896H508.57V31.14C509.989 29.316 511.788 27.8973 513.966 26.884C516.196 25.82 518.628 25.288 521.263 25.288Z" fill="white"/>
<path d="M151.795 113.217C150.203 113.217 148.777 112.959 147.517 112.442C146.256 111.925 145.243 111.161 144.479 110.148C143.735 109.135 143.342 107.916 143.301 106.49H148.943C149.025 107.296 149.304 107.916 149.78 108.35C150.255 108.763 150.875 108.97 151.64 108.97C152.425 108.97 153.045 108.794 153.5 108.443C153.954 108.071 154.182 107.565 154.182 106.924C154.182 106.387 153.996 105.942 153.624 105.591C153.272 105.24 152.828 104.95 152.291 104.723C151.774 104.496 151.03 104.237 150.059 103.948C148.653 103.514 147.506 103.08 146.618 102.646C145.729 102.212 144.964 101.571 144.324 100.724C143.683 99.8767 143.363 98.7711 143.363 97.4071C143.363 95.3817 144.096 93.8007 145.564 92.6641C147.031 91.5067 148.943 90.9281 151.299 90.9281C153.696 90.9281 155.628 91.5067 157.096 92.6641C158.563 93.8007 159.348 95.3921 159.452 97.4381H153.717C153.675 96.7354 153.417 96.1877 152.942 95.7951C152.466 95.3817 151.857 95.1751 151.113 95.1751C150.472 95.1751 149.955 95.3507 149.563 95.7021C149.17 96.0327 148.974 96.5184 148.974 97.1591C148.974 97.8617 149.304 98.4094 149.966 98.8021C150.627 99.1947 151.66 99.6184 153.066 100.073C154.471 100.548 155.608 101.003 156.476 101.437C157.364 101.871 158.129 102.501 158.77 103.328C159.41 104.155 159.731 105.219 159.731 106.521C159.731 107.761 159.41 108.887 158.77 109.9C158.15 110.913 157.24 111.719 156.042 112.318C154.843 112.917 153.427 113.217 151.795 113.217Z" fill="#CECECF"/>
<path d="M161.939 104.351C161.939 102.553 162.301 100.982 163.024 99.6391C163.768 98.2957 164.791 97.2624 166.093 96.5391C167.416 95.8157 168.924 95.4541 170.619 95.4541C172.789 95.4541 174.597 96.0224 176.044 97.1591C177.511 98.2957 178.472 99.8974 178.927 101.964H173.285C172.81 100.641 171.89 99.9801 170.526 99.9801C169.555 99.9801 168.78 100.362 168.201 101.127C167.622 101.871 167.333 102.946 167.333 104.351C167.333 105.756 167.622 106.841 168.201 107.606C168.78 108.35 169.555 108.722 170.526 108.722C171.89 108.722 172.81 108.061 173.285 106.738H178.927C178.472 108.763 177.511 110.355 176.044 111.512C174.577 112.669 172.768 113.248 170.619 113.248C168.924 113.248 167.416 112.886 166.093 112.163C164.791 111.44 163.768 110.406 163.024 109.063C162.301 107.72 161.939 106.149 161.939 104.351Z" fill="#CECECF"/>
<path d="M180.709 104.32C180.709 102.543 181.039 100.982 181.701 99.6391C182.383 98.2957 183.302 97.2624 184.46 96.5391C185.617 95.8157 186.909 95.4541 188.335 95.4541C189.554 95.4541 190.618 95.7021 191.528 96.1981C192.458 96.6941 193.171 97.3451 193.667 98.1511V95.7021H198.968V113H193.667V110.551C193.15 111.357 192.427 112.008 191.497 112.504C190.587 113 189.523 113.248 188.304 113.248C186.898 113.248 185.617 112.886 184.46 112.163C183.302 111.419 182.383 110.375 181.701 109.032C181.039 107.668 180.709 106.097 180.709 104.32ZM193.667 104.351C193.667 103.028 193.295 101.985 192.551 101.22C191.827 100.455 190.939 100.073 189.885 100.073C188.831 100.073 187.932 100.455 187.188 101.22C186.464 101.964 186.103 102.997 186.103 104.32C186.103 105.643 186.464 106.697 187.188 107.482C187.932 108.247 188.831 108.629 189.885 108.629C190.939 108.629 191.827 108.247 192.551 107.482C193.295 106.717 193.667 105.674 193.667 104.351Z" fill="#CECECF"/>
<path d="M213.343 95.5161C215.368 95.5161 216.98 96.1774 218.179 97.5001C219.398 98.8021 220.008 100.6 220.008 102.894V113H214.738V103.607C214.738 102.45 214.438 101.551 213.839 100.91C213.239 100.269 212.433 99.9491 211.421 99.9491C210.408 99.9491 209.602 100.269 209.003 100.91C208.403 101.551 208.104 102.45 208.104 103.607V113H202.803V95.7021H208.104V97.9961C208.641 97.2314 209.364 96.6321 210.274 96.1981C211.183 95.7434 212.206 95.5161 213.343 95.5161Z" fill="#CECECF"/>
<path d="M240.553 113.217C238.507 113.217 236.626 112.742 234.911 111.791C233.216 110.84 231.862 109.518 230.85 107.823C229.858 106.108 229.362 104.186 229.362 102.057C229.362 99.9284 229.858 98.0167 230.85 96.3221C231.862 94.6274 233.216 93.3047 234.911 92.3541C236.626 91.4034 238.507 90.9281 240.553 90.9281C242.599 90.9281 244.469 91.4034 246.164 92.3541C247.879 93.3047 249.222 94.6274 250.194 96.3221C251.186 98.0167 251.682 99.9284 251.682 102.057C251.682 104.186 251.186 106.108 250.194 107.823C249.202 109.518 247.858 110.84 246.164 111.791C244.469 112.742 242.599 113.217 240.553 113.217ZM240.553 108.381C242.289 108.381 243.673 107.802 244.707 106.645C245.761 105.488 246.288 103.958 246.288 102.057C246.288 100.135 245.761 98.6057 244.707 97.4691C243.673 96.3117 242.289 95.7331 240.553 95.7331C238.796 95.7331 237.391 96.3014 236.337 97.4381C235.303 98.5747 234.787 100.114 234.787 102.057C234.787 103.979 235.303 105.519 236.337 106.676C237.391 107.813 238.796 108.381 240.553 108.381Z" fill="#CECECF"/>
<path d="M259.932 98.5851C260.552 97.6344 261.327 96.8904 262.257 96.3531C263.187 95.7951 264.22 95.5161 265.357 95.5161V101.127H263.9C262.577 101.127 261.585 101.416 260.924 101.995C260.262 102.553 259.932 103.545 259.932 104.971V113H254.631V95.7021H259.932V98.5851Z" fill="#CECECF"/>
<path d="M270.557 93.9041C269.627 93.9041 268.862 93.6354 268.263 93.0981C267.684 92.5401 267.395 91.8581 267.395 91.0521C267.395 90.2254 267.684 89.5434 268.263 89.0061C268.862 88.4481 269.627 88.1691 270.557 88.1691C271.466 88.1691 272.21 88.4481 272.789 89.0061C273.388 89.5434 273.688 90.2254 273.688 91.0521C273.688 91.8581 273.388 92.5401 272.789 93.0981C272.21 93.6354 271.466 93.9041 270.557 93.9041ZM273.192 95.7021V113H267.891V95.7021H273.192Z" fill="#CECECF"/>
<path d="M283.605 95.4541C284.824 95.4541 285.889 95.7021 286.798 96.1981C287.728 96.6941 288.441 97.3451 288.937 98.1511V95.7021H294.238V112.969C294.238 114.56 293.918 115.997 293.277 117.278C292.657 118.58 291.696 119.613 290.394 120.378C289.113 121.143 287.511 121.525 285.589 121.525C283.026 121.525 280.949 120.915 279.358 119.696C277.767 118.497 276.857 116.865 276.63 114.798H281.869C282.034 115.459 282.427 115.976 283.047 116.348C283.667 116.741 284.432 116.937 285.341 116.937C286.436 116.937 287.304 116.617 287.945 115.976C288.606 115.356 288.937 114.354 288.937 112.969V110.52C288.42 111.326 287.707 111.987 286.798 112.504C285.889 113 284.824 113.248 283.605 113.248C282.179 113.248 280.887 112.886 279.73 112.163C278.573 111.419 277.653 110.375 276.971 109.032C276.31 107.668 275.979 106.097 275.979 104.32C275.979 102.543 276.31 100.982 276.971 99.6391C277.653 98.2957 278.573 97.2624 279.73 96.5391C280.887 95.8157 282.179 95.4541 283.605 95.4541ZM288.937 104.351C288.937 103.028 288.565 101.985 287.821 101.22C287.098 100.455 286.209 100.073 285.155 100.073C284.101 100.073 283.202 100.455 282.458 101.22C281.735 101.964 281.373 102.997 281.373 104.32C281.373 105.643 281.735 106.697 282.458 107.482C283.202 108.247 284.101 108.629 285.155 108.629C286.209 108.629 287.098 108.247 287.821 107.482C288.565 106.717 288.937 105.674 288.937 104.351Z" fill="#CECECF"/>
<path d="M300.739 93.9041C299.809 93.9041 299.044 93.6354 298.445 93.0981C297.866 92.5401 297.577 91.8581 297.577 91.0521C297.577 90.2254 297.866 89.5434 298.445 89.0061C299.044 88.4481 299.809 88.1691 300.739 88.1691C301.648 88.1691 302.392 88.4481 302.971 89.0061C303.57 89.5434 303.87 90.2254 303.87 91.0521C303.87 91.8581 303.57 92.5401 302.971 93.0981C302.392 93.6354 301.648 93.9041 300.739 93.9041ZM303.374 95.7021V113H298.073V95.7021H303.374Z" fill="#CECECF"/>
<path d="M317.756 95.5161C319.781 95.5161 321.393 96.1774 322.592 97.5001C323.811 98.8021 324.421 100.6 324.421 102.894V113H319.151V103.607C319.151 102.45 318.851 101.551 318.252 100.91C317.652 100.269 316.846 99.9491 315.834 99.9491C314.821 99.9491 314.015 100.269 313.416 100.91C312.816 101.551 312.517 102.45 312.517 103.607V113H307.216V95.7021H312.517V97.9961C313.054 97.2314 313.777 96.6321 314.687 96.1981C315.596 95.7434 316.619 95.5161 317.756 95.5161Z" fill="#CECECF"/>
<path d="M327.05 104.32C327.05 102.543 327.381 100.982 328.042 99.6391C328.724 98.2957 329.644 97.2624 330.801 96.5391C331.959 95.8157 333.25 95.4541 334.676 95.4541C335.896 95.4541 336.96 95.7021 337.869 96.1981C338.799 96.6941 339.512 97.3451 340.008 98.1511V95.7021H345.309V113H340.008V110.551C339.492 111.357 338.768 112.008 337.838 112.504C336.929 113 335.865 113.248 334.645 113.248C333.24 113.248 331.959 112.886 330.801 112.163C329.644 111.419 328.724 110.375 328.042 109.032C327.381 107.668 327.05 106.097 327.05 104.32ZM340.008 104.351C340.008 103.028 339.636 101.985 338.892 101.22C338.169 100.455 337.28 100.073 336.226 100.073C335.172 100.073 334.273 100.455 333.529 101.22C332.806 101.964 332.444 102.997 332.444 104.32C332.444 105.643 332.806 106.697 333.529 107.482C334.273 108.247 335.172 108.629 336.226 108.629C337.28 108.629 338.169 108.247 338.892 107.482C339.636 106.717 340.008 105.674 340.008 104.351Z" fill="#CECECF"/>
<path d="M354.445 90.0601V113H349.144V90.0601H354.445Z" fill="#CECECF"/>
</svg>
