<svg width="364" height="67" viewBox="0 0 364 67" fill="none" xmlns="http://www.w3.org/2000/svg">
<mask id="mask0_17617_6563" style="mask-type:luminance" maskUnits="userSpaceOnUse" x="0" y="0" width="364" height="67">
<path d="M363.882 0H0V67H363.882V0Z" fill="white"/>
</mask>
<g mask="url(#mask0_17617_6563)">
<path d="M73.5877 66.0173H64.4766V20.5286H82.6992C84.3719 20.5286 85.9784 20.7458 87.5239 21.1802C89.0695 21.6146 90.5142 22.2265 91.8581 23.0211C93.2023 23.8131 94.4296 24.7667 95.5405 25.8766C96.651 26.9864 97.6029 28.2182 98.3981 29.5718C99.1907 30.9252 99.8059 32.3741 100.241 33.9185C100.675 35.4628 100.893 37.0705 100.893 38.7394C100.893 41.2346 100.416 43.5868 99.4639 45.7987C98.512 48.0077 97.2106 49.9387 95.5589 51.5864C93.9074 53.234 91.9774 54.5372 89.7666 55.488C87.5558 56.4391 85.1991 56.9159 82.7017 56.9159H73.5905V66.0198L73.5877 66.0173ZM73.5877 29.6327V47.8408H82.6992C83.9478 47.8408 85.122 47.6024 86.2223 47.1283C87.3225 46.6515 88.2847 46.0025 89.1117 45.1786C89.9362 44.3548 90.5883 43.3856 91.063 42.2756C91.5402 41.1656 91.776 39.987 91.776 38.7394C91.776 37.4918 91.5374 36.3132 91.063 35.2032C90.5858 34.0932 89.9362 33.1265 89.1117 32.3001C88.2875 31.4763 87.3225 30.8247 86.2223 30.3504C85.122 29.8736 83.9478 29.638 82.6992 29.638H73.5877V29.6327Z" fill="#6F8AFE"/>
<path d="M126.582 66.0173H117.502V29.6327H103.82V20.5286H140.234V29.6327H126.584L126.582 66.0173Z" fill="#6F8AFE"/>
<path d="M189.857 43.4649C189.857 45.6211 189.576 47.7004 189.017 49.6975C188.455 51.695 187.667 53.5676 186.652 55.3132C185.637 57.0589 184.409 58.6482 182.97 60.0864C181.53 61.5247 179.943 62.7564 178.209 63.7815C176.472 64.8066 174.601 65.6014 172.589 66.1603C170.577 66.7192 168.493 67 166.335 67C164.177 67 162.096 66.7192 160.097 66.1603C158.098 65.6014 156.224 64.8066 154.477 63.7815C152.73 62.7564 151.14 61.5247 149.7 60.0864C148.261 58.6482 147.028 57.0561 146.002 55.3132C144.976 53.5676 144.181 51.6975 143.622 49.6975C143.06 47.7004 142.781 45.6211 142.781 43.4649C142.781 41.3088 143.062 39.224 143.622 37.2163C144.181 35.2085 144.976 33.3358 146.002 31.6008C147.028 29.8683 148.261 28.2818 149.7 26.8434C151.14 25.4051 152.733 24.1786 154.477 23.1641C156.224 22.1496 158.096 21.3603 160.097 20.8013C162.096 20.2425 164.177 19.9617 166.335 19.9617C168.493 19.9617 170.577 20.2425 172.589 20.8013C174.598 21.3629 176.472 22.1496 178.209 23.1641C179.943 24.1786 181.53 25.4051 182.97 26.8434C184.409 28.2818 185.637 29.8683 186.652 31.6008C187.667 33.3358 188.455 35.2057 189.017 37.2163C189.576 39.2268 189.857 41.3088 189.857 43.4649ZM180.809 43.4649C180.809 41.4783 180.428 39.6003 179.667 37.8335C178.906 36.0667 177.872 34.5357 176.571 33.2351C175.269 31.9344 173.734 30.904 171.968 30.1411C170.2 29.3809 168.323 28.9996 166.332 28.9996C164.341 28.9996 162.438 29.3809 160.681 30.1411C158.923 30.9015 157.388 31.9344 156.079 33.2351C154.766 34.5357 153.73 36.0694 152.966 37.8335C152.206 39.6003 151.824 41.4755 151.824 43.4649C151.824 45.4542 152.206 47.319 152.966 49.0647C153.727 50.8103 154.764 52.3359 156.079 53.6472C157.391 54.9581 158.926 55.9938 160.681 56.7568C162.438 57.517 164.32 57.8986 166.332 57.8986C168.345 57.8986 170.2 57.517 171.968 56.7568C173.736 55.9966 175.269 54.9609 176.571 53.6472C177.872 52.3359 178.903 50.8075 179.667 49.0647C180.43 47.3215 180.809 45.4542 180.809 43.4649Z" fill="#6F8AFE"/>
<path d="M194.781 34.17C194.781 32.2895 195.142 30.5227 195.86 28.8725C196.579 27.2222 197.559 25.7786 198.797 24.5416C200.035 23.3045 201.48 22.3271 203.132 21.6066C204.783 20.8888 206.549 20.5286 208.434 20.5286H229.323V29.6327H208.434C207.798 29.6327 207.207 29.7491 206.655 29.9822C206.104 30.2153 205.624 30.5386 205.21 30.9492C204.797 31.3624 204.476 31.8417 204.243 32.3928C204.009 32.9436 203.893 33.5343 203.893 34.17C203.893 34.8059 204.009 35.4019 204.243 35.9634C204.476 36.525 204.799 37.0097 205.21 37.4228C205.624 37.836 206.104 38.1568 206.655 38.3899C207.207 38.623 207.798 38.7394 208.434 38.7394H217.545C219.427 38.7394 221.201 39.0942 222.863 39.8016C224.525 40.5115 225.975 41.4836 227.213 42.7206C228.451 43.9576 229.424 45.4065 230.135 47.0675C230.842 48.7283 231.198 50.4976 231.198 52.3809C231.198 54.2644 230.842 56.0285 230.135 57.6786C229.424 59.3288 228.451 60.7726 227.213 62.0096C225.975 63.2466 224.525 64.224 222.863 64.9445C221.201 65.665 219.43 66.0226 217.545 66.0226H197.324V56.9184H217.545C218.179 56.9184 218.773 56.802 219.324 56.5689C219.875 56.3358 220.355 56.0126 220.769 55.6019C221.182 55.1887 221.503 54.7094 221.736 54.1583C221.97 53.61 222.086 53.0168 222.086 52.3809C222.086 51.7452 221.97 51.1545 221.736 50.6037C221.503 50.0526 221.18 49.5733 220.769 49.1598C220.358 48.7467 219.875 48.4262 219.324 48.1931C218.773 47.96 218.181 47.8436 217.545 47.8436H208.434C206.549 47.8436 204.783 47.4832 203.132 46.7654C201.48 46.0477 200.035 45.0675 198.797 43.8305C197.559 42.5936 196.581 41.1444 195.86 39.4836C195.142 37.8229 194.781 36.0535 194.781 34.17Z" fill="#6F8AFE"/>
<path d="M275.136 61.3553C273.021 63.1752 270.648 64.571 268.026 65.5433C265.402 66.5154 262.682 67.0028 259.866 67.0028C257.708 67.0028 255.628 66.722 253.629 66.1631C251.63 65.6042 249.756 64.8094 248.009 63.7843C246.262 62.7592 244.671 61.5275 243.232 60.0893C241.792 58.651 240.559 57.0589 239.534 55.3161C238.508 53.5704 237.712 51.7003 237.153 49.7004C236.591 47.7032 236.312 45.624 236.312 43.4677C236.312 41.3114 236.594 39.2269 237.153 37.2191C237.712 35.2113 238.508 33.3331 239.534 31.5877C240.559 29.8421 241.792 28.2528 243.232 26.8144C244.671 25.3761 246.264 24.1444 248.009 23.1192C249.756 22.0941 251.627 21.2995 253.629 20.7406C255.628 20.1817 257.708 19.9009 259.866 19.9009C262.682 19.9009 265.402 20.383 268.026 21.3445C270.651 22.306 273.021 23.7073 275.136 25.5482L270.311 33.4788C268.978 32.0406 267.4 30.9359 265.582 30.1651C263.761 29.3943 261.857 29.0077 259.869 29.0077C257.881 29.0077 255.975 29.389 254.217 30.1492C252.46 30.9094 250.925 31.9426 249.615 33.2432C248.303 34.5438 247.267 36.0773 246.503 37.8416C245.742 39.6082 245.36 41.4836 245.36 43.473C245.36 45.4623 245.742 47.3272 246.503 49.0728C247.264 50.8181 248.3 52.3441 249.615 53.6553C250.927 54.9663 252.462 56.002 254.217 56.7649C255.975 57.5251 257.857 57.9065 259.869 57.9065C261.881 57.9065 263.763 57.5198 265.582 56.749C267.403 55.9783 268.978 54.8736 270.311 53.4353L275.136 61.3659V61.3553Z" fill="#6F8AFE"/>
<path d="M317.936 66.0173H308.825V56.9131H290.604V66.0173H281.523V38.7369C281.523 36.2204 282.001 33.8576 282.954 31.6485C283.904 29.4392 285.2 27.5083 286.843 25.8607C288.483 24.2105 290.408 22.9099 292.618 21.959C294.828 21.008 297.194 20.5312 299.712 20.5312C302.232 20.5312 304.595 21.008 306.805 21.959C309.018 22.9099 310.949 24.2105 312.597 25.8607C314.251 27.511 315.55 29.4392 316.503 31.6485C317.456 33.8576 317.933 36.223 317.933 38.7369L317.936 66.0173ZM308.825 47.8408V38.7369C308.825 37.4893 308.588 36.3103 308.113 35.2006C307.635 34.0907 306.987 33.1239 306.163 32.2973C305.339 31.4738 304.366 30.8219 303.257 30.3479C302.145 29.8711 300.966 29.6355 299.717 29.6355C298.468 29.6355 297.289 29.8739 296.177 30.3479C295.068 30.8219 294.099 31.4738 293.272 32.2973C292.448 33.1211 291.797 34.0907 291.322 35.2006C290.844 36.3103 290.609 37.4893 290.609 38.7369V47.8408H308.831H308.825Z" fill="#6F8AFE"/>
<path d="M363.882 66.0173H354.136L336.582 36.072V66.0173H327.469V20.5286H337.214L354.771 50.5057V20.5286H363.882V66.0173Z" fill="#6F8AFE"/>
<path fill-rule="evenodd" clip-rule="evenodd" d="M0 26.4673V66.1206H52.9317V26.4673C52.9317 22.8092 52.2399 19.3737 50.8561 16.1606C49.4723 12.9476 47.5794 10.1424 45.1803 7.74523C42.7812 5.34802 39.9711 3.45675 36.7581 2.07405C33.5426 0.691351 30.107 0 26.4434 0C22.7797 0 19.3414 0.691351 16.1258 2.07405C12.9102 3.45675 10.1108 5.34802 7.72755 7.74523C5.34433 10.1424 3.45951 12.9502 2.0757 16.1606C0.691902 19.3737 0 22.8092 0 26.4673ZM13.6016 27.4897L15.8284 27.4208L16.2207 37.4784L37.1898 37.3964L37.2772 27.4208L39.2922 27.5215C39.2922 26.3613 26.3766 14.6243 26.3766 14.6243C26.3766 14.6243 13.6016 26.3613 13.6016 27.4897ZM15.1953 58.8813V44.4344H37.6888L15.1953 58.8813ZM37.5727 66.1206V51.8167L15.3047 66.1206H37.5727Z" fill="#6F8AFE"/>
</g>
</svg>
